<?xml version="1.0" encoding="UTF-8" standalone="no"?>
<!-- Created with Inkscape (http://www.inkscape.org/) -->

<svg
   xmlns:dc="http://purl.org/dc/elements/1.1/"
   xmlns:cc="http://creativecommons.org/ns#"
   xmlns:rdf="http://www.w3.org/1999/02/22-rdf-syntax-ns#"
   xmlns:svg="http://www.w3.org/2000/svg"
   xmlns="http://www.w3.org/2000/svg"
   xmlns:sodipodi="http://sodipodi.sourceforge.net/DTD/sodipodi-0.dtd"
   xmlns:inkscape="http://www.inkscape.org/namespaces/inkscape"
   width="150"
   height="150"
   id="svg2"
   version="1.1"
   inkscape:version="0.48.4 r9939"
   sodipodi:docname="CH.svg">
  <defs
     id="defs4" />
  <sodipodi:namedview
     id="base"
     pagecolor="#ffffff"
     bordercolor="#666666"
     borderopacity="1.0"
     inkscape:pageopacity="0.0"
     inkscape:pageshadow="2"
     inkscape:zoom="2.3285128"
     inkscape:cx="0.53642429"
     inkscape:cy="92.247999"
     inkscape:document-units="px"
     inkscape:current-layer="text3001"
     showgrid="false"
     width="150px"
     inkscape:window-width="1366"
     inkscape:window-height="725"
     inkscape:window-x="0"
     inkscape:window-y="25"
     inkscape:window-maximized="1"
     showguides="true"
     inkscape:guide-bbox="true">
    <sodipodi:guide
       orientation="1,0"
       position="-0.30367313,127.23904"
       id="guide3789" />
    <sodipodi:guide
       orientation="1,0"
       position="150.92555,137.8676"
       id="guide3791" />
  </sodipodi:namedview>
  <metadata
     id="metadata7">
    <rdf:RDF>
      <cc:Work
         rdf:about="">
        <dc:format>image/svg+xml</dc:format>
        <dc:type
           rdf:resource="http://purl.org/dc/dcmitype/StillImage" />
        <dc:title>CH</dc:title>
        <dc:creator>
          <cc:Agent>
            <dc:title>Arpa Piemonte SC22/Sea Consulting</dc:title>
          </cc:Agent>
        </dc:creator>
        <dc:rights>
          <cc:Agent>
            <dc:title />
          </cc:Agent>
        </dc:rights>
        <dc:date>2013.02.15</dc:date>
        <dc:description>Prova Sismica in foro tipo crosshole</dc:description>
        <dc:subject>
          <rdf:Bag>
            <rdf:li>geologia geotecnica geofisica</rdf:li>
          </rdf:Bag>
        </dc:subject>
        <dc:contributor>
          <cc:Agent>
            <dc:title>DF, LL</dc:title>
          </cc:Agent>
        </dc:contributor>
        <cc:license
           rdf:resource="http://creativecommons.org/licenses/by/2.5/" />
        <dc:language>it</dc:language>
      </cc:Work>
      <cc:License
         rdf:about="http://creativecommons.org/licenses/by/3.0/">
        <cc:permits
           rdf:resource="http://creativecommons.org/ns#Reproduction" />
        <cc:permits
           rdf:resource="http://creativecommons.org/ns#Distribution" />
        <cc:requires
           rdf:resource="http://creativecommons.org/ns#Notice" />
        <cc:requires
           rdf:resource="http://creativecommons.org/ns#Attribution" />
        <cc:permits
           rdf:resource="http://creativecommons.org/ns#DerivativeWorks" />
      </cc:License>
    </rdf:RDF>
  </metadata>
  <g
     inkscape:label="Livello 1"
     inkscape:groupmode="layer"
     id="layer1"
     transform="translate(0,-902.36229)">
    <g
       transform="scale(0.95441904,1.0477578)"
       style="font-size:28.42299652000000165px;font-style:normal;font-variant:normal;font-weight:normal;font-stretch:normal;text-align:start;line-height:125%;letter-spacing:0px;word-spacing:0px;writing-mode:lr-tb;text-anchor:start;fill:#ff0000;fill-opacity:1;stroke:none;font-family:Sans;-inkscape-font-specification:Sans"
       id="text3001">
      <g
         transform="matrix(1.0477578,0,0,0.95441905,64.34552,844.01665)"
         style="font-size:48px;line-height:125%;fill:#ff0000;font-family:Arial;-inkscape-font-specification:Arial;fill-opacity:1"
         id="flowRoot2997">
        <path
           d="m 45.664062,44.602856 6.726563,2.132813 c -1.031281,3.750007 -2.750029,6.539066 -5.15625,8.367187 -2.39065,1.812501 -5.429709,2.71875 -9.117188,2.71875 -4.562513,0 -8.312509,-1.554686 -11.25,-4.664062 -2.937503,-3.124993 -4.406252,-7.390614 -4.40625,-12.796875 -2e-6,-5.718728 1.476559,-10.156223 4.429688,-13.3125 2.953115,-3.171842 6.835924,-4.757778 11.648437,-4.757813 4.203103,3.5e-5 7.617162,1.242221 10.242188,3.726563 1.56247,1.46878 2.734344,3.578152 3.515625,6.328125 l -6.867188,1.640625 c -0.406274,-1.781225 -1.257836,-3.187474 -2.554687,-4.21875 -1.281271,-1.031222 -2.84377,-1.546846 -4.6875,-1.546875 -2.54689,2.9e-5 -4.617201,0.91409 -6.210938,2.742187 -1.578135,1.82815 -2.367196,4.789084 -2.367187,8.882813 -9e-6,4.343763 0.78124,7.43751 2.34375,9.28125 1.562487,1.843756 3.593735,2.76563 6.09375,2.765625 1.84373,5e-6 3.429666,-0.585932 4.757812,-1.757813 1.328102,-1.171866 2.281226,-3.015615 2.859375,-5.53125"
           style="font-weight:bold;-inkscape-font-specification:Arial Bold;fill:#ff0000;fill-opacity:1"
           id="path3779" />
        <path
           d="m 58.390625,57.235669 0,-34.359375 6.9375,0 0,13.523437 13.59375,0 0,-13.523437 6.9375,0 0,34.359375 -6.9375,0 0,-15.023438 -13.59375,0 0,15.023438 -6.9375,0"
           style="font-weight:bold;-inkscape-font-specification:Arial Bold;fill:#ff0000;fill-opacity:1"
           id="path3781" />
      </g>
    </g>
    <g
       id="g8247">
      <g
         id="g5739"
         transform="translate(-2.1256215,5.3789339)">
        <g
           id="g5093"
           transform="matrix(0.68036746,0,0,0.69026222,23.972442,302.73158)"
           style="fill:#ff0000;fill-opacity:1">
          <path
             transform="translate(2.7246606,901.06361)"
             d="m 130.49714,76.290634 c 0,32.155016 -26.06679,58.221796 -58.221803,58.221796 -32.155011,0 -58.221798,-26.06678 -58.221798,-58.221796 0,-32.155011 26.066787,-58.221798 58.221798,-58.221798 32.155013,0 58.221803,26.066787 58.221803,58.221798 z"
             sodipodi:ry="58.221798"
             sodipodi:rx="58.221798"
             sodipodi:cy="76.290634"
             sodipodi:cx="72.275337"
             id="path2987"
             style="fill:#ff0000;fill-opacity:1;stroke:#000000;stroke-width:7.29610682;stroke-miterlimit:4;stroke-opacity:1;stroke-dasharray:none;stroke-dashoffset:0"
             sodipodi:type="arc" />
        </g>
        <path
           style="fill:none;stroke:#000000;stroke-width:4.94393349;stroke-linecap:butt;stroke-linejoin:miter;stroke-miterlimit:4;stroke-opacity:1;stroke-dasharray:none"
           d="m 74.902433,925.85709 c 0.195134,103.01041 0.195134,103.01041 0.195134,103.01041"
           id="path2989"
           inkscape:connector-curvature="0" />
      </g>
      <path
         inkscape:connector-curvature="0"
         id="path2991"
         d="m 22.041953,982.54885 c 101.664847,0.3959 101.664847,0.3959 101.664847,0.3959"
         style="fill:none;stroke:#000000;stroke-width:5;stroke-linecap:butt;stroke-linejoin:miter;stroke-miterlimit:4;stroke-opacity:1;stroke-dasharray:none" />
    </g>
    <flowRoot
       xml:space="preserve"
       id="flowRoot7587"
       style="font-size:48px;font-style:normal;font-variant:normal;font-weight:normal;font-stretch:normal;text-align:start;line-height:125%;letter-spacing:0px;word-spacing:0px;writing-mode:lr-tb;text-anchor:start;fill:#000000;fill-opacity:1;stroke:none;font-family:Arial;-inkscape-font-specification:Arial"
       transform="translate(-57.547457,892.05528)"><flowRegion
         id="flowRegion7589"><rect
           id="rect7591"
           width="42.945866"
           height="53.252876"
           x="-48.958286"
           y="11.71431"
           style="font-size:48px" /></flowRegion><flowPara
         id="flowPara7593" /></flowRoot>  </g>
</svg>
