<?xml version="1.0" encoding="UTF-8" standalone="no"?>
<!-- Created with Inkscape (http://www.inkscape.org/) -->

<svg
   xmlns:dc="http://purl.org/dc/elements/1.1/"
   xmlns:cc="http://creativecommons.org/ns#"
   xmlns:rdf="http://www.w3.org/1999/02/22-rdf-syntax-ns#"
   xmlns:svg="http://www.w3.org/2000/svg"
   xmlns="http://www.w3.org/2000/svg"
   xmlns:sodipodi="http://sodipodi.sourceforge.net/DTD/sodipodi-0.dtd"
   xmlns:inkscape="http://www.inkscape.org/namespaces/inkscape"
   width="150"
   height="150"
   id="svg2"
   version="1.1"
   inkscape:version="0.48.4 r9939"
   sodipodi:docname="ERTp.svg">
  <title
     id="title3165">ERT</title>
  <defs
     id="defs4" />
  <sodipodi:namedview
     id="base"
     pagecolor="#ffffff"
     bordercolor="#666666"
     borderopacity="1.0"
     inkscape:pageopacity="0.0"
     inkscape:pageshadow="2"
     inkscape:zoom="2.3285128"
     inkscape:cx="-10.58428"
     inkscape:cy="72.843203"
     inkscape:document-units="px"
     inkscape:current-layer="text3001"
     showgrid="false"
     width="150px"
     inkscape:window-width="1366"
     inkscape:window-height="725"
     inkscape:window-x="0"
     inkscape:window-y="25"
     inkscape:window-maximized="1"
     showguides="true"
     inkscape:guide-bbox="true"
     fit-margin-top="0"
     fit-margin-left="0"
     fit-margin-right="0"
     fit-margin-bottom="0" />
  <metadata
     id="metadata7">
    <rdf:RDF>
      <cc:Work
         rdf:about="">
        <dc:format>image/svg+xml</dc:format>
        <dc:type
           rdf:resource="http://purl.org/dc/dcmitype/StillImage" />
        <dc:title>ERT</dc:title>
        <dc:creator>
          <cc:Agent>
            <dc:title>Arpa Piemonte SC22/Sea Consulting</dc:title>
          </cc:Agent>
        </dc:creator>
        <dc:rights>
          <cc:Agent>
            <dc:title />
          </cc:Agent>
        </dc:rights>
        <dc:date>2013.02.15</dc:date>
        <dc:description>Verticale virtuale lungo tomografia elettrica</dc:description>
        <dc:subject>
          <rdf:Bag>
            <rdf:li>geologia geotecnica geofisica</rdf:li>
          </rdf:Bag>
        </dc:subject>
        <dc:contributor>
          <cc:Agent>
            <dc:title>DF, LL</dc:title>
          </cc:Agent>
        </dc:contributor>
        <cc:license
           rdf:resource="http://creativecommons.org/licenses/by/3.0/" />
        <dc:language>it</dc:language>
      </cc:Work>
      <cc:License
         rdf:about="http://creativecommons.org/licenses/by/3.0/">
        <cc:permits
           rdf:resource="http://creativecommons.org/ns#Reproduction" />
        <cc:permits
           rdf:resource="http://creativecommons.org/ns#Distribution" />
        <cc:requires
           rdf:resource="http://creativecommons.org/ns#Notice" />
        <cc:requires
           rdf:resource="http://creativecommons.org/ns#Attribution" />
        <cc:permits
           rdf:resource="http://creativecommons.org/ns#DerivativeWorks" />
      </cc:License>
    </rdf:RDF>
  </metadata>
  <g
     inkscape:label="Livello 1"
     inkscape:groupmode="layer"
     id="layer1"
     transform="translate(-32.598691,-869.76359)">
    <g
       transform="scale(0.83104278,1.2033075)"
       style="font-size:20.61549759px;font-style:normal;font-variant:normal;font-weight:normal;font-stretch:normal;text-align:start;line-height:125%;letter-spacing:0px;word-spacing:0px;writing-mode:lr-tb;text-anchor:start;fill:#ff0000;fill-opacity:1;stroke:none;font-family:Sans;-inkscape-font-specification:Sans"
       id="text3001">
      <g
         id="g3018"
         transform="translate(21.659535,1.6620855)">
        <path
           id="path3012"
           style="font-size:34.81490326px;font-weight:bold;fill:#ff0000;font-family:Arial;-inkscape-font-specification:Arial Bold"
           d="m 130.31305,748.57751 0,-24.92121 18.47842,0 0,4.21587 -13.44658,0 0,5.52482 12.51161,0 0,4.19887 -12.51161,0 0,6.78279 13.92256,0 0,4.19886 -18.9544,0"
           inkscape:connector-curvature="0" />
        <path
           id="path3014"
           style="font-size:34.81490326px;font-weight:bold;fill:#ff0000;font-family:Arial;-inkscape-font-specification:Arial Bold"
           d="m 153.58532,748.57751 0,-24.92121 10.59066,0 c 2.66324,2e-5 4.59551,0.22668 5.79682,0.67998 1.21261,0.44201 2.18158,1.23532 2.90691,2.37992 0.72529,1.14465 1.08794,2.45361 1.08796,3.92688 -2e-5,1.86996 -0.54967,3.41691 -1.64894,4.64085 -1.09932,1.21264 -2.7426,1.97762 -4.92985,2.29493 1.08795,0.63466 1.98325,1.33164 2.68592,2.09094 0.71395,0.75931 1.67159,2.10794 2.87291,4.04587 l 3.0429,4.86184 -6.01781,0 -3.63789,-5.42282 c -1.29197,-1.93794 -2.17594,-3.15623 -2.65191,-3.65489 -0.476,-0.50997 -0.98032,-0.85563 -1.51295,-1.03697 -0.53266,-0.19265 -1.37697,-0.28898 -2.53292,-0.28899 l -1.01997,0 0,10.40367 -5.03184,0 m 5.03184,-14.38154 3.72288,0 c 2.41391,10e-6 3.9212,-0.10198 4.52186,-0.30599 0.60063,-0.20398 1.07095,-0.5553 1.41095,-1.05397 0.33998,-0.49863 0.50997,-1.12195 0.50999,-1.86994 -2e-5,-0.83862 -0.22668,-1.51293 -0.67998,-2.02294 -0.442,-0.52129 -1.07098,-0.84995 -1.88694,-0.98597 -0.408,-0.0566 -1.63196,-0.085 -3.67189,-0.085 l -3.92687,0 0,6.3238"
           inkscape:connector-curvature="0" />
        <path
           id="path3016"
           style="font-size:34.81490326px;font-weight:bold;fill:#ff0000;font-family:Arial;-inkscape-font-specification:Arial Bold"
           d="m 184.33735,748.57751 0,-20.70534 -7.39477,0 0,-4.21587 19.80438,0 0,4.21587 -7.37777,0 0,20.70534 -5.03184,0"
           inkscape:connector-curvature="0" />
      </g>
    </g>
    <g
       transform="matrix(0.70710678,-0.70710678,0.70710678,0.70710678,-638.83426,301.39057)"
       id="g8247">
      <g
         id="g5739"
         transform="translate(-2.1256215,5.3789339)">
        <g
           id="g5093"
           transform="matrix(0.68036746,0,0,0.69026222,23.972442,302.73158)"
           style="fill:#ff0000;fill-opacity:1">
          <path
             transform="translate(2.7246606,901.06361)"
             d="m 130.49714,76.290634 c 0,32.155016 -26.06679,58.221796 -58.221803,58.221796 -32.155011,0 -58.221798,-26.06678 -58.221798,-58.221796 0,-32.155011 26.066787,-58.221798 58.221798,-58.221798 32.155013,0 58.221803,26.066787 58.221803,58.221798 z"
             sodipodi:ry="58.221798"
             sodipodi:rx="58.221798"
             sodipodi:cy="76.290634"
             sodipodi:cx="72.275337"
             id="path2987"
             style="fill:#ff0000;fill-opacity:1;stroke:#000000;stroke-width:7.29610682;stroke-miterlimit:4;stroke-opacity:1;stroke-dasharray:none;stroke-dashoffset:0"
             sodipodi:type="arc" />
        </g>
        <path
           style="fill:none;stroke:#000000;stroke-width:4.94393349;stroke-linecap:butt;stroke-linejoin:miter;stroke-miterlimit:4;stroke-opacity:1;stroke-dasharray:none"
           d="m 74.902433,925.85709 c 0.195134,103.01041 0.195134,103.01041 0.195134,103.01041"
           id="path2989"
           inkscape:connector-curvature="0" />
      </g>
      <path
         inkscape:connector-curvature="0"
         id="path2991"
         d="m 22.041953,982.54885 c 101.664847,0.3959 101.664847,0.3959 101.664847,0.3959"
         style="fill:none;stroke:#000000;stroke-width:5;stroke-linecap:butt;stroke-linejoin:miter;stroke-miterlimit:4;stroke-opacity:1;stroke-dasharray:none" />
    </g>
  </g>
</svg>
