<?xml version="1.0" encoding="UTF-8" standalone="no"?>
<!-- Created with Inkscape (http://www.inkscape.org/) -->

<svg
   xmlns:osb="http://www.openswatchbook.org/uri/2009/osb"
   xmlns:dc="http://purl.org/dc/elements/1.1/"
   xmlns:cc="http://creativecommons.org/ns#"
   xmlns:rdf="http://www.w3.org/1999/02/22-rdf-syntax-ns#"
   xmlns:svg="http://www.w3.org/2000/svg"
   xmlns="http://www.w3.org/2000/svg"
   xmlns:sodipodi="http://sodipodi.sourceforge.net/DTD/sodipodi-0.dtd"
   xmlns:inkscape="http://www.inkscape.org/namespaces/inkscape"
   width="150"
   height="150"
   id="svg2"
   version="1.1"
   inkscape:version="0.48.4 r9939"
   sodipodi:docname="SCPT.svg">
  <defs
     id="defs4">
    <linearGradient
       id="linearGradient3789"
       osb:paint="solid">
      <stop
         style="stop-color:#f8fa2f;stop-opacity:1;"
         offset="0"
         id="stop3791" />
    </linearGradient>
    <metadata
       id="metadata7">
      <rdf:RDF>
        <cc:Work
           rdf:about="">
          <dc:format>image/svg+xml</dc:format>
          <dc:type
             rdf:resource="http://purl.org/dc/dcmitype/StillImage" />
          <dc:title>SCPT</dc:title>
          <dc:creator>
            <cc:Agent>
              <dc:title>Arpa Piemonte SC22/Sea Consulting</dc:title>
            </cc:Agent>
          </dc:creator>
          <dc:rights>
            <cc:Agent>
              <dc:title />
            </cc:Agent>
          </dc:rights>
          <dc:date>2013.02.15</dc:date>
          <dc:description>Prova penetrometrica con cono sismico</dc:description>
          <dc:subject>
            <rdf:Bag>
              <rdf:li>geologia geotecnica geofisica</rdf:li>
            </rdf:Bag>
          </dc:subject>
          <dc:contributor>
            <cc:Agent>
              <dc:title>DF, LL</dc:title>
            </cc:Agent>
          </dc:contributor>
          <cc:license
             rdf:resource="http://creativecommons.org/licenses/by/2.5/" />
          <dc:language>it</dc:language>
        </cc:Work>
        <cc:License
           rdf:about="http://creativecommons.org/licenses/by/3.0/">
          <cc:permits
             rdf:resource="http://creativecommons.org/ns#Reproduction" />
          <cc:permits
             rdf:resource="http://creativecommons.org/ns#Distribution" />
          <cc:requires
             rdf:resource="http://creativecommons.org/ns#Notice" />
          <cc:requires
             rdf:resource="http://creativecommons.org/ns#Attribution" />
          <cc:permits
             rdf:resource="http://creativecommons.org/ns#DerivativeWorks" />
        </cc:License>
      </rdf:RDF>
    </metadata>
  </defs>
  <sodipodi:namedview
     id="base"
     pagecolor="#ffffff"
     bordercolor="#666666"
     borderopacity="1.0"
     inkscape:pageopacity="0.0"
     inkscape:pageshadow="2"
     inkscape:zoom="1.7433334"
     inkscape:cx="-42.499876"
     inkscape:cy="80.496719"
     inkscape:document-units="px"
     inkscape:current-layer="layer1"
     showgrid="false"
     width="150px"
     inkscape:window-width="1366"
     inkscape:window-height="725"
     inkscape:window-x="0"
     inkscape:window-y="25"
     inkscape:window-maximized="1" />
  <metadata
     id="metadata14179">
    <rdf:RDF>
      <cc:Work
         rdf:about="">
        <dc:format>image/svg+xml</dc:format>
        <dc:type
           rdf:resource="http://purl.org/dc/dcmitype/StillImage" />
        <dc:title />
      </cc:Work>
    </rdf:RDF>
  </metadata>
  <g
     inkscape:label="Livello 1"
     inkscape:groupmode="layer"
     id="layer1"
     transform="translate(0,-902.36229)">
    <g
       style="font-size:40px;font-style:normal;font-weight:normal;line-height:125%;letter-spacing:0px;word-spacing:0px;fill:#ff0000;fill-opacity:1;stroke:none;font-family:Sans"
       id="text3810">
      <path
         d="m 102.65215,929.27441 6.75,-0.65625 c 0.40624,2.26564 1.22656,3.9297 2.46094,4.99219 1.24999,1.06251 2.92967,1.59376 5.03906,1.59375 2.23436,10e-6 3.91405,-0.46874 5.03907,-1.40625 1.1406,-0.95312 1.71091,-2.06249 1.71093,-3.32812 -2e-5,-0.81249 -0.24221,-1.49999 -0.72656,-2.0625 -0.46877,-0.57812 -1.2969,-1.07812 -2.48437,-1.5 -0.81252,-0.28124 -2.66408,-0.78124 -5.55469,-1.5 -3.71876,-0.92186 -6.32813,-2.05467 -7.82813,-3.39844 -2.10938,-1.89061 -3.16406,-4.19529 -3.16406,-6.91406 0,-1.74998 0.49218,-3.38279 1.47656,-4.89844 1,-1.53122 2.42968,-2.69528 4.28907,-3.49219 1.87498,-0.79684 4.1328,-1.19528 6.77343,-1.19531 4.31248,3e-5 7.55467,0.94535 9.72657,2.83594 2.18747,1.89065 3.3359,4.41409 3.44531,7.57031 l -6.9375,0.30469 c -0.2969,-1.7656 -0.93752,-3.03123 -1.92188,-3.79688 -0.96877,-0.78122 -2.4297,-1.17184 -4.38281,-1.17187 -2.01564,3e-5 -3.59376,0.41409 -4.73437,1.24218 -0.73439,0.53128 -1.10158,1.24222 -1.10157,2.13282 -1e-5,0.81252 0.34374,1.50783 1.03125,2.08593 0.87499,0.7344 2.99999,1.50003 6.375,2.29688 3.37498,0.79689 5.86717,1.62502 7.47657,2.48437 1.62497,0.84377 2.89059,2.00783 3.79687,3.49219 0.92185,1.46877 1.38278,3.28908 1.38281,5.46094 -3e-5,1.96876 -0.5469,3.81251 -1.64062,5.53125 -1.09378,1.71875 -2.64065,3 -4.64063,3.84375 -2.00002,0.82812 -4.4922,1.24219 -7.47656,1.24219 -4.34376,0 -7.6797,-1 -10.00781,-3 -2.32813,-2.01562 -3.71875,-4.94531 -4.17188,-8.78907"
         style="font-size:48px;font-variant:normal;font-weight:bold;font-stretch:normal;font-family:Arial;-inkscape-font-specification:Arial Bold;fill:#ff0000;fill-opacity:1"
         id="path14219" />
    </g>
    <g
       id="g14733">
      <path
         sodipodi:nodetypes="scccs"
         inkscape:connector-curvature="0"
         id="path3801"
         d="m 75.511031,995.19139 -0.420948,-47.58835 c 8.812786,1.31654 29.008047,-2.15182 35.280357,0.34286 l -34.449367,57.769 c -0.410345,-4.3536 -0.410042,-1.5063 -0.410042,-10.52351 z"
         style="color:#000000;fill:#ff0000;fill-opacity:1;fill-rule:nonzero;stroke:#000000;stroke-width:0.30286792000000001px;stroke-linecap:butt;stroke-linejoin:miter;stroke-miterlimit:4;stroke-opacity:1;stroke-dasharray:none;stroke-dashoffset:0;marker:none;visibility:visible;display:inline;overflow:visible;enable-background:accumulate" />
      <path
         sodipodi:nodetypes="cccc"
         inkscape:connector-curvature="0"
         id="path4343"
         d="m 39.640429,947.86712 70.719141,0 -35.359572,60.62898 z"
         style="fill:none;stroke:#000000;stroke-width:5.00000048;stroke-linecap:butt;stroke-linejoin:miter;stroke-miterlimit:4;stroke-opacity:1;stroke-dasharray:none" />
      <path
         inkscape:connector-curvature="0"
         id="path4345"
         d="m 74.894764,924.00467 c 0,106.71523 0.210474,106.71523 0.210474,106.71523"
         style="fill:none;stroke:#000000;stroke-width:5.00000048;stroke-linecap:butt;stroke-linejoin:miter;stroke-miterlimit:4;stroke-opacity:1;stroke-dasharray:none" />
      <path
         inkscape:connector-curvature="0"
         id="path4347"
         d="m 19.855911,977.3623 110.288179,0"
         style="fill:none;stroke:#000000;stroke-width:5.00000048;stroke-linecap:butt;stroke-linejoin:miter;stroke-miterlimit:4;stroke-opacity:1;stroke-dasharray:none" />
    </g>
  </g>
</svg>
