<?xml version="1.0" encoding="UTF-8" standalone="no"?>
<!-- Created with Inkscape (http://www.inkscape.org/) -->

<svg
   xmlns:osb="http://www.openswatchbook.org/uri/2009/osb"
   xmlns:dc="http://purl.org/dc/elements/1.1/"
   xmlns:cc="http://creativecommons.org/ns#"
   xmlns:rdf="http://www.w3.org/1999/02/22-rdf-syntax-ns#"
   xmlns:svg="http://www.w3.org/2000/svg"
   xmlns="http://www.w3.org/2000/svg"
   xmlns:sodipodi="http://sodipodi.sourceforge.net/DTD/sodipodi-0.dtd"
   xmlns:inkscape="http://www.inkscape.org/namespaces/inkscape"
   width="150"
   height="150"
   id="svg2"
   version="1.1"
   inkscape:version="0.48.4 r9939"
   sodipodi:docname="SDMT.svg">
  <defs
     id="defs4">
    <linearGradient
       id="linearGradient4424"
       osb:paint="solid">
      <stop
         style="stop-color:#ff4500;stop-opacity:1;"
         offset="0"
         id="stop4426" />
    </linearGradient>
    <linearGradient
       id="linearGradient3789"
       osb:paint="solid">
      <stop
         style="stop-color:#f8fa2f;stop-opacity:1;"
         offset="0"
         id="stop3791" />
    </linearGradient>
    <marker
       markerWidth="203.96875"
       markerHeight="8.75"
       orient="auto"
       id="marker3805">
      <path
         inkscape:connector-curvature="0"
         id="path3803"
         d="m 101.95985,3.871893 c -203.9197,-7.743786 -203.9197,-7.743786 -203.9197,-7.743786"
         style="fill:none;stroke:#000000;stroke-width:1px;stroke-linecap:butt;stroke-linejoin:miter;stroke-opacity:1" />
    </marker>
  </defs>
  <sodipodi:namedview
     id="base"
     pagecolor="#ffffff"
     bordercolor="#666666"
     borderopacity="1.0"
     inkscape:pageopacity="0.0"
     inkscape:pageshadow="2"
     inkscape:zoom="3.5435737"
     inkscape:cx="-17.555017"
     inkscape:cy="83.758861"
     inkscape:document-units="px"
     inkscape:current-layer="layer1"
     showgrid="false"
     width="150px"
     inkscape:window-width="1366"
     inkscape:window-height="725"
     inkscape:window-x="0"
     inkscape:window-y="25"
     inkscape:window-maximized="1" />
  <metadata
     id="metadata7">
    <rdf:RDF>
      <cc:Work
         rdf:about="">
        <dc:format>image/svg+xml</dc:format>
        <dc:type
           rdf:resource="http://purl.org/dc/dcmitype/StillImage" />
        <dc:title>SDMT</dc:title>
        <dc:creator>
          <cc:Agent>
            <dc:title>Arpa Piemonte SC22/Sea Consulting</dc:title>
          </cc:Agent>
        </dc:creator>
        <dc:rights>
          <cc:Agent>
            <dc:title />
          </cc:Agent>
        </dc:rights>
        <dc:date>2013.02.15</dc:date>
        <dc:description>Dilatometro sismico</dc:description>
        <dc:subject>
          <rdf:Bag>
            <rdf:li>geologia geotecnica geofisica</rdf:li>
          </rdf:Bag>
        </dc:subject>
        <dc:contributor>
          <cc:Agent>
            <dc:title>DF, LL</dc:title>
          </cc:Agent>
        </dc:contributor>
        <cc:license
           rdf:resource="http://creativecommons.org/licenses/by/2.5/" />
        <dc:language>it</dc:language>
      </cc:Work>
      <cc:License
         rdf:about="http://creativecommons.org/licenses/by/3.0/">
        <cc:permits
           rdf:resource="http://creativecommons.org/ns#Reproduction" />
        <cc:permits
           rdf:resource="http://creativecommons.org/ns#Distribution" />
        <cc:requires
           rdf:resource="http://creativecommons.org/ns#Notice" />
        <cc:requires
           rdf:resource="http://creativecommons.org/ns#Attribution" />
        <cc:permits
           rdf:resource="http://creativecommons.org/ns#DerivativeWorks" />
      </cc:License>
    </rdf:RDF>
  </metadata>
  <g
     inkscape:label="Livello 1"
     inkscape:groupmode="layer"
     id="layer1"
     transform="translate(0,-902.36229)">
    <g
       inkscape:transform-center-y="14.956652"
       style="font-size:12px;font-style:normal;font-variant:normal;font-weight:normal;font-stretch:normal;text-align:start;line-height:125%;letter-spacing:0px;word-spacing:0px;writing-mode:lr-tb;text-anchor:start;fill:#ff0000;fill-opacity:1;stroke:none;font-family:Arial;-inkscape-font-specification:Arial"
       id="text6570">
      <path
         d="m 102.48013,934.51068 6.75,-0.65625 c 0.40624,2.26564 1.22655,3.9297 2.46093,4.99219 1.24999,1.0625 2.92968,1.59375 5.03907,1.59375 2.23435,0 3.91404,-0.46875 5.03906,-1.40625 1.1406,-0.95312 1.71091,-2.06249 1.71094,-3.32813 -3e-5,-0.81249 -0.24221,-1.49998 -0.72657,-2.0625 -0.46877,-0.57811 -1.29689,-1.07811 -2.48437,-1.5 -0.81252,-0.28123 -2.66408,-0.78123 -5.55469,-1.5 -3.71876,-0.92186 -6.32813,-2.05467 -7.82812,-3.39843 -2.10938,-1.89061 -3.16407,-4.19529 -3.16407,-6.91407 0,-1.74997 0.49219,-3.38278 1.47657,-4.89843 0.99999,-1.53122 2.42968,-2.69528 4.28906,-3.49219 1.87499,-0.79684 4.1328,-1.19528 6.77344,-1.19531 4.31248,3e-5 7.55466,0.94534 9.72656,2.83593 2.18747,1.89066 3.33591,4.41409 3.44531,7.57032 l -6.9375,0.30468 c -0.2969,-1.7656 -0.93752,-3.03122 -1.92187,-3.79687 -0.96877,-0.78122 -2.42971,-1.17185 -4.38282,-1.17188 -2.01564,3e-5 -3.59376,0.41409 -4.73437,1.24219 -0.73439,0.53128 -1.10157,1.24222 -1.10156,2.13281 -1e-5,0.81253 0.34374,1.50784 1.03125,2.08594 0.87498,0.7344 2.99998,1.50002 6.375,2.29688 3.37498,0.79689 5.86716,1.62502 7.47656,2.48437 1.62497,0.84377 2.8906,2.00783 3.79687,3.49219 0.92185,1.46876 1.38279,3.28907 1.38282,5.46094 -3e-5,1.96875 -0.54691,3.8125 -1.64063,5.53125 -1.09378,1.71875 -2.64065,3 -4.64062,3.84375 -2.00003,0.82812 -4.49221,1.24218 -7.47657,1.24218 -4.34376,0 -7.67969,-1 -10.00781,-3 -2.32813,-2.01562 -3.71875,-4.9453 -4.17187,-8.78906"
         style="font-size:48px;font-weight:bold;-inkscape-font-specification:Arial Bold;fill:#ff0000;fill-opacity:1"
         id="path16167" />
    </g>
    <g
       id="g9465"
       transform="matrix(0.69973527,0,0,0.69973527,22.519855,293.46742)">
      <path
         sodipodi:nodetypes="cccc"
         transform="translate(0,902.36229)"
         inkscape:connector-curvature="0"
         id="path3896"
         d="m 16.649858,124.88411 116.831212,0.2822 C 130.41642,74.114048 103.50037,49.017715 75.347665,25.267162 41.761364,49.90481 23.151835,83.694931 16.649858,124.88411 z"
         style="fill:#eb0000;fill-opacity:1;stroke:#000000;stroke-width:7.14555979;stroke-linecap:butt;stroke-linejoin:miter;stroke-miterlimit:4;stroke-opacity:1;stroke-dasharray:none" />
      <path
         transform="translate(0,902.36229)"
         d="m 96.230539,74.652336 c 0,11.845003 -9.602272,21.447275 -21.447275,21.447275 -11.845003,0 -21.447275,-9.602272 -21.447275,-21.447275 0,-11.845003 9.602272,-21.447275 21.447275,-21.447275 11.845003,0 21.447275,9.602272 21.447275,21.447275 z"
         sodipodi:ry="21.447275"
         sodipodi:rx="21.447275"
         sodipodi:cy="74.652336"
         sodipodi:cx="74.783264"
         id="path4412"
         style="fill:none;stroke:#000000;stroke-width:7.14555979;stroke-miterlimit:4;stroke-opacity:1;stroke-dasharray:none"
         sodipodi:type="arc" />
      <path
         inkscape:connector-curvature="0"
         id="path3838"
         d="m 75,902.9625 0,148.7996"
         style="fill:none;stroke:#000000;stroke-width:7.14555979;stroke-linecap:butt;stroke-linejoin:miter;stroke-miterlimit:4;stroke-opacity:1;stroke-dasharray:none" />
      <path
         inkscape:connector-curvature="0"
         id="path3838-7"
         d="m 149.39978,977.36229 -148.79956023,0"
         style="fill:none;stroke:#000000;stroke-width:7.14555979;stroke-linecap:butt;stroke-linejoin:miter;stroke-miterlimit:4;stroke-opacity:1;stroke-dasharray:none" />
    </g>
  </g>
</svg>
