<?xml version="1.0" encoding="UTF-8" standalone="no"?>
<!-- Created with Inkscape (http://www.inkscape.org/) -->

<svg
   xmlns:dc="http://purl.org/dc/elements/1.1/"
   xmlns:cc="http://creativecommons.org/ns#"
   xmlns:rdf="http://www.w3.org/1999/02/22-rdf-syntax-ns#"
   xmlns:svg="http://www.w3.org/2000/svg"
   xmlns="http://www.w3.org/2000/svg"
   xmlns:sodipodi="http://sodipodi.sourceforge.net/DTD/sodipodi-0.dtd"
   xmlns:inkscape="http://www.inkscape.org/namespaces/inkscape"
   width="150"
   height="150"
   id="svg2"
   version="1.1"
   inkscape:version="0.48.4 r9939"
   sodipodi:docname="SDS.svg">
  <title
     id="title6024">SDS</title>
  <defs
     id="defs4" />
  <sodipodi:namedview
     id="base"
     pagecolor="#ffffff"
     bordercolor="#666666"
     borderopacity="1.0"
     inkscape:pageopacity="0.0"
     inkscape:pageshadow="2"
     inkscape:zoom="1.7433334"
     inkscape:cx="-98.950142"
     inkscape:cy="28.251495"
     inkscape:document-units="px"
     inkscape:current-layer="layer1"
     showgrid="false"
     width="150px"
     inkscape:window-width="1366"
     inkscape:window-height="725"
     inkscape:window-x="0"
     inkscape:window-y="25"
     inkscape:window-maximized="1" />
  <metadata
     id="metadata7">
    <rdf:RDF>
      <cc:Work
         rdf:about="">
        <dc:format>image/svg+xml</dc:format>
        <dc:type
           rdf:resource="http://purl.org/dc/dcmitype/StillImage" />
        <dc:title>SDS</dc:title>
        <dc:creator>
          <cc:Agent>
            <dc:title>Arpa Piemonte SC22/Sea Consulting</dc:title>
          </cc:Agent>
        </dc:creator>
        <dc:rights>
          <cc:Agent>
            <dc:title />
          </cc:Agent>
        </dc:rights>
        <dc:date>2013.02.15</dc:date>
        <dc:description>Sondaggio a distruzione di nucleo che intercetta il substrato</dc:description>
        <dc:subject>
          <rdf:Bag>
            <rdf:li>geologia geotecnica geofisica</rdf:li>
          </rdf:Bag>
        </dc:subject>
        <dc:contributor>
          <cc:Agent>
            <dc:title>DF, LL</dc:title>
          </cc:Agent>
        </dc:contributor>
        <cc:license
           rdf:resource="http://creativecommons.org/licenses/by/2.5/" />
        <dc:language>it</dc:language>
      </cc:Work>
      <cc:License
         rdf:about="http://creativecommons.org/licenses/by/3.0/">
        <cc:permits
           rdf:resource="http://creativecommons.org/ns#Reproduction" />
        <cc:permits
           rdf:resource="http://creativecommons.org/ns#Distribution" />
        <cc:requires
           rdf:resource="http://creativecommons.org/ns#Notice" />
        <cc:requires
           rdf:resource="http://creativecommons.org/ns#Attribution" />
        <cc:permits
           rdf:resource="http://creativecommons.org/ns#DerivativeWorks" />
      </cc:License>
    </rdf:RDF>
  </metadata>
  <g
     inkscape:label="Livello 1"
     inkscape:groupmode="layer"
     id="layer1"
     transform="translate(0,-902.36229)">
    <g
       style="font-size:40px;font-style:normal;font-weight:normal;line-height:125%;letter-spacing:0px;word-spacing:0px;fill:#ff0000;fill-opacity:1;stroke:none;font-family:Sans"
       id="text3810">
      <path
         d="m 111.56202,931.55029 5.625,-0.54687 c 0.33853,1.88803 1.02213,3.27474 2.05078,4.16015 1.04166,0.88543 2.4414,1.32813 4.19922,1.32813 1.86196,0 3.2617,-0.39062 4.19922,-1.17188 0.9505,-0.79426 1.42576,-1.71874 1.42578,-2.77343 -2e-5,-0.67708 -0.20184,-1.24999 -0.60547,-1.71875 -0.39064,-0.48176 -1.08075,-0.89843 -2.07031,-1.25 -0.6771,-0.23437 -2.22007,-0.65103 -4.62891,-1.25 -3.09897,-0.76822 -5.27344,-1.71223 -6.52344,-2.83203 -1.75781,-1.57551 -2.63672,-3.49608 -2.63671,-5.76172 -10e-6,-1.45831 0.41015,-2.81899 1.23046,-4.08203 0.83333,-1.27602 2.02474,-2.24607 3.57422,-2.91016 1.56249,-0.66403 3.444,-0.99607 5.64453,-0.99609 3.59374,2e-5 6.29556,0.78778 8.10547,2.36328 1.8229,1.57554 2.77993,3.67841 2.8711,6.30859 l -5.78125,0.25391 c -0.24742,-1.47134 -0.78127,-2.52602 -1.60157,-3.16407 -0.8073,-0.65101 -2.02475,-0.97653 -3.65234,-0.97656 -1.6797,3e-5 -2.9948,0.34508 -3.94531,1.03516 -0.61199,0.44273 -0.91798,1.03518 -0.91797,1.77734 -1e-5,0.67711 0.28645,1.25653 0.85937,1.73828 0.72916,0.612 2.49999,1.25002 5.3125,1.91407 2.81249,0.66408 4.88931,1.35418 6.23047,2.07031 1.35415,0.70314 2.40883,1.67319 3.16407,2.91015 0.7682,1.22397 1.15231,2.7409 1.15234,4.55079 -3e-5,1.64063 -0.45575,3.17708 -1.36719,4.60937 -0.91148,1.43229 -2.20054,2.5 -3.86719,3.20313 -1.66668,0.6901 -3.7435,1.03515 -6.23046,1.03515 -3.61981,0 -6.39975,-0.83333 -8.33985,-2.5 -1.94011,-1.67968 -3.09896,-4.12109 -3.47656,-7.32422"
         style="font-variant:normal;font-weight:bold;font-stretch:normal;font-family:Arial;-inkscape-font-specification:Arial Bold;fill:#ff0000;fill-opacity:1"
         id="path15330" />
    </g>
    <g
       id="g14781"
       transform="matrix(0.70236217,0,0,0.70236217,22.322839,290.90564)">
      <path
         transform="translate(2.7246628,901.07166)"
         d="m 130.49714,76.290634 c 0,32.155016 -26.06679,58.221796 -58.221803,58.221796 -32.155011,0 -58.221798,-26.06678 -58.221798,-58.221796 0,-32.155011 26.066787,-58.221798 58.221798,-58.221798 32.155013,0 58.221803,26.066787 58.221803,58.221798 z"
         sodipodi:ry="58.221798"
         sodipodi:rx="58.221798"
         sodipodi:cy="76.290634"
         sodipodi:cx="72.275337"
         id="path2987"
         style="fill:none;stroke:#000000;stroke-width:7.1188345;stroke-miterlimit:4;stroke-opacity:1;stroke-dasharray:none;stroke-dashoffset:0"
         sodipodi:type="arc" />
      <path
         inkscape:connector-curvature="0"
         id="path2989"
         d="m 74.856596,902.73739 c 0.286808,149.23371 0.286808,149.23371 0.286808,149.23371"
         style="fill:none;stroke:#000000;stroke-width:7.03900862;stroke-linecap:butt;stroke-linejoin:miter;stroke-miterlimit:4;stroke-opacity:1;stroke-dasharray:none" />
      <path
         inkscape:connector-curvature="0"
         id="path2991"
         d="m 0.286805,977.07548 c 149.426385,0.57361 149.426385,0.57361 149.426385,0.57361"
         style="fill:none;stroke:#000000;stroke-width:7.1188345;stroke-linecap:butt;stroke-linejoin:miter;stroke-miterlimit:4;stroke-opacity:1;stroke-dasharray:none" />
    </g>
  </g>
</svg>
