<?xml version="1.0" encoding="UTF-8" standalone="no"?>
<!-- Created with Inkscape (http://www.inkscape.org/) -->

<svg
   xmlns:dc="http://purl.org/dc/elements/1.1/"
   xmlns:cc="http://creativecommons.org/ns#"
   xmlns:rdf="http://www.w3.org/1999/02/22-rdf-syntax-ns#"
   xmlns:svg="http://www.w3.org/2000/svg"
   xmlns="http://www.w3.org/2000/svg"
   xmlns:sodipodi="http://sodipodi.sourceforge.net/DTD/sodipodi-0.dtd"
   xmlns:inkscape="http://www.inkscape.org/namespaces/inkscape"
   width="150"
   height="150"
   id="svg2"
   version="1.1"
   inkscape:version="0.48.4 r9939"
   sodipodi:docname="SLp.svg">
  <title
     id="title3167">SL</title>
  <defs
     id="defs4" />
  <sodipodi:namedview
     id="base"
     pagecolor="#ffffff"
     bordercolor="#666666"
     borderopacity="1.0"
     inkscape:pageopacity="0.0"
     inkscape:pageshadow="2"
     inkscape:zoom="2.3285128"
     inkscape:cx="-82.778557"
     inkscape:cy="92.247999"
     inkscape:document-units="px"
     inkscape:current-layer="layer1"
     showgrid="false"
     width="150px"
     inkscape:window-width="1366"
     inkscape:window-height="725"
     inkscape:window-x="0"
     inkscape:window-y="25"
     inkscape:window-maximized="1"
     showguides="true"
     inkscape:guide-bbox="true">
    <sodipodi:guide
       orientation="1,0"
       position="-0.30367313,127.23904"
       id="guide3789" />
    <sodipodi:guide
       orientation="1,0"
       position="150.92555,137.8676"
       id="guide3791" />
  </sodipodi:namedview>
  <metadata
     id="metadata7">
    <rdf:RDF>
      <cc:Work
         rdf:about="">
        <dc:format>image/svg+xml</dc:format>
        <dc:type
           rdf:resource="http://purl.org/dc/dcmitype/StillImage" />
        <dc:title>SL</dc:title>
        <dc:creator>
          <cc:Agent>
            <dc:title>Arpa Piemonte SC22/Sea Consulting</dc:title>
          </cc:Agent>
        </dc:creator>
        <dc:rights>
          <cc:Agent>
            <dc:title />
          </cc:Agent>
        </dc:rights>
        <dc:date>2013.02.15</dc:date>
        <dc:description>Verticale virtuale lungo profilo sismico a riflessione</dc:description>
        <dc:subject>
          <rdf:Bag>
            <rdf:li>geologia geotecnica geofisica</rdf:li>
          </rdf:Bag>
        </dc:subject>
        <dc:contributor>
          <cc:Agent>
            <dc:title>DF, LL</dc:title>
          </cc:Agent>
        </dc:contributor>
        <cc:license
           rdf:resource="http://creativecommons.org/licenses/by/3.0/" />
        <dc:language>it</dc:language>
      </cc:Work>
      <cc:License
         rdf:about="http://creativecommons.org/licenses/by/3.0/">
        <cc:permits
           rdf:resource="http://creativecommons.org/ns#Reproduction" />
        <cc:permits
           rdf:resource="http://creativecommons.org/ns#Distribution" />
        <cc:requires
           rdf:resource="http://creativecommons.org/ns#Notice" />
        <cc:requires
           rdf:resource="http://creativecommons.org/ns#Attribution" />
        <cc:permits
           rdf:resource="http://creativecommons.org/ns#DerivativeWorks" />
      </cc:License>
    </rdf:RDF>
  </metadata>
  <g
     inkscape:label="Livello 1"
     inkscape:groupmode="layer"
     id="layer1"
     transform="translate(0,-902.36229)">
    <g
       transform="scale(0.95441904,1.0477578)"
       style="font-size:26.12932396000000068px;font-style:normal;font-variant:normal;font-weight:normal;font-stretch:normal;text-align:start;line-height:125%;letter-spacing:0px;word-spacing:0px;writing-mode:lr-tb;text-anchor:start;fill:#ff0000;fill-opacity:1;stroke:none;font-family:Sans;-inkscape-font-specification:Sans"
       id="text3001">
      <path
         d="m 98.903962,885.70369 6.205288,-0.60329 c 0.37346,2.0828 1.12757,3.61258 2.26235,4.58933 1.14911,0.97676 2.69325,1.46514 4.63242,1.46513 2.05405,10e-6 3.59819,-0.43091 4.63242,-1.29276 1.04856,-0.87621 1.57285,-1.89606 1.57287,-3.05956 -2e-5,-0.74692 -0.22267,-1.37894 -0.66793,-1.89606 -0.43094,-0.53146 -1.19224,-0.99111 -2.28389,-1.37895 -0.74695,-0.25854 -2.4491,-0.71819 -5.10644,-1.37895 -3.41866,-0.84747 -5.81747,-1.88887 -7.19641,-3.1242 -1.93916,-1.73803 -2.90873,-3.85673 -2.90873,-6.35611 0,-1.60875 0.45246,-3.1098 1.35741,-4.50314 0.91929,-1.40766 2.23361,-2.47778 3.94294,-3.21038 1.72368,-0.73254 3.79929,-1.09882 6.22684,-1.09885 3.96447,3e-5 6.94502,0.86906 8.94165,2.60708 2.01094,1.73808 3.06671,4.05788 3.16728,6.95941 l -6.37766,0.2801 c -0.27294,-1.62312 -0.86186,-2.78661 -1.76678,-3.49048 -0.89059,-0.71818 -2.23364,-1.07728 -4.02913,-1.07731 -1.85298,3e-5 -3.30376,0.38068 -4.35232,1.14195 -0.67513,0.4884 -1.01268,1.14197 -1.01267,1.9607 -10e-6,0.74695 0.316,1.38616 0.94803,1.91761 0.80438,0.67513 2.75789,1.37897 5.86055,2.11152 3.10263,0.73259 5.3937,1.49388 6.87322,2.28389 1.49384,0.77568 2.65733,1.8458 3.49048,3.21037 0.84745,1.35024 1.27119,3.02366 1.27122,5.02026 -3e-5,1.80988 -0.50277,3.50484 -1.50823,5.08489 -1.00551,1.58005 -2.42756,2.75791 -4.26614,3.53357 -1.83862,0.76129 -4.12969,1.14194 -6.87322,1.14194 -3.99323,0 -7.05996,-0.9193 -9.2002,-2.75791 -2.14026,-1.85296 -3.418661,-4.54623 -3.835218,-8.0798"
         style="font-size:44.12650681000000219px;font-weight:bold;font-family:Arial;-inkscape-font-specification:Arial Bold;fill:#ff0000;fill-opacity:1"
         id="path3008" />
      <path
         d="m 130.16742,895.9812 0,-31.32809 6.37766,0 0,26.00619 15.85796,0 0,5.3219 -22.23562,0"
         style="font-size:44.12650681000000219px;font-weight:bold;font-family:Arial;-inkscape-font-specification:Arial Bold;fill:#ff0000;fill-opacity:1"
         id="path3010" />
    </g>
    <g
       transform="matrix(0.70710678,-0.70710678,0.70710678,0.70710678,-671.43295,333.98927)"
       id="g8247">
      <g
         id="g5739"
         transform="translate(-2.1256215,5.3789339)">
        <g
           id="g5093"
           transform="matrix(0.68036746,0,0,0.69026222,23.972442,302.73158)"
           style="fill:#ff0000;fill-opacity:1">
          <path
             transform="translate(2.7246606,901.06361)"
             d="m 130.49714,76.290634 c 0,32.155016 -26.06679,58.221796 -58.221803,58.221796 -32.155011,0 -58.221798,-26.06678 -58.221798,-58.221796 0,-32.155011 26.066787,-58.221798 58.221798,-58.221798 32.155013,0 58.221803,26.066787 58.221803,58.221798 z"
             sodipodi:ry="58.221798"
             sodipodi:rx="58.221798"
             sodipodi:cy="76.290634"
             sodipodi:cx="72.275337"
             id="path2987"
             style="fill:#ff0000;fill-opacity:1;stroke:#000000;stroke-width:7.29610682;stroke-miterlimit:4;stroke-opacity:1;stroke-dasharray:none;stroke-dashoffset:0"
             sodipodi:type="arc" />
        </g>
        <path
           style="fill:none;stroke:#000000;stroke-width:4.94393349;stroke-linecap:butt;stroke-linejoin:miter;stroke-miterlimit:4;stroke-opacity:1;stroke-dasharray:none"
           d="m 74.902433,925.85709 c 0.195134,103.01041 0.195134,103.01041 0.195134,103.01041"
           id="path2989-6"
           inkscape:connector-curvature="0" />
      </g>
      <path
         inkscape:connector-curvature="0"
         id="path2991-8"
         d="m 22.041953,982.54885 c 101.664847,0.3959 101.664847,0.3959 101.664847,0.3959"
         style="fill:none;stroke:#000000;stroke-width:5;stroke-linecap:butt;stroke-linejoin:miter;stroke-miterlimit:4;stroke-opacity:1;stroke-dasharray:none" />
    </g>
  </g>
</svg>
