<?xml version="1.0" encoding="UTF-8" standalone="no"?>
<!-- Created with Inkscape (http://www.inkscape.org/) -->

<svg
   xmlns:dc="http://purl.org/dc/elements/1.1/"
   xmlns:cc="http://creativecommons.org/ns#"
   xmlns:rdf="http://www.w3.org/1999/02/22-rdf-syntax-ns#"
   xmlns:svg="http://www.w3.org/2000/svg"
   xmlns="http://www.w3.org/2000/svg"
   xmlns:sodipodi="http://sodipodi.sourceforge.net/DTD/sodipodi-0.dtd"
   xmlns:inkscape="http://www.inkscape.org/namespaces/inkscape"
   width="150"
   height="150"
   id="svg2"
   version="1.1"
   inkscape:version="0.48.4 r9939"
   sodipodi:docname="SPT.svg">
  <defs
     id="defs4" />
  <sodipodi:namedview
     id="base"
     pagecolor="#ffffff"
     bordercolor="#666666"
     borderopacity="1.0"
     inkscape:pageopacity="0.0"
     inkscape:pageshadow="2"
     inkscape:zoom="1.7433334"
     inkscape:cx="50.763044"
     inkscape:cy="51.196045"
     inkscape:document-units="px"
     inkscape:current-layer="layer1"
     showgrid="false"
     width="150px"
     inkscape:window-width="1366"
     inkscape:window-height="725"
     inkscape:window-x="0"
     inkscape:window-y="25"
     inkscape:window-maximized="1" />
  <metadata
     id="metadata7">
    <rdf:RDF>
      <cc:Work
         rdf:about="">
        <dc:format>image/svg+xml</dc:format>
        <dc:type
           rdf:resource="http://purl.org/dc/dcmitype/StillImage" />
        <dc:title>SPT</dc:title>
        <dc:creator>
          <cc:Agent>
            <dc:title>Arpa Piemonte SC22/Sea Consulting</dc:title>
          </cc:Agent>
        </dc:creator>
        <dc:rights>
          <cc:Agent>
            <dc:title />
          </cc:Agent>
        </dc:rights>
        <dc:date>2013.02.15</dc:date>
        <dc:description>Prova penetrometrica in foro</dc:description>
        <dc:subject>
          <rdf:Bag>
            <rdf:li>geologia geotecnica geofisica</rdf:li>
          </rdf:Bag>
        </dc:subject>
        <dc:contributor>
          <cc:Agent>
            <dc:title>DF, LL</dc:title>
          </cc:Agent>
        </dc:contributor>
        <cc:license
           rdf:resource="http://creativecommons.org/licenses/by/2.5/" />
        <dc:language>it</dc:language>
      </cc:Work>
      <cc:License
         rdf:about="http://creativecommons.org/licenses/by/3.0/">
        <cc:permits
           rdf:resource="http://creativecommons.org/ns#Reproduction" />
        <cc:permits
           rdf:resource="http://creativecommons.org/ns#Distribution" />
        <cc:requires
           rdf:resource="http://creativecommons.org/ns#Notice" />
        <cc:requires
           rdf:resource="http://creativecommons.org/ns#Attribution" />
        <cc:permits
           rdf:resource="http://creativecommons.org/ns#DerivativeWorks" />
      </cc:License>
    </rdf:RDF>
  </metadata>
  <g
     inkscape:label="Livello 1"
     inkscape:groupmode="layer"
     id="layer1"
     transform="translate(0,-902.36229)">
    <g
       transform="scale(0.80370582,1.2442364)"
       style="font-size:9.64447020999999971px;font-style:normal;font-variant:normal;font-weight:normal;font-stretch:normal;text-align:start;line-height:125%;letter-spacing:0px;word-spacing:0px;writing-mode:lr-tb;text-anchor:start;fill:#ff0000;fill-opacity:1;stroke:none;font-family:Arial;-inkscape-font-specification:Arial"
       id="text5998">
      <path
         d="m 112.06949,745.06218 5.42502,-0.52743 c 0.3265,1.8209 0.98579,3.15832 1.97787,4.01225 1.00462,0.85394 2.3546,1.28091 4.04992,1.28091 1.79577,0 3.14574,-0.37673 4.04993,-1.13021 0.91671,-0.76603 1.37507,-1.65764 1.37509,-2.67484 -2e-5,-0.653 -0.19467,-1.20555 -0.58394,-1.65764 -0.37676,-0.46463 -1.04233,-0.86649 -1.99671,-1.20556 -0.65303,-0.22603 -2.14114,-0.62788 -4.46434,-1.20556 -2.98879,-0.7409 -5.08595,-1.65135 -6.29151,-2.73134 -1.69532,-1.51949 -2.54297,-3.37178 -2.54297,-5.55687 0,-1.40647 0.39557,-2.71877 1.18672,-3.93691 0.8037,-1.23065 1.95275,-2.16621 3.44714,-2.80669 1.50694,-0.64042 3.32156,-0.96065 5.44386,-0.96068 3.46596,3e-5 6.07172,0.75978 7.81729,2.27926 1.75809,1.51953 2.68109,3.54763 2.76902,6.08431 l -5.57571,0.24487 c -0.23862,-1.41902 -0.75349,-2.43621 -1.54462,-3.05157 -0.77861,-0.62787 -1.95277,-0.94182 -3.52249,-0.94184 -1.61998,2e-5 -2.88833,0.33281 -3.80505,0.99835 -0.59023,0.42699 -0.88534,0.99838 -0.88533,1.71416 -1e-5,0.65303 0.27626,1.21186 0.82882,1.67648 0.70323,0.59024 2.41111,1.20557 5.12363,1.84601 2.71249,0.64047 4.71547,1.30604 6.00895,1.99671 1.306,0.67814 2.32319,1.6137 3.05157,2.80669 0.7409,1.18045 1.11135,2.64345 1.11138,4.38899 -3e-5,1.5823 -0.43955,3.06413 -1.31858,4.44549 -0.87908,1.38138 -2.12231,2.41112 -3.7297,3.08925 -1.60743,0.66557 -3.61041,0.99835 -6.00896,0.99835 -3.4911,0 -6.17221,-0.8037 -8.04333,-2.41112 -1.87114,-1.61996 -2.98879,-3.97457 -3.35297,-7.06382"
         style="font-size:38.57788086000000050px;font-weight:bold;-inkscape-font-specification:Arial Bold;fill:#ff0000;fill-opacity:1"
         id="path3006" />
      <path
         d="m 139.25108,754.04736 0,-27.61483 8.9475,0 c 3.39062,3e-5 5.60081,0.13817 6.63058,0.41441 1.58227,0.41444 2.90713,1.31861 3.97457,2.71251 1.0674,1.38139 1.60111,3.17089 1.60114,5.3685 -3e-5,1.69534 -0.3077,3.12066 -0.92301,4.27597 -0.61536,1.15534 -1.40023,2.06579 -2.35461,2.73134 -0.94186,0.65303 -1.90254,1.08627 -2.88204,1.29975 -1.33115,0.26372 -3.25879,0.39558 -5.78291,0.39557 l -3.63551,0 0,10.41678 -5.57571,0 m 5.57571,-22.94329 0,7.83613 3.05157,0 c 2.19762,2e-5 3.66689,-0.1444 4.40782,-0.43324 0.7409,-0.28882 1.31856,-0.7409 1.73299,-1.35626 0.42695,-0.61532 0.64044,-1.33112 0.64046,-2.1474 -2e-5,-1.00461 -0.29513,-1.83343 -0.88534,-2.48646 -0.59024,-0.65299 -1.33743,-1.06112 -2.24158,-1.2244 -0.66559,-0.12555 -2.003,-0.18834 -4.01225,-0.18837 l -2.69367,0"
         style="font-size:38.57788086000000050px;font-weight:bold;-inkscape-font-specification:Arial Bold;fill:#ff0000;fill-opacity:1"
         id="path3008" />
      <path
         d="m 171.23606,754.04736 0,-22.94329 -8.19403,0 0,-4.67154 21.94493,0 0,4.67154 -8.17519,0 0,22.94329 -5.57571,0"
         style="font-size:38.57788086000000050px;font-weight:bold;-inkscape-font-specification:Arial Bold;fill:#ff0000;fill-opacity:1"
         id="path3010" />
    </g>
    <g
       transform="translate(2.1256235,-5.3789389)"
       id="g8247">
      <g
         id="g5739"
         transform="translate(-2.1256215,5.3789339)">
        <g
           id="g5093"
           transform="matrix(0.68036746,0,0,0.69026222,23.972442,302.73158)"
           style="fill:#ff0000;fill-opacity:1">
          <path
             transform="translate(2.7246606,901.06361)"
             d="m 130.49714,76.290634 c 0,32.155016 -26.06679,58.221796 -58.221803,58.221796 -32.155011,0 -58.221798,-26.06678 -58.221798,-58.221796 0,-32.155011 26.066787,-58.221798 58.221798,-58.221798 32.155013,0 58.221803,26.066787 58.221803,58.221798 z"
             sodipodi:ry="58.221798"
             sodipodi:rx="58.221798"
             sodipodi:cy="76.290634"
             sodipodi:cx="72.275337"
             id="path2987"
             style="fill:#ff0000;fill-opacity:1;stroke:#000000;stroke-width:7.29610682;stroke-miterlimit:4;stroke-opacity:1;stroke-dasharray:none;stroke-dashoffset:0"
             sodipodi:type="arc" />
        </g>
        <path
           style="fill:none;stroke:#000000;stroke-width:4.94393349;stroke-linecap:butt;stroke-linejoin:miter;stroke-miterlimit:4;stroke-opacity:1;stroke-dasharray:none"
           d="m 74.902433,925.85709 c 0.195134,103.01041 0.195134,103.01041 0.195134,103.01041"
           id="path2989"
           inkscape:connector-curvature="0" />
      </g>
      <path
         inkscape:connector-curvature="0"
         id="path2991"
         d="m 22.041953,982.54885 c 101.664847,0.3959 101.664847,0.3959 101.664847,0.3959"
         style="fill:none;stroke:#000000;stroke-width:5;stroke-linecap:butt;stroke-linejoin:miter;stroke-miterlimit:4;stroke-opacity:1;stroke-dasharray:none" />
    </g>
  </g>
</svg>
