<?xml version="1.0" encoding="UTF-8" standalone="no"?>
<!-- Created with Inkscape (http://www.inkscape.org/) -->
<svg
   xmlns:dc="http://purl.org/dc/elements/1.1/"
   xmlns:cc="http://web.resource.org/cc/"
   xmlns:rdf="http://www.w3.org/1999/02/22-rdf-syntax-ns#"
   xmlns:svg="http://www.w3.org/2000/svg"
   xmlns="http://www.w3.org/2000/svg"
   xmlns:sodipodi="http://sodipodi.sourceforge.net/DTD/sodipodi-0.dtd"
   xmlns:inkscape="http://www.inkscape.org/namespaces/inkscape"
   width="744.09448819"
   height="1052.3622047"
   id="svg2"
   sodipodi:version="0.32"
   inkscape:version="0.44.1"
   sodipodi:docbase="C:\Programmi\Inkscape"
   sodipodi:docname="hurricane.svg">
  <defs
     id="defs4" />
  <sodipodi:namedview
     id="base"
     pagecolor="#ffffff"
     bordercolor="#666666"
     borderopacity="1.0"
     inkscape:pageopacity="0.0"
     inkscape:pageshadow="2"
     inkscape:zoom="0.35"
     inkscape:cx="375"
     inkscape:cy="520"
     inkscape:document-units="px"
     inkscape:current-layer="layer1"
     showgrid="true"
     showguides="false"
     inkscape:guide-bbox="true"
     inkscape:window-width="1280"
     inkscape:window-height="744"
     inkscape:window-x="-4"
     inkscape:window-y="-4">
    <sodipodi:guide
       orientation="horizontal"
       position="510.12704"
       id="guide2869" />
  </sodipodi:namedview>
  <metadata
     id="metadata7">
    <rdf:RDF>
      <cc:Work
         rdf:about="">
        <dc:format>image/svg+xml</dc:format>
        <dc:type
           rdf:resource="http://purl.org/dc/dcmitype/StillImage" />
      </cc:Work>
    </rdf:RDF>
  </metadata>
  <g
     inkscape:label="Livello 1"
     inkscape:groupmode="layer"
     id="layer1">
    <g
       id="g2871"
       transform="matrix(0.57043,0,0,0.568796,188.9047,212.6464)">
      <path
         d="M 114.47865,433.58762 C 113.63946,431.99543 113.77586,430.12578 113.63459,428.3776 C 113.51807,425.1542 113.52843,421.92825 113.51902,418.70331 C 113.33681,411.84733 115.22216,405.23893 116.97791,398.68242 C 119.9788,388.21884 124.14734,378.14896 127.52144,367.81001 C 129.26573,360.34767 131.59454,353.15598 134.48744,346.05699 C 140.79396,331.02502 149.01748,316.94669 157.70313,303.1925 C 164.32019,292.95305 171.01243,282.7669 177.39694,272.37988 C 180.45707,266.12019 181.67987,264.36004 188.04087,261.81312 C 186.63292,267.20265 185.52218,272.66459 184.38863,278.11671 C 182.43249,287.54993 180.37093,296.96169 178.64896,306.44125 C 177.18645,314.80759 175.58082,323.1517 174.39927,331.56385 C 173.65863,336.80212 173.47541,342.08608 173.34512,347.36609 C 173.49366,350.49532 173.11966,353.58521 172.76427,356.684 C 172.41033,359.78578 172.4081,362.91139 172.36084,366.0285 C 172.35826,366.55562 172.35567,367.08273 172.35308,367.60985 L 167.06091,370.30174 C 167.06563,369.77258 167.07035,369.24343 167.07508,368.71427 C 167.11759,365.58461 167.10716,362.4462 167.41616,359.32846 C 167.80208,356.23881 168.22887,353.15831 168.0845,350.03289 C 168.2395,344.7134 168.44489,339.39031 169.21255,334.11537 C 170.41647,325.67894 172.08092,317.31816 173.54943,308.9253 C 175.26667,299.45405 177.30121,290.04559 179.23022,280.61592 C 180.30057,275.23854 181.32078,269.83904 182.64278,264.51856 C 193.47584,259.06382 184.40659,264.61548 182.61617,270.07529 C 176.12511,280.48867 169.38348,290.73671 162.66863,301.00657 C 153.95381,314.67369 145.76308,328.70654 139.55056,343.71711 C 136.72727,350.79259 134.57501,357.97022 132.7475,365.35456 C 129.27319,375.68193 124.9595,385.72511 122.07266,396.2497 C 120.39453,402.72828 118.57848,409.25143 118.80265,416.01017 C 118.80973,419.22227 118.80222,422.4357 118.92779,425.64593 C 119.05962,427.23804 118.93895,428.95738 119.63508,430.42776 L 114.47865,433.58762 z "
         id="path2859"
         style="opacity:1;fill:black;fill-opacity:1;stroke:black;stroke-width:1.21700001;stroke-linecap:square;stroke-linejoin:miter;stroke-miterlimit:4;stroke-dasharray:none;stroke-opacity:1" />
      <g
         id="g2865">
        <path
           sodipodi:type="arc"
           style="opacity:1;fill:black;fill-opacity:1;stroke:black;stroke-width:1.21700001;stroke-linecap:square;stroke-linejoin:miter;stroke-miterlimit:4;stroke-dasharray:none;stroke-opacity:1"
           id="path1966"
           sodipodi:cx="185"
           sodipodi:cy="434.50504"
           sodipodi:rx="70.714287"
           sodipodi:ry="70.714287"
           d="M 255.71429 434.50504 A 70.714287 70.714287 0 1 1  114.28571,434.50504 A 70.714287 70.714287 0 1 1  255.71429 434.50504 z" />
        <path
           style="opacity:1;fill:black;fill-opacity:1;stroke:black;stroke-width:1.21700001;stroke-linecap:square;stroke-linejoin:miter;stroke-miterlimit:4;stroke-dasharray:none;stroke-opacity:1"
           id="path2863"
           d="M 254.61505,430.88593 C 255.45424,432.47812 255.31784,434.34777 255.45911,436.09595 C 255.57563,439.31935 255.56527,442.5453 255.57468,445.77024 C 255.75689,452.62622 253.87154,459.23462 252.11579,465.79113 C 249.1149,476.25471 244.94636,486.32459 241.57226,496.66354 C 239.82797,504.12588 237.49916,511.31757 234.60626,518.41656 C 228.29974,533.44853 220.07622,547.52686 211.39057,561.28105 C 204.77351,571.5205 198.08127,581.70665 191.69676,592.09367 C 188.63663,598.35336 187.41383,600.11351 181.05283,602.66043 C 182.46078,597.2709 183.57152,591.80896 184.70507,586.35684 C 186.66121,576.92362 188.72277,567.51186 190.44474,558.0323 C 191.90725,549.66596 193.51288,541.32185 194.69443,532.9097 C 195.43507,527.67143 195.61829,522.38747 195.74858,517.10746 C 195.60004,513.97823 195.97404,510.88834 196.32943,507.78955 C 196.68337,504.68777 196.6856,501.56216 196.73286,498.44505 C 196.73544,497.91793 196.73803,497.39082 196.74062,496.8637 L 202.03279,494.17181 C 202.02807,494.70097 202.02335,495.23012 202.01862,495.75928 C 201.97611,498.88894 201.98654,502.02735 201.67754,505.14509 C 201.29162,508.23474 200.86483,511.31524 201.0092,514.44066 C 200.8542,519.76015 200.64881,525.08324 199.88115,530.35818 C 198.67723,538.79461 197.01278,547.15539 195.54427,555.54825 C 193.82703,565.0195 191.79249,574.42796 189.86348,583.85763 C 188.79313,589.23501 187.77292,594.63451 186.45092,599.95499 C 175.61786,605.40973 184.68711,599.85807 186.47753,594.39826 C 192.96859,583.98488 199.71022,573.73684 206.42507,563.46698 C 215.13989,549.79986 223.33062,535.76701 229.54314,520.75644 C 232.36643,513.68096 234.51869,506.50333 236.3462,499.11899 C 239.82051,488.79162 244.1342,478.74844 247.02104,468.22385 C 248.69917,461.74527 250.51522,455.22212 250.29105,448.46338 C 250.28397,445.25128 250.29148,442.03785 250.16591,438.82762 C 250.03408,437.23551 250.15475,435.51617 249.45862,434.04579 L 254.61505,430.88593 z " />
      </g>
    </g>
  </g>
</svg>
