<?xml version="1.0" encoding="UTF-8" standalone="no"?>
<!-- Generator: Tilo Wuetherich, Landesarchiv Baden-Wuerttemberg SVG
  Version: 6.00 Build 51448 -->

<svg
   xmlns:dc="http://purl.org/dc/elements/1.1/"
   xmlns:cc="http://creativecommons.org/ns#"
   xmlns:rdf="http://www.w3.org/1999/02/22-rdf-syntax-ns#"
   xmlns:svg="http://www.w3.org/2000/svg"
   xmlns="http://www.w3.org/2000/svg"
   xmlns:sodipodi="http://sodipodi.sourceforge.net/DTD/sodipodi-0.dtd"
   xmlns:inkscape="http://www.inkscape.org/namespaces/inkscape"
   version="1.1"
   id="Ebene_1"
   width="20"
   height="20"
   viewBox="0 0 20 20"
   overflow="visible"
   enable-background="new 0 0 20 20"
   xml:space="preserve"
   inkscape:version="0.47 r22583"
   sodipodi:docname="10.2.24.svg"><metadata
   id="metadata13"><rdf:RDF><cc:Work
       rdf:about=""><dc:format>image/svg+xml</dc:format><dc:type
         rdf:resource="http://purl.org/dc/dcmitype/StillImage" /><dc:title></dc:title></cc:Work></rdf:RDF></metadata><defs
   id="defs11"><inkscape:perspective
     sodipodi:type="inkscape:persp3d"
     inkscape:vp_x="0 : 10 : 1"
     inkscape:vp_y="0 : 1000 : 0"
     inkscape:vp_z="20 : 10 : 1"
     inkscape:persp3d-origin="10 : 6.6666667 : 1"
     id="perspective15" /><inkscape:perspective
     id="perspective14762"
     inkscape:persp3d-origin="0.5 : 0.33333333 : 1"
     inkscape:vp_z="1 : 0.5 : 1"
     inkscape:vp_y="0 : 1000 : 0"
     inkscape:vp_x="0 : 0.5 : 1"
     sodipodi:type="inkscape:persp3d" /><inkscape:perspective
     id="perspective14812"
     inkscape:persp3d-origin="0.5 : 0.33333333 : 1"
     inkscape:vp_z="1 : 0.5 : 1"
     inkscape:vp_y="0 : 1000 : 0"
     inkscape:vp_x="0 : 0.5 : 1"
     sodipodi:type="inkscape:persp3d" /><inkscape:perspective
     id="perspective14893"
     inkscape:persp3d-origin="0.5 : 0.33333333 : 1"
     inkscape:vp_z="1 : 0.5 : 1"
     inkscape:vp_y="0 : 1000 : 0"
     inkscape:vp_x="0 : 0.5 : 1"
     sodipodi:type="inkscape:persp3d" /><inkscape:perspective
     id="perspective14974"
     inkscape:persp3d-origin="0.5 : 0.33333333 : 1"
     inkscape:vp_z="1 : 0.5 : 1"
     inkscape:vp_y="0 : 1000 : 0"
     inkscape:vp_x="0 : 0.5 : 1"
     sodipodi:type="inkscape:persp3d" /><inkscape:perspective
     id="perspective14999"
     inkscape:persp3d-origin="0.5 : 0.33333333 : 1"
     inkscape:vp_z="1 : 0.5 : 1"
     inkscape:vp_y="0 : 1000 : 0"
     inkscape:vp_x="0 : 0.5 : 1"
     sodipodi:type="inkscape:persp3d" /><inkscape:perspective
     id="perspective15024"
     inkscape:persp3d-origin="0.5 : 0.33333333 : 1"
     inkscape:vp_z="1 : 0.5 : 1"
     inkscape:vp_y="0 : 1000 : 0"
     inkscape:vp_x="0 : 0.5 : 1"
     sodipodi:type="inkscape:persp3d" /><inkscape:perspective
     id="perspective15067"
     inkscape:persp3d-origin="0.5 : 0.33333333 : 1"
     inkscape:vp_z="1 : 0.5 : 1"
     inkscape:vp_y="0 : 1000 : 0"
     inkscape:vp_x="0 : 0.5 : 1"
     sodipodi:type="inkscape:persp3d" /><inkscape:perspective
     id="perspective15110"
     inkscape:persp3d-origin="0.5 : 0.33333333 : 1"
     inkscape:vp_z="1 : 0.5 : 1"
     inkscape:vp_y="0 : 1000 : 0"
     inkscape:vp_x="0 : 0.5 : 1"
     sodipodi:type="inkscape:persp3d" /><inkscape:perspective
     id="perspective15169"
     inkscape:persp3d-origin="0.5 : 0.33333333 : 1"
     inkscape:vp_z="1 : 0.5 : 1"
     inkscape:vp_y="0 : 1000 : 0"
     inkscape:vp_x="0 : 0.5 : 1"
     sodipodi:type="inkscape:persp3d" /><inkscape:perspective
     id="perspective15223"
     inkscape:persp3d-origin="0.5 : 0.33333333 : 1"
     inkscape:vp_z="1 : 0.5 : 1"
     inkscape:vp_y="0 : 1000 : 0"
     inkscape:vp_x="0 : 0.5 : 1"
     sodipodi:type="inkscape:persp3d" /><inkscape:perspective
     id="perspective15273"
     inkscape:persp3d-origin="0.5 : 0.33333333 : 1"
     inkscape:vp_z="1 : 0.5 : 1"
     inkscape:vp_y="0 : 1000 : 0"
     inkscape:vp_x="0 : 0.5 : 1"
     sodipodi:type="inkscape:persp3d" /><inkscape:perspective
     id="perspective16656"
     inkscape:persp3d-origin="0.5 : 0.33333333 : 1"
     inkscape:vp_z="1 : 0.5 : 1"
     inkscape:vp_y="0 : 1000 : 0"
     inkscape:vp_x="0 : 0.5 : 1"
     sodipodi:type="inkscape:persp3d" /><inkscape:perspective
     id="perspective16706"
     inkscape:persp3d-origin="0.5 : 0.33333333 : 1"
     inkscape:vp_z="1 : 0.5 : 1"
     inkscape:vp_y="0 : 1000 : 0"
     inkscape:vp_x="0 : 0.5 : 1"
     sodipodi:type="inkscape:persp3d" /><inkscape:perspective
     id="perspective16868"
     inkscape:persp3d-origin="0.5 : 0.33333333 : 1"
     inkscape:vp_z="1 : 0.5 : 1"
     inkscape:vp_y="0 : 1000 : 0"
     inkscape:vp_x="0 : 0.5 : 1"
     sodipodi:type="inkscape:persp3d" /><inkscape:perspective
     id="perspective16918"
     inkscape:persp3d-origin="0.5 : 0.33333333 : 1"
     inkscape:vp_z="1 : 0.5 : 1"
     inkscape:vp_y="0 : 1000 : 0"
     inkscape:vp_x="0 : 0.5 : 1"
     sodipodi:type="inkscape:persp3d" /><inkscape:perspective
     id="perspective19890"
     inkscape:persp3d-origin="0.5 : 0.33333333 : 1"
     inkscape:vp_z="1 : 0.5 : 1"
     inkscape:vp_y="0 : 1000 : 0"
     inkscape:vp_x="0 : 0.5 : 1"
     sodipodi:type="inkscape:persp3d" /><inkscape:perspective
     id="perspective19944"
     inkscape:persp3d-origin="0.5 : 0.33333333 : 1"
     inkscape:vp_z="1 : 0.5 : 1"
     inkscape:vp_y="0 : 1000 : 0"
     inkscape:vp_x="0 : 0.5 : 1"
     sodipodi:type="inkscape:persp3d" /><inkscape:perspective
     id="perspective20014"
     inkscape:persp3d-origin="0.5 : 0.33333333 : 1"
     inkscape:vp_z="1 : 0.5 : 1"
     inkscape:vp_y="0 : 1000 : 0"
     inkscape:vp_x="0 : 0.5 : 1"
     sodipodi:type="inkscape:persp3d" /><inkscape:perspective
     id="perspective20076"
     inkscape:persp3d-origin="0.5 : 0.33333333 : 1"
     inkscape:vp_z="1 : 0.5 : 1"
     inkscape:vp_y="0 : 1000 : 0"
     inkscape:vp_x="0 : 0.5 : 1"
     sodipodi:type="inkscape:persp3d" /><inkscape:perspective
     id="perspective25708"
     inkscape:persp3d-origin="0.5 : 0.33333333 : 1"
     inkscape:vp_z="1 : 0.5 : 1"
     inkscape:vp_y="0 : 1000 : 0"
     inkscape:vp_x="0 : 0.5 : 1"
     sodipodi:type="inkscape:persp3d" /><inkscape:perspective
     id="perspective25775"
     inkscape:persp3d-origin="0.5 : 0.33333333 : 1"
     inkscape:vp_z="1 : 0.5 : 1"
     inkscape:vp_y="0 : 1000 : 0"
     inkscape:vp_x="0 : 0.5 : 1"
     sodipodi:type="inkscape:persp3d" /><inkscape:perspective
     id="perspective25818"
     inkscape:persp3d-origin="0.5 : 0.33333333 : 1"
     inkscape:vp_z="1 : 0.5 : 1"
     inkscape:vp_y="0 : 1000 : 0"
     inkscape:vp_x="0 : 0.5 : 1"
     sodipodi:type="inkscape:persp3d" /><inkscape:perspective
     id="perspective25861"
     inkscape:persp3d-origin="0.5 : 0.33333333 : 1"
     inkscape:vp_z="1 : 0.5 : 1"
     inkscape:vp_y="0 : 1000 : 0"
     inkscape:vp_x="0 : 0.5 : 1"
     sodipodi:type="inkscape:persp3d" /><inkscape:perspective
     id="perspective25975"
     inkscape:persp3d-origin="0.5 : 0.33333333 : 1"
     inkscape:vp_z="1 : 0.5 : 1"
     inkscape:vp_y="0 : 1000 : 0"
     inkscape:vp_x="0 : 0.5 : 1"
     sodipodi:type="inkscape:persp3d" /><inkscape:perspective
     id="perspective26105"
     inkscape:persp3d-origin="0.5 : 0.33333333 : 1"
     inkscape:vp_z="1 : 0.5 : 1"
     inkscape:vp_y="0 : 1000 : 0"
     inkscape:vp_x="0 : 0.5 : 1"
     sodipodi:type="inkscape:persp3d" /><inkscape:perspective
     id="perspective26235"
     inkscape:persp3d-origin="0.5 : 0.33333333 : 1"
     inkscape:vp_z="1 : 0.5 : 1"
     inkscape:vp_y="0 : 1000 : 0"
     inkscape:vp_x="0 : 0.5 : 1"
     sodipodi:type="inkscape:persp3d" /><inkscape:perspective
     id="perspective26419"
     inkscape:persp3d-origin="0.5 : 0.33333333 : 1"
     inkscape:vp_z="1 : 0.5 : 1"
     inkscape:vp_y="0 : 1000 : 0"
     inkscape:vp_x="0 : 0.5 : 1"
     sodipodi:type="inkscape:persp3d" /><inkscape:perspective
     id="perspective26565"
     inkscape:persp3d-origin="0.5 : 0.33333333 : 1"
     inkscape:vp_z="1 : 0.5 : 1"
     inkscape:vp_y="0 : 1000 : 0"
     inkscape:vp_x="0 : 0.5 : 1"
     sodipodi:type="inkscape:persp3d" /><inkscape:perspective
     id="perspective26679"
     inkscape:persp3d-origin="0.5 : 0.33333333 : 1"
     inkscape:vp_z="1 : 0.5 : 1"
     inkscape:vp_y="0 : 1000 : 0"
     inkscape:vp_x="0 : 0.5 : 1"
     sodipodi:type="inkscape:persp3d" /><inkscape:perspective
     id="perspective26722"
     inkscape:persp3d-origin="0.5 : 0.33333333 : 1"
     inkscape:vp_z="1 : 0.5 : 1"
     inkscape:vp_y="0 : 1000 : 0"
     inkscape:vp_x="0 : 0.5 : 1"
     sodipodi:type="inkscape:persp3d" /><inkscape:perspective
     id="perspective26768"
     inkscape:persp3d-origin="0.5 : 0.33333333 : 1"
     inkscape:vp_z="1 : 0.5 : 1"
     inkscape:vp_y="0 : 1000 : 0"
     inkscape:vp_x="0 : 0.5 : 1"
     sodipodi:type="inkscape:persp3d" /><inkscape:perspective
     id="perspective26814"
     inkscape:persp3d-origin="0.5 : 0.33333333 : 1"
     inkscape:vp_z="1 : 0.5 : 1"
     inkscape:vp_y="0 : 1000 : 0"
     inkscape:vp_x="0 : 0.5 : 1"
     sodipodi:type="inkscape:persp3d" /><inkscape:perspective
     id="perspective26896"
     inkscape:persp3d-origin="0.5 : 0.33333333 : 1"
     inkscape:vp_z="1 : 0.5 : 1"
     inkscape:vp_y="0 : 1000 : 0"
     inkscape:vp_x="0 : 0.5 : 1"
     sodipodi:type="inkscape:persp3d" /><inkscape:perspective
     id="perspective26999"
     inkscape:persp3d-origin="0.5 : 0.33333333 : 1"
     inkscape:vp_z="1 : 0.5 : 1"
     inkscape:vp_y="0 : 1000 : 0"
     inkscape:vp_x="0 : 0.5 : 1"
     sodipodi:type="inkscape:persp3d" /><inkscape:perspective
     id="perspective27073"
     inkscape:persp3d-origin="0.5 : 0.33333333 : 1"
     inkscape:vp_z="1 : 0.5 : 1"
     inkscape:vp_y="0 : 1000 : 0"
     inkscape:vp_x="0 : 0.5 : 1"
     sodipodi:type="inkscape:persp3d" /><inkscape:perspective
     id="perspective27156"
     inkscape:persp3d-origin="0.5 : 0.33333333 : 1"
     inkscape:vp_z="1 : 0.5 : 1"
     inkscape:vp_y="0 : 1000 : 0"
     inkscape:vp_x="0 : 0.5 : 1"
     sodipodi:type="inkscape:persp3d" /><inkscape:perspective
     id="perspective27214"
     inkscape:persp3d-origin="0.5 : 0.33333333 : 1"
     inkscape:vp_z="1 : 0.5 : 1"
     inkscape:vp_y="0 : 1000 : 0"
     inkscape:vp_x="0 : 0.5 : 1"
     sodipodi:type="inkscape:persp3d" /><inkscape:perspective
     id="perspective27304"
     inkscape:persp3d-origin="0.5 : 0.33333333 : 1"
     inkscape:vp_z="1 : 0.5 : 1"
     inkscape:vp_y="0 : 1000 : 0"
     inkscape:vp_x="0 : 0.5 : 1"
     sodipodi:type="inkscape:persp3d" /><inkscape:perspective
     id="perspective27362"
     inkscape:persp3d-origin="0.5 : 0.33333333 : 1"
     inkscape:vp_z="1 : 0.5 : 1"
     inkscape:vp_y="0 : 1000 : 0"
     inkscape:vp_x="0 : 0.5 : 1"
     sodipodi:type="inkscape:persp3d" /><inkscape:perspective
     id="perspective27432"
     inkscape:persp3d-origin="0.5 : 0.33333333 : 1"
     inkscape:vp_z="1 : 0.5 : 1"
     inkscape:vp_y="0 : 1000 : 0"
     inkscape:vp_x="0 : 0.5 : 1"
     sodipodi:type="inkscape:persp3d" /><inkscape:perspective
     id="perspective27498"
     inkscape:persp3d-origin="0.5 : 0.33333333 : 1"
     inkscape:vp_z="1 : 0.5 : 1"
     inkscape:vp_y="0 : 1000 : 0"
     inkscape:vp_x="0 : 0.5 : 1"
     sodipodi:type="inkscape:persp3d" /></defs><sodipodi:namedview
   pagecolor="#ffffff"
   bordercolor="#666666"
   borderopacity="1"
   objecttolerance="10"
   gridtolerance="10"
   guidetolerance="10"
   inkscape:pageopacity="0"
   inkscape:pageshadow="2"
   inkscape:window-width="1024"
   inkscape:window-height="695"
   id="namedview9"
   showgrid="false"
   inkscape:zoom="11.8"
   inkscape:cx="9.0620488"
   inkscape:cy="10"
   inkscape:window-x="0"
   inkscape:window-y="24"
   inkscape:window-maximized="1"
   inkscape:current-layer="Ebene_1" />
  
  
  
<path
   id="path21855"
   style="fill:#ffffff;fill-opacity:1;fill-rule:nonzero;stroke:none"
   d="m 9.7283483,10.79375 c 0.2225,-0.0625 0.4549997,-0.09625 0.6962497,-0.09625 1.74125,0 3.94375,2.5525 3.885,4.6975 -0.0575,2.14875 -1.68125,4.35 -4.8712497,4.35 -3.18875,0 -5.625,-2.0275 -5.625,-5.8 0,-3.7725 5.21875,-8.2975 5.68375,-9.04875 0.46125,-0.75625 0.7512497,-2.9 -1.10375,-4.64125 0,0 2.0524997,1.7075 2.6112497,3.82875 0.755,2.84875 0.0625,5.49125 -0.67375,6.0975 l -0.6024997,0.6125" /><g
   id="g27737"
   transform="matrix(0.9,0,0,0.9,1.844156,0.99999994)"><path
     d="m 5.4318256,18.040367 c 0,0 -1.64625,0.35 -1.88,0.5875 -0.25375,0.2525 3.1925,-0.04125 3.64375,0.2625 0.46,0.3075 1.7950002,0.91875 2.9812504,0.3075 1.19,-0.61125 3.6525,0.9125 2.6175,-0.12375 -1.03,-1.03375 2.98125,0.60875 0.76625,-0.7 -2.22625,-1.3075 -2.19375,-0.91125 -2.65125,-0.9725 -0.45375,-0.0625 -1.0987502,-0.21375 -0.485,-0.8225 0.6075,-0.61 1.79375,-3.04125 3.07125,-3.5925 1.27875,-0.5475 1.18625,-1.73375 2.22125,-2.76875 1.035,-1.0349998 2.22625,-2.6474998 2.59,-3.6549998 0.36375,-0.99875 1.2475,-3.7425 0.945,-4.53 -0.3075,-0.7925001 -1.22375,-1.52250008 -1.89,-1.49125008 -0.67125,0.0275 -1.855,0.69874998 -2.61625,2.88875008 -0.7625,2.1925 -2.68125,2.92 -2.9225,5.63 -0.24375,2.7074998 -0.945,0.915 -1.3675,2.9224998 -0.43,2.0125 -1.4650002,1.4325 -1.3725002,0.45625 0.09125,-0.9725 0.305,-4.2587498 1.0675002,-5.8424998 0.75875,-1.5825 1.21625,-4.17125 0.52,-4.86875 -0.7050002,-0.6987501 -2.2537504,-1.49375008 -2.8975004,0.515 -0.6375,2.0125 -2.1,3.65375 -1.88625,4.84 0.215,1.1875 -1.4275,2.64875 -0.18,4.5324998 1.245,1.89125 -0.2125,1.22125 0.66625,2.4675 0.88625,1.2475 -0.1825,1.55375 -0.66625,0.4275 -0.49125,-1.12625 -1.79875,-2.55875 -2.04,-4.2925 -0.2425,-1.7337498 -0.51625,-3.6549998 -0.48875,-4.4462498 0.03125,-0.78625 -1.3675,-1.51625 -1.39625,0.0625 -0.035,1.585 0.88125,3.1975 0.02875,3.775 -0.85499996,0.5787498 -1.55499996,-0.9125 -2.46624998,-0.15125 -0.91000002,0.7599998 -0.54875002,2.5562498 0.27375002,2.7687498 0.8225,0.2125 1.76999996,0.48625 2.22374996,1.76875 0.455,1.27625 1.70125,2.065 2.22,2.91875 0.5175,0.84875 1.37,1.12625 1.37,1.12625"
     style="fill:#ffffff;fill-opacity:1;fill-rule:nonzero;stroke:none"
     id="path22441" /><path
     d="m 5.4318256,18.040367 c 0,0 -1.64625,0.35 -1.88,0.5875 -0.25375,0.2525 3.1925,-0.04125 3.64375,0.2625 0.46,0.3075 1.7950002,0.91875 2.9812504,0.3075 1.19,-0.61125 3.6525,0.9125 2.6175,-0.12375 -1.03,-1.03375 2.98125,0.60875 0.76625,-0.7 -2.22625,-1.3075 -2.19375,-0.91125 -2.65125,-0.9725 -0.45375,-0.0625 -1.0987502,-0.21375 -0.485,-0.8225 0.6075,-0.61 1.79375,-3.04125 3.07125,-3.5925 1.27875,-0.5475 1.18625,-1.73375 2.22125,-2.76875 1.035,-1.0349998 2.22625,-2.6474998 2.59,-3.6549998 0.36375,-0.99875 1.2475,-3.7425 0.945,-4.53 -0.3075,-0.7925001 -1.22375,-1.52250008 -1.89,-1.49125008 -0.67125,0.0275 -1.855,0.69874998 -2.61625,2.88875008 -0.7625,2.1925 -2.68125,2.92 -2.9225,5.63 -0.24375,2.7074998 -0.945,0.915 -1.3675,2.9224998 -0.43,2.0125 -1.4650002,1.4325 -1.3725002,0.45625 0.09125,-0.9725 0.305,-4.2587498 1.0675002,-5.8424998 0.75875,-1.5825 1.21625,-4.17125 0.52,-4.86875 -0.7050002,-0.6987501 -2.2537504,-1.49375008 -2.8975004,0.515 -0.6375,2.0125 -2.1,3.65375 -1.88625,4.84 0.215,1.1875 -1.4275,2.64875 -0.18,4.5324998 1.245,1.89125 -0.2125,1.22125 0.66625,2.4675 0.88625,1.2475 -0.1825,1.55375 -0.66625,0.4275 -0.49125,-1.12625 -1.79875,-2.55875 -2.04,-4.2925 -0.2425,-1.7337498 -0.51625,-3.6549998 -0.48875,-4.4462498 0.03125,-0.78625 -1.3675,-1.51625 -1.39625,0.0625 -0.035,1.585 0.88125,3.1975 0.02875,3.775 -0.85499996,0.5787498 -1.55499996,-0.9125 -2.46624998,-0.15125 -0.91000002,0.7599998 -0.54875002,2.5562498 0.27375002,2.7687498 0.8225,0.2125 1.76999996,0.48625 2.22374996,1.76875 0.455,1.27625 1.70125,2.065 2.22,2.91875 0.5175,0.84875 1.37,1.12625 1.37,1.12625 z"
     style="fill:none;stroke:#000000;stroke-width:0.44999999;stroke-linecap:butt;stroke-linejoin:miter;stroke-miterlimit:4;stroke-opacity:1;stroke-dasharray:none"
     id="path22443" /><path
     d="m 16.810576,0.84661712 c -0.5575,0.56250008 1.6475,2.00750008 2.13375,1.24500008 0.48875,-0.76 -1.7625,-1.61125008 -2.13375,-1.24500008"
     style="fill:#000000;fill-opacity:1;fill-rule:nonzero;stroke:none"
     id="path22445" /><path
     d="m 8.4443256,1.7903672 c -0.105,0.7025 1.9212504,1.61 2.2262504,0.7275 0.3,-0.88125 -2.0737502,-1.73375008 -2.2262504,-0.7275"
     style="fill:#000000;fill-opacity:1;fill-rule:nonzero;stroke:none"
     id="path22447" /><path
     d="m 2.0255756,5.4103672 c -0.045,0.39875 0.91,0.5175 0.9375,0.1225 0.03375,-0.3975 -0.87875,-0.69875 -0.9375,-0.1225"
     style="fill:#000000;fill-opacity:1;fill-rule:nonzero;stroke:none"
     id="path22449" /><path
     d="m -0.80692438,11.466617 c 0.45750002,0.21 0.88125002,-1.6449998 0.48375002,-1.8574998 -0.32000002,-0.1725 -1.11625004,1.5612498 -0.48375002,1.8574998"
     style="fill:#000000;fill-opacity:1;fill-rule:nonzero;stroke:none"
     id="path22451" /><path
     d="m 6.9618256,17.069117 c 0.18,0.175 0.2525,0.3925 0.15875,0.4825 -0.08625,0.08625 -0.30625,0.01875 -0.48125,-0.16625 -0.17875,-0.17625 -0.2525,-0.39 -0.16,-0.48125 0.08625,-0.0875 0.3075,-0.015 0.4825,0.165"
     style="fill:#231f20;fill-opacity:1;fill-rule:nonzero;stroke:none"
     id="path22731" /><path
     d="m 5.3718256,15.914117 c 0.17875,0.18 0.24375,0.4025 0.15875,0.48625 -0.09,0.0925 -0.30125,0.01875 -0.485,-0.16 -0.17625,-0.18 -0.24875,-0.395 -0.16375,-0.48875 0.085,-0.08625 0.31,-0.01875 0.49,0.1625"
     style="fill:#231f20;fill-opacity:1;fill-rule:nonzero;stroke:none"
     id="path22733" /><path
     d="m 5.1643256,14.692867 c 0.17875,0.17625 0.25625,0.39875 0.1575,0.48375 -0.08125,0.08875 -0.30125,0.02125 -0.48,-0.16375 -0.18,-0.17375 -0.2525,-0.39625 -0.15875,-0.48125 0.085,-0.09125 0.305,-0.02125 0.48125,0.16125"
     style="fill:#231f20;fill-opacity:1;fill-rule:nonzero;stroke:none"
     id="path22735" /><path
     d="m 5.7805756,17.067867 c 0.1825,0.18 0.26,0.39375 0.16625,0.47875 -0.08625,0.09 -0.305,0.02375 -0.485,-0.15625 -0.175,-0.17875 -0.2525,-0.3975 -0.15875,-0.48625 0.08875,-0.08875 0.30125,-0.01875 0.4775,0.16375"
     style="fill:#231f20;fill-opacity:1;fill-rule:nonzero;stroke:none"
     id="path22737" /><path
     d="m 3.2093256,14.299117 c 0.17625,0.17875 0.245,0.3975 0.16,0.48625 -0.09375,0.09125 -0.315,0.01875 -0.49375,-0.16125 -0.17875,-0.18 -0.245,-0.39625 -0.16,-0.48375 0.095,-0.09125 0.315,-0.01625 0.49375,0.15875"
     style="fill:#231f20;fill-opacity:1;fill-rule:nonzero;stroke:none"
     id="path22739" /><path
     d="m 4.1818256,15.225367 c 0.17875,0.175 0.25625,0.39 0.16125,0.48375 -0.08875,0.08875 -0.305,0.01125 -0.48375,-0.16375 -0.18,-0.18 -0.25375,-0.39125 -0.16375,-0.48375 0.09,-0.085 0.30625,-0.0175 0.48625,0.16375"
     style="fill:#231f20;fill-opacity:1;fill-rule:nonzero;stroke:none"
     id="path22741" /><path
     d="m 6.5655756,15.767867 c 0.185,0.175 0.2625,0.3975 0.1675,0.48625 -0.085,0.08625 -0.30125,0.0175 -0.48,-0.1625 -0.18,-0.18125 -0.2525,-0.40125 -0.1675,-0.4825 0.09375,-0.09375 0.30625,-0.0275 0.48,0.15875"
     style="fill:#231f20;fill-opacity:1;fill-rule:nonzero;stroke:none"
     id="path22743" /><path
     d="m 2.9980756,10.069117 c 0.02125,0.25625 -0.0525,0.47125 -0.17625,0.485 -0.12875,0.01 -0.25125,-0.1775 -0.28,-0.43125 -0.025,-0.2524998 0.045,-0.4687498 0.17125,-0.4799998 0.12625,-0.01375 0.2525,0.17875 0.285,0.4262498"
     style="fill:#231f20;fill-opacity:1;fill-rule:nonzero;stroke:none"
     id="path22745" /><path
     d="m 8.8018258,16.791617 c 0.0325,0.25 -0.04375,0.4625 -0.17125,0.4775 -0.1225002,0.015 -0.2525002,-0.17875 -0.2762502,-0.425 -0.03375,-0.25625 0.0525,-0.47125 0.17875,-0.47875 0.1262502,-0.0175 0.2437502,0.17375 0.2687502,0.42625"
     style="fill:#231f20;fill-opacity:1;fill-rule:nonzero;stroke:none"
     id="path22747" /><path
     d="m 2.7993256,6.6791172 c 0.0275,0.2575 -0.05375,0.46875 -0.18,0.48625 -0.12125,0.00875 -0.2525,-0.18875 -0.27625,-0.43625 -0.03,-0.25125 0.0525,-0.46125 0.17375,-0.48 0.1275,-0.0125 0.25375,0.17875 0.2825,0.43"
     style="fill:#231f20;fill-opacity:1;fill-rule:nonzero;stroke:none"
     id="path22749" /><path
     d="m 2.7980756,11.931617 c 0.1025,0.2375 0.0825,0.46375 -0.0275,0.515 -0.1225,0.05125 -0.295,-0.09875 -0.3925,-0.3325 -0.10125,-0.23375 -0.085,-0.46375 0.02875,-0.5075 0.11375,-0.04875 0.285,0.1 0.39125,0.325"
     style="fill:#231f20;fill-opacity:1;fill-rule:nonzero;stroke:none"
     id="path22751" /><path
     d="m 3.5080756,11.799117 c 0.09375,0.2325 0.08875,0.45875 -0.03375,0.50625 -0.11,0.05 -0.29,-0.09375 -0.39125,-0.33 -0.0975,-0.22625 -0.085,-0.4575 0.0375,-0.50625 0.11375,-0.05125 0.28875,0.095 0.3875,0.33"
     style="fill:#231f20;fill-opacity:1;fill-rule:nonzero;stroke:none"
     id="path22753" /><path
     d="m 4.4993256,13.707867 c 0.0975,0.23125 0.0825,0.45875 -0.03625,0.50625 -0.11875,0.05125 -0.28875,-0.0975 -0.3875,-0.33125 -0.09625,-0.23 -0.09,-0.45625 0.02875,-0.50875 0.1225,-0.04625 0.29375,0.0975 0.395,0.33375"
     style="fill:#231f20;fill-opacity:1;fill-rule:nonzero;stroke:none"
     id="path22755" /><path
     d="m 3.6393256,13.459117 c 0.0925,0.235 0.085,0.465 -0.03375,0.51375 -0.1175,0.04875 -0.29375,-0.1 -0.39125,-0.33125 -0.0975,-0.2325 -0.08625,-0.45875 0.03,-0.51125 0.11625,-0.05125 0.29625,0.1 0.395,0.32875"
     style="fill:#231f20;fill-opacity:1;fill-rule:nonzero;stroke:none"
     id="path22757" /><path
     d="m 2.2530756,10.582867 c 0.1025,0.2275 0.07875,0.45875 -0.03125,0.50875 -0.1175,0.05125 -0.28875,-0.09875 -0.39125,-0.3325 -0.09875,-0.23125 -0.08625,-0.4625 0.0325,-0.5075 0.11375,-0.055 0.2925,0.09625 0.39,0.33125"
     style="fill:#231f20;fill-opacity:1;fill-rule:nonzero;stroke:none"
     id="path22759" /><path
     d="m 0.65182564,10.156617 c 0.175,0.175 0.2525,0.39875 0.1625,0.48375 -0.0925,0.09375 -0.30875,0.0125 -0.485,-0.1625 -0.1825,-0.17875 -0.24875,-0.4 -0.1625,-0.4874998 0.09375,-0.09125 0.305,-0.01375 0.485,0.1662498"
     style="fill:#231f20;fill-opacity:1;fill-rule:nonzero;stroke:none"
     id="path22761" /><path
     d="m 1.4468256,11.396617 c 0.17875,0.175 0.24875,0.39125 0.16375,0.48375 -0.09,0.0875 -0.31,0.01375 -0.49,-0.16125 -0.17499996,-0.18125 -0.24874996,-0.395 -0.15999996,-0.485 0.09125,-0.09375 0.30624996,-0.01625 0.48624996,0.1625"
     style="fill:#231f20;fill-opacity:1;fill-rule:nonzero;stroke:none"
     id="path22763" /><path
     d="m 2.3680756,12.817867 c 0.17625,0.1775 0.2575,0.39625 0.1675,0.48375 -0.08875,0.09125 -0.305,0.01875 -0.485,-0.16125 -0.18375,-0.17625 -0.2525,-0.38875 -0.15875,-0.48 0.085,-0.09125 0.2975,-0.02375 0.47625,0.1575"
     style="fill:#231f20;fill-opacity:1;fill-rule:nonzero;stroke:none"
     id="path22765" /><path
     d="m 0.27807564,11.355367 c 0.18375,0.18625 0.25375,0.40125 0.1675,0.49375 -0.09,0.08625 -0.31,0.0175 -0.48875,-0.1625 -0.1725,-0.17875 -0.24625,-0.4 -0.16,-0.48875 0.09375,-0.09125 0.30625,-0.01875 0.48125,0.1575"
     style="fill:#231f20;fill-opacity:1;fill-rule:nonzero;stroke:none"
     id="path22767" /><path
     d="m 8.6480758,15.180367 c 0,0.2525 -0.0975,0.45125 -0.2250002,0.45125 -0.125,0 -0.2275,-0.19875 -0.2275,-0.45125 0,-0.25625 0.1025,-0.45875 0.2275,-0.45875 0.1275,0 0.2250002,0.2025 0.2250002,0.45875"
     style="fill:#231f20;fill-opacity:1;fill-rule:nonzero;stroke:none"
     id="path22769" /><path
     d="m 3.0205756,8.6066172 c 0,0.25 -0.0975,0.45125 -0.225,0.45125 -0.12625,0 -0.2275,-0.20125 -0.2275,-0.45125 0,-0.2575 0.10125,-0.46125 0.2275,-0.46125 0.1275,0 0.225,0.20375 0.225,0.46125"
     style="fill:#231f20;fill-opacity:1;fill-rule:nonzero;stroke:none"
     id="path22771" /><path
     d="m 8.5780756,3.2153672 c -0.08625,0.23375 -0.2575,0.38875 -0.38,0.34875 -0.1125,-0.04875 -0.1375,-0.28 -0.045,-0.51125 0.08625,-0.235 0.25375,-0.3875 0.37125,-0.3475 0.1187502,0.04375 0.1475002,0.27375 0.05375,0.51"
     style="fill:#231f20;fill-opacity:1;fill-rule:nonzero;stroke:none"
     id="path22773" /><path
     d="m 18.325576,3.1016172 c -0.08625,0.23125 -0.25625,0.38875 -0.37875,0.34 -0.1175,-0.04875 -0.135,-0.2675 -0.05375,-0.51125 0.09375,-0.23 0.2575,-0.38625 0.38,-0.34125 0.1225,0.04375 0.1425,0.2725 0.0525,0.5125"
     style="fill:#231f20;fill-opacity:1;fill-rule:nonzero;stroke:none"
     id="path22775" /><path
     d="m 16.560576,2.5091172 c -0.08625,0.23875 -0.25625,0.39125 -0.375,0.3475 -0.11875,-0.045 -0.1425,-0.27375 -0.04875,-0.51125 0.085,-0.23375 0.2525,-0.3825 0.37125,-0.34375 0.1175,0.04 0.14625,0.28125 0.0525,0.5075"
     style="fill:#231f20;fill-opacity:1;fill-rule:nonzero;stroke:none"
     id="path22777" /><path
     d="m 15.823076,3.7703672 c -0.08875,0.24375 -0.25625,0.395 -0.375,0.3525 -0.11875,-0.05375 -0.14625,-0.27625 -0.05375,-0.51375 0.08625,-0.23375 0.2575,-0.38875 0.38,-0.3475 0.11875,0.05125 0.13375,0.2775 0.04875,0.50875"
     style="fill:#231f20;fill-opacity:1;fill-rule:nonzero;stroke:none"
     id="path22779" /><path
     d="m 17.176826,3.3841172 c -0.08625,0.23125 -0.25625,0.39 -0.375,0.3475 -0.1175,-0.05 -0.1425,-0.275 -0.05375,-0.5125 0.09,-0.2275 0.2575,-0.39 0.37625,-0.3475 0.1175,0.05 0.14625,0.275 0.0525,0.5125"
     style="fill:#231f20;fill-opacity:1;fill-rule:nonzero;stroke:none"
     id="path22781" /><path
     d="m 18.258076,4.4053672 c -0.085,0.2425 -0.26125,0.4 -0.3825,0.355 -0.11875,-0.045 -0.135,-0.275 -0.05,-0.50875 0.09125,-0.2425 0.2575,-0.39 0.38,-0.3475 0.11875,0.04125 0.14375,0.2725 0.0525,0.50125"
     style="fill:#231f20;fill-opacity:1;fill-rule:nonzero;stroke:none"
     id="path22783" /><path
     d="m 15.925576,5.0416172 c -0.09,0.2425 -0.26,0.4 -0.37875,0.355 -0.12125,-0.045 -0.13875,-0.275 -0.045,-0.50875 0.08125,-0.2425 0.24875,-0.39 0.37125,-0.3475 0.11875,0.04 0.1425,0.2725 0.0525,0.50125"
     style="fill:#231f20;fill-opacity:1;fill-rule:nonzero;stroke:none"
     id="path22785" /><path
     d="m 17.428076,5.3428672 c -0.08875,0.23875 -0.26,0.39125 -0.375,0.3425 -0.11375,-0.0425 -0.1425,-0.27125 -0.04875,-0.5025 0.08625,-0.24125 0.25375,-0.39875 0.37125,-0.345 0.11875,0.04375 0.14625,0.26625 0.0525,0.505"
     style="fill:#231f20;fill-opacity:1;fill-rule:nonzero;stroke:none"
     id="path22787" /><path
     d="m 14.229326,7.6266172 c -0.095,0.24125 -0.25875,0.39 -0.38,0.3475 -0.1225,-0.04375 -0.13875,-0.275 -0.0525,-0.51 0.0925,-0.2325 0.26,-0.39125 0.37875,-0.35125 0.1175,0.05125 0.13875,0.2775 0.05375,0.51375"
     style="fill:#231f20;fill-opacity:1;fill-rule:nonzero;stroke:none"
     id="path22789" /><path
     d="m 14.650576,6.1116172 c -0.08875,0.24125 -0.25625,0.39875 -0.37375,0.35 -0.1225,-0.05 -0.13875,-0.2725 -0.0525,-0.50625 0.08875,-0.24125 0.25625,-0.3975 0.375,-0.345 0.12125,0.03875 0.14625,0.2675 0.05125,0.50125"
     style="fill:#231f20;fill-opacity:1;fill-rule:nonzero;stroke:none"
     id="path22791" /><path
     d="m 10.900576,13.541617 c -0.08625,0.22875 -0.2575,0.38625 -0.37875,0.345 -0.11875,-0.04875 -0.13625,-0.2775 -0.045,-0.51125 0.085,-0.24 0.24875,-0.38625 0.37,-0.34625 0.1225,0.0475 0.14375,0.2725 0.05375,0.5125"
     style="fill:#231f20;fill-opacity:1;fill-rule:nonzero;stroke:none"
     id="path22793" /><path
     d="m 16.471826,8.2803672 c -0.08875,0.23375 -0.2525,0.38625 -0.37,0.34625 -0.1225,-0.04875 -0.14375,-0.275 -0.0525,-0.51125 0.08875,-0.23625 0.255,-0.3875 0.37375,-0.34625 0.11875,0.04875 0.14,0.2775 0.04875,0.51125"
     style="fill:#231f20;fill-opacity:1;fill-rule:nonzero;stroke:none"
     id="path22795" /><path
     d="m 11.515576,12.001617 c -0.0875,0.22875 -0.2575,0.39 -0.37625,0.345 -0.1225,-0.05125 -0.13875,-0.2825 -0.04375,-0.51125 0.085,-0.2375 0.25625,-0.38875 0.37,-0.3475 0.1175,0.04625 0.1425,0.2775 0.05,0.51375"
     style="fill:#231f20;fill-opacity:1;fill-rule:nonzero;stroke:none"
     id="path22797" /><path
     d="m 13.836826,10.265367 c -0.08875,0.22625 -0.26125,0.385 -0.375,0.3425 -0.12125,-0.0525 -0.13875,-0.275 -0.0525,-0.51375 0.09,-0.2387498 0.2575,-0.3912498 0.37875,-0.3424998 0.11875,0.0425 0.135,0.2712498 0.04875,0.5137498"
     style="fill:#231f20;fill-opacity:1;fill-rule:nonzero;stroke:none"
     id="path22799" /><path
     d="m 15.281826,9.5828672 c -0.1675,0.195 -0.37875,0.2825 -0.4725,0.19875 -0.0975,-0.08125 -0.04,-0.30125 0.11875,-0.49375 0.1675,-0.19125 0.37875,-0.2825 0.4725,-0.20375 0.09375,0.08625 0.04125,0.30875 -0.11875,0.49875"
     style="fill:#231f20;fill-opacity:1;fill-rule:nonzero;stroke:none"
     id="path22801" /><path
     d="m 12.085576,13.164117 c -0.1625,0.1875 -0.375,0.2825 -0.46875,0.2 -0.10125,-0.08 -0.045,-0.3075 0.12125,-0.5025 0.16375,-0.185 0.3675,-0.27625 0.46625,-0.195 0.09375,0.08 0.04125,0.3 -0.11875,0.4975"
     style="fill:#231f20;fill-opacity:1;fill-rule:nonzero;stroke:none"
     id="path22803" /><path
     d="m 13.729326,11.911617 c -0.15875,0.19125 -0.37125,0.28125 -0.46875,0.2 -0.09,-0.0825 -0.03625,-0.30125 0.1225,-0.49625 0.16375,-0.19125 0.375,-0.2825 0.4775,-0.20375 0.08875,0.08375 0.03625,0.305 -0.13125,0.5"
     style="fill:#231f20;fill-opacity:1;fill-rule:nonzero;stroke:none"
     id="path22805" /><path
     d="m 13.069326,8.2741172 c -0.04625,0.24625 -0.18375,0.425 -0.31375,0.40125 -0.1225,-0.02625 -0.18,-0.245 -0.13375,-0.495 0.05125,-0.2475 0.19125,-0.42375 0.31625,-0.405 0.1225,0.0275 0.18375,0.24625 0.13125,0.49875"
     style="fill:#231f20;fill-opacity:1;fill-rule:nonzero;stroke:none"
     id="path22807" /><path
     d="m 9.7130758,15.876617 c -0.05375,0.245 -0.1875,0.43 -0.31875,0.39875 -0.12125,-0.02625 -0.1825,-0.24625 -0.13,-0.49375 0.04875,-0.24625 0.18375,-0.4275 0.31,-0.40125 0.12625,0.02375 0.18375,0.24875 0.13875,0.49625"
     style="fill:#231f20;fill-opacity:1;fill-rule:nonzero;stroke:none"
     id="path22809" /><path
     d="m 10.625576,14.936617 c -0.045,0.24625 -0.19125,0.425 -0.31375,0.40125 -0.12375,-0.02125 -0.185,-0.24 -0.13625,-0.4925 0.04875,-0.24875 0.19125,-0.42875 0.31875,-0.4025 0.12625,0.02625 0.18375,0.2475 0.13125,0.49375"
     style="fill:#231f20;fill-opacity:1;fill-rule:nonzero;stroke:none"
     id="path22811" /><path
     d="m 14.119326,8.9828672 c -0.08625,0.2375 -0.26,0.395 -0.375,0.34625 -0.1225,-0.04125 -0.1425,-0.27375 -0.04875,-0.50375 0.085,-0.23875 0.2525,-0.3975 0.3675,-0.34625 0.12125,0.04125 0.15,0.27125 0.05625,0.50375"
     style="fill:#231f20;fill-opacity:1;fill-rule:nonzero;stroke:none"
     id="path22813" /><path
     d="m 17.539326,6.8191172 c -0.09375,0.2375 -0.26125,0.38875 -0.38,0.34625 -0.11375,-0.0425 -0.1375,-0.27625 -0.04375,-0.505 0.08,-0.24125 0.25625,-0.39 0.375,-0.3475 0.11375,0.04 0.1375,0.27125 0.04875,0.50625"
     style="fill:#231f20;fill-opacity:1;fill-rule:nonzero;stroke:none"
     id="path22815" /><path
     d="m 12.696826,11.514117 c -0.09125,0.2275 -0.2575,0.385 -0.38,0.3425 -0.11,-0.0475 -0.1375,-0.27375 -0.045,-0.51375 0.08625,-0.23125 0.2575,-0.3875 0.38,-0.34625 0.11,0.04875 0.13375,0.27875 0.045,0.5175"
     style="fill:#231f20;fill-opacity:1;fill-rule:nonzero;stroke:none"
     id="path22817" /><path
     d="m 8.5055756,5.9078672 c -0.08625,0.235 -0.2575,0.3975 -0.375,0.34625 -0.11875,-0.0425 -0.14375,-0.26625 -0.0525,-0.50875 0.0925,-0.2325 0.25625,-0.39 0.37375,-0.34375 0.11875,0.0425 0.1475002,0.27625 0.05375,0.50625"
     style="fill:#231f20;fill-opacity:1;fill-rule:nonzero;stroke:none"
     id="path22819" /><path
     d="m 16.411826,6.3503672 c -0.09,0.23 -0.25625,0.38875 -0.37875,0.34125 -0.11875,-0.0425 -0.135,-0.2725 -0.05375,-0.5125 0.09375,-0.2325 0.265,-0.3875 0.38,-0.33875 0.12125,0.04125 0.1375,0.26875 0.0525,0.51"
     style="fill:#231f20;fill-opacity:1;fill-rule:nonzero;stroke:none"
     id="path22821" /><path
     d="m 15.350576,7.7391172 c -0.09375,0.23625 -0.26125,0.3875 -0.38,0.34625 -0.11375,-0.04625 -0.1375,-0.2775 -0.04375,-0.5125 0.08125,-0.22875 0.25625,-0.38625 0.375,-0.34625 0.11375,0.04875 0.1375,0.2775 0.04875,0.5125"
     style="fill:#231f20;fill-opacity:1;fill-rule:nonzero;stroke:none"
     id="path22823" /><path
     d="m 7.9568256,7.3178672 c -0.085,0.2375 -0.24875,0.38875 -0.37125,0.34375 -0.11875,-0.0375 -0.1425,-0.27375 -0.0525,-0.50375 0.08625,-0.24 0.25625,-0.4 0.37875,-0.35125 0.11,0.05125 0.13875,0.27125 0.045,0.51125"
     style="fill:#231f20;fill-opacity:1;fill-rule:nonzero;stroke:none"
     id="path22825" /><path
     d="m 6.8918256,7.9641172 c -0.08875,0.23625 -0.26125,0.395 -0.3775,0.34625 -0.12375,-0.04 -0.14,-0.27125 -0.05375,-0.5075 0.09,-0.23875 0.2575,-0.39125 0.375,-0.3425 0.1225,0.04 0.1475,0.265 0.05625,0.50375"
     style="fill:#231f20;fill-opacity:1;fill-rule:nonzero;stroke:none"
     id="path22827" /><path
     d="m 9.6505758,17.406617 c -0.08875,0.23875 -0.25625,0.39125 -0.37375,0.34625 -0.11875,-0.045 -0.14,-0.27375 -0.055,-0.505 0.095,-0.24 0.25875,-0.39375 0.38,-0.35 0.11875,0.04875 0.135,0.27375 0.04875,0.50875"
     style="fill:#231f20;fill-opacity:1;fill-rule:nonzero;stroke:none"
     id="path22829" /><path
     d="m 6.9593256,6.3866172 c -0.085,0.24 -0.24875,0.3975 -0.37125,0.34625 -0.11875,-0.0425 -0.1425,-0.265 -0.05375,-0.505 0.09125,-0.23875 0.2575,-0.39375 0.38,-0.34375 0.115,0.03875 0.13375,0.2675 0.045,0.5025"
     style="fill:#231f20;fill-opacity:1;fill-rule:nonzero;stroke:none"
     id="path22831" /><path
     d="m 9.7680758,5.3191172 c -0.085,0.23625 -0.25625,0.3925 -0.37125,0.3475 -0.11875,-0.04375 -0.1425,-0.2725 -0.06125,-0.51 0.09375,-0.23 0.26625,-0.3925 0.38,-0.34625 0.1225,0.04625 0.1425,0.27375 0.0525,0.50875"
     style="fill:#231f20;fill-opacity:1;fill-rule:nonzero;stroke:none"
     id="path22833" /><path
     d="m 9.3555758,6.7903672 c -0.09375,0.23875 -0.25625,0.39 -0.37875,0.34625 -0.1175,-0.04625 -0.13875,-0.26875 -0.05375,-0.50875 0.095,-0.235 0.25875,-0.39125 0.38,-0.34 0.11875,0.0375 0.1375,0.265 0.0525,0.5025"
     style="fill:#231f20;fill-opacity:1;fill-rule:nonzero;stroke:none"
     id="path22835" /><path
     d="m 6.4230756,9.5491172 c -0.02375,0.24875 -0.1425,0.44875 -0.27625,0.4325 -0.1225,-0.0125 -0.20125,-0.23125 -0.17625,-0.47875 0.02125,-0.24625 0.15125,-0.4475 0.27375,-0.4325 0.1275,0.0125 0.2075,0.22625 0.17875,0.47875"
     style="fill:#231f20;fill-opacity:1;fill-rule:nonzero;stroke:none"
     id="path22837" /><path
     d="m 7.7793256,10.712867 c -0.0275,0.24625 -0.14625,0.44 -0.2725,0.4275 -0.12625,-0.01375 -0.205,-0.23 -0.17875,-0.47875 0.0275,-0.25375 0.15375,-0.445 0.2725,-0.4325 0.12625,0.01125 0.2125,0.2225 0.17875,0.48375"
     style="fill:#231f20;fill-opacity:1;fill-rule:nonzero;stroke:none"
     id="path22839" /><path
     d="m 7.6755756,9.1166172 c -0.02,0.24875 -0.1425,0.44375 -0.26875,0.43125 -0.12625,-0.0125 -0.2075,-0.22875 -0.18375,-0.4775 0.02875,-0.2525 0.15125,-0.44875 0.2775,-0.4275 0.1225,0.005 0.20375,0.225 0.175,0.47375"
     style="fill:#231f20;fill-opacity:1;fill-rule:nonzero;stroke:none"
     id="path22841" /><path
     d="m 8.7493258,8.2991172 c -0.025,0.25375 -0.1475,0.4425 -0.2687502,0.4325 -0.12625,-0.015 -0.20875,-0.23 -0.18,-0.47875 0.02,-0.25375 0.14375,-0.445 0.2725,-0.4325 0.1237502,0.01 0.2037502,0.22375 0.1762502,0.47875"
     style="fill:#231f20;fill-opacity:1;fill-rule:nonzero;stroke:none"
     id="path22843" /><path
     d="m 9.3493258,14.521617 c -0.025,0.25125 -0.15375,0.4475 -0.2725,0.43125 -0.1225,-0.0088 -0.20375,-0.2225 -0.175,-0.47625 0.02375,-0.25 0.14625,-0.445 0.27375,-0.43 0.12125,0.0125 0.2025,0.22875 0.17375,0.475"
     style="fill:#231f20;fill-opacity:1;fill-rule:nonzero;stroke:none"
     id="path22845" /><path
     d="m 8.6668258,9.9328672 c -0.0275,0.2499998 -0.1500002,0.4474998 -0.2762502,0.4324998 -0.1275,-0.015 -0.20375,-0.22875 -0.18375,-0.4812498 0.0325,-0.2475 0.155,-0.44125 0.28125,-0.42625 0.1262502,0.01 0.2037502,0.2275 0.1787502,0.475"
     style="fill:#231f20;fill-opacity:1;fill-rule:nonzero;stroke:none"
     id="path22847" /><path
     d="m 8.4405756,13.765367 c -0.0275,0.2525 -0.14625,0.45 -0.2675,0.4325 -0.13625,-0.0125 -0.2125,-0.225 -0.1875,-0.47625 0.0275,-0.24625 0.15125,-0.44875 0.27625,-0.43 0.1275,0.0075 0.20375,0.22375 0.17875,0.47375"
     style="fill:#231f20;fill-opacity:1;fill-rule:nonzero;stroke:none"
     id="path22849" /><path
     d="m 8.5418256,11.789117 c -0.02125,0.25 -0.14625,0.4475 -0.27375,0.43 -0.1225,-0.0075 -0.20375,-0.2225 -0.175,-0.475 0.025,-0.25 0.14625,-0.445 0.2725,-0.4325 0.1225,0.015 0.2125,0.2275 0.17625,0.4775"
     style="fill:#231f20;fill-opacity:1;fill-rule:nonzero;stroke:none"
     id="path22851" /><path
     d="m 12.753076,10.016617 c -0.02875,0.25125 -0.155,0.45 -0.27,0.435 -0.12625,-0.0125 -0.2075,-0.22875 -0.1825,-0.4799998 0.02375,-0.25 0.14625,-0.445 0.27625,-0.43 0.1225,0.01 0.20125,0.22 0.17625,0.4749998"
     style="fill:#231f20;fill-opacity:1;fill-rule:nonzero;stroke:none"
     id="path22853" /><path
     d="m 7.3830756,12.251617 c 0.0775,0.24625 0.03625,0.475 -0.08125,0.51375 -0.1175,0.03125 -0.28125,-0.13125 -0.35875,-0.3725 -0.06875,-0.2425 -0.03625,-0.47125 0.08125,-0.50625 0.12625,-0.03125 0.285,0.125 0.35875,0.365"
     style="fill:#231f20;fill-opacity:1;fill-rule:nonzero;stroke:none"
     id="path22855" /><path
     d="m 6.6868256,10.966617 c 0.0775,0.24 0.0375,0.465 -0.08125,0.5075 -0.1225,0.03875 -0.2825,-0.1325 -0.355,-0.36875 -0.0775,-0.245 -0.04,-0.46875 0.0775,-0.5075 0.11875,-0.03375 0.28625,0.1275 0.35875,0.36875"
     style="fill:#231f20;fill-opacity:1;fill-rule:nonzero;stroke:none"
     id="path22857" /><path
     d="m 7.4318256,13.936617 c 0.07375,0.24375 0.03625,0.46625 -0.08125,0.5 -0.11875,0.03625 -0.28125,-0.12 -0.35875,-0.36 -0.07,-0.245 -0.0375,-0.47125 0.08125,-0.51125 0.1175,-0.03625 0.2775,0.12875 0.35875,0.37125"
     style="fill:#231f20;fill-opacity:1;fill-rule:nonzero;stroke:none"
     id="path22859" /><path
     d="m 8.0968256,17.139117 c 0.07375,0.24375 0.03375,0.46375 -0.085,0.5025 -0.11875,0.03875 -0.2775,-0.12375 -0.35875,-0.3625 -0.07,-0.2425 -0.03375,-0.4675 0.08875,-0.505 0.11875,-0.0425 0.2775,0.12375 0.355,0.365"
     style="fill:#231f20;fill-opacity:1;fill-rule:nonzero;stroke:none"
     id="path22861" /><path
     d="m 7.7855756,15.576617 c 0.08625,0.245 0.04375,0.465 -0.0775,0.5075 -0.12625,0.03375 -0.28625,-0.1225 -0.35375,-0.36875 -0.0825,-0.24 -0.0425,-0.4675 0.07625,-0.505 0.1275,-0.03375 0.28875,0.1225 0.355,0.36625"
     style="fill:#231f20;fill-opacity:1;fill-rule:nonzero;stroke:none"
     id="path22863" /><path
     d="m 9.1518258,4.2678672 c -0.08625,0.24 -0.24875,0.39 -0.3675,0.3475 -0.1225,-0.0425 -0.14625,-0.265 -0.0525,-0.50625 0.08625,-0.24 0.25625,-0.3925 0.375,-0.35 0.115,0.045 0.13875,0.275 0.045,0.50875"
     style="fill:#231f20;fill-opacity:1;fill-rule:nonzero;stroke:none"
     id="path22865" /><path
     d="m 7.8530756,4.9516172 c -0.085,0.24125 -0.2575,0.39 -0.37625,0.3475 -0.11625,-0.0475 -0.1375,-0.26875 -0.0525,-0.50875 0.09375,-0.23625 0.25625,-0.3925 0.375,-0.34125 0.1225,0.0375 0.14625,0.26875 0.05375,0.5025"
     style="fill:#231f20;fill-opacity:1;fill-rule:nonzero;stroke:none"
     id="path22867" /><path
     d="m 10.396826,3.7553672 c 0,0.25125 -0.0975,0.45625 -0.22125,0.45625 -0.13375,0 -0.2312502,-0.205 -0.2312502,-0.45625 0,-0.2525 0.0975,-0.45625 0.2312502,-0.45625 0.12375,0 0.22125,0.20375 0.22125,0.45625"
     style="fill:#231f20;fill-opacity:1;fill-rule:nonzero;stroke:none"
     id="path22869" /></g></svg>