<?xml version="1.0" encoding="UTF-8" standalone="no"?>
<!-- Generator: Tilo Wuetherich, Landesarchiv Baden-Wuerttemberg SVG
  Version: 6.00 Build 51448 -->

<svg
   xmlns:dc="http://purl.org/dc/elements/1.1/"
   xmlns:cc="http://creativecommons.org/ns#"
   xmlns:rdf="http://www.w3.org/1999/02/22-rdf-syntax-ns#"
   xmlns:svg="http://www.w3.org/2000/svg"
   xmlns="http://www.w3.org/2000/svg"
   xmlns:sodipodi="http://sodipodi.sourceforge.net/DTD/sodipodi-0.dtd"
   xmlns:inkscape="http://www.inkscape.org/namespaces/inkscape"
   version="1.1"
   id="Ebene_1"
   width="20"
   height="20"
   viewBox="0 0 20 20"
   overflow="visible"
   enable-background="new 0 0 20 20"
   xml:space="preserve"
   inkscape:version="0.47 r22583"
   sodipodi:docname="10.2.05.svg"><metadata
   id="metadata13"><rdf:RDF><cc:Work
       rdf:about=""><dc:format>image/svg+xml</dc:format><dc:type
         rdf:resource="http://purl.org/dc/dcmitype/StillImage" /><dc:title></dc:title></cc:Work></rdf:RDF></metadata><defs
   id="defs11"><inkscape:perspective
     sodipodi:type="inkscape:persp3d"
     inkscape:vp_x="0 : 10 : 1"
     inkscape:vp_y="0 : 1000 : 0"
     inkscape:vp_z="20 : 10 : 1"
     inkscape:persp3d-origin="10 : 6.6666667 : 1"
     id="perspective15" /><inkscape:perspective
     id="perspective14762"
     inkscape:persp3d-origin="0.5 : 0.33333333 : 1"
     inkscape:vp_z="1 : 0.5 : 1"
     inkscape:vp_y="0 : 1000 : 0"
     inkscape:vp_x="0 : 0.5 : 1"
     sodipodi:type="inkscape:persp3d" /><inkscape:perspective
     id="perspective14812"
     inkscape:persp3d-origin="0.5 : 0.33333333 : 1"
     inkscape:vp_z="1 : 0.5 : 1"
     inkscape:vp_y="0 : 1000 : 0"
     inkscape:vp_x="0 : 0.5 : 1"
     sodipodi:type="inkscape:persp3d" /><inkscape:perspective
     id="perspective14893"
     inkscape:persp3d-origin="0.5 : 0.33333333 : 1"
     inkscape:vp_z="1 : 0.5 : 1"
     inkscape:vp_y="0 : 1000 : 0"
     inkscape:vp_x="0 : 0.5 : 1"
     sodipodi:type="inkscape:persp3d" /><inkscape:perspective
     id="perspective14974"
     inkscape:persp3d-origin="0.5 : 0.33333333 : 1"
     inkscape:vp_z="1 : 0.5 : 1"
     inkscape:vp_y="0 : 1000 : 0"
     inkscape:vp_x="0 : 0.5 : 1"
     sodipodi:type="inkscape:persp3d" /><inkscape:perspective
     id="perspective14999"
     inkscape:persp3d-origin="0.5 : 0.33333333 : 1"
     inkscape:vp_z="1 : 0.5 : 1"
     inkscape:vp_y="0 : 1000 : 0"
     inkscape:vp_x="0 : 0.5 : 1"
     sodipodi:type="inkscape:persp3d" /><inkscape:perspective
     id="perspective15024"
     inkscape:persp3d-origin="0.5 : 0.33333333 : 1"
     inkscape:vp_z="1 : 0.5 : 1"
     inkscape:vp_y="0 : 1000 : 0"
     inkscape:vp_x="0 : 0.5 : 1"
     sodipodi:type="inkscape:persp3d" /><inkscape:perspective
     id="perspective15067"
     inkscape:persp3d-origin="0.5 : 0.33333333 : 1"
     inkscape:vp_z="1 : 0.5 : 1"
     inkscape:vp_y="0 : 1000 : 0"
     inkscape:vp_x="0 : 0.5 : 1"
     sodipodi:type="inkscape:persp3d" /><inkscape:perspective
     id="perspective15110"
     inkscape:persp3d-origin="0.5 : 0.33333333 : 1"
     inkscape:vp_z="1 : 0.5 : 1"
     inkscape:vp_y="0 : 1000 : 0"
     inkscape:vp_x="0 : 0.5 : 1"
     sodipodi:type="inkscape:persp3d" /><inkscape:perspective
     id="perspective15169"
     inkscape:persp3d-origin="0.5 : 0.33333333 : 1"
     inkscape:vp_z="1 : 0.5 : 1"
     inkscape:vp_y="0 : 1000 : 0"
     inkscape:vp_x="0 : 0.5 : 1"
     sodipodi:type="inkscape:persp3d" /><inkscape:perspective
     id="perspective15223"
     inkscape:persp3d-origin="0.5 : 0.33333333 : 1"
     inkscape:vp_z="1 : 0.5 : 1"
     inkscape:vp_y="0 : 1000 : 0"
     inkscape:vp_x="0 : 0.5 : 1"
     sodipodi:type="inkscape:persp3d" /><inkscape:perspective
     id="perspective15273"
     inkscape:persp3d-origin="0.5 : 0.33333333 : 1"
     inkscape:vp_z="1 : 0.5 : 1"
     inkscape:vp_y="0 : 1000 : 0"
     inkscape:vp_x="0 : 0.5 : 1"
     sodipodi:type="inkscape:persp3d" /><inkscape:perspective
     id="perspective16656"
     inkscape:persp3d-origin="0.5 : 0.33333333 : 1"
     inkscape:vp_z="1 : 0.5 : 1"
     inkscape:vp_y="0 : 1000 : 0"
     inkscape:vp_x="0 : 0.5 : 1"
     sodipodi:type="inkscape:persp3d" /><inkscape:perspective
     id="perspective16706"
     inkscape:persp3d-origin="0.5 : 0.33333333 : 1"
     inkscape:vp_z="1 : 0.5 : 1"
     inkscape:vp_y="0 : 1000 : 0"
     inkscape:vp_x="0 : 0.5 : 1"
     sodipodi:type="inkscape:persp3d" /><inkscape:perspective
     id="perspective16868"
     inkscape:persp3d-origin="0.5 : 0.33333333 : 1"
     inkscape:vp_z="1 : 0.5 : 1"
     inkscape:vp_y="0 : 1000 : 0"
     inkscape:vp_x="0 : 0.5 : 1"
     sodipodi:type="inkscape:persp3d" /><inkscape:perspective
     id="perspective16918"
     inkscape:persp3d-origin="0.5 : 0.33333333 : 1"
     inkscape:vp_z="1 : 0.5 : 1"
     inkscape:vp_y="0 : 1000 : 0"
     inkscape:vp_x="0 : 0.5 : 1"
     sodipodi:type="inkscape:persp3d" /><inkscape:perspective
     id="perspective19890"
     inkscape:persp3d-origin="0.5 : 0.33333333 : 1"
     inkscape:vp_z="1 : 0.5 : 1"
     inkscape:vp_y="0 : 1000 : 0"
     inkscape:vp_x="0 : 0.5 : 1"
     sodipodi:type="inkscape:persp3d" /><inkscape:perspective
     id="perspective19944"
     inkscape:persp3d-origin="0.5 : 0.33333333 : 1"
     inkscape:vp_z="1 : 0.5 : 1"
     inkscape:vp_y="0 : 1000 : 0"
     inkscape:vp_x="0 : 0.5 : 1"
     sodipodi:type="inkscape:persp3d" /><inkscape:perspective
     id="perspective20014"
     inkscape:persp3d-origin="0.5 : 0.33333333 : 1"
     inkscape:vp_z="1 : 0.5 : 1"
     inkscape:vp_y="0 : 1000 : 0"
     inkscape:vp_x="0 : 0.5 : 1"
     sodipodi:type="inkscape:persp3d" /><inkscape:perspective
     id="perspective20076"
     inkscape:persp3d-origin="0.5 : 0.33333333 : 1"
     inkscape:vp_z="1 : 0.5 : 1"
     inkscape:vp_y="0 : 1000 : 0"
     inkscape:vp_x="0 : 0.5 : 1"
     sodipodi:type="inkscape:persp3d" /><inkscape:perspective
     id="perspective25708"
     inkscape:persp3d-origin="0.5 : 0.33333333 : 1"
     inkscape:vp_z="1 : 0.5 : 1"
     inkscape:vp_y="0 : 1000 : 0"
     inkscape:vp_x="0 : 0.5 : 1"
     sodipodi:type="inkscape:persp3d" /><inkscape:perspective
     id="perspective25775"
     inkscape:persp3d-origin="0.5 : 0.33333333 : 1"
     inkscape:vp_z="1 : 0.5 : 1"
     inkscape:vp_y="0 : 1000 : 0"
     inkscape:vp_x="0 : 0.5 : 1"
     sodipodi:type="inkscape:persp3d" /><inkscape:perspective
     id="perspective25818"
     inkscape:persp3d-origin="0.5 : 0.33333333 : 1"
     inkscape:vp_z="1 : 0.5 : 1"
     inkscape:vp_y="0 : 1000 : 0"
     inkscape:vp_x="0 : 0.5 : 1"
     sodipodi:type="inkscape:persp3d" /><inkscape:perspective
     id="perspective25861"
     inkscape:persp3d-origin="0.5 : 0.33333333 : 1"
     inkscape:vp_z="1 : 0.5 : 1"
     inkscape:vp_y="0 : 1000 : 0"
     inkscape:vp_x="0 : 0.5 : 1"
     sodipodi:type="inkscape:persp3d" /><inkscape:perspective
     id="perspective25975"
     inkscape:persp3d-origin="0.5 : 0.33333333 : 1"
     inkscape:vp_z="1 : 0.5 : 1"
     inkscape:vp_y="0 : 1000 : 0"
     inkscape:vp_x="0 : 0.5 : 1"
     sodipodi:type="inkscape:persp3d" /><inkscape:perspective
     id="perspective26105"
     inkscape:persp3d-origin="0.5 : 0.33333333 : 1"
     inkscape:vp_z="1 : 0.5 : 1"
     inkscape:vp_y="0 : 1000 : 0"
     inkscape:vp_x="0 : 0.5 : 1"
     sodipodi:type="inkscape:persp3d" /><inkscape:perspective
     id="perspective26235"
     inkscape:persp3d-origin="0.5 : 0.33333333 : 1"
     inkscape:vp_z="1 : 0.5 : 1"
     inkscape:vp_y="0 : 1000 : 0"
     inkscape:vp_x="0 : 0.5 : 1"
     sodipodi:type="inkscape:persp3d" /><inkscape:perspective
     id="perspective26419"
     inkscape:persp3d-origin="0.5 : 0.33333333 : 1"
     inkscape:vp_z="1 : 0.5 : 1"
     inkscape:vp_y="0 : 1000 : 0"
     inkscape:vp_x="0 : 0.5 : 1"
     sodipodi:type="inkscape:persp3d" /></defs><sodipodi:namedview
   pagecolor="#ffffff"
   bordercolor="#666666"
   borderopacity="1"
   objecttolerance="10"
   gridtolerance="10"
   guidetolerance="10"
   inkscape:pageopacity="0"
   inkscape:pageshadow="2"
   inkscape:window-width="1024"
   inkscape:window-height="695"
   id="namedview9"
   showgrid="false"
   inkscape:zoom="11.8"
   inkscape:cx="9.0620488"
   inkscape:cy="10"
   inkscape:window-x="0"
   inkscape:window-y="24"
   inkscape:window-maximized="1"
   inkscape:current-layer="Ebene_1" />
  
  
  
<path
   id="path21855"
   style="fill:#ffffff;fill-opacity:1;fill-rule:nonzero;stroke:none"
   d="m 9.7283483,10.79375 c 0.2225,-0.0625 0.4549997,-0.09625 0.6962497,-0.09625 1.74125,0 3.94375,2.5525 3.885,4.6975 -0.0575,2.14875 -1.68125,4.35 -4.8712497,4.35 -3.18875,0 -5.625,-2.0275 -5.625,-5.8 0,-3.7725 5.21875,-8.2975 5.68375,-9.04875 0.46125,-0.75625 0.7512497,-2.9 -1.10375,-4.64125 0,0 2.0524997,1.7075 2.6112497,3.82875 0.755,2.84875 0.0625,5.49125 -0.67375,6.0975 l -0.6024997,0.6125" /><g
   id="g26508"
   transform="matrix(0.81,0,0,0.81,2.6597404,1.9)"><path
     d="m 9.1007988,17.925625 c 0,0 1.1462502,-0.4625 1.9987502,-0.82125 0.85375,-0.3625 1.90375,-0.91625 1.93625,-5.4475 0.0325,-4.52375 -1.05,-3.83375 -1.0175,-4.49 0.0325,-0.65375 -0.26375,-1.4075 -0.71875,-2.6225 -0.46125,-1.21375 -1.7737502,-1.15125 -1.1175,-1.38 1.21625,-0.4225 -0.3587502,-1.5075 -1.1162502,-1.57125 l -0.0075,0 c -0.755,0.06375 -2.32875,1.14875 -1.11375,1.57125 0.655,0.22875 -0.65875,0.16625 -1.115,1.38 -0.46,1.215 -0.7525,1.96875 -0.72375,2.6225 0.03625,0.65625 -1.04625,-0.03375 -1.0175,4.49 0.03625,4.53125 1.08625,5.085 1.93625,5.4475 0.8525,0.35875 2.00125,0.82125 2.00125,0.82125 l 0.075,0"
     style="fill:#ffffff;fill-opacity:1;fill-rule:nonzero;stroke:none"
     id="path21991" /><path
     d="m 9.1007988,17.925625 c 0,0 1.1462502,-0.4625 1.9987502,-0.82125 0.85375,-0.3625 1.90375,-0.91625 1.93625,-5.4475 0.0325,-4.52375 -1.05,-3.83375 -1.0175,-4.49 0.0325,-0.65375 -0.26375,-1.4075 -0.71875,-2.6225 -0.46125,-1.21375 -1.7737502,-1.15125 -1.1175,-1.38 1.21625,-0.4225 -0.3587502,-1.5075 -1.1162502,-1.57125 l -0.0075,0 c -0.755,0.06375 -2.32875,1.14875 -1.11375,1.57125 0.655,0.22875 -0.65875,0.16625 -1.115,1.38 -0.46,1.215 -0.7525,1.96875 -0.72375,2.6225 0.03625,0.65625 -1.04625,-0.03375 -1.0175,4.49 0.03625,4.53125 1.08625,5.085 1.93625,5.4475 0.8525,0.35875 2.00125,0.82125 2.00125,0.82125 l 0.075,0 z"
     style="fill:none;stroke:#000000;stroke-width:0.44999999;stroke-linecap:butt;stroke-linejoin:miter;stroke-miterlimit:4;stroke-opacity:1;stroke-dasharray:none"
     id="path21993" /><path
     d="m 5.1157988,12.701875 -0.01875,-0.55375 c 0,0 -1.745,1.14625 -1.655,2.375 0.0875,1.2275 1.8725,2.7525 1.84375,3.10375 -0.0275,0.35125 -0.0275,2.08125 -0.0275,2.08125 l -0.90875,1.315 1.435,-1.5225 0.02875,-2.25375 c 0,0 -2.1375,-2.57625 -1.87375,-2.84 0.2625,-0.265 1.2075,-1.21875 1.2075,-1.21875 l -0.03125,-0.48625"
     style="fill:#ffffff;fill-opacity:1;fill-rule:nonzero;stroke:none"
     id="path21995" /><path
     d="m 5.1157988,12.701875 -0.01875,-0.55375 c 0,0 -1.745,1.14625 -1.655,2.375 0.0875,1.2275 1.8725,2.7525 1.84375,3.10375 -0.0275,0.35125 -0.0275,2.08125 -0.0275,2.08125 l -0.90875,1.315 1.435,-1.5225 0.02875,-2.25375 c 0,0 -2.1375,-2.57625 -1.87375,-2.84 0.2625,-0.265 1.2075,-1.21875 1.2075,-1.21875 l -0.03125,-0.48625 z"
     style="fill:none;stroke:#000000;stroke-width:0.44999999;stroke-linecap:butt;stroke-linejoin:miter;stroke-miterlimit:4;stroke-opacity:1;stroke-dasharray:none"
     id="path21997" /><path
     d="m 5.5595488,8.029375 0.1375,-0.22875 0.1275,-0.15875 c 0,0 -0.86125,-0.2025 -1.125,0.03125 -0.2625,0.2325 -1.845,2.4875 -1.845,2.4875 l -1.90375004,1.72875 2.19750004,-1.435 c 0,0 1.3275,-2.00875 1.55125,-2.13875 0.2825,-0.1625 0.72875,0.02625 0.72875,0.02625 l 0.13125,-0.3125"
     style="fill:#ffffff;fill-opacity:1;fill-rule:nonzero;stroke:none"
     id="path21999" /><path
     d="m 5.5595488,8.029375 0.1375,-0.22875 0.1275,-0.15875 c 0,0 -0.86125,-0.2025 -1.125,0.03125 -0.2625,0.2325 -1.845,2.4875 -1.845,2.4875 l -1.90375004,1.72875 2.19750004,-1.435 c 0,0 1.3275,-2.00875 1.55125,-2.13875 0.2825,-0.1625 0.72875,0.02625 0.72875,0.02625 l 0.13125,-0.3125 z"
     style="fill:none;stroke:#000000;stroke-width:0.44999999;stroke-linecap:butt;stroke-linejoin:miter;stroke-miterlimit:4;stroke-opacity:1;stroke-dasharray:none"
     id="path22001" /><path
     d="m 6.6395488,5.030625 -0.7975,-0.20125 -0.2925,-1.9325 -1.69875,-1.14 1.37875,1.25875 c 0,0 0.085,1.73 0.34875,1.99 0.26375,0.2675 0.80625,0.73875 0.80625,0.73875 l 0.255,-0.71375"
     style="fill:#ffffff;fill-opacity:1;fill-rule:nonzero;stroke:none"
     id="path22003" /><path
     d="m 6.6395488,5.030625 -0.7975,-0.20125 -0.2925,-1.9325 -1.69875,-1.14 1.37875,1.25875 c 0,0 0.085,1.73 0.34875,1.99 0.26375,0.2675 0.80625,0.73875 0.80625,0.73875 l 0.255,-0.71375 z"
     style="fill:none;stroke:#000000;stroke-width:0.44999999;stroke-linecap:butt;stroke-linejoin:miter;stroke-miterlimit:4;stroke-opacity:1;stroke-dasharray:none"
     id="path22005" /><path
     d="m 8.3332988,1.833125 c 0,0 -1.2025,-1.51125 -2.2875,-1.86125 -1.0825,-0.35000001 -1.98875,-0.995 -1.98875,-0.995 0,0 1.0825,0.93625 1.75625,1.16875 0.67375,0.2375 2.35625,1.78375 2.35625,1.78375 l 0.16375,-0.09625"
     style="fill:#ffffff;fill-opacity:1;fill-rule:nonzero;stroke:none"
     id="path22007" /><path
     d="m 8.3332988,1.833125 c 0,0 -1.2025,-1.51125 -2.2875,-1.86125 -1.0825,-0.35000001 -1.98875,-0.995 -1.98875,-0.995 0,0 1.0825,0.93625 1.75625,1.16875 0.67375,0.2375 2.35625,1.78375 2.35625,1.78375 l 0.16375,-0.09625 z"
     style="fill:none;stroke:#000000;stroke-width:0.44999999;stroke-linecap:butt;stroke-linejoin:miter;stroke-miterlimit:4;stroke-opacity:1;stroke-dasharray:none"
     id="path22009" /><path
     d="m 8.5595488,1.729375 c 0,0 -0.3475,-0.695 0.255,-0.72625"
     style="fill:none;stroke:#000000;stroke-width:0.44999999;stroke-linecap:butt;stroke-linejoin:miter;stroke-miterlimit:4;stroke-opacity:1;stroke-dasharray:none"
     id="path22011" /><path
     d="m 13.008299,12.701875 0.0225,-0.55375 c 0,0 1.74125,1.14625 1.65125,2.375 -0.0875,1.2275 -1.87375,2.7525 -1.845,3.10375 0.03125,0.35125 0.03125,2.08125 0.03125,2.08125 l 0.90625,1.315 -1.435,-1.5225 -0.03,-2.25375 c 0,0 2.13875,-2.57625 1.8775,-2.84 -0.26625,-0.265 -1.20875,-1.21875 -1.20875,-1.21875 l 0.03,-0.48625"
     style="fill:#ffffff;fill-opacity:1;fill-rule:nonzero;stroke:none"
     id="path22013" /><path
     d="m 13.008299,12.701875 0.0225,-0.55375 c 0,0 1.74125,1.14625 1.65125,2.375 -0.0875,1.2275 -1.87375,2.7525 -1.845,3.10375 0.03125,0.35125 0.03125,2.08125 0.03125,2.08125 l 0.90625,1.315 -1.435,-1.5225 -0.03,-2.25375 c 0,0 2.13875,-2.57625 1.8775,-2.84 -0.26625,-0.265 -1.20875,-1.21875 -1.20875,-1.21875 l 0.03,-0.48625 z"
     style="fill:none;stroke:#000000;stroke-width:0.44999999;stroke-linecap:butt;stroke-linejoin:miter;stroke-miterlimit:4;stroke-opacity:1;stroke-dasharray:none"
     id="path22015" /><path
     d="m 12.564549,8.029375 -0.13625,-0.22875 -0.12625,-0.15875 c 0,0 0.86,-0.2025 1.11875,0.03125 0.26875,0.2325 1.8475,2.4875 1.8475,2.4875 l 1.905,1.72875 -2.19875,-1.435 c 0,0 -1.32375,-2.00875 -1.55375,-2.13875 -0.27875,-0.1625 -0.725,0.02625 -0.725,0.02625 l -0.13125,-0.3125"
     style="fill:#ffffff;fill-opacity:1;fill-rule:nonzero;stroke:none"
     id="path22017" /><path
     d="m 12.564549,8.029375 -0.13625,-0.22875 -0.12625,-0.15875 c 0,0 0.86,-0.2025 1.11875,0.03125 0.26875,0.2325 1.8475,2.4875 1.8475,2.4875 l 1.905,1.72875 -2.19875,-1.435 c 0,0 -1.32375,-2.00875 -1.55375,-2.13875 -0.27875,-0.1625 -0.725,0.02625 -0.725,0.02625 l -0.13125,-0.3125 z"
     style="fill:none;stroke:#000000;stroke-width:0.44999999;stroke-linecap:butt;stroke-linejoin:miter;stroke-miterlimit:4;stroke-opacity:1;stroke-dasharray:none"
     id="path22019" /><path
     d="m 11.479549,5.030625 0.80125,-0.20125 0.2925,-1.9325 1.7,-1.14 -1.375,1.25875 c 0,0 -0.09,1.73 -0.35375,1.99 -0.26375,0.2675 -0.80625,0.73875 -0.80625,0.73875 l -0.25875,-0.71375"
     style="fill:#ffffff;fill-opacity:1;fill-rule:nonzero;stroke:none"
     id="path22021" /><path
     d="m 11.479549,5.030625 0.80125,-0.20125 0.2925,-1.9325 1.7,-1.14 -1.375,1.25875 c 0,0 -0.09,1.73 -0.35375,1.99 -0.26375,0.2675 -0.80625,0.73875 -0.80625,0.73875 l -0.25875,-0.71375 z"
     style="fill:none;stroke:#000000;stroke-width:0.44999999;stroke-linecap:butt;stroke-linejoin:miter;stroke-miterlimit:4;stroke-opacity:1;stroke-dasharray:none"
     id="path22023" /><path
     d="m 9.7907988,1.833125 c 0,0 1.2012502,-1.51125 2.2887502,-1.86125 1.0825,-0.35000001 1.98875,-0.995 1.98875,-0.995 0,0 -1.085,0.93625 -1.75875,1.16875 -0.66875,0.2375 -2.3550002,1.78375 -2.3550002,1.78375 l -0.16375,-0.09625"
     style="fill:#ffffff;fill-opacity:1;fill-rule:nonzero;stroke:none"
     id="path22025" /><path
     d="m 9.7907988,1.833125 c 0,0 1.2012502,-1.51125 2.2887502,-1.86125 1.0825,-0.35000001 1.98875,-0.995 1.98875,-0.995 0,0 -1.085,0.93625 -1.75875,1.16875 -0.66875,0.2375 -2.3550002,1.78375 -2.3550002,1.78375 l -0.16375,-0.09625 z"
     style="fill:none;stroke:#000000;stroke-width:0.44999999;stroke-linecap:butt;stroke-linejoin:miter;stroke-miterlimit:4;stroke-opacity:1;stroke-dasharray:none"
     id="path22027" /><path
     d="m 9.5645488,1.729375 c 0,0 0.34875,-0.695 -0.255,-0.72625"
     style="fill:none;stroke:#000000;stroke-width:0.44999999;stroke-linecap:butt;stroke-linejoin:miter;stroke-miterlimit:4;stroke-opacity:1;stroke-dasharray:none"
     id="path22029" /><path
     d="m 8.4057988,2.083125 c -0.13,-0.1325 -0.42375,-0.0525 -0.65375,0.18125 -0.2325,0.2275 -0.3125,0.525 -0.1825,0.6525 0.13375,0.1325 0.42625,0.05125 0.65625,-0.17625 0.23125,-0.2325 0.3125,-0.525 0.18,-0.6575"
     style="fill:#000000;fill-opacity:1;fill-rule:nonzero;stroke:none"
     id="path22031" /><path
     d="m 9.7220488,2.083125 c -0.12875,0.1325 -0.04875,0.425 0.185,0.6575 0.2287502,0.2275 0.5212502,0.30875 0.6537502,0.17625 0.13,-0.1275 0.05,-0.42 -0.18,-0.6525 -0.23125,-0.23375 -0.5237502,-0.31375 -0.6587502,-0.18125"
     style="fill:#000000;fill-opacity:1;fill-rule:nonzero;stroke:none"
     id="path22033" /><path
     d="m 8.0482988,3.358125 c 0,0 0.57125,-0.305 1.01,-0.29875 0.515,0.01125 1.0212502,0.29875 1.0212502,0.29875"
     style="fill:none;stroke:#000000;stroke-width:0.44999999;stroke-linecap:butt;stroke-linejoin:miter;stroke-miterlimit:4;stroke-opacity:1;stroke-dasharray:none"
     id="path22035" /><path
     d="m 6.1057988,7.011875 1.76625,0 0.395,0.3925 1.64375,0 0.4412502,-0.44375 1.6625,0"
     style="fill:none;stroke:#000000;stroke-width:0.44999999;stroke-linecap:butt;stroke-linejoin:miter;stroke-miterlimit:4;stroke-opacity:1;stroke-dasharray:none"
     id="path22037" /><path
     d="m 6.3007988,16.669375 2.74375,-1.37125 2.7787502,1.3725"
     style="fill:none;stroke:#000000;stroke-width:0.44999999;stroke-linecap:butt;stroke-linejoin:miter;stroke-miterlimit:4;stroke-opacity:1;stroke-dasharray:none"
     id="path22039" /><path
     d="m 9.0407988,15.298125 0,-7.89375"
     style="fill:none;stroke:#000000;stroke-width:0.44999999;stroke-linecap:butt;stroke-linejoin:miter;stroke-miterlimit:4;stroke-opacity:1;stroke-dasharray:none"
     id="path22041" /></g></svg>