<?xml version="1.0" encoding="UTF-8" standalone="no"?>
<!-- Created with Inkscape (http://www.inkscape.org/) -->

<svg
   xmlns:dc="http://purl.org/dc/elements/1.1/"
   xmlns:cc="http://creativecommons.org/ns#"
   xmlns:rdf="http://www.w3.org/1999/02/22-rdf-syntax-ns#"
   xmlns:svg="http://www.w3.org/2000/svg"
   xmlns="http://www.w3.org/2000/svg"
   xmlns:sodipodi="http://sodipodi.sourceforge.net/DTD/sodipodi-0.dtd"
   xmlns:inkscape="http://www.inkscape.org/namespaces/inkscape"
   width="150"
   height="150"
   id="svg2"
   version="1.1"
   inkscape:version="0.48.4 r9939"
   sodipodi:docname="SRp.svg">
  <title
     id="title3167">SR</title>
  <defs
     id="defs4" />
  <sodipodi:namedview
     id="base"
     pagecolor="#ffffff"
     bordercolor="#666666"
     borderopacity="1.0"
     inkscape:pageopacity="0.0"
     inkscape:pageshadow="2"
     inkscape:zoom="2.3285128"
     inkscape:cx="-83.637474"
     inkscape:cy="43.72706"
     inkscape:document-units="px"
     inkscape:current-layer="layer1"
     showgrid="false"
     width="150px"
     inkscape:window-width="1366"
     inkscape:window-height="725"
     inkscape:window-x="0"
     inkscape:window-y="25"
     inkscape:window-maximized="1"
     showguides="true"
     inkscape:guide-bbox="true">
    <sodipodi:guide
       orientation="1,0"
       position="-0.30367313,127.23904"
       id="guide3789" />
    <sodipodi:guide
       orientation="1,0"
       position="150.92555,137.8676"
       id="guide3791" />
  </sodipodi:namedview>
  <metadata
     id="metadata7">
    <rdf:RDF>
      <cc:Work
         rdf:about="">
        <dc:format>image/svg+xml</dc:format>
        <dc:type
           rdf:resource="http://purl.org/dc/dcmitype/StillImage" />
        <dc:title>SR</dc:title>
        <dc:creator>
          <cc:Agent>
            <dc:title>Arpa Piemonte SC22/Sea Consulting</dc:title>
          </cc:Agent>
        </dc:creator>
        <dc:rights>
          <cc:Agent>
            <dc:title />
          </cc:Agent>
        </dc:rights>
        <dc:date>2013.02.15</dc:date>
        <dc:description>Verticale virtuale lungo profilo sismico a rifrazione</dc:description>
        <dc:subject>
          <rdf:Bag>
            <rdf:li>geologia geotecnica geofisica</rdf:li>
          </rdf:Bag>
        </dc:subject>
        <dc:contributor>
          <cc:Agent>
            <dc:title>DF, LL</dc:title>
          </cc:Agent>
        </dc:contributor>
        <cc:license
           rdf:resource="http://creativecommons.org/licenses/by/3.0/" />
        <dc:language>it</dc:language>
      </cc:Work>
      <cc:License
         rdf:about="http://creativecommons.org/licenses/by/3.0/">
        <cc:permits
           rdf:resource="http://creativecommons.org/ns#Reproduction" />
        <cc:permits
           rdf:resource="http://creativecommons.org/ns#Distribution" />
        <cc:requires
           rdf:resource="http://creativecommons.org/ns#Notice" />
        <cc:requires
           rdf:resource="http://creativecommons.org/ns#Attribution" />
        <cc:permits
           rdf:resource="http://creativecommons.org/ns#DerivativeWorks" />
      </cc:License>
    </rdf:RDF>
  </metadata>
  <g
     inkscape:label="Livello 1"
     inkscape:groupmode="layer"
     id="layer1"
     transform="translate(0,-902.36229)">
    <g
       transform="matrix(0.9013457,0,0,0.96320607,4.8909433,75.769469)"
       style="font-size:28.42299652px;font-style:normal;font-variant:normal;font-weight:normal;font-stretch:normal;text-align:start;line-height:125%;letter-spacing:0px;word-spacing:0px;writing-mode:lr-tb;text-anchor:start;fill:#ff0000;fill-opacity:1;stroke:none;font-family:Sans;-inkscape-font-specification:Sans"
       id="text3001">
      <path
         d="m 92.154434,884.34241 6.75,-0.65625 c 0.406241,2.26563 1.226556,3.92969 2.460936,4.99218 1.24999,1.06251 2.92968,1.59376 5.03906,1.59375 2.23436,10e-6 3.91405,-0.46874 5.03907,-1.40625 1.1406,-0.95311 1.71091,-2.06249 1.71093,-3.32812 -2e-5,-0.81249 -0.24221,-1.49999 -0.72656,-2.0625 -0.46877,-0.57811 -1.29689,-1.07811 -2.48437,-1.5 -0.81252,-0.28124 -2.66408,-0.78124 -5.55469,-1.5 -3.71876,-0.92186 -6.328133,-2.05467 -7.828126,-3.39844 -2.109379,-1.8906 -3.164065,-4.19529 -3.164062,-6.91406 -3e-6,-1.74997 0.492184,-3.38278 1.476562,-4.89844 0.999995,-1.53122 2.429681,-2.69528 4.289063,-3.49219 1.874993,-0.79684 4.132803,-1.19527 6.773433,-1.19531 4.31248,4e-5 7.55467,0.94535 9.72657,2.83594 2.18747,1.89065 3.33591,4.41409 3.44531,7.57031 l -6.9375,0.30469 c -0.2969,-1.7656 -0.93752,-3.03122 -1.92188,-3.79688 -0.96876,-0.78122 -2.4297,-1.17184 -4.38281,-1.17187 -2.01564,3e-5 -3.59376,0.41409 -4.73437,1.24219 -0.73439,0.53127 -1.10158,1.24221 -1.10157,2.13281 -1e-5,0.81252 0.34374,1.50784 1.03125,2.08594 0.87499,0.7344 2.99999,1.50002 6.375,2.29687 3.37498,0.7969 5.86717,1.62502 7.47657,2.48438 1.62497,0.84377 2.89059,2.00783 3.79687,3.49218 0.92185,1.46877 1.38278,3.28908 1.38281,5.46094 -3e-5,1.96876 -0.5469,3.81251 -1.64062,5.53125 -1.09378,1.71875 -2.64065,3 -4.64063,3.84375 -2.00002,0.82813 -4.4922,1.24219 -7.47656,1.24219 -4.34376,0 -7.679694,-1 -10.007811,-3 -2.328128,-2.01562 -3.718752,-4.94531 -4.171875,-8.78906"
         style="font-size:48px;font-weight:bold;fill:#ff0000;fill-opacity:1;font-family:Arial;-inkscape-font-specification:Arial Bold"
         id="path18216"
         inkscape:connector-curvature="0" />
      <path
         d="m 125.99818,895.52209 0,-34.35937 14.60157,0 c 3.67185,3e-5 6.33591,0.31253 7.99218,0.9375 1.67185,0.60941 3.00779,1.70316 4.00782,3.28125 0.99997,1.57815 1.49997,3.38284 1.5,5.41406 -3e-5,2.57815 -0.75785,4.71096 -2.27344,6.39844 -1.51565,1.67189 -3.78128,2.72658 -6.79688,3.16406 1.49998,0.87502 2.73435,1.83595 3.70313,2.88281 0.98435,1.04689 2.30466,2.90626 3.96094,5.57813 l 4.19531,6.70312 -8.29688,0 -5.01562,-7.47656 c -1.78127,-2.67186 -3.00002,-4.35155 -3.65625,-5.03906 -0.65627,-0.70311 -1.35158,-1.17967 -2.08594,-1.42969 -0.73439,-0.26561 -1.89845,-0.39842 -3.49219,-0.39844 l -1.40625,0 0,14.34375 -6.9375,0 m 6.9375,-19.82812 5.13282,0 c 3.3281,2e-5 5.40623,-0.14061 6.23437,-0.42188 0.8281,-0.28122 1.47654,-0.7656 1.94531,-1.45312 0.46873,-0.68748 0.7031,-1.54685 0.70313,-2.57813 -3e-5,-1.15622 -0.31252,-2.08591 -0.9375,-2.78906 -0.6094,-0.71872 -1.47659,-1.17184 -2.60156,-1.35937 -0.56252,-0.0781 -2.25002,-0.11716 -5.0625,-0.11719 l -5.41407,0 0,8.71875"
         style="font-size:48px;font-weight:bold;fill:#ff0000;fill-opacity:1;font-family:Arial;-inkscape-font-specification:Arial Bold"
         id="path18218"
         inkscape:connector-curvature="0" />
    </g>
    <g
       transform="matrix(0.70710678,-0.70710678,0.70710678,0.70710678,-671.43295,333.98927)"
       id="g8247">
      <g
         id="g5739"
         transform="translate(-2.1256215,5.3789339)">
        <g
           id="g5093"
           transform="matrix(0.68036746,0,0,0.69026222,23.972442,302.73158)"
           style="fill:#ff0000;fill-opacity:1">
          <path
             transform="translate(2.7246606,901.06361)"
             d="m 130.49714,76.290634 c 0,32.155016 -26.06679,58.221796 -58.221803,58.221796 -32.155011,0 -58.221798,-26.06678 -58.221798,-58.221796 0,-32.155011 26.066787,-58.221798 58.221798,-58.221798 32.155013,0 58.221803,26.066787 58.221803,58.221798 z"
             sodipodi:ry="58.221798"
             sodipodi:rx="58.221798"
             sodipodi:cy="76.290634"
             sodipodi:cx="72.275337"
             id="path2987"
             style="fill:#ff0000;fill-opacity:1;stroke:#000000;stroke-width:7.29610682;stroke-miterlimit:4;stroke-opacity:1;stroke-dasharray:none;stroke-dashoffset:0"
             sodipodi:type="arc" />
        </g>
        <path
           style="fill:none;stroke:#000000;stroke-width:4.94393349;stroke-linecap:butt;stroke-linejoin:miter;stroke-miterlimit:4;stroke-opacity:1;stroke-dasharray:none"
           d="m 74.902433,925.85709 c 0.195134,103.01041 0.195134,103.01041 0.195134,103.01041"
           id="path2989"
           inkscape:connector-curvature="0" />
      </g>
      <path
         inkscape:connector-curvature="0"
         id="path2991"
         d="m 22.041953,982.54885 c 101.664847,0.3959 101.664847,0.3959 101.664847,0.3959"
         style="fill:none;stroke:#000000;stroke-width:5;stroke-linecap:butt;stroke-linejoin:miter;stroke-miterlimit:4;stroke-opacity:1;stroke-dasharray:none" />
    </g>
  </g>
</svg>
