<?xml version="1.0" encoding="UTF-8" standalone="no"?>
<!-- Created with Inkscape (http://www.inkscape.org/) -->
<svg
   xmlns:dc="http://purl.org/dc/elements/1.1/"
   xmlns:cc="http://web.resource.org/cc/"
   xmlns:rdf="http://www.w3.org/1999/02/22-rdf-syntax-ns#"
   xmlns:svg="http://www.w3.org/2000/svg"
   xmlns="http://www.w3.org/2000/svg"
   xmlns:sodipodi="http://sodipodi.sourceforge.net/DTD/sodipodi-0.dtd"
   xmlns:inkscape="http://www.inkscape.org/namespaces/inkscape"
   width="744.09448819"
   height="1052.3622047"
   id="svg2"
   sodipodi:version="0.32"
   inkscape:version="0.44.1"
   sodipodi:docbase="C:\Documents and Settings\pc\Desktop\meteo\meteo svg\fumetto"
   sodipodi:docname="drizzle.svg">
  <defs
     id="defs4" />
  <sodipodi:namedview
     id="base"
     pagecolor="#ffffff"
     bordercolor="#666666"
     borderopacity="1.0"
     inkscape:pageopacity="0.0"
     inkscape:pageshadow="2"
     inkscape:zoom="1.4"
     inkscape:cx="375"
     inkscape:cy="520"
     inkscape:document-units="px"
     inkscape:current-layer="layer1"
     inkscape:window-width="1280"
     inkscape:window-height="744"
     inkscape:window-x="-4"
     inkscape:window-y="-4" />
  <metadata
     id="metadata7">
    <rdf:RDF>
      <cc:Work
         rdf:about="">
        <dc:format>image/svg+xml</dc:format>
        <dc:type
           rdf:resource="http://purl.org/dc/dcmitype/StillImage" />
      </cc:Work>
    </rdf:RDF>
  </metadata>
  <g
     inkscape:label="Livello 1"
     inkscape:groupmode="layer"
     id="layer1">
    <g
       id="g3631">
      <path
         d="M 198.81651,528.16418 C 198.82609,526.79913 198.82435,525.43397 198.82677,524.06892 C 198.7213,521.90819 198.90074,519.7876 199.03593,517.65055 C 199.0609,515.4469 199.76333,513.58594 200.27716,511.59507 C 201.01854,509.22309 201.97893,507.02011 202.89085,504.78405 C 204.07727,503.30876 204.9262,501.45296 205.88447,499.74839 C 206.2069,497.6579 206.85006,495.72865 207.37975,493.7504 C 207.90595,491.71146 208.79113,490.02916 209.63867,488.27413 C 210.81237,486.1885 211.89335,483.99378 213.02364,481.85655 C 216.51747,475.91308 220.30254,470.34375 224.49049,465.40455 C 228.07352,461.54847 232.07211,458.64354 236.07659,455.81887 C 240.10931,453.47554 236.87262,455.44632 239.43575,453.16879 C 241.13082,451.21629 242.96532,449.54316 244.77128,447.82207 C 246.9929,445.33523 249.44831,444.19643 252.1197,443.39596 C 255.15774,442.94169 258.12728,444.03338 261.05408,445.03473 C 263.37167,446.52793 265.60384,446.4056 268.03318,446.29396 C 270.65985,445.50739 273.16482,445.74075 275.76584,446.38782 C 278.72592,448.49785 280.63418,447.03786 283.35623,445.08694 C 286.61335,441.53785 290.47429,439.39898 294.40311,437.78049 C 296.25257,438.22304 298.26219,438.30293 300.00177,438.45487 C 297.16395,442.28363 299.22689,435.43266 299.53983,433.99519 C 301.00993,428.8899 303.97717,425.6435 306.86171,422.26251 C 309.6666,419.09194 312.8491,416.95343 316.15828,415.16696 C 318.17803,414.03266 320.00345,412.27351 323.48783,409.63969 C 326.42261,407.62618 329.57621,406.96648 332.76478,406.44684 C 335.37373,405.8439 337.57652,403.6737 339.85503,401.88705 C 342.56653,400.02488 345.564,399.41253 348.48809,398.62796 C 351.02836,397.5123 352.83509,399.01302 355.00436,400.72185 C 356.87396,402.48422 358.6539,404.41991 360.48793,406.23886 C 362.74384,407.31391 365.16177,406.35007 367.48149,405.95548 C 371.5563,404.86756 374.47555,406.59144 377.78977,409.64831 C 379.66327,412.40075 381.42617,415.27793 383.34897,417.96116 C 385.06392,420.03635 386.8186,422.04185 388.55721,424.07576 C 390.41638,426.08605 391.97524,428.5154 393.55637,430.93717 C 394.49924,432.86563 395.82746,433.2261 397.16385,434.12996 C 398.72895,434.5271 400.32156,434.47144 401.9037,434.50434 C 403.86266,434.11861 405.49423,435.22608 407.2804,436.11859 C 409.26658,437.29629 410.99747,439.06449 412.74905,440.80901 C 414.46171,442.71392 415.71426,445.26578 417.07177,447.65731 C 418.89372,450.89412 420.85064,453.93891 422.58446,457.26727 C 423.72865,459.96828 424.7466,462.77365 425.82793,465.52984 C 427.11112,468.65732 428.46765,471.71589 429.71562,474.87014 C 430.64463,477.57553 431.95191,479.87521 433.29013,482.17301 C 434.70355,484.55507 436.343,486.61946 437.92684,488.75766 C 439.79555,491.86438 440.94266,495.70096 442.25176,499.31713 C 443.55208,502.3156 444.56694,505.53135 445.67946,508.6737 C 446.88796,512.54744 448.38858,516.20913 449.82286,519.91484 C 450.86523,522.52728 451.88259,525.15957 452.88303,527.80006 C 453.44243,530.11875 453.65837,532.58938 453.95092,534.99961 C 454.95284,537.17757 454.84195,539.61342 455.04598,541.87844 C 453.33738,544.57162 451.81048,544.47552 449.65796,544.80789 C 448.13784,544.83181 446.6175,544.79994 445.09738,544.78191 C 443.57756,544.76534 442.05769,544.76473 440.53787,544.76127 C 439.02359,544.75975 437.50932,544.76036 435.99509,544.76036 C 434.48116,544.76054 432.96723,544.76054 431.45334,544.7606 C 429.93936,544.76066 428.42539,544.76066 426.91142,544.76066 C 425.3974,544.76066 423.88342,544.76066 422.36945,544.76066 C 420.85543,544.76066 419.34146,544.76066 417.82748,544.76066 C 416.31351,544.76066 414.79949,544.76066 413.28552,544.76066 C 411.75442,544.62292 410.25642,545.08356 408.75355,545.43262 C 407.2186,545.56612 405.72226,545.93618 404.21422,546.34492 C 402.34852,546.83519 400.44755,546.80756 398.5596,546.89571 C 396.68093,546.94045 394.80192,546.93341 392.92308,546.93505 C 391.14861,546.73441 389.6086,547.71664 387.9909,548.56016 C 386.20303,549.7202 384.30706,550.26328 382.41318,550.87611 C 380.63048,551.24114 378.82905,551.23088 377.03347,551.28236 C 375.48855,551.28916 373.94362,551.27841 372.39875,551.27198 C 370.88715,551.26615 369.37559,551.26658 367.86403,551.26506 C 366.01694,551.26148 364.16981,551.26123 362.32272,551.26136 C 360.64172,551.26306 358.96077,551.26372 357.27981,551.26451 C 355.72976,551.26585 354.17971,551.26439 352.62966,551.26342 C 350.62797,551.26008 348.62628,551.26075 346.62459,551.26038 C 344.95508,551.55086 343.3562,551.0294 341.72175,550.75057 C 340.09615,550.29673 338.43627,550.30468 336.78876,550.21022 C 334.87211,550.15929 332.95503,550.17167 331.03817,550.17167 C 329.43377,550.17605 327.82942,550.17781 326.22506,550.17981 C 324.611,549.94111 323.06048,550.34948 321.48767,550.64755 C 319.48517,551.55511 317.48683,552.48787 315.48904,553.41613 C 313.18201,554.72569 310.726,555.08635 308.28119,555.42412 C 306.23381,555.62166 304.18158,555.6063 302.13102,555.62269 C 300.21182,555.61189 298.29262,555.60703 296.37343,555.60211 C 294.32918,555.5975 292.28492,555.59732 290.24067,555.59531 C 288.35145,555.5975 286.46226,555.59798 284.57308,555.59847 C 282.54422,555.59865 280.5154,555.59641 278.48658,555.59471 C 276.33741,555.67599 274.18819,555.55421 272.04627,555.45581 C 270.47011,554.98248 268.99568,553.87689 267.48722,553.0287 C 265.19735,552.33052 262.84305,552.39632 260.5146,552.33283 C 257.83689,552.30065 255.15906,552.32008 252.48126,552.33113 C 250.41709,552.34418 248.35287,552.34187 246.28865,552.34163 C 243.70861,552.34126 241.12857,552.33944 238.54857,552.33944 C 237.10264,552.62033 235.63843,552.69646 234.19716,553.02269 C 232.78162,555.46813 230.58196,556.1628 228.72796,557.29455 C 226.99897,557.32527 225.317,556.77903 223.62977,556.31705 C 221.79985,555.83674 219.94217,555.76256 218.09033,555.63137 C 216.32476,555.57382 214.5586,555.58918 212.79269,555.58882 C 210.98825,555.59367 209.18381,555.59556 207.37932,555.5975 C 205.64029,555.59804 203.90126,555.59926 202.16218,555.60029 C 200.69166,555.8742 199.29795,555.35692 197.86359,555.08599 C 196.56144,554.86313 196.06097,553.31245 195.18003,552.27273 C 194.36446,551.16659 193.9433,549.653 193.36995,548.31418 C 192.82318,546.73921 192.58922,545.0333 192.24144,543.37176 C 191.8575,541.18153 192.32177,539.21913 192.66553,537.11936 C 193.15413,535.09437 193.90764,533.24434 194.60503,531.36068 C 197.85719,528.05327 196.39726,529.19273 197.64993,527.90684 C 198.15075,526.97415 198.66394,526.07521 199.16611,525.16807 L 201.21622,523.82858 C 200.71663,524.77135 200.28224,525.75559 199.71627,526.65896 C 196.65839,529.71578 197.05463,529.24093 196.65733,530.05567 C 195.95096,531.91529 195.20114,533.7513 194.69087,535.74933 C 194.33487,537.80127 193.85309,539.70746 194.223,541.85962 C 194.5617,543.49748 194.78591,545.17826 195.32696,546.72865 C 195.89255,548.04652 196.30913,549.53468 197.11292,550.6243 C 197.95965,551.59512 198.44719,553.10483 199.70618,553.24804 C 201.12829,553.49444 202.51912,553.97463 203.97358,553.71566 C 205.71155,553.71639 207.44957,553.71778 209.18754,553.71596 C 210.9916,553.71384 212.79566,553.71208 214.59976,553.70831 C 216.36826,553.70886 218.13722,553.69016 219.90533,553.75633 C 221.76183,553.90154 223.62405,553.99133 225.45757,554.48451 C 227.13556,554.92639 228.80901,555.48222 230.52825,555.38181 C 233.13385,553.38541 229.32051,557.88474 232.10678,554.17235 C 234.8104,551.96088 237.15334,550.24325 240.3431,550.47235 C 242.92496,550.47235 245.50686,550.47102 248.08873,550.46859 C 250.1529,550.46422 252.21703,550.45997 254.28121,550.45754 C 256.95684,550.45226 259.63256,550.44267 262.30815,550.47205 C 264.65576,550.53804 267.03232,550.46513 269.33511,551.22056 C 270.82378,552.08162 272.28989,553.19237 273.86585,553.60062 C 276.00294,553.68609 278.14515,553.79027 280.28742,553.72106 C 282.31869,553.7193 284.34997,553.71711 286.38121,553.71718 C 288.2684,553.71754 290.15564,553.71784 292.04283,553.72027 C 294.08882,553.71942 296.13485,553.71851 298.18084,553.72221 C 300.1008,553.72859 302.02076,553.73551 303.94072,553.73982 C 305.98378,553.72404 308.02879,553.74285 310.06821,553.53342 C 312.5045,553.17124 314.94668,552.78108 317.243,551.45914 C 319.24821,550.535 321.24837,549.58009 323.26392,548.70452 C 324.84916,548.44439 326.42036,548.08113 328.03777,548.29354 C 329.64077,548.29232 331.24377,548.29087 332.84676,548.28971 C 334.76418,548.29311 336.68185,548.28285 338.59901,548.33676 C 340.25712,548.43863 341.92773,548.43577 343.56205,548.91104 C 345.18294,549.16807 346.77644,549.65409 348.42899,549.38304 C 350.43263,549.38267 352.43627,549.38334 354.43991,549.38 C 355.99064,549.37903 357.54137,549.37757 359.09214,549.37891 C 360.77115,549.37964 362.45019,549.3803 364.1292,549.38182 C 365.97853,549.38194 367.82783,549.38128 369.67716,549.37873 C 371.1888,549.38037 372.70049,549.38 374.21213,549.38631 C 375.75587,549.39305 377.29964,549.40477 378.84338,549.3956 C 380.63073,549.33817 382.42479,549.34692 384.19714,548.95457 C 386.08001,548.31315 387.96716,547.73813 389.74739,546.58313 C 391.38685,545.77689 392.94648,544.81991 394.73405,545.0512 C 396.60903,545.05181 398.4841,545.06237 400.35891,545.01539 C 402.24385,544.91352 404.14207,544.93161 406.00208,544.41112 C 407.51262,544.02429 409.01354,543.66576 410.54664,543.50823 C 412.05646,543.16311 413.56043,542.72766 415.09861,542.87427 C 416.61258,542.87427 418.12656,542.87427 419.64053,542.87427 C 421.15455,542.87427 422.66852,542.87427 424.1825,542.87427 C 425.69651,542.87427 427.21049,542.87427 428.72446,542.87427 C 430.23844,542.87427 431.75241,542.87427 433.26639,542.87421 C 434.78032,542.87415 436.29421,542.87415 437.80814,542.87397 C 439.32241,542.87403 440.83673,542.87336 442.35104,542.87518 C 443.87112,542.87913 445.3912,542.88016 446.91124,542.89776 C 448.42983,542.91543 449.94877,542.95137 451.46728,542.91112 C 453.94808,542.41096 454.11544,542.92587 453.00414,543.23414 C 452.84967,541.05811 453.01368,538.66324 451.98823,536.52219 C 451.69059,534.13254 451.46079,531.6888 450.93467,529.37661 C 449.94372,526.74104 448.93836,524.11081 447.90557,521.50268 C 446.47303,517.78877 444.97546,514.11961 443.74814,510.25279 C 442.63426,507.11275 441.62343,503.89579 440.3332,500.89034 C 439.03508,497.30246 437.90111,493.48985 436.02354,490.43267 C 434.43945,488.28366 432.80372,486.2035 431.38746,483.81567 C 430.03411,481.50305 428.70751,479.1922 427.78337,476.45306 C 426.54447,473.29718 425.19167,470.24224 423.90182,467.12606 C 422.82092,464.37691 421.79928,461.58265 420.66836,458.87781 C 418.94395,455.55279 416.99754,452.50855 415.17063,449.29122 C 413.81923,446.92616 412.56681,444.40678 410.86351,442.52707 C 409.12482,440.79705 407.40834,439.03747 405.43056,437.88775 C 403.65346,437.0446 402.02702,436.00306 400.09095,436.38873 C 398.4977,436.34605 396.89233,436.39899 395.32049,435.95431 C 393.9718,434.98975 392.59573,434.55788 391.64628,432.59579 C 390.07724,430.18246 388.53147,427.76106 386.67811,425.76771 C 384.9292,423.73732 383.16406,421.73558 381.45864,419.62973 C 379.54899,416.94736 377.78537,414.08772 375.92632,411.33523 C 372.63313,408.341 369.73316,406.73944 365.7102,407.84151 C 363.34118,408.25474 360.90112,409.22944 358.61282,407.98477 C 356.79057,406.14258 355.01831,404.18728 353.13841,402.45083 C 350.98699,400.79476 349.22091,399.42716 346.72574,400.54945 C 343.80449,401.32448 340.81842,401.95085 338.12914,403.87325 C 335.84165,405.6755 333.6241,407.8236 330.98403,408.3359 C 327.81271,408.87661 324.67904,409.56733 321.76958,411.60482 C 318.74807,413.90724 317.94487,414.71779 314.39801,417.13057 C 311.08006,418.96779 311.89665,417.97597 308.89918,421.1026 C 306.02168,424.42822 303.04557,427.60887 301.55322,432.65291 C 300.80802,436.36287 300.91527,438.55346 298.23361,440.45273 C 296.45096,440.19053 294.49391,439.92373 292.64767,439.69207 C 288.60359,441.41693 285.11866,443.36676 281.64725,447.06706 C 278.87577,448.95637 276.9177,450.29543 273.94109,448.19735 C 271.35308,447.60267 268.8524,447.43027 266.24637,448.19663 C 263.81009,448.24853 261.55396,448.31391 259.23476,446.82454 C 256.31601,445.84801 253.35894,444.78189 250.33455,445.30578 C 246.34524,446.6202 249.51974,444.55078 246.85102,446.67544 C 245.04318,448.38051 243.19915,450.02778 241.5084,451.98246 C 239.21018,454.14131 237.01022,456.58966 234.34163,457.79754 C 231.16599,460.04374 229.3526,461.14605 226.49553,464.24839 C 222.30525,469.13733 218.52972,474.67479 215.05874,480.608 C 213.93464,482.74286 212.85272,484.92751 211.70145,487.02801 C 210.83373,488.74825 209.9299,490.38192 209.42413,492.42901 C 208.88329,494.3945 208.19456,496.30402 207.92762,498.41728 C 206.99055,500.1757 206.22034,502.10113 204.93574,503.50156 C 204.01614,505.72069 203.0519,507.90722 202.31636,510.2727 C 201.78342,512.23365 201.07196,514.0532 201.04847,516.24064 C 200.90226,518.3619 200.71061,520.46119 200.82655,522.60972 C 200.82897,523.96985 200.82723,525.32998 200.83681,526.69004 L 198.81651,528.16418 z "
         id="path1872"
         style="opacity:0.97000002;fill:black;fill-opacity:1;stroke:black;stroke-width:2.02916598;stroke-linejoin:round;stroke-miterlimit:4;stroke-dasharray:none;stroke-opacity:1" />
      <path
         transform="matrix(0.521041,0,0,0.459641,91.73576,300.6695)"
         d="M 249.28571 580.2193 A 9.2857141 12.857142 0 1 1  230.71429,580.2193 A 9.2857141 12.857142 0 1 1  249.28571 580.2193 z"
         sodipodi:ry="12.857142"
         sodipodi:rx="9.2857141"
         sodipodi:cy="580.2193"
         sodipodi:cx="240"
         id="path3587"
         style="opacity:0.98543689;fill:black;fill-opacity:1;stroke:black;stroke-width:3.56299996;stroke-linecap:square;stroke-linejoin:miter;stroke-miterlimit:4;stroke-dasharray:none;stroke-opacity:1"
         sodipodi:type="arc" />
      <path
         transform="matrix(0.521041,0,0,0.459641,172.8073,300.6696)"
         d="M 249.28571 580.2193 A 9.2857141 12.857142 0 1 1  230.71429,580.2193 A 9.2857141 12.857142 0 1 1  249.28571 580.2193 z"
         sodipodi:ry="12.857142"
         sodipodi:rx="9.2857141"
         sodipodi:cy="580.2193"
         sodipodi:cx="240"
         id="path3589"
         style="opacity:0.98543689;fill:black;fill-opacity:1;stroke:black;stroke-width:3.56299996;stroke-linecap:square;stroke-linejoin:miter;stroke-miterlimit:4;stroke-dasharray:none;stroke-opacity:1"
         sodipodi:type="arc" />
      <path
         transform="matrix(0.521041,0,0,0.459641,287.093,289.9553)"
         d="M 249.28571 580.2193 A 9.2857141 12.857142 0 1 1  230.71429,580.2193 A 9.2857141 12.857142 0 1 1  249.28571 580.2193 z"
         sodipodi:ry="12.857142"
         sodipodi:rx="9.2857141"
         sodipodi:cy="580.2193"
         sodipodi:cx="240"
         id="path3591"
         style="opacity:0.98543689;fill:black;fill-opacity:1;stroke:black;stroke-width:3.56299996;stroke-linecap:square;stroke-linejoin:miter;stroke-miterlimit:4;stroke-dasharray:none;stroke-opacity:1"
         sodipodi:type="arc" />
      <path
         transform="matrix(0.521041,0,0,0.459641,237.0931,274.241)"
         d="M 249.28571 580.2193 A 9.2857141 12.857142 0 1 1  230.71429,580.2193 A 9.2857141 12.857142 0 1 1  249.28571 580.2193 z"
         sodipodi:ry="12.857142"
         sodipodi:rx="9.2857141"
         sodipodi:cy="580.2193"
         sodipodi:cx="240"
         id="path3593"
         style="opacity:0.98543689;fill:black;fill-opacity:1;stroke:black;stroke-width:3.56299996;stroke-linecap:square;stroke-linejoin:miter;stroke-miterlimit:4;stroke-dasharray:none;stroke-opacity:1"
         sodipodi:type="arc" />
      <path
         transform="matrix(0.521041,0,0,0.459641,258.5216,297.0982)"
         d="M 249.28571 580.2193 A 9.2857141 12.857142 0 1 1  230.71429,580.2193 A 9.2857141 12.857142 0 1 1  249.28571 580.2193 z"
         sodipodi:ry="12.857142"
         sodipodi:rx="9.2857141"
         sodipodi:cy="580.2193"
         sodipodi:cx="240"
         id="path3595"
         style="opacity:0.98543689;fill:black;fill-opacity:1;stroke:black;stroke-width:3.56299996;stroke-linecap:square;stroke-linejoin:miter;stroke-miterlimit:4;stroke-dasharray:none;stroke-opacity:1"
         sodipodi:type="arc" />
      <path
         transform="matrix(0.521041,0,0,0.459641,214.2359,320.6696)"
         d="M 249.28571 580.2193 A 9.2857141 12.857142 0 1 1  230.71429,580.2193 A 9.2857141 12.857142 0 1 1  249.28571 580.2193 z"
         sodipodi:ry="12.857142"
         sodipodi:rx="9.2857141"
         sodipodi:cy="580.2193"
         sodipodi:cx="240"
         id="path3597"
         style="opacity:0.98543689;fill:black;fill-opacity:1;stroke:black;stroke-width:3.56299996;stroke-linecap:square;stroke-linejoin:miter;stroke-miterlimit:4;stroke-dasharray:none;stroke-opacity:1"
         sodipodi:type="arc" />
      <path
         transform="matrix(0.521041,0,0,0.459641,115.6644,306.3839)"
         d="M 249.28571 580.2193 A 9.2857141 12.857142 0 1 1  230.71429,580.2193 A 9.2857141 12.857142 0 1 1  249.28571 580.2193 z"
         sodipodi:ry="12.857142"
         sodipodi:rx="9.2857141"
         sodipodi:cy="580.2193"
         sodipodi:cx="240"
         id="path3599"
         style="opacity:0.98543689;fill:black;fill-opacity:1;stroke:black;stroke-width:3.56299996;stroke-linecap:square;stroke-linejoin:miter;stroke-miterlimit:4;stroke-dasharray:none;stroke-opacity:1"
         sodipodi:type="arc" />
      <path
         transform="matrix(0.521041,0,0,0.459641,132.093,274.9554)"
         d="M 249.28571 580.2193 A 9.2857141 12.857142 0 1 1  230.71429,580.2193 A 9.2857141 12.857142 0 1 1  249.28571 580.2193 z"
         sodipodi:ry="12.857142"
         sodipodi:rx="9.2857141"
         sodipodi:cy="580.2193"
         sodipodi:cx="240"
         id="path3601"
         style="opacity:0.98543689;fill:black;fill-opacity:1;stroke:black;stroke-width:3.56299996;stroke-linecap:square;stroke-linejoin:miter;stroke-miterlimit:4;stroke-dasharray:none;stroke-opacity:1"
         sodipodi:type="arc" />
      <path
         transform="matrix(0.521041,0,0,0.459641,132.093,298.5267)"
         d="M 249.28571 580.2193 A 9.2857141 12.857142 0 1 1  230.71429,580.2193 A 9.2857141 12.857142 0 1 1  249.28571 580.2193 z"
         sodipodi:ry="12.857142"
         sodipodi:rx="9.2857141"
         sodipodi:cy="580.2193"
         sodipodi:cx="240"
         id="path3603"
         style="opacity:0.98543689;fill:black;fill-opacity:1;stroke:black;stroke-width:3.56299996;stroke-linecap:square;stroke-linejoin:miter;stroke-miterlimit:4;stroke-dasharray:none;stroke-opacity:1"
         sodipodi:type="arc" />
      <path
         transform="matrix(0.521041,0,0,0.459641,264.2359,273.5268)"
         d="M 249.28571 580.2193 A 9.2857141 12.857142 0 1 1  230.71429,580.2193 A 9.2857141 12.857142 0 1 1  249.28571 580.2193 z"
         sodipodi:ry="12.857142"
         sodipodi:rx="9.2857141"
         sodipodi:cy="580.2193"
         sodipodi:cx="240"
         id="path3605"
         style="opacity:0.98543689;fill:black;fill-opacity:1;stroke:black;stroke-width:3.56299996;stroke-linecap:square;stroke-linejoin:miter;stroke-miterlimit:4;stroke-dasharray:none;stroke-opacity:1"
         sodipodi:type="arc" />
      <path
         transform="matrix(0.521041,0,0,0.459641,184.9502,269.9553)"
         d="M 249.28571 580.2193 A 9.2857141 12.857142 0 1 1  230.71429,580.2193 A 9.2857141 12.857142 0 1 1  249.28571 580.2193 z"
         sodipodi:ry="12.857142"
         sodipodi:rx="9.2857141"
         sodipodi:cy="580.2193"
         sodipodi:cx="240"
         id="path3607"
         style="opacity:0.98543689;fill:black;fill-opacity:1;stroke:black;stroke-width:3.56299996;stroke-linecap:square;stroke-linejoin:miter;stroke-miterlimit:4;stroke-dasharray:none;stroke-opacity:1"
         sodipodi:type="arc" />
      <path
         transform="matrix(0.521041,0,0,0.459641,290.6645,264.2411)"
         d="M 249.28571 580.2193 A 9.2857141 12.857142 0 1 1  230.71429,580.2193 A 9.2857141 12.857142 0 1 1  249.28571 580.2193 z"
         sodipodi:ry="12.857142"
         sodipodi:rx="9.2857141"
         sodipodi:cy="580.2193"
         sodipodi:cx="240"
         id="path3609"
         style="opacity:0.98543689;fill:black;fill-opacity:1;stroke:black;stroke-width:3.56299996;stroke-linecap:square;stroke-linejoin:miter;stroke-miterlimit:4;stroke-dasharray:none;stroke-opacity:1"
         sodipodi:type="arc" />
      <path
         transform="matrix(0.521041,0,0,0.459641,136.3787,319.9554)"
         d="M 249.28571 580.2193 A 9.2857141 12.857142 0 1 1  230.71429,580.2193 A 9.2857141 12.857142 0 1 1  249.28571 580.2193 z"
         sodipodi:ry="12.857142"
         sodipodi:rx="9.2857141"
         sodipodi:cy="580.2193"
         sodipodi:cx="240"
         id="path3611"
         style="opacity:0.98543689;fill:black;fill-opacity:1;stroke:black;stroke-width:3.56299996;stroke-linecap:square;stroke-linejoin:miter;stroke-miterlimit:4;stroke-dasharray:none;stroke-opacity:1"
         sodipodi:type="arc" />
      <path
         transform="matrix(0.521041,0,0,0.459641,244.2359,309.9553)"
         d="M 249.28571 580.2193 A 9.2857141 12.857142 0 1 1  230.71429,580.2193 A 9.2857141 12.857142 0 1 1  249.28571 580.2193 z"
         sodipodi:ry="12.857142"
         sodipodi:rx="9.2857141"
         sodipodi:cy="580.2193"
         sodipodi:cx="240"
         id="path3613"
         style="opacity:0.98543689;fill:black;fill-opacity:1;stroke:black;stroke-width:3.56299996;stroke-linecap:square;stroke-linejoin:miter;stroke-miterlimit:4;stroke-dasharray:none;stroke-opacity:1"
         sodipodi:type="arc" />
      <path
         transform="matrix(0.521041,0,0,0.459641,95.66441,274.9553)"
         d="M 249.28571 580.2193 A 9.2857141 12.857142 0 1 1  230.71429,580.2193 A 9.2857141 12.857142 0 1 1  249.28571 580.2193 z"
         sodipodi:ry="12.857142"
         sodipodi:rx="9.2857141"
         sodipodi:cy="580.2193"
         sodipodi:cx="240"
         id="path3615"
         style="opacity:0.98543689;fill:black;fill-opacity:1;stroke:black;stroke-width:3.56299996;stroke-linecap:square;stroke-linejoin:miter;stroke-miterlimit:4;stroke-dasharray:none;stroke-opacity:1"
         sodipodi:type="arc" />
      <path
         transform="matrix(0.521041,0,0,0.459641,297.093,323.5268)"
         d="M 249.28571 580.2193 A 9.2857141 12.857142 0 1 1  230.71429,580.2193 A 9.2857141 12.857142 0 1 1  249.28571 580.2193 z"
         sodipodi:ry="12.857142"
         sodipodi:rx="9.2857141"
         sodipodi:cy="580.2193"
         sodipodi:cx="240"
         id="path3617"
         style="opacity:0.98543689;fill:black;fill-opacity:1;stroke:black;stroke-width:3.56299996;stroke-linecap:square;stroke-linejoin:miter;stroke-miterlimit:4;stroke-dasharray:none;stroke-opacity:1"
         sodipodi:type="arc" />
      <path
         transform="matrix(0.521041,0,0,0.459641,314.9502,304.241)"
         d="M 249.28571 580.2193 A 9.2857141 12.857142 0 1 1  230.71429,580.2193 A 9.2857141 12.857142 0 1 1  249.28571 580.2193 z"
         sodipodi:ry="12.857142"
         sodipodi:rx="9.2857141"
         sodipodi:cy="580.2193"
         sodipodi:cx="240"
         id="path3619"
         style="opacity:0.98543689;fill:black;fill-opacity:1;stroke:black;stroke-width:3.56299996;stroke-linecap:square;stroke-linejoin:miter;stroke-miterlimit:4;stroke-dasharray:none;stroke-opacity:1"
         sodipodi:type="arc" />
      <path
         transform="matrix(0.521041,0,0,0.459641,270.6644,314.241)"
         d="M 249.28571 580.2193 A 9.2857141 12.857142 0 1 1  230.71429,580.2193 A 9.2857141 12.857142 0 1 1  249.28571 580.2193 z"
         sodipodi:ry="12.857142"
         sodipodi:rx="9.2857141"
         sodipodi:cy="580.2193"
         sodipodi:cx="240"
         id="path3621"
         style="opacity:0.98543689;fill:black;fill-opacity:1;stroke:black;stroke-width:3.56299996;stroke-linecap:square;stroke-linejoin:miter;stroke-miterlimit:4;stroke-dasharray:none;stroke-opacity:1"
         sodipodi:type="arc" />
      <path
         transform="matrix(0.521041,0,0,0.459641,228.5216,294.241)"
         d="M 249.28571 580.2193 A 9.2857141 12.857142 0 1 1  230.71429,580.2193 A 9.2857141 12.857142 0 1 1  249.28571 580.2193 z"
         sodipodi:ry="12.857142"
         sodipodi:rx="9.2857141"
         sodipodi:cy="580.2193"
         sodipodi:cx="240"
         id="path3623"
         style="opacity:0.98543689;fill:black;fill-opacity:1;stroke:black;stroke-width:3.56299996;stroke-linecap:square;stroke-linejoin:miter;stroke-miterlimit:4;stroke-dasharray:none;stroke-opacity:1"
         sodipodi:type="arc" />
      <path
         transform="matrix(0.521041,0,0,0.459641,204.9502,296.3839)"
         d="M 249.28571 580.2193 A 9.2857141 12.857142 0 1 1  230.71429,580.2193 A 9.2857141 12.857142 0 1 1  249.28571 580.2193 z"
         sodipodi:ry="12.857142"
         sodipodi:rx="9.2857141"
         sodipodi:cy="580.2193"
         sodipodi:cx="240"
         id="path3625"
         style="opacity:0.98543689;fill:black;fill-opacity:1;stroke:black;stroke-width:3.56299996;stroke-linecap:square;stroke-linejoin:miter;stroke-miterlimit:4;stroke-dasharray:none;stroke-opacity:1"
         sodipodi:type="arc" />
      <path
         transform="matrix(0.521041,0,0,0.459641,188.5216,319.9553)"
         d="M 249.28571 580.2193 A 9.2857141 12.857142 0 1 1  230.71429,580.2193 A 9.2857141 12.857142 0 1 1  249.28571 580.2193 z"
         sodipodi:ry="12.857142"
         sodipodi:rx="9.2857141"
         sodipodi:cy="580.2193"
         sodipodi:cx="240"
         id="path3627"
         style="opacity:0.98543689;fill:black;fill-opacity:1;stroke:black;stroke-width:3.56299996;stroke-linecap:square;stroke-linejoin:miter;stroke-miterlimit:4;stroke-dasharray:none;stroke-opacity:1"
         sodipodi:type="arc" />
      <path
         transform="matrix(0.521041,0,0,0.459641,157.8073,312.8125)"
         d="M 249.28571 580.2193 A 9.2857141 12.857142 0 1 1  230.71429,580.2193 A 9.2857141 12.857142 0 1 1  249.28571 580.2193 z"
         sodipodi:ry="12.857142"
         sodipodi:rx="9.2857141"
         sodipodi:cy="580.2193"
         sodipodi:cx="240"
         id="path3629"
         style="opacity:0.98543689;fill:black;fill-opacity:1;stroke:black;stroke-width:3.56299996;stroke-linecap:square;stroke-linejoin:miter;stroke-miterlimit:4;stroke-dasharray:none;stroke-opacity:1"
         sodipodi:type="arc" />
    </g>
  </g>
</svg>
