<?xml version="1.0" encoding="UTF-8" standalone="no"?>
<!-- Created with Inkscape (http://www.inkscape.org/) -->
<svg
   xmlns:dc="http://purl.org/dc/elements/1.1/"
   xmlns:cc="http://web.resource.org/cc/"
   xmlns:rdf="http://www.w3.org/1999/02/22-rdf-syntax-ns#"
   xmlns:svg="http://www.w3.org/2000/svg"
   xmlns="http://www.w3.org/2000/svg"
   xmlns:sodipodi="http://sodipodi.sourceforge.net/DTD/sodipodi-0.dtd"
   xmlns:inkscape="http://www.inkscape.org/namespaces/inkscape"
   width="744.09448819"
   height="1052.3622047"
   id="svg2"
   sodipodi:version="0.32"
   inkscape:version="0.44.1"
   sodipodi:docbase="C:\Documents and Settings\pc\Desktop\meteo\meteo svg\fumetto"
   sodipodi:docname="haily.svg">
  <defs
     id="defs4" />
  <sodipodi:namedview
     id="base"
     pagecolor="#ffffff"
     bordercolor="#666666"
     borderopacity="1.0"
     inkscape:pageopacity="0.0"
     inkscape:pageshadow="2"
     inkscape:zoom="1.4"
     inkscape:cx="375"
     inkscape:cy="527.1175"
     inkscape:document-units="px"
     inkscape:current-layer="layer1"
     inkscape:window-width="1280"
     inkscape:window-height="744"
     inkscape:window-x="-4"
     inkscape:window-y="-4"
     showgrid="true" />
  <metadata
     id="metadata7">
    <rdf:RDF>
      <cc:Work
         rdf:about="">
        <dc:format>image/svg+xml</dc:format>
        <dc:type
           rdf:resource="http://purl.org/dc/dcmitype/StillImage" />
      </cc:Work>
    </rdf:RDF>
  </metadata>
  <g
     inkscape:label="Livello 1"
     inkscape:groupmode="layer"
     id="layer1">
    <g
       id="g8291">
      <path
         d="M 142.75595,539.65684 C 142.76553,538.29179 142.76379,536.92663 142.76621,535.56158 C 142.66074,533.40085 142.84018,531.28026 142.97537,529.14321 C 143.00034,526.93956 143.70277,525.0786 144.2166,523.08773 C 144.95798,520.71575 145.91837,518.51277 146.83029,516.27671 C 148.01671,514.80142 148.86564,512.94562 149.82391,511.24105 C 150.14634,509.15056 150.7895,507.22131 151.31919,505.24306 C 151.84539,503.20412 152.73057,501.52182 153.57811,499.76679 C 154.75181,497.68116 155.83279,495.48644 156.96308,493.34921 C 160.45691,487.40574 164.24198,481.83641 168.42993,476.89721 C 172.01296,473.04113 176.01155,470.1362 180.01603,467.31153 C 184.04875,464.9682 180.81206,466.93898 183.37519,464.66145 C 185.07026,462.70895 186.90476,461.03582 188.71072,459.31473 C 190.93234,456.82789 193.38775,455.68909 196.05914,454.88862 C 199.09718,454.43435 202.06672,455.52604 204.99352,456.52739 C 207.31111,458.02059 209.54328,457.89826 211.97262,457.78662 C 214.59929,457.00005 217.10426,457.23341 219.70528,457.88048 C 222.66536,459.99051 224.57362,458.53052 227.29567,456.5796 C 230.55279,453.03051 234.41373,450.89164 238.34255,449.27315 C 240.19201,449.7157 242.20163,449.79559 243.94121,449.94753 C 241.10339,453.77629 243.16633,446.92532 243.47927,445.48785 C 244.94937,440.38256 247.91661,437.13616 250.80115,433.75517 C 253.60604,430.5846 256.78854,428.44609 260.09772,426.65962 C 262.11747,425.52532 263.94289,423.76617 267.42727,421.13235 C 270.36205,419.11884 273.51565,418.45914 276.70422,417.9395 C 279.31317,417.33656 281.51596,415.16636 283.79447,413.37971 C 286.50597,411.51754 289.50344,410.90519 292.42753,410.12062 C 294.9678,409.00496 296.77453,410.50568 298.9438,412.21451 C 300.8134,413.97688 302.59334,415.91257 304.42737,417.73152 C 306.68328,418.80657 309.10121,417.84273 311.42093,417.44814 C 315.49574,416.36022 318.41499,418.0841 321.72921,421.14097 C 323.60271,423.89341 325.36561,426.77059 327.28841,429.45382 C 329.00336,431.52901 330.75804,433.53451 332.49665,435.56842 C 334.35582,437.57871 335.91468,440.00806 337.49581,442.42983 C 338.43868,444.35829 339.7669,444.71876 341.10329,445.62262 C 342.66839,446.01976 344.261,445.9641 345.84314,445.997 C 347.8021,445.61127 349.43367,446.71874 351.21984,447.61125 C 353.20602,448.78895 354.93691,450.55715 356.68849,452.30167 C 358.40115,454.20658 359.6537,456.75844 361.01121,459.14997 C 362.83316,462.38678 364.79008,465.43157 366.5239,468.75993 C 367.66809,471.46094 368.68604,474.26631 369.76737,477.0225 C 371.05056,480.14998 372.40709,483.20855 373.65506,486.3628 C 374.58407,489.06819 375.89135,491.36787 377.22957,493.66567 C 378.64299,496.04773 380.28244,498.11212 381.86628,500.25032 C 383.73499,503.35704 384.8821,507.19362 386.1912,510.80979 C 387.49152,513.80826 388.50638,517.02401 389.6189,520.16636 C 390.8274,524.0401 392.32802,527.70179 393.7623,531.4075 C 394.80467,534.01994 395.82203,536.65223 396.82247,539.29272 C 397.38187,541.61141 397.59781,544.08204 397.89036,546.49227 C 398.89228,548.67023 398.78139,551.10608 398.98542,553.3711 C 397.27682,556.06428 395.74992,555.96818 393.5974,556.30055 C 392.07728,556.32447 390.55694,556.2926 389.03682,556.27457 C 387.517,556.258 385.99713,556.25739 384.47731,556.25393 C 382.96303,556.25241 381.44876,556.25302 379.93453,556.25302 C 378.4206,556.2532 376.90667,556.2532 375.39278,556.25326 C 373.8788,556.25332 372.36483,556.25332 370.85086,556.25332 C 369.33684,556.25332 367.82286,556.25332 366.30889,556.25332 C 364.79487,556.25332 363.2809,556.25332 361.76692,556.25332 C 360.25295,556.25332 358.73893,556.25332 357.22496,556.25332 C 355.69386,556.11558 354.19586,556.57622 352.69299,556.92528 C 351.15804,557.05878 349.6617,557.42884 348.15366,557.83758 C 346.28796,558.32785 344.38699,558.30022 342.49904,558.38837 C 340.62037,558.43311 338.74136,558.42607 336.86252,558.42771 C 335.08805,558.22707 333.54804,559.2093 331.93034,560.05282 C 330.14247,561.21286 328.2465,561.75594 326.35262,562.36877 C 324.56992,562.7338 322.76849,562.72354 320.97291,562.77502 C 319.42799,562.78182 317.88306,562.77107 316.33819,562.76464 C 314.82659,562.75881 313.31503,562.75924 311.80347,562.75772 C 309.95638,562.75414 308.10925,562.75389 306.26216,562.75402 C 304.58116,562.75572 302.90021,562.75638 301.21925,562.75717 C 299.6692,562.75851 298.11915,562.75705 296.5691,562.75608 C 294.56741,562.75274 292.56572,562.75341 290.56403,562.75304 C 288.89452,563.04352 287.29564,562.52206 285.66119,562.24323 C 284.03559,561.78939 282.37571,561.79734 280.7282,561.70288 C 278.81155,561.65195 276.89447,561.66433 274.97761,561.66433 C 273.37321,561.66871 271.76886,561.67047 270.1645,561.67247 C 268.55044,561.43377 266.99992,561.84214 265.42711,562.14021 C 263.42461,563.04777 261.42627,563.98053 259.42848,564.90879 C 257.12145,566.21835 254.66544,566.57901 252.22063,566.91678 C 250.17325,567.11432 248.12102,567.09896 246.07046,567.11535 C 244.15126,567.10455 242.23206,567.09969 240.31287,567.09477 C 238.26862,567.09016 236.22436,567.08998 234.18011,567.08797 C 232.29089,567.09016 230.4017,567.09064 228.51252,567.09113 C 226.48366,567.09131 224.45484,567.08907 222.42602,567.08737 C 220.27685,567.16865 218.12763,567.04687 215.98571,566.94847 C 214.40955,566.47514 212.93512,565.36955 211.42666,564.52136 C 209.13679,563.82318 206.78249,563.88898 204.45404,563.82549 C 201.77633,563.79331 199.0985,563.81274 196.4207,563.82379 C 194.35653,563.83684 192.29231,563.83453 190.22809,563.83429 C 187.64805,563.83392 185.06801,563.8321 182.48801,563.8321 C 181.04208,564.11299 179.57787,564.18912 178.1366,564.51535 C 176.72106,566.96079 174.5214,567.65546 172.6674,568.78721 C 170.93841,568.81793 169.25644,568.27169 167.56921,567.80971 C 165.73929,567.3294 163.88161,567.25522 162.02977,567.12403 C 160.2642,567.06648 158.49804,567.08184 156.73213,567.08148 C 154.92769,567.08633 153.12325,567.08822 151.31876,567.09016 C 149.57973,567.0907 147.8407,567.09192 146.10162,567.09295 C 144.6311,567.36686 143.23739,566.84958 141.80303,566.57865 C 140.50088,566.35579 140.00041,564.80511 139.11947,563.76539 C 138.3039,562.65925 137.88274,561.14566 137.30939,559.80684 C 136.76262,558.23187 136.52866,556.52596 136.18088,554.86442 C 135.79694,552.67419 136.26121,550.71179 136.60497,548.61202 C 137.09357,546.58703 137.84708,544.737 138.54447,542.85334 C 141.79663,539.54593 140.3367,540.68539 141.58937,539.3995 C 142.09019,538.46681 142.60338,537.56787 143.10555,536.66073 L 145.15566,535.32124 C 144.65607,536.26401 144.22168,537.24825 143.65571,538.15162 C 140.59783,541.20844 140.99407,540.73359 140.59677,541.54833 C 139.8904,543.40795 139.14058,545.24396 138.63031,547.24199 C 138.27431,549.29393 137.79253,551.20012 138.16244,553.35228 C 138.50114,554.99014 138.72535,556.67092 139.2664,558.22131 C 139.83199,559.53918 140.24857,561.02734 141.05236,562.11696 C 141.89909,563.08778 142.38663,564.59749 143.64562,564.7407 C 145.06773,564.9871 146.45856,565.46729 147.91302,565.20832 C 149.65099,565.20905 151.38901,565.21044 153.12698,565.20862 C 154.93104,565.2065 156.7351,565.20474 158.5392,565.20097 C 160.3077,565.20152 162.07666,565.18282 163.84477,565.24899 C 165.70127,565.3942 167.56349,565.48399 169.39701,565.97717 C 171.075,566.41905 172.74845,566.97488 174.46769,566.87447 C 177.07329,564.87807 173.25995,569.3774 176.04622,565.66501 C 178.74984,563.45354 181.09278,561.73591 184.28254,561.96501 C 186.8644,561.96501 189.4463,561.96368 192.02817,561.96125 C 194.09234,561.95688 196.15647,561.95263 198.22065,561.9502 C 200.89628,561.94492 203.572,561.93533 206.24759,561.96471 C 208.5952,562.0307 210.97176,561.95779 213.27455,562.71322 C 214.76322,563.57428 216.22933,564.68503 217.80529,565.09328 C 219.94238,565.17875 222.08459,565.28293 224.22686,565.21372 C 226.25813,565.21196 228.28941,565.20977 230.32065,565.20984 C 232.20784,565.2102 234.09508,565.2105 235.98227,565.21293 C 238.02826,565.21208 240.07429,565.21117 242.12028,565.21487 C 244.04024,565.22125 245.9602,565.22817 247.88016,565.23248 C 249.92322,565.2167 251.96823,565.23551 254.00765,565.02608 C 256.44394,564.6639 258.88612,564.27374 261.18244,562.9518 C 263.18765,562.02766 265.18781,561.07275 267.20336,560.19718 C 268.7886,559.93705 270.3598,559.57379 271.97721,559.7862 C 273.58021,559.78498 275.18321,559.78353 276.7862,559.78237 C 278.70362,559.78577 280.62129,559.77551 282.53845,559.82942 C 284.19656,559.93129 285.86717,559.92843 287.50149,560.4037 C 289.12238,560.66073 290.71588,561.14675 292.36843,560.8757 C 294.37207,560.87533 296.37571,560.876 298.37935,560.87266 C 299.93008,560.87169 301.48081,560.87023 303.03158,560.87157 C 304.71059,560.8723 306.38963,560.87296 308.06864,560.87448 C 309.91797,560.8746 311.76727,560.87394 313.6166,560.87139 C 315.12824,560.87303 316.63993,560.87266 318.15157,560.87897 C 319.69531,560.88571 321.23908,560.89743 322.78282,560.88826 C 324.57017,560.83083 326.36423,560.83958 328.13658,560.44723 C 330.01945,559.80581 331.9066,559.23079 333.68683,558.07579 C 335.32629,557.26955 336.88592,556.31257 338.67349,556.54386 C 340.54847,556.54447 342.42354,556.55503 344.29835,556.50805 C 346.18329,556.40618 348.08151,556.42427 349.94152,555.90378 C 351.45206,555.51695 352.95298,555.15842 354.48608,555.00089 C 355.9959,554.65577 357.49987,554.22032 359.03805,554.36693 C 360.55202,554.36693 362.066,554.36693 363.57997,554.36693 C 365.09399,554.36693 366.60796,554.36693 368.12194,554.36693 C 369.63595,554.36693 371.14993,554.36693 372.6639,554.36693 C 374.17788,554.36693 375.69185,554.36693 377.20583,554.36687 C 378.71976,554.36681 380.23365,554.36681 381.74758,554.36663 C 383.26185,554.36669 384.77617,554.36602 386.29048,554.36784 C 387.81056,554.37179 389.33064,554.37282 390.85068,554.39042 C 392.36927,554.40809 393.88821,554.44403 395.40672,554.40378 C 397.88752,553.90362 398.05488,554.41853 396.94358,554.7268 C 396.78911,552.55077 396.95312,550.1559 395.92767,548.01485 C 395.63003,545.6252 395.40023,543.18146 394.87411,540.86927 C 393.88316,538.2337 392.8778,535.60347 391.84501,532.99534 C 390.41247,529.28143 388.9149,525.61227 387.68758,521.74545 C 386.5737,518.60541 385.56287,515.38845 384.27264,512.383 C 382.97452,508.79512 381.84055,504.98251 379.96298,501.92533 C 378.37889,499.77632 376.74316,497.69616 375.3269,495.30833 C 373.97355,492.99571 372.64695,490.68486 371.72281,487.94572 C 370.48391,484.78984 369.13111,481.7349 367.84126,478.61872 C 366.76036,475.86957 365.73872,473.07531 364.6078,470.37047 C 362.88339,467.04545 360.93698,464.00121 359.11007,460.78388 C 357.75867,458.41882 356.50625,455.89944 354.80295,454.01973 C 353.06426,452.28971 351.34778,450.53013 349.37,449.38041 C 347.5929,448.53726 345.96646,447.49572 344.03039,447.88139 C 342.43714,447.83871 340.83177,447.89165 339.25993,447.44697 C 337.91124,446.48241 336.53517,446.05054 335.58572,444.08845 C 334.01668,441.67512 332.47091,439.25372 330.61755,437.26037 C 328.86864,435.22998 327.1035,433.22824 325.39808,431.12239 C 323.48843,428.44002 321.72481,425.58038 319.86576,422.82789 C 316.57257,419.83366 313.6726,418.2321 309.64964,419.33417 C 307.28062,419.7474 304.84056,420.7221 302.55226,419.47743 C 300.73001,417.63524 298.95775,415.67994 297.07785,413.94349 C 294.92643,412.28742 293.16035,410.91982 290.66518,412.04211 C 287.74393,412.81714 284.75786,413.44351 282.06858,415.36591 C 279.78109,417.16816 277.56354,419.31626 274.92347,419.82856 C 271.75215,420.36927 268.61848,421.05999 265.70902,423.09748 C 262.68751,425.3999 261.88431,426.21045 258.33745,428.62323 C 255.0195,430.46045 255.83609,429.46863 252.83862,432.59526 C 249.96112,435.92088 246.98501,439.10153 245.49266,444.14557 C 244.74746,447.85553 244.85471,450.04612 242.17305,451.94539 C 240.3904,451.68319 238.43335,451.41639 236.58711,451.18473 C 232.54303,452.90959 229.0581,454.85942 225.58669,458.55972 C 222.81521,460.44903 220.85714,461.78809 217.88053,459.69001 C 215.29252,459.09533 212.79184,458.92293 210.18581,459.68929 C 207.74953,459.74119 205.4934,459.80657 203.1742,458.3172 C 200.25545,457.34067 197.29838,456.27455 194.27399,456.79844 C 190.28468,458.11286 193.45918,456.04344 190.79046,458.1681 C 188.98262,459.87317 187.13859,461.52044 185.44784,463.47512 C 183.14962,465.63397 180.94966,468.08232 178.28107,469.2902 C 175.10543,471.5364 173.29204,472.63871 170.43497,475.74105 C 166.24469,480.62999 162.46916,486.16745 158.99818,492.10066 C 157.87408,494.23552 156.79216,496.42017 155.64089,498.52067 C 154.77317,500.24091 153.86934,501.87458 153.36357,503.92167 C 152.82273,505.88716 152.134,507.79668 151.86706,509.90994 C 150.92999,511.66836 150.15978,513.59379 148.87518,514.99422 C 147.95558,517.21335 146.99134,519.39988 146.2558,521.76536 C 145.72286,523.72631 145.0114,525.54586 144.98791,527.7333 C 144.8417,529.85456 144.65005,531.95385 144.76599,534.10238 C 144.76841,535.46251 144.76667,536.82264 144.77625,538.1827 L 142.75595,539.65684 z "
         id="path1872"
         style="opacity:0.97000002;fill:black;fill-opacity:1;stroke:black;stroke-width:2.02916598;stroke-linejoin:round;stroke-miterlimit:4;stroke-dasharray:none;stroke-opacity:1" />
      <g
         transform="matrix(0.330785,0,0,0.351771,105.2965,466.0167)"
         inkscape:label="Livello 1"
         id="g8276">
        <path
           style="fill:black;fill-opacity:1;fill-rule:evenodd;stroke:black;stroke-width:6.7067194px;stroke-linecap:butt;stroke-linejoin:miter;stroke-opacity:1"
           d="M 142.85336,410.22311 L 245.00378,410.22311 L 197.33359,324.3584 L 142.85336,410.22311 z "
           id="path8506" />
      </g>
      <g
         transform="matrix(0.330785,0,0,0.351771,163.8901,445.3028)"
         inkscape:label="Livello 1"
         id="g8279">
        <path
           style="fill:black;fill-opacity:1;fill-rule:evenodd;stroke:black;stroke-width:6.7067194px;stroke-linecap:butt;stroke-linejoin:miter;stroke-opacity:1"
           d="M 142.85336,410.22311 L 245.00378,410.22311 L 197.33359,324.3584 L 142.85336,410.22311 z "
           id="path8281" />
      </g>
      <g
         transform="matrix(0.330785,0,0,0.351771,217.28,460.3028)"
         inkscape:label="Livello 1"
         id="g8283">
        <path
           style="fill:black;fill-opacity:1;fill-rule:evenodd;stroke:black;stroke-width:6.7067194px;stroke-linecap:butt;stroke-linejoin:miter;stroke-opacity:1"
           d="M 142.85336,410.22311 L 245.00378,410.22311 L 197.33359,324.3584 L 142.85336,410.22311 z "
           id="path8285" />
      </g>
      <g
         transform="matrix(0.330785,0,0,0.351771,155.8514,490.3028)"
         inkscape:label="Livello 1"
         id="g8287">
        <path
           style="fill:black;fill-opacity:1;fill-rule:evenodd;stroke:black;stroke-width:6.7067194px;stroke-linecap:butt;stroke-linejoin:miter;stroke-opacity:1"
           d="M 142.85336,410.22311 L 245.00378,410.22311 L 197.33359,324.3584 L 142.85336,410.22311 z "
           id="path8289" />
      </g>
    </g>
  </g>
</svg>
