<?xml version="1.0" encoding="UTF-8" standalone="no"?>
<!-- Created with Inkscape (http://www.inkscape.org/) -->
<svg
   xmlns:dc="http://purl.org/dc/elements/1.1/"
   xmlns:cc="http://web.resource.org/cc/"
   xmlns:rdf="http://www.w3.org/1999/02/22-rdf-syntax-ns#"
   xmlns:svg="http://www.w3.org/2000/svg"
   xmlns="http://www.w3.org/2000/svg"
   xmlns:sodipodi="http://sodipodi.sourceforge.net/DTD/sodipodi-0.dtd"
   xmlns:inkscape="http://www.inkscape.org/namespaces/inkscape"
   width="744.09448819"
   height="1052.3622047"
   id="svg2"
   sodipodi:version="0.32"
   inkscape:version="0.44.1"
   sodipodi:docbase="F:\QGIS_N_ARROWS\METEOROLOGY"
   sodipodi:docname="rainy.svg">
  <defs
     id="defs4" />
  <sodipodi:namedview
     id="base"
     pagecolor="#ffffff"
     bordercolor="#666666"
     borderopacity="1.0"
     inkscape:pageopacity="0.0"
     inkscape:pageshadow="2"
     inkscape:zoom="0.7"
     inkscape:cx="298.57143"
     inkscape:cy="520"
     inkscape:document-units="px"
     inkscape:current-layer="layer1"
     showgrid="true"
     inkscape:window-width="1280"
     inkscape:window-height="744"
     inkscape:window-x="-4"
     inkscape:window-y="-4" />
  <metadata
     id="metadata7">
    <rdf:RDF>
      <cc:Work
         rdf:about="">
        <dc:format>image/svg+xml</dc:format>
        <dc:type
           rdf:resource="http://purl.org/dc/dcmitype/StillImage" />
      </cc:Work>
    </rdf:RDF>
  </metadata>
  <g
     inkscape:label="Livello 1"
     inkscape:groupmode="layer"
     id="layer1">
    <g
       id="g1902">
      <path
         d="M 203.81653,437.74587 C 203.82611,436.38082 203.82437,435.01566 203.82679,433.65061 C 203.72132,431.48988 203.90076,429.36929 204.03595,427.23224 C 204.06092,425.02859 204.76335,423.16763 205.27718,421.17676 C 206.01856,418.80478 206.97895,416.6018 207.89087,414.36574 C 209.07729,412.89045 209.92622,411.03465 210.88449,409.33008 C 211.20692,407.23959 211.85008,405.31034 212.37977,403.33209 C 212.90597,401.29315 213.79115,399.61085 214.63869,397.85582 C 215.81239,395.77019 216.89337,393.57547 218.02366,391.43824 C 221.51749,385.49477 225.30256,379.92544 229.49051,374.98624 C 233.07354,371.13016 237.07213,368.22523 241.07661,365.40056 C 245.10933,363.05723 241.87264,365.02801 244.43577,362.75048 C 246.13084,360.79798 247.96534,359.12485 249.7713,357.40376 C 251.99292,354.91692 254.44833,353.77812 257.11972,352.97765 C 260.15776,352.52338 263.1273,353.61507 266.0541,354.61642 C 268.37169,356.10962 270.60386,355.98729 273.0332,355.87565 C 275.65987,355.08908 278.16484,355.32244 280.76586,355.96951 C 283.72594,358.07954 285.6342,356.61955 288.35625,354.66863 C 291.61337,351.11954 295.47431,348.98067 299.40313,347.36218 C 301.25259,347.80473 303.26221,347.88462 305.00179,348.03656 C 302.16397,351.86532 304.22691,345.01435 304.53985,343.57688 C 306.00995,338.47159 308.97719,335.22519 311.86173,331.8442 C 314.66662,328.67363 317.84912,326.53512 321.1583,324.74865 C 323.17805,323.61435 325.00347,321.8552 328.48785,319.22138 C 331.42263,317.20787 334.57623,316.54817 337.7648,316.02853 C 340.37375,315.42559 342.57654,313.25539 344.85505,311.46874 C 347.56655,309.60657 350.56402,308.99422 353.48811,308.20965 C 356.02838,307.09399 357.83511,308.59471 360.00438,310.30354 C 361.87398,312.06591 363.65392,314.0016 365.48795,315.82055 C 367.74386,316.8956 370.16179,315.93176 372.48151,315.53717 C 376.55632,314.44925 379.47557,316.17313 382.78979,319.23 C 384.66329,321.98244 386.42619,324.85962 388.34899,327.54285 C 390.06394,329.61804 391.81862,331.62354 393.55723,333.65745 C 395.4164,335.66774 396.97526,338.09709 398.55639,340.51886 C 399.49926,342.44732 400.82748,342.80779 402.16387,343.71165 C 403.72897,344.10879 405.32158,344.05313 406.90372,344.08603 C 408.86268,343.7003 410.49425,344.80777 412.28042,345.70028 C 414.2666,346.87798 415.99749,348.64618 417.74907,350.3907 C 419.46173,352.29561 420.71428,354.84747 422.07179,357.239 C 423.89374,360.47581 425.85066,363.5206 427.58448,366.84896 C 428.72867,369.54997 429.74662,372.35534 430.82795,375.11153 C 432.11114,378.23901 433.46767,381.29758 434.71564,384.45183 C 435.64465,387.15722 436.95193,389.4569 438.29015,391.7547 C 439.70357,394.13676 441.34302,396.20115 442.92686,398.33935 C 444.79557,401.44607 445.94268,405.28265 447.25178,408.89882 C 448.5521,411.89729 449.56696,415.11304 450.67948,418.25539 C 451.88798,422.12913 453.3886,425.79082 454.82288,429.49653 C 455.86525,432.10897 456.88261,434.74126 457.88305,437.38175 C 458.44245,439.70044 458.65839,442.17107 458.95094,444.5813 C 459.95286,446.75926 459.84197,449.19511 460.046,451.46013 C 458.3374,454.15331 456.8105,454.05721 454.65798,454.38958 C 453.13786,454.4135 451.61752,454.38163 450.0974,454.3636 C 448.57758,454.34703 447.05771,454.34642 445.53789,454.34296 C 444.02361,454.34144 442.50934,454.34205 440.99511,454.34205 C 439.48118,454.34223 437.96725,454.34223 436.45336,454.34229 C 434.93938,454.34235 433.42541,454.34235 431.91144,454.34235 C 430.39742,454.34235 428.88344,454.34235 427.36947,454.34235 C 425.85545,454.34235 424.34148,454.34235 422.8275,454.34235 C 421.31353,454.34235 419.79951,454.34235 418.28554,454.34235 C 416.75444,454.20461 415.25644,454.66525 413.75357,455.01431 C 412.21862,455.14781 410.72228,455.51787 409.21424,455.92661 C 407.34854,456.41688 405.44757,456.38925 403.55962,456.4774 C 401.68095,456.52214 399.80194,456.5151 397.9231,456.51674 C 396.14863,456.3161 394.60862,457.29833 392.99092,458.14185 C 391.20305,459.30189 389.30708,459.84497 387.4132,460.4578 C 385.6305,460.82283 383.82907,460.81257 382.03349,460.86405 C 380.48857,460.87085 378.94364,460.8601 377.39877,460.85367 C 375.88717,460.84784 374.37561,460.84827 372.86405,460.84675 C 371.01696,460.84317 369.16983,460.84292 367.32274,460.84305 C 365.64174,460.84475 363.96079,460.84541 362.27983,460.8462 C 360.72978,460.84754 359.17973,460.84608 357.62968,460.84511 C 355.62799,460.84177 353.6263,460.84244 351.62461,460.84207 C 349.9551,461.13255 348.35622,460.61109 346.72177,460.33226 C 345.09617,459.87842 343.43629,459.88637 341.78878,459.79191 C 339.87213,459.74098 337.95505,459.75336 336.03819,459.75336 C 334.43379,459.75774 332.82944,459.7595 331.22508,459.7615 C 329.61102,459.5228 328.0605,459.93117 326.48769,460.22924 C 324.48519,461.1368 322.48685,462.06956 320.48906,462.99782 C 318.18203,464.30738 315.72602,464.66804 313.28121,465.00581 C 311.23383,465.20335 309.1816,465.18799 307.13104,465.20438 C 305.21184,465.19358 303.29264,465.18872 301.37345,465.1838 C 299.3292,465.17919 297.28494,465.17901 295.24069,465.177 C 293.35147,465.17919 291.46228,465.17967 289.5731,465.18016 C 287.54424,465.18034 285.51542,465.1781 283.4866,465.1764 C 281.33743,465.25768 279.18821,465.1359 277.04629,465.0375 C 275.47013,464.56417 273.9957,463.45858 272.48724,462.61039 C 270.19737,461.91221 267.84307,461.97801 265.51462,461.91452 C 262.83691,461.88234 260.15908,461.90177 257.48128,461.91282 C 255.41711,461.92587 253.35289,461.92356 251.28867,461.92332 C 248.70863,461.92295 246.12859,461.92113 243.54859,461.92113 C 242.10266,462.20202 240.63845,462.27815 239.19718,462.60438 C 237.78164,465.04982 235.58198,465.74449 233.72798,466.87624 C 231.99899,466.90696 230.31702,466.36072 228.62979,465.89874 C 226.79987,465.41843 224.94219,465.34425 223.09035,465.21306 C 221.32478,465.15551 219.55862,465.17087 217.79271,465.17051 C 215.98827,465.17536 214.18383,465.17725 212.37934,465.17919 C 210.64031,465.17973 208.90128,465.18095 207.1622,465.18198 C 205.69168,465.45589 204.29797,464.93861 202.86361,464.66768 C 201.56146,464.44482 201.06099,462.89414 200.18005,461.85442 C 199.36448,460.74828 198.94332,459.23469 198.36997,457.89587 C 197.8232,456.3209 197.58924,454.61499 197.24146,452.95345 C 196.85752,450.76322 197.32179,448.80082 197.66555,446.70105 C 198.15415,444.67606 198.90766,442.82603 199.60505,440.94237 C 202.85721,437.63496 201.39728,438.77442 202.64995,437.48853 C 203.15077,436.55584 203.66396,435.6569 204.16613,434.74976 L 206.21624,433.41027 C 205.71665,434.35304 205.28226,435.33728 204.71629,436.24065 C 201.65841,439.29747 202.05465,438.82262 201.65735,439.63736 C 200.95098,441.49698 200.20116,443.33299 199.69089,445.33102 C 199.33489,447.38296 198.85311,449.28915 199.22302,451.44131 C 199.56172,453.07917 199.78593,454.75995 200.32698,456.31034 C 200.89257,457.62821 201.30915,459.11637 202.11294,460.20599 C 202.95967,461.17681 203.44721,462.68652 204.7062,462.82973 C 206.12831,463.07613 207.51914,463.55632 208.9736,463.29735 C 210.71157,463.29808 212.44959,463.29947 214.18756,463.29765 C 215.99162,463.29553 217.79568,463.29377 219.59978,463.29 C 221.36828,463.29055 223.13724,463.27185 224.90535,463.33802 C 226.76185,463.48323 228.62407,463.57302 230.45759,464.0662 C 232.13558,464.50808 233.80903,465.06391 235.52827,464.9635 C 238.13387,462.9671 234.32053,467.46643 237.1068,463.75404 C 239.81042,461.54257 242.15336,459.82494 245.34312,460.05404 C 247.92498,460.05404 250.50688,460.05271 253.08875,460.05028 C 255.15292,460.04591 257.21705,460.04166 259.28123,460.03923 C 261.95686,460.03395 264.63258,460.02436 267.30817,460.05374 C 269.65578,460.11973 272.03234,460.04682 274.33513,460.80225 C 275.8238,461.66331 277.28991,462.77406 278.86587,463.18231 C 281.00296,463.26778 283.14517,463.37196 285.28744,463.30275 C 287.31871,463.30099 289.34999,463.2988 291.38123,463.29887 C 293.26842,463.29923 295.15566,463.29953 297.04285,463.30196 C 299.08884,463.30111 301.13487,463.3002 303.18086,463.3039 C 305.10082,463.31028 307.02078,463.3172 308.94074,463.32151 C 310.9838,463.30573 313.02881,463.32454 315.06823,463.11511 C 317.50452,462.75293 319.9467,462.36277 322.24302,461.04083 C 324.24823,460.11669 326.24839,459.16178 328.26394,458.28621 C 329.84918,458.02608 331.42038,457.66282 333.03779,457.87523 C 334.64079,457.87401 336.24379,457.87256 337.84678,457.8714 C 339.7642,457.8748 341.68187,457.86454 343.59903,457.91845 C 345.25714,458.02032 346.92775,458.01746 348.56207,458.49273 C 350.18296,458.74976 351.77646,459.23578 353.42901,458.96473 C 355.43265,458.96436 357.43629,458.96503 359.43993,458.96169 C 360.99066,458.96072 362.54139,458.95926 364.09216,458.9606 C 365.77117,458.96133 367.45021,458.96199 369.12922,458.96351 C 370.97855,458.96363 372.82785,458.96297 374.67718,458.96042 C 376.18882,458.96206 377.70051,458.96169 379.21215,458.968 C 380.75589,458.97474 382.29966,458.98646 383.8434,458.97729 C 385.63075,458.91986 387.42481,458.92861 389.19716,458.53626 C 391.08003,457.89484 392.96718,457.31982 394.74741,456.16482 C 396.38687,455.35858 397.9465,454.4016 399.73407,454.63289 C 401.60905,454.6335 403.48412,454.64406 405.35893,454.59708 C 407.24387,454.49521 409.14209,454.5133 411.0021,453.99281 C 412.51264,453.60598 414.01356,453.24745 415.54666,453.08992 C 417.05648,452.7448 418.56045,452.30935 420.09863,452.45596 C 421.6126,452.45596 423.12658,452.45596 424.64055,452.45596 C 426.15457,452.45596 427.66854,452.45596 429.18252,452.45596 C 430.69653,452.45596 432.21051,452.45596 433.72448,452.45596 C 435.23846,452.45596 436.75243,452.45596 438.26641,452.4559 C 439.78034,452.45584 441.29423,452.45584 442.80816,452.45566 C 444.32243,452.45572 445.83675,452.45505 447.35106,452.45687 C 448.87114,452.46082 450.39122,452.46185 451.91126,452.47945 C 453.42985,452.49712 454.94879,452.53306 456.4673,452.49281 C 458.9481,451.99265 459.11546,452.50756 458.00416,452.81583 C 457.84969,450.6398 458.0137,448.24493 456.98825,446.10388 C 456.69061,443.71423 456.46081,441.27049 455.93469,438.9583 C 454.94374,436.32273 453.93838,433.6925 452.90559,431.08437 C 451.47305,427.37046 449.97548,423.7013 448.74816,419.83448 C 447.63428,416.69444 446.62345,413.47748 445.33322,410.47203 C 444.0351,406.88415 442.90113,403.07154 441.02356,400.01436 C 439.43947,397.86535 437.80374,395.78519 436.38748,393.39736 C 435.03413,391.08474 433.70753,388.77389 432.78339,386.03475 C 431.54449,382.87887 430.19169,379.82393 428.90184,376.70775 C 427.82094,373.9586 426.7993,371.16434 425.66838,368.4595 C 423.94397,365.13448 421.99756,362.09024 420.17065,358.87291 C 418.81925,356.50785 417.56683,353.98847 415.86353,352.10876 C 414.12484,350.37874 412.40836,348.61916 410.43058,347.46944 C 408.65348,346.62629 407.02704,345.58475 405.09097,345.97042 C 403.49772,345.92774 401.89235,345.98068 400.32051,345.536 C 398.97182,344.57144 397.59575,344.13957 396.6463,342.17748 C 395.07726,339.76415 393.53149,337.34275 391.67813,335.3494 C 389.92922,333.31901 388.16408,331.31727 386.45866,329.21142 C 384.54901,326.52905 382.78539,323.66941 380.92634,320.91692 C 377.63315,317.92269 374.73318,316.32113 370.71022,317.4232 C 368.3412,317.83643 365.90114,318.81113 363.61284,317.56646 C 361.79059,315.72427 360.01833,313.76897 358.13843,312.03252 C 355.98701,310.37645 354.22093,309.00885 351.72576,310.13114 C 348.80451,310.90617 345.81844,311.53254 343.12916,313.45494 C 340.84167,315.25719 338.62412,317.40529 335.98405,317.91759 C 332.81273,318.4583 329.67906,319.14902 326.7696,321.18651 C 323.74809,323.48893 322.94489,324.29948 319.39803,326.71226 C 316.08008,328.54948 316.89667,327.55766 313.8992,330.68429 C 311.0217,334.00991 308.04559,337.19056 306.55324,342.2346 C 305.80804,345.94456 305.91529,348.13515 303.23363,350.03442 C 301.45098,349.77222 299.49393,349.50542 297.64769,349.27376 C 293.60361,350.99862 290.11868,352.94845 286.64727,356.64875 C 283.87579,358.53806 281.91772,359.87712 278.94111,357.77904 C 276.3531,357.18436 273.85242,357.01196 271.24639,357.77832 C 268.81011,357.83022 266.55398,357.8956 264.23478,356.40623 C 261.31603,355.4297 258.35896,354.36358 255.33457,354.88747 C 251.34526,356.20189 254.51976,354.13247 251.85104,356.25713 C 250.0432,357.9622 248.19917,359.60947 246.50842,361.56415 C 244.2102,363.723 242.01024,366.17135 239.34165,367.37923 C 236.16601,369.62543 234.35262,370.72774 231.49555,373.83008 C 227.30527,378.71902 223.52974,384.25648 220.05876,390.18969 C 218.93466,392.32455 217.85274,394.5092 216.70147,396.6097 C 215.83375,398.32994 214.92992,399.96361 214.42415,402.0107 C 213.88331,403.97619 213.19458,405.88571 212.92764,407.99897 C 211.99057,409.75739 211.22036,411.68282 209.93576,413.08325 C 209.01616,415.30238 208.05192,417.48891 207.31638,419.85439 C 206.78344,421.81534 206.07198,423.63489 206.04849,425.82233 C 205.90228,427.94359 205.71063,430.04288 205.82657,432.19141 C 205.82899,433.55154 205.82725,434.91167 205.83683,436.27173 L 203.81653,437.74587 z "
         id="path1872"
         style="opacity:0.97000002;fill:black;fill-opacity:1;stroke:black;stroke-width:2.02916598;stroke-linejoin:round;stroke-miterlimit:4;stroke-dasharray:none;stroke-opacity:1" />
      <g
         transform="matrix(0.768111,0,0,0.719545,89.73671,120.6833)"
         id="g1962">
        <path
           sodipodi:type="arc"
           style="opacity:0.97000002;fill:black;fill-opacity:1;stroke:black;stroke-width:0.53500003;stroke-linejoin:round;stroke-miterlimit:4;stroke-dasharray:none;stroke-opacity:1"
           id="path1956"
           sodipodi:cx="157.5"
           sodipodi:cy="528.79077"
           sodipodi:rx="18.214285"
           sodipodi:ry="17.857143"
           d="M 175.71428 528.79077 A 18.214285 17.857143 0 1 1  139.28572,528.79077 A 18.214285 17.857143 0 1 1  175.71428 528.79077 z" />
        <path
           style="fill:black;fill-opacity:1;fill-rule:evenodd;stroke:black;stroke-width:1px;stroke-linecap:butt;stroke-linejoin:miter;stroke-opacity:1"
           d="M 139.64286,527.00505 L 175.35715,526.29077 C 175.35715,526.29077 165.71429,486.1122 156.78571,486.29077 C 147.85714,486.46934 139.64286,527.00505 139.64286,527.00505 z "
           id="path1960"
           sodipodi:nodetypes="ccsc" />
      </g>
      <g
         transform="matrix(0.768111,0,0,0.719545,309.8331,113.3259)"
         id="g1966">
        <path
           sodipodi:type="arc"
           style="opacity:0.97000002;fill:black;fill-opacity:1;stroke:black;stroke-width:0.53500003;stroke-linejoin:round;stroke-miterlimit:4;stroke-dasharray:none;stroke-opacity:1"
           id="path1968"
           sodipodi:cx="157.5"
           sodipodi:cy="528.79077"
           sodipodi:rx="18.214285"
           sodipodi:ry="17.857143"
           d="M 175.71428 528.79077 A 18.214285 17.857143 0 1 1  139.28572,528.79077 A 18.214285 17.857143 0 1 1  175.71428 528.79077 z" />
        <path
           style="fill:black;fill-opacity:1;fill-rule:evenodd;stroke:black;stroke-width:1px;stroke-linecap:butt;stroke-linejoin:miter;stroke-opacity:1"
           d="M 139.64286,527.00505 L 175.35715,526.29077 C 175.35715,526.29077 165.71429,486.1122 156.78571,486.29077 C 147.85714,486.46934 139.64286,527.00505 139.64286,527.00505 z "
           id="path1970"
           sodipodi:nodetypes="ccsc" />
      </g>
      <g
         transform="matrix(0.768111,0,0,0.719545,206.5226,117.8262)"
         id="g1972">
        <path
           sodipodi:type="arc"
           style="opacity:0.97000002;fill:black;fill-opacity:1;stroke:black;stroke-width:0.53500003;stroke-linejoin:round;stroke-miterlimit:4;stroke-dasharray:none;stroke-opacity:1"
           id="path1974"
           sodipodi:cx="157.5"
           sodipodi:cy="528.79077"
           sodipodi:rx="18.214285"
           sodipodi:ry="17.857143"
           d="M 175.71428 528.79077 A 18.214285 17.857143 0 1 1  139.28572,528.79077 A 18.214285 17.857143 0 1 1  175.71428 528.79077 z" />
        <path
           style="fill:black;fill-opacity:1;fill-rule:evenodd;stroke:black;stroke-width:1px;stroke-linecap:butt;stroke-linejoin:miter;stroke-opacity:1"
           d="M 139.64286,527.00505 L 175.35715,526.29077 C 175.35715,526.29077 165.71429,486.1122 156.78571,486.29077 C 147.85714,486.46934 139.64286,527.00505 139.64286,527.00505 z "
           id="path1976"
           sodipodi:nodetypes="ccsc" />
      </g>
      <g
         transform="matrix(0.768111,0,0,0.719545,146.1654,123.683)"
         id="g1890">
        <path
           sodipodi:type="arc"
           style="opacity:0.97000002;fill:black;fill-opacity:1;stroke:black;stroke-width:0.53500003;stroke-linejoin:round;stroke-miterlimit:4;stroke-dasharray:none;stroke-opacity:1"
           id="path1892"
           sodipodi:cx="157.5"
           sodipodi:cy="528.79077"
           sodipodi:rx="18.214285"
           sodipodi:ry="17.857143"
           d="M 175.71428 528.79077 A 18.214285 17.857143 0 1 1  139.28572,528.79077 A 18.214285 17.857143 0 1 1  175.71428 528.79077 z" />
        <path
           style="fill:black;fill-opacity:1;fill-rule:evenodd;stroke:black;stroke-width:1px;stroke-linecap:butt;stroke-linejoin:miter;stroke-opacity:1"
           d="M 139.64286,527.00505 L 175.35715,526.29077 C 175.35715,526.29077 165.71429,486.1122 156.78571,486.29077 C 147.85714,486.46934 139.64286,527.00505 139.64286,527.00505 z "
           id="path1894"
           sodipodi:nodetypes="ccsc" />
      </g>
      <g
         transform="matrix(0.768111,0,0,0.719545,251.8797,119.3973)"
         id="g1896">
        <path
           sodipodi:type="arc"
           style="opacity:0.97000002;fill:black;fill-opacity:1;stroke:black;stroke-width:0.53500003;stroke-linejoin:round;stroke-miterlimit:4;stroke-dasharray:none;stroke-opacity:1"
           id="path1898"
           sodipodi:cx="157.5"
           sodipodi:cy="528.79077"
           sodipodi:rx="18.214285"
           sodipodi:ry="17.857143"
           d="M 175.71428 528.79077 A 18.214285 17.857143 0 1 1  139.28572,528.79077 A 18.214285 17.857143 0 1 1  175.71428 528.79077 z" />
        <path
           style="fill:black;fill-opacity:1;fill-rule:evenodd;stroke:black;stroke-width:1px;stroke-linecap:butt;stroke-linejoin:miter;stroke-opacity:1"
           d="M 139.64286,527.00505 L 175.35715,526.29077 C 175.35715,526.29077 165.71429,486.1122 156.78571,486.29077 C 147.85714,486.46934 139.64286,527.00505 139.64286,527.00505 z "
           id="path1900"
           sodipodi:nodetypes="ccsc" />
      </g>
    </g>
  </g>
</svg>
