<?xml version="1.0" encoding="UTF-8" standalone="no"?>
<!-- Created with Inkscape (http://www.inkscape.org/) -->
<svg
   xmlns:dc="http://purl.org/dc/elements/1.1/"
   xmlns:cc="http://web.resource.org/cc/"
   xmlns:rdf="http://www.w3.org/1999/02/22-rdf-syntax-ns#"
   xmlns:svg="http://www.w3.org/2000/svg"
   xmlns="http://www.w3.org/2000/svg"
   xmlns:sodipodi="http://sodipodi.sourceforge.net/DTD/sodipodi-0.dtd"
   xmlns:inkscape="http://www.inkscape.org/namespaces/inkscape"
   width="744.09448819"
   height="1052.3622047"
   id="svg2"
   sodipodi:version="0.32"
   inkscape:version="0.44.1"
   sodipodi:docbase="C:\Documents and Settings\pc\Desktop\meteo\meteo svg\fumetto"
   sodipodi:docname="snowy.svg">
  <defs
     id="defs4" />
  <sodipodi:namedview
     id="base"
     pagecolor="#ffffff"
     bordercolor="#666666"
     borderopacity="1.0"
     inkscape:pageopacity="0.0"
     inkscape:pageshadow="2"
     inkscape:zoom="0.98994949"
     inkscape:cx="375"
     inkscape:cy="520"
     inkscape:document-units="px"
     inkscape:current-layer="layer1"
     inkscape:window-width="1280"
     inkscape:window-height="744"
     inkscape:window-x="-4"
     inkscape:window-y="-4"
     showgrid="true" />
  <metadata
     id="metadata7">
    <rdf:RDF>
      <cc:Work
         rdf:about="">
        <dc:format>image/svg+xml</dc:format>
        <dc:type
           rdf:resource="http://purl.org/dc/dcmitype/StillImage" />
      </cc:Work>
    </rdf:RDF>
  </metadata>
  <g
     inkscape:label="Livello 1"
     inkscape:groupmode="layer"
     id="layer1">
    <g
       id="g5887">
      <g
         transform="matrix(0.513269,0,0,0.483755,13.24903,346.7475)"
         inkscape:label="Livello 1"
         id="g5474">
        <g
           id="g2098"
           inkscape:label="Livello 1"
           transform="matrix(1.161421,0,0,1.153155,157.1504,-257.7669)">
          <g
             transform="matrix(7.827886,0,0,8.049363,-2650.035,-3845.126)"
             inkscape:export-ydpi="300"
             inkscape:export-xdpi="300"
             inkscape:export-filename="F:\Qgis N_arrows\WEATHER\snow.png"
             id="g4774">
            <g
               id="g4713">
              <path
                 sodipodi:nodetypes="cccccc"
                 id="path2937"
                 d="M 372.31753,537.54465 L 372.31753,533.12406 C 372.33896,532.98741 372.50341,532.59656 372.68247,533.12406 L 372.68247,537.54465 L 372.31753,537.54465 L 372.31753,537.54465 z "
                 style="fill:none;fill-rule:evenodd;stroke:black;stroke-width:0.53500003;stroke-linecap:butt;stroke-linejoin:miter;stroke-miterlimit:4;stroke-dasharray:none;stroke-opacity:1" />
              <path
                 sodipodi:nodetypes="cccccc"
                 id="path2939"
                 d="M 372.44468,534.97191 L 373.97044,533.44615 C 373.99737,533.37876 373.977,533.08858 373.62587,533.10158 L 372.10011,534.62734 L 372.44468,534.97191 L 372.44468,534.97191 z "
                 style="fill:none;fill-rule:evenodd;stroke:black;stroke-width:0.31299999;stroke-linecap:butt;stroke-linejoin:miter;stroke-miterlimit:4;stroke-dasharray:none;stroke-opacity:1" />
              <path
                 sodipodi:nodetypes="cccccc"
                 id="path2941"
                 d="M 372.39908,534.9047 L 370.87332,533.37894 C 370.84639,533.31155 370.86676,533.02137 371.21789,533.03437 L 372.74365,534.56013 L 372.39908,534.9047 L 372.39908,534.9047 z "
                 style="fill:none;fill-rule:evenodd;stroke:black;stroke-width:0.31299999;stroke-linecap:butt;stroke-linejoin:miter;stroke-miterlimit:4;stroke-dasharray:none;stroke-opacity:1" />
            </g>
            <g
               id="g4718"
               transform="matrix(-1,0,0,-1,745.0114,1075.614)">
              <path
                 sodipodi:nodetypes="cccccc"
                 id="path4720"
                 d="M 372.31753,537.54465 L 372.31753,533.12406 C 372.33896,532.98741 372.50341,532.59656 372.68247,533.12406 L 372.68247,537.54465 L 372.31753,537.54465 L 372.31753,537.54465 z "
                 style="fill:none;fill-rule:evenodd;stroke:black;stroke-width:0.53500003;stroke-linecap:butt;stroke-linejoin:miter;stroke-miterlimit:4;stroke-dasharray:none;stroke-opacity:1" />
              <path
                 sodipodi:nodetypes="cccccc"
                 id="path4722"
                 d="M 372.44468,534.97191 L 373.97044,533.44615 C 373.99737,533.37876 373.977,533.08858 373.62587,533.10158 L 372.10011,534.62734 L 372.44468,534.97191 L 372.44468,534.97191 z "
                 style="fill:none;fill-rule:evenodd;stroke:black;stroke-width:0.31299999;stroke-linecap:butt;stroke-linejoin:miter;stroke-miterlimit:4;stroke-dasharray:none;stroke-opacity:1" />
              <path
                 sodipodi:nodetypes="cccccc"
                 id="path4724"
                 d="M 372.39908,534.9047 L 370.87332,533.37894 C 370.84639,533.31155 370.86676,533.02137 371.21789,533.03437 L 372.74365,534.56013 L 372.39908,534.9047 L 372.39908,534.9047 z "
                 style="fill:none;fill-rule:evenodd;stroke:black;stroke-width:0.31299999;stroke-linecap:butt;stroke-linejoin:miter;stroke-miterlimit:4;stroke-dasharray:none;stroke-opacity:1" />
            </g>
            <g
               id="g4726"
               transform="matrix(0,-1,1,0,-165.7601,910.2045)">
              <path
                 sodipodi:nodetypes="cccccc"
                 id="path4728"
                 d="M 372.31753,537.54465 L 372.31753,533.12406 C 372.33896,532.98741 372.50341,532.59656 372.68247,533.12406 L 372.68247,537.54465 L 372.31753,537.54465 L 372.31753,537.54465 z "
                 style="fill:none;fill-rule:evenodd;stroke:black;stroke-width:0.53500003;stroke-linecap:butt;stroke-linejoin:miter;stroke-miterlimit:4;stroke-dasharray:none;stroke-opacity:1" />
              <path
                 sodipodi:nodetypes="cccccc"
                 id="path4730"
                 d="M 372.44468,534.97191 L 373.97044,533.44615 C 373.99737,533.37876 373.977,533.08858 373.62587,533.10158 L 372.10011,534.62734 L 372.44468,534.97191 L 372.44468,534.97191 z "
                 style="fill:none;fill-rule:evenodd;stroke:black;stroke-width:0.31299999;stroke-linecap:butt;stroke-linejoin:miter;stroke-miterlimit:4;stroke-dasharray:none;stroke-opacity:1" />
              <path
                 sodipodi:nodetypes="cccccc"
                 id="path4732"
                 d="M 372.39908,534.9047 L 370.87332,533.37894 C 370.84639,533.31155 370.86676,533.02137 371.21789,533.03437 L 372.74365,534.56013 L 372.39908,534.9047 L 372.39908,534.9047 z "
                 style="fill:none;fill-rule:evenodd;stroke:black;stroke-width:0.31299999;stroke-linecap:butt;stroke-linejoin:miter;stroke-miterlimit:4;stroke-dasharray:none;stroke-opacity:1" />
            </g>
            <g
               id="g4734"
               transform="matrix(0,1,-1,0,910.7155,165.2112)">
              <path
                 sodipodi:nodetypes="cccccc"
                 id="path4736"
                 d="M 372.31753,537.54465 L 372.31753,533.12406 C 372.33896,532.98741 372.50341,532.59656 372.68247,533.12406 L 372.68247,537.54465 L 372.31753,537.54465 L 372.31753,537.54465 z "
                 style="fill:none;fill-rule:evenodd;stroke:black;stroke-width:0.53500003;stroke-linecap:butt;stroke-linejoin:miter;stroke-miterlimit:4;stroke-dasharray:none;stroke-opacity:1" />
              <path
                 sodipodi:nodetypes="cccccc"
                 id="path4738"
                 d="M 372.44468,534.97191 L 373.97044,533.44615 C 373.99737,533.37876 373.977,533.08858 373.62587,533.10158 L 372.10011,534.62734 L 372.44468,534.97191 L 372.44468,534.97191 z "
                 style="fill:none;fill-rule:evenodd;stroke:black;stroke-width:0.31299999;stroke-linecap:butt;stroke-linejoin:miter;stroke-miterlimit:4;stroke-dasharray:none;stroke-opacity:1" />
              <path
                 sodipodi:nodetypes="cccccc"
                 id="path4740"
                 d="M 372.39908,534.9047 L 370.87332,533.37894 C 370.84639,533.31155 370.86676,533.02137 371.21789,533.03437 L 372.74365,534.56013 L 372.39908,534.9047 L 372.39908,534.9047 z "
                 style="fill:none;fill-rule:evenodd;stroke:black;stroke-width:0.31299999;stroke-linecap:butt;stroke-linejoin:miter;stroke-miterlimit:4;stroke-dasharray:none;stroke-opacity:1" />
            </g>
            <g
               id="g4742"
               transform="matrix(0.707107,-0.707107,0.707107,0.707107,-270.9847,421.1091)">
              <path
                 sodipodi:nodetypes="cccccc"
                 id="path4744"
                 d="M 372.31753,537.54465 L 372.31753,533.12406 C 372.33896,532.98741 372.50341,532.59656 372.68247,533.12406 L 372.68247,537.54465 L 372.31753,537.54465 L 372.31753,537.54465 z "
                 style="fill:none;fill-rule:evenodd;stroke:black;stroke-width:0.53500003;stroke-linecap:butt;stroke-linejoin:miter;stroke-miterlimit:4;stroke-dasharray:none;stroke-opacity:1" />
              <path
                 sodipodi:nodetypes="cccccc"
                 id="path4746"
                 d="M 372.44468,534.97191 L 373.97044,533.44615 C 373.99737,533.37876 373.977,533.08858 373.62587,533.10158 L 372.10011,534.62734 L 372.44468,534.97191 L 372.44468,534.97191 z "
                 style="fill:none;fill-rule:evenodd;stroke:black;stroke-width:0.31299999;stroke-linecap:butt;stroke-linejoin:miter;stroke-miterlimit:4;stroke-dasharray:none;stroke-opacity:1" />
              <path
                 sodipodi:nodetypes="cccccc"
                 id="path4748"
                 d="M 372.39908,534.9047 L 370.87332,533.37894 C 370.84639,533.31155 370.86676,533.02137 371.21789,533.03437 L 372.74365,534.56013 L 372.39908,534.9047 L 372.39908,534.9047 z "
                 style="fill:none;fill-rule:evenodd;stroke:black;stroke-width:0.31299999;stroke-linecap:butt;stroke-linejoin:miter;stroke-miterlimit:4;stroke-dasharray:none;stroke-opacity:1" />
            </g>
            <g
               id="g4750"
               transform="matrix(0.707107,0.707107,-0.707107,0.707107,489.1008,-105.5333)">
              <path
                 sodipodi:nodetypes="cccccc"
                 id="path4752"
                 d="M 372.31753,537.54465 L 372.31753,533.12406 C 372.33896,532.98741 372.50341,532.59656 372.68247,533.12406 L 372.68247,537.54465 L 372.31753,537.54465 L 372.31753,537.54465 z "
                 style="fill:none;fill-rule:evenodd;stroke:black;stroke-width:0.53500003;stroke-linecap:butt;stroke-linejoin:miter;stroke-miterlimit:4;stroke-dasharray:none;stroke-opacity:1" />
              <path
                 sodipodi:nodetypes="cccccc"
                 id="path4754"
                 d="M 372.44468,534.97191 L 373.97044,533.44615 C 373.99737,533.37876 373.977,533.08858 373.62587,533.10158 L 372.10011,534.62734 L 372.44468,534.97191 L 372.44468,534.97191 z "
                 style="fill:none;fill-rule:evenodd;stroke:black;stroke-width:0.31299999;stroke-linecap:butt;stroke-linejoin:miter;stroke-miterlimit:4;stroke-dasharray:none;stroke-opacity:1" />
              <path
                 sodipodi:nodetypes="cccccc"
                 id="path4756"
                 d="M 372.39908,534.9047 L 370.87332,533.37894 C 370.84639,533.31155 370.86676,533.02137 371.21789,533.03437 L 372.74365,534.56013 L 372.39908,534.9047 L 372.39908,534.9047 z "
                 style="fill:none;fill-rule:evenodd;stroke:black;stroke-width:0.31299999;stroke-linecap:butt;stroke-linejoin:miter;stroke-miterlimit:4;stroke-dasharray:none;stroke-opacity:1" />
            </g>
            <g
               id="g4758"
               transform="matrix(-0.707107,0.707107,-0.707107,-0.707107,1016.116,654.4629)">
              <path
                 sodipodi:nodetypes="cccccc"
                 id="path4760"
                 d="M 372.31753,537.54465 L 372.31753,533.12406 C 372.33896,532.98741 372.50341,532.59656 372.68247,533.12406 L 372.68247,537.54465 L 372.31753,537.54465 L 372.31753,537.54465 z "
                 style="fill:none;fill-rule:evenodd;stroke:black;stroke-width:0.53500003;stroke-linecap:butt;stroke-linejoin:miter;stroke-miterlimit:4;stroke-dasharray:none;stroke-opacity:1" />
              <path
                 sodipodi:nodetypes="cccccc"
                 id="path4762"
                 d="M 372.44468,534.97191 L 373.97044,533.44615 C 373.99737,533.37876 373.977,533.08858 373.62587,533.10158 L 372.10011,534.62734 L 372.44468,534.97191 L 372.44468,534.97191 z "
                 style="fill:none;fill-rule:evenodd;stroke:black;stroke-width:0.31299999;stroke-linecap:butt;stroke-linejoin:miter;stroke-miterlimit:4;stroke-dasharray:none;stroke-opacity:1" />
              <path
                 sodipodi:nodetypes="cccccc"
                 id="path4764"
                 d="M 372.39908,534.9047 L 370.87332,533.37894 C 370.84639,533.31155 370.86676,533.02137 371.21789,533.03437 L 372.74365,534.56013 L 372.39908,534.9047 L 372.39908,534.9047 z "
                 style="fill:none;fill-rule:evenodd;stroke:black;stroke-width:0.31299999;stroke-linecap:butt;stroke-linejoin:miter;stroke-miterlimit:4;stroke-dasharray:none;stroke-opacity:1" />
            </g>
            <g
               id="g4766"
               transform="matrix(-0.707107,-0.707107,0.707107,-0.707107,255.5209,1181.478)">
              <path
                 sodipodi:nodetypes="cccccc"
                 id="path4768"
                 d="M 372.31753,537.54465 L 372.31753,533.12406 C 372.33896,532.98741 372.50341,532.59656 372.68247,533.12406 L 372.68247,537.54465 L 372.31753,537.54465 L 372.31753,537.54465 z "
                 style="fill:none;fill-rule:evenodd;stroke:black;stroke-width:0.53500003;stroke-linecap:butt;stroke-linejoin:miter;stroke-miterlimit:4;stroke-dasharray:none;stroke-opacity:1" />
              <path
                 sodipodi:nodetypes="cccccc"
                 id="path4770"
                 d="M 372.44468,534.97191 L 373.97044,533.44615 C 373.99737,533.37876 373.977,533.08858 373.62587,533.10158 L 372.10011,534.62734 L 372.44468,534.97191 L 372.44468,534.97191 z "
                 style="fill:none;fill-rule:evenodd;stroke:black;stroke-width:0.31299999;stroke-linecap:butt;stroke-linejoin:miter;stroke-miterlimit:4;stroke-dasharray:none;stroke-opacity:1" />
              <path
                 sodipodi:nodetypes="cccccc"
                 id="path4772"
                 d="M 372.39908,534.9047 L 370.87332,533.37894 C 370.84639,533.31155 370.86676,533.02137 371.21789,533.03437 L 372.74365,534.56013 L 372.39908,534.9047 L 372.39908,534.9047 z "
                 style="fill:none;fill-rule:evenodd;stroke:black;stroke-width:0.31299999;stroke-linecap:butt;stroke-linejoin:miter;stroke-miterlimit:4;stroke-dasharray:none;stroke-opacity:1" />
            </g>
          </g>
        </g>
      </g>
      <path
         d="M 54.04213,460.78766 C 54.05171,459.42261 54.04997,458.05745 54.05239,456.6924 C 53.94692,454.53167 54.12636,452.41108 54.26155,450.27403 C 54.28652,448.07038 54.98895,446.20942 55.50278,444.21855 C 56.24416,441.84657 57.20455,439.64359 58.11647,437.40753 C 59.30289,435.93224 60.15182,434.07644 61.11009,432.37187 C 61.43252,430.28138 62.07568,428.35213 62.60537,426.37388 C 63.13157,424.33494 64.01675,422.65264 64.86429,420.89761 C 66.03799,418.81198 67.11897,416.61726 68.24926,414.48003 C 71.74309,408.53656 75.52816,402.96723 79.71611,398.02803 C 83.29914,394.17195 87.29773,391.26702 91.30221,388.44235 C 95.33493,386.09902 92.09824,388.0698 94.66137,385.79227 C 96.35644,383.83977 98.19094,382.16664 99.9969,380.44555 C 102.21852,377.95871 104.67393,376.81991 107.34532,376.01944 C 110.38336,375.56517 113.3529,376.65686 116.2797,377.65821 C 118.59729,379.15141 120.82946,379.02908 123.2588,378.91744 C 125.88547,378.13087 128.39044,378.36423 130.99146,379.0113 C 133.95154,381.12133 135.8598,379.66134 138.58185,377.71042 C 141.83897,374.16133 145.69991,372.02246 149.62873,370.40397 C 151.47819,370.84652 153.48781,370.92641 155.22739,371.07835 C 152.38957,374.90711 154.45251,368.05614 154.76545,366.61867 C 156.23555,361.51338 159.20279,358.26698 162.08733,354.88599 C 164.89222,351.71542 168.07472,349.57691 171.3839,347.79044 C 173.40365,346.65614 175.22907,344.89699 178.71345,342.26317 C 181.64823,340.24966 184.80183,339.58996 187.9904,339.07032 C 190.59935,338.46738 192.80214,336.29718 195.08065,334.51053 C 197.79215,332.64836 200.78962,332.03601 203.71371,331.25144 C 206.25398,330.13578 208.06071,331.6365 210.22998,333.34533 C 212.09958,335.1077 213.87952,337.04339 215.71355,338.86234 C 217.96946,339.93739 220.38739,338.97355 222.70711,338.57896 C 226.78192,337.49104 229.70117,339.21492 233.01539,342.27179 C 234.88889,345.02423 236.65179,347.90141 238.57459,350.58464 C 240.28954,352.65983 242.04422,354.66533 243.78283,356.69924 C 245.642,358.70953 247.20086,361.13888 248.78199,363.56065 C 249.72486,365.48911 251.05308,365.84958 252.38947,366.75344 C 253.95457,367.15058 255.54718,367.09492 257.12932,367.12782 C 259.08828,366.74209 260.71985,367.84956 262.50602,368.74207 C 264.4922,369.91977 266.22309,371.68797 267.97467,373.43249 C 269.68733,375.3374 270.93988,377.88926 272.29739,380.28079 C 274.11934,383.5176 276.07626,386.56239 277.81008,389.89075 C 278.95427,392.59176 279.97222,395.39713 281.05355,398.15332 C 282.33674,401.2808 283.69327,404.33937 284.94124,407.49362 C 285.87025,410.19901 287.17753,412.49869 288.51575,414.79649 C 289.92917,417.17855 291.56862,419.24294 293.15246,421.38114 C 295.02117,424.48786 296.16828,428.32444 297.47738,431.94061 C 298.7777,434.93908 299.79256,438.15483 300.90508,441.29718 C 302.11358,445.17092 303.6142,448.83261 305.04848,452.53832 C 306.09085,455.15076 307.10821,457.78305 308.10865,460.42354 C 308.66805,462.74223 308.88399,465.21286 309.17654,467.62309 C 310.17846,469.80105 310.06757,472.2369 310.2716,474.50192 C 308.563,477.1951 307.0361,477.099 304.88358,477.43137 C 303.36346,477.45529 301.84312,477.42342 300.323,477.40539 C 298.80318,477.38882 297.28331,477.38821 295.76349,477.38475 C 294.24921,477.38323 292.73494,477.38384 291.22071,477.38384 C 289.70678,477.38402 288.19285,477.38402 286.67896,477.38408 C 285.16498,477.38414 283.65101,477.38414 282.13704,477.38414 C 280.62302,477.38414 279.10904,477.38414 277.59507,477.38414 C 276.08105,477.38414 274.56708,477.38414 273.0531,477.38414 C 271.53913,477.38414 270.02511,477.38414 268.51114,477.38414 C 266.98004,477.2464 265.48204,477.70704 263.97917,478.0561 C 262.44422,478.1896 260.94788,478.55966 259.43984,478.9684 C 257.57414,479.45867 255.67317,479.43104 253.78522,479.51919 C 251.90655,479.56393 250.02754,479.55689 248.1487,479.55853 C 246.37423,479.35789 244.83422,480.34012 243.21652,481.18364 C 241.42865,482.34368 239.53268,482.88676 237.6388,483.49959 C 235.8561,483.86462 234.05467,483.85436 232.25909,483.90584 C 230.71417,483.91264 229.16924,483.90189 227.62437,483.89546 C 226.11277,483.88963 224.60121,483.89006 223.08965,483.88854 C 221.24256,483.88496 219.39543,483.88471 217.54834,483.88484 C 215.86734,483.88654 214.18639,483.8872 212.50543,483.88799 C 210.95538,483.88933 209.40533,483.88787 207.85528,483.8869 C 205.85359,483.88356 203.8519,483.88423 201.85021,483.88386 C 200.1807,484.17434 198.58182,483.65288 196.94737,483.37405 C 195.32177,482.92021 193.66189,482.92816 192.01438,482.8337 C 190.09773,482.78277 188.18065,482.79515 186.26379,482.79515 C 184.65939,482.79953 183.05504,482.80129 181.45068,482.80329 C 179.83662,482.56459 178.2861,482.97296 176.71329,483.27103 C 174.71079,484.17859 172.71245,485.11135 170.71466,486.03961 C 168.40763,487.34917 165.95162,487.70983 163.50681,488.0476 C 161.45943,488.24514 159.4072,488.22978 157.35664,488.24617 C 155.43744,488.23537 153.51824,488.23051 151.59905,488.22559 C 149.5548,488.22098 147.51054,488.2208 145.46629,488.21879 C 143.57707,488.22098 141.68788,488.22146 139.7987,488.22195 C 137.76984,488.22213 135.74102,488.21989 133.7122,488.21819 C 131.56303,488.29947 129.41381,488.17769 127.27189,488.07929 C 125.69573,487.60596 124.2213,486.50037 122.71284,485.65218 C 120.42297,484.954 118.06867,485.0198 115.74022,484.95631 C 113.06251,484.92413 110.38468,484.94356 107.70688,484.95461 C 105.64271,484.96766 103.57849,484.96535 101.51427,484.96511 C 98.93423,484.96474 96.35419,484.96292 93.77419,484.96292 C 92.32826,485.24381 90.86405,485.31994 89.42278,485.64617 C 88.00724,488.09161 85.80758,488.78628 83.95358,489.91803 C 82.22459,489.94875 80.54262,489.40251 78.85539,488.94053 C 77.02547,488.46022 75.16779,488.38604 73.31595,488.25485 C 71.55038,488.1973 69.78422,488.21266 68.01831,488.2123 C 66.21387,488.21715 64.40943,488.21904 62.60494,488.22098 C 60.86591,488.22152 59.12688,488.22274 57.3878,488.22377 C 55.91728,488.49768 54.52357,487.9804 53.08921,487.70947 C 51.78706,487.48661 51.28659,485.93593 50.40565,484.89621 C 49.59008,483.79007 49.16892,482.27648 48.59557,480.93766 C 48.0488,479.36269 47.81484,477.65678 47.46706,475.99524 C 47.08312,473.80501 47.54739,471.84261 47.89115,469.74284 C 48.37975,467.71785 49.13326,465.86782 49.83065,463.98416 C 53.08281,460.67675 51.62288,461.81621 52.87555,460.53032 C 53.37637,459.59763 53.88956,458.69869 54.39173,457.79155 L 56.44184,456.45206 C 55.94225,457.39483 55.50786,458.37907 54.94189,459.28244 C 51.88401,462.33926 52.28025,461.86441 51.88295,462.67915 C 51.17658,464.53877 50.42676,466.37478 49.91649,468.37281 C 49.56049,470.42475 49.07871,472.33094 49.44862,474.4831 C 49.78732,476.12096 50.01153,477.80174 50.55258,479.35213 C 51.11817,480.67 51.53475,482.15816 52.33854,483.24778 C 53.18527,484.2186 53.67281,485.72831 54.9318,485.87152 C 56.35391,486.11792 57.74474,486.59811 59.1992,486.33914 C 60.93717,486.33987 62.67519,486.34126 64.41316,486.33944 C 66.21722,486.33732 68.02128,486.33556 69.82538,486.33179 C 71.59388,486.33234 73.36284,486.31364 75.13095,486.37981 C 76.98745,486.52502 78.84967,486.61481 80.68319,487.10799 C 82.36118,487.54987 84.03463,488.1057 85.75387,488.00529 C 88.35947,486.00889 84.54613,490.50822 87.3324,486.79583 C 90.03602,484.58436 92.37896,482.86673 95.56872,483.09583 C 98.15058,483.09583 100.73248,483.0945 103.31435,483.09207 C 105.37852,483.0877 107.44265,483.08345 109.50683,483.08102 C 112.18246,483.07574 114.85818,483.06615 117.53377,483.09553 C 119.88138,483.16152 122.25794,483.08861 124.56073,483.84404 C 126.0494,484.7051 127.51551,485.81585 129.09147,486.2241 C 131.22856,486.30957 133.37077,486.41375 135.51304,486.34454 C 137.54431,486.34278 139.57559,486.34059 141.60683,486.34066 C 143.49402,486.34102 145.38126,486.34132 147.26845,486.34375 C 149.31444,486.3429 151.36047,486.34199 153.40646,486.34569 C 155.32642,486.35207 157.24638,486.35899 159.16634,486.3633 C 161.2094,486.34752 163.25441,486.36633 165.29383,486.1569 C 167.73012,485.79472 170.1723,485.40456 172.46862,484.08262 C 174.47383,483.15848 176.47399,482.20357 178.48954,481.328 C 180.07478,481.06787 181.64598,480.70461 183.26339,480.91702 C 184.86639,480.9158 186.46939,480.91435 188.07238,480.91319 C 189.9898,480.91659 191.90747,480.90633 193.82463,480.96024 C 195.48274,481.06211 197.15335,481.05925 198.78767,481.53452 C 200.40856,481.79155 202.00206,482.27757 203.65461,482.00652 C 205.65825,482.00615 207.66189,482.00682 209.66553,482.00348 C 211.21626,482.00251 212.76699,482.00105 214.31776,482.00239 C 215.99677,482.00312 217.67581,482.00378 219.35482,482.0053 C 221.20415,482.00542 223.05345,482.00476 224.90278,482.00221 C 226.41442,482.00385 227.92611,482.00348 229.43775,482.00979 C 230.98149,482.01653 232.52526,482.02825 234.069,482.01908 C 235.85635,481.96165 237.65041,481.9704 239.42276,481.57805 C 241.30563,480.93663 243.19278,480.36161 244.97301,479.20661 C 246.61247,478.40037 248.1721,477.44339 249.95967,477.67468 C 251.83465,477.67529 253.70972,477.68585 255.58453,477.63887 C 257.46947,477.537 259.36769,477.55509 261.2277,477.0346 C 262.73824,476.64777 264.23916,476.28924 265.77226,476.13171 C 267.28208,475.78659 268.78605,475.35114 270.32423,475.49775 C 271.8382,475.49775 273.35218,475.49775 274.86615,475.49775 C 276.38017,475.49775 277.89414,475.49775 279.40812,475.49775 C 280.92213,475.49775 282.43611,475.49775 283.95008,475.49775 C 285.46406,475.49775 286.97803,475.49775 288.49201,475.49769 C 290.00594,475.49763 291.51983,475.49763 293.03376,475.49745 C 294.54803,475.49751 296.06235,475.49684 297.57666,475.49866 C 299.09674,475.50261 300.61682,475.50364 302.13686,475.52124 C 303.65545,475.53891 305.17439,475.57485 306.6929,475.5346 C 309.1737,475.03444 309.34106,475.54935 308.22976,475.85762 C 308.07529,473.68159 308.2393,471.28672 307.21385,469.14567 C 306.91621,466.75602 306.68641,464.31228 306.16029,462.00009 C 305.16934,459.36452 304.16398,456.73429 303.13119,454.12616 C 301.69865,450.41225 300.20108,446.74309 298.97376,442.87627 C 297.85988,439.73623 296.84905,436.51927 295.55882,433.51382 C 294.2607,429.92594 293.12673,426.11333 291.24916,423.05615 C 289.66507,420.90714 288.02934,418.82698 286.61308,416.43915 C 285.25973,414.12653 283.93313,411.81568 283.00899,409.07654 C 281.77009,405.92066 280.41729,402.86572 279.12744,399.74954 C 278.04654,397.00039 277.0249,394.20613 275.89398,391.50129 C 274.16957,388.17627 272.22316,385.13203 270.39625,381.9147 C 269.04485,379.54964 267.79243,377.03026 266.08913,375.15055 C 264.35044,373.42053 262.63396,371.66095 260.65618,370.51123 C 258.87908,369.66808 257.25264,368.62654 255.31657,369.01221 C 253.72332,368.96953 252.11795,369.02247 250.54611,368.57779 C 249.19742,367.61323 247.82135,367.18136 246.8719,365.21927 C 245.30286,362.80594 243.75709,360.38454 241.90373,358.39119 C 240.15482,356.3608 238.38968,354.35906 236.68426,352.25321 C 234.77461,349.57084 233.01099,346.7112 231.15194,343.95871 C 227.85875,340.96448 224.95878,339.36292 220.93582,340.46499 C 218.5668,340.87822 216.12674,341.85292 213.83844,340.60825 C 212.01619,338.76606 210.24393,336.81076 208.36403,335.07431 C 206.21261,333.41824 204.44653,332.05064 201.95136,333.17293 C 199.03011,333.94796 196.04404,334.57433 193.35476,336.49673 C 191.06727,338.29898 188.84972,340.44708 186.20965,340.95938 C 183.03833,341.50009 179.90466,342.19081 176.9952,344.2283 C 173.97369,346.53072 173.17049,347.34127 169.62363,349.75405 C 166.30568,351.59127 167.12227,350.59945 164.1248,353.72608 C 161.2473,357.0517 158.27119,360.23235 156.77884,365.27639 C 156.03364,368.98635 156.14089,371.17694 153.45923,373.07621 C 151.67658,372.81401 149.71953,372.54721 147.87329,372.31555 C 143.82921,374.04041 140.34428,375.99024 136.87287,379.69054 C 134.10139,381.57985 132.14332,382.91891 129.16671,380.82083 C 126.5787,380.22615 124.07802,380.05375 121.47199,380.82011 C 119.03571,380.87201 116.77958,380.93739 114.46038,379.44802 C 111.54163,378.47149 108.58456,377.40537 105.56017,377.92926 C 101.57086,379.24368 104.74536,377.17426 102.07664,379.29892 C 100.2688,381.00399 98.42477,382.65126 96.73402,384.60594 C 94.4358,386.76479 92.23584,389.21314 89.56725,390.42102 C 86.39161,392.66722 84.57822,393.76953 81.72115,396.87187 C 77.53087,401.76081 73.75534,407.29827 70.28436,413.23148 C 69.16026,415.36634 68.07834,417.55099 66.92707,419.65149 C 66.05935,421.37173 65.15552,423.0054 64.64975,425.05249 C 64.10891,427.01798 63.42018,428.9275 63.15324,431.04076 C 62.21617,432.79918 61.44596,434.72461 60.16136,436.12504 C 59.24176,438.34417 58.27752,440.5307 57.54198,442.89618 C 57.00904,444.85713 56.29758,446.67668 56.27409,448.86412 C 56.12788,450.98538 55.93623,453.08467 56.05217,455.2332 C 56.05459,456.59333 56.05285,457.95346 56.06243,459.31352 L 54.04213,460.78766 z "
         id="path1872"
         style="opacity:0.97000002;fill:black;fill-opacity:1;stroke:black;stroke-width:2.02916598;stroke-linejoin:round;stroke-miterlimit:4;stroke-dasharray:none;stroke-opacity:1" />
      <g
         transform="matrix(0.513269,0,0,0.483755,-53.16868,399.0229)"
         inkscape:label="Livello 1"
         id="g5607">
        <g
           id="g5609"
           inkscape:label="Livello 1"
           transform="matrix(1.161421,0,0,1.153155,157.1504,-257.7669)">
          <g
             transform="matrix(7.827886,0,0,8.049363,-2650.035,-3845.126)"
             inkscape:export-ydpi="300"
             inkscape:export-xdpi="300"
             inkscape:export-filename="F:\Qgis N_arrows\WEATHER\snow.png"
             id="g5611">
            <g
               id="g5613">
              <path
                 sodipodi:nodetypes="cccccc"
                 id="path5615"
                 d="M 372.31753,537.54465 L 372.31753,533.12406 C 372.33896,532.98741 372.50341,532.59656 372.68247,533.12406 L 372.68247,537.54465 L 372.31753,537.54465 L 372.31753,537.54465 z "
                 style="fill:none;fill-rule:evenodd;stroke:black;stroke-width:0.53500003;stroke-linecap:butt;stroke-linejoin:miter;stroke-miterlimit:4;stroke-dasharray:none;stroke-opacity:1" />
              <path
                 sodipodi:nodetypes="cccccc"
                 id="path5617"
                 d="M 372.44468,534.97191 L 373.97044,533.44615 C 373.99737,533.37876 373.977,533.08858 373.62587,533.10158 L 372.10011,534.62734 L 372.44468,534.97191 L 372.44468,534.97191 z "
                 style="fill:none;fill-rule:evenodd;stroke:black;stroke-width:0.31299999;stroke-linecap:butt;stroke-linejoin:miter;stroke-miterlimit:4;stroke-dasharray:none;stroke-opacity:1" />
              <path
                 sodipodi:nodetypes="cccccc"
                 id="path5619"
                 d="M 372.39908,534.9047 L 370.87332,533.37894 C 370.84639,533.31155 370.86676,533.02137 371.21789,533.03437 L 372.74365,534.56013 L 372.39908,534.9047 L 372.39908,534.9047 z "
                 style="fill:none;fill-rule:evenodd;stroke:black;stroke-width:0.31299999;stroke-linecap:butt;stroke-linejoin:miter;stroke-miterlimit:4;stroke-dasharray:none;stroke-opacity:1" />
            </g>
            <g
               id="g5621"
               transform="matrix(-1,0,0,-1,745.0114,1075.614)">
              <path
                 sodipodi:nodetypes="cccccc"
                 id="path5623"
                 d="M 372.31753,537.54465 L 372.31753,533.12406 C 372.33896,532.98741 372.50341,532.59656 372.68247,533.12406 L 372.68247,537.54465 L 372.31753,537.54465 L 372.31753,537.54465 z "
                 style="fill:none;fill-rule:evenodd;stroke:black;stroke-width:0.53500003;stroke-linecap:butt;stroke-linejoin:miter;stroke-miterlimit:4;stroke-dasharray:none;stroke-opacity:1" />
              <path
                 sodipodi:nodetypes="cccccc"
                 id="path5625"
                 d="M 372.44468,534.97191 L 373.97044,533.44615 C 373.99737,533.37876 373.977,533.08858 373.62587,533.10158 L 372.10011,534.62734 L 372.44468,534.97191 L 372.44468,534.97191 z "
                 style="fill:none;fill-rule:evenodd;stroke:black;stroke-width:0.31299999;stroke-linecap:butt;stroke-linejoin:miter;stroke-miterlimit:4;stroke-dasharray:none;stroke-opacity:1" />
              <path
                 sodipodi:nodetypes="cccccc"
                 id="path5627"
                 d="M 372.39908,534.9047 L 370.87332,533.37894 C 370.84639,533.31155 370.86676,533.02137 371.21789,533.03437 L 372.74365,534.56013 L 372.39908,534.9047 L 372.39908,534.9047 z "
                 style="fill:none;fill-rule:evenodd;stroke:black;stroke-width:0.31299999;stroke-linecap:butt;stroke-linejoin:miter;stroke-miterlimit:4;stroke-dasharray:none;stroke-opacity:1" />
            </g>
            <g
               id="g5629"
               transform="matrix(0,-1,1,0,-165.7601,910.2045)">
              <path
                 sodipodi:nodetypes="cccccc"
                 id="path5631"
                 d="M 372.31753,537.54465 L 372.31753,533.12406 C 372.33896,532.98741 372.50341,532.59656 372.68247,533.12406 L 372.68247,537.54465 L 372.31753,537.54465 L 372.31753,537.54465 z "
                 style="fill:none;fill-rule:evenodd;stroke:black;stroke-width:0.53500003;stroke-linecap:butt;stroke-linejoin:miter;stroke-miterlimit:4;stroke-dasharray:none;stroke-opacity:1" />
              <path
                 sodipodi:nodetypes="cccccc"
                 id="path5633"
                 d="M 372.44468,534.97191 L 373.97044,533.44615 C 373.99737,533.37876 373.977,533.08858 373.62587,533.10158 L 372.10011,534.62734 L 372.44468,534.97191 L 372.44468,534.97191 z "
                 style="fill:none;fill-rule:evenodd;stroke:black;stroke-width:0.31299999;stroke-linecap:butt;stroke-linejoin:miter;stroke-miterlimit:4;stroke-dasharray:none;stroke-opacity:1" />
              <path
                 sodipodi:nodetypes="cccccc"
                 id="path5635"
                 d="M 372.39908,534.9047 L 370.87332,533.37894 C 370.84639,533.31155 370.86676,533.02137 371.21789,533.03437 L 372.74365,534.56013 L 372.39908,534.9047 L 372.39908,534.9047 z "
                 style="fill:none;fill-rule:evenodd;stroke:black;stroke-width:0.31299999;stroke-linecap:butt;stroke-linejoin:miter;stroke-miterlimit:4;stroke-dasharray:none;stroke-opacity:1" />
            </g>
            <g
               id="g5637"
               transform="matrix(0,1,-1,0,910.7155,165.2112)">
              <path
                 sodipodi:nodetypes="cccccc"
                 id="path5639"
                 d="M 372.31753,537.54465 L 372.31753,533.12406 C 372.33896,532.98741 372.50341,532.59656 372.68247,533.12406 L 372.68247,537.54465 L 372.31753,537.54465 L 372.31753,537.54465 z "
                 style="fill:none;fill-rule:evenodd;stroke:black;stroke-width:0.53500003;stroke-linecap:butt;stroke-linejoin:miter;stroke-miterlimit:4;stroke-dasharray:none;stroke-opacity:1" />
              <path
                 sodipodi:nodetypes="cccccc"
                 id="path5641"
                 d="M 372.44468,534.97191 L 373.97044,533.44615 C 373.99737,533.37876 373.977,533.08858 373.62587,533.10158 L 372.10011,534.62734 L 372.44468,534.97191 L 372.44468,534.97191 z "
                 style="fill:none;fill-rule:evenodd;stroke:black;stroke-width:0.31299999;stroke-linecap:butt;stroke-linejoin:miter;stroke-miterlimit:4;stroke-dasharray:none;stroke-opacity:1" />
              <path
                 sodipodi:nodetypes="cccccc"
                 id="path5643"
                 d="M 372.39908,534.9047 L 370.87332,533.37894 C 370.84639,533.31155 370.86676,533.02137 371.21789,533.03437 L 372.74365,534.56013 L 372.39908,534.9047 L 372.39908,534.9047 z "
                 style="fill:none;fill-rule:evenodd;stroke:black;stroke-width:0.31299999;stroke-linecap:butt;stroke-linejoin:miter;stroke-miterlimit:4;stroke-dasharray:none;stroke-opacity:1" />
            </g>
            <g
               id="g5645"
               transform="matrix(0.707107,-0.707107,0.707107,0.707107,-270.9847,421.1091)">
              <path
                 sodipodi:nodetypes="cccccc"
                 id="path5647"
                 d="M 372.31753,537.54465 L 372.31753,533.12406 C 372.33896,532.98741 372.50341,532.59656 372.68247,533.12406 L 372.68247,537.54465 L 372.31753,537.54465 L 372.31753,537.54465 z "
                 style="fill:none;fill-rule:evenodd;stroke:black;stroke-width:0.53500003;stroke-linecap:butt;stroke-linejoin:miter;stroke-miterlimit:4;stroke-dasharray:none;stroke-opacity:1" />
              <path
                 sodipodi:nodetypes="cccccc"
                 id="path5649"
                 d="M 372.44468,534.97191 L 373.97044,533.44615 C 373.99737,533.37876 373.977,533.08858 373.62587,533.10158 L 372.10011,534.62734 L 372.44468,534.97191 L 372.44468,534.97191 z "
                 style="fill:none;fill-rule:evenodd;stroke:black;stroke-width:0.31299999;stroke-linecap:butt;stroke-linejoin:miter;stroke-miterlimit:4;stroke-dasharray:none;stroke-opacity:1" />
              <path
                 sodipodi:nodetypes="cccccc"
                 id="path5651"
                 d="M 372.39908,534.9047 L 370.87332,533.37894 C 370.84639,533.31155 370.86676,533.02137 371.21789,533.03437 L 372.74365,534.56013 L 372.39908,534.9047 L 372.39908,534.9047 z "
                 style="fill:none;fill-rule:evenodd;stroke:black;stroke-width:0.31299999;stroke-linecap:butt;stroke-linejoin:miter;stroke-miterlimit:4;stroke-dasharray:none;stroke-opacity:1" />
            </g>
            <g
               id="g5653"
               transform="matrix(0.707107,0.707107,-0.707107,0.707107,489.1008,-105.5333)">
              <path
                 sodipodi:nodetypes="cccccc"
                 id="path5655"
                 d="M 372.31753,537.54465 L 372.31753,533.12406 C 372.33896,532.98741 372.50341,532.59656 372.68247,533.12406 L 372.68247,537.54465 L 372.31753,537.54465 L 372.31753,537.54465 z "
                 style="fill:none;fill-rule:evenodd;stroke:black;stroke-width:0.53500003;stroke-linecap:butt;stroke-linejoin:miter;stroke-miterlimit:4;stroke-dasharray:none;stroke-opacity:1" />
              <path
                 sodipodi:nodetypes="cccccc"
                 id="path5657"
                 d="M 372.44468,534.97191 L 373.97044,533.44615 C 373.99737,533.37876 373.977,533.08858 373.62587,533.10158 L 372.10011,534.62734 L 372.44468,534.97191 L 372.44468,534.97191 z "
                 style="fill:none;fill-rule:evenodd;stroke:black;stroke-width:0.31299999;stroke-linecap:butt;stroke-linejoin:miter;stroke-miterlimit:4;stroke-dasharray:none;stroke-opacity:1" />
              <path
                 sodipodi:nodetypes="cccccc"
                 id="path5659"
                 d="M 372.39908,534.9047 L 370.87332,533.37894 C 370.84639,533.31155 370.86676,533.02137 371.21789,533.03437 L 372.74365,534.56013 L 372.39908,534.9047 L 372.39908,534.9047 z "
                 style="fill:none;fill-rule:evenodd;stroke:black;stroke-width:0.31299999;stroke-linecap:butt;stroke-linejoin:miter;stroke-miterlimit:4;stroke-dasharray:none;stroke-opacity:1" />
            </g>
            <g
               id="g5661"
               transform="matrix(-0.707107,0.707107,-0.707107,-0.707107,1016.116,654.4629)">
              <path
                 sodipodi:nodetypes="cccccc"
                 id="path5663"
                 d="M 372.31753,537.54465 L 372.31753,533.12406 C 372.33896,532.98741 372.50341,532.59656 372.68247,533.12406 L 372.68247,537.54465 L 372.31753,537.54465 L 372.31753,537.54465 z "
                 style="fill:none;fill-rule:evenodd;stroke:black;stroke-width:0.53500003;stroke-linecap:butt;stroke-linejoin:miter;stroke-miterlimit:4;stroke-dasharray:none;stroke-opacity:1" />
              <path
                 sodipodi:nodetypes="cccccc"
                 id="path5665"
                 d="M 372.44468,534.97191 L 373.97044,533.44615 C 373.99737,533.37876 373.977,533.08858 373.62587,533.10158 L 372.10011,534.62734 L 372.44468,534.97191 L 372.44468,534.97191 z "
                 style="fill:none;fill-rule:evenodd;stroke:black;stroke-width:0.31299999;stroke-linecap:butt;stroke-linejoin:miter;stroke-miterlimit:4;stroke-dasharray:none;stroke-opacity:1" />
              <path
                 sodipodi:nodetypes="cccccc"
                 id="path5667"
                 d="M 372.39908,534.9047 L 370.87332,533.37894 C 370.84639,533.31155 370.86676,533.02137 371.21789,533.03437 L 372.74365,534.56013 L 372.39908,534.9047 L 372.39908,534.9047 z "
                 style="fill:none;fill-rule:evenodd;stroke:black;stroke-width:0.31299999;stroke-linecap:butt;stroke-linejoin:miter;stroke-miterlimit:4;stroke-dasharray:none;stroke-opacity:1" />
            </g>
            <g
               id="g5669"
               transform="matrix(-0.707107,-0.707107,0.707107,-0.707107,255.5209,1181.478)">
              <path
                 sodipodi:nodetypes="cccccc"
                 id="path5671"
                 d="M 372.31753,537.54465 L 372.31753,533.12406 C 372.33896,532.98741 372.50341,532.59656 372.68247,533.12406 L 372.68247,537.54465 L 372.31753,537.54465 L 372.31753,537.54465 z "
                 style="fill:none;fill-rule:evenodd;stroke:black;stroke-width:0.53500003;stroke-linecap:butt;stroke-linejoin:miter;stroke-miterlimit:4;stroke-dasharray:none;stroke-opacity:1" />
              <path
                 sodipodi:nodetypes="cccccc"
                 id="path5673"
                 d="M 372.44468,534.97191 L 373.97044,533.44615 C 373.99737,533.37876 373.977,533.08858 373.62587,533.10158 L 372.10011,534.62734 L 372.44468,534.97191 L 372.44468,534.97191 z "
                 style="fill:none;fill-rule:evenodd;stroke:black;stroke-width:0.31299999;stroke-linecap:butt;stroke-linejoin:miter;stroke-miterlimit:4;stroke-dasharray:none;stroke-opacity:1" />
              <path
                 sodipodi:nodetypes="cccccc"
                 id="path5675"
                 d="M 372.39908,534.9047 L 370.87332,533.37894 C 370.84639,533.31155 370.86676,533.02137 371.21789,533.03437 L 372.74365,534.56013 L 372.39908,534.9047 L 372.39908,534.9047 z "
                 style="fill:none;fill-rule:evenodd;stroke:black;stroke-width:0.31299999;stroke-linecap:butt;stroke-linejoin:miter;stroke-miterlimit:4;stroke-dasharray:none;stroke-opacity:1" />
            </g>
          </g>
        </g>
      </g>
      <g
         transform="matrix(0.513269,0,0,0.483755,-114.2829,359.1219)"
         inkscape:label="Livello 1"
         id="g5677">
        <g
           id="g5679"
           inkscape:label="Livello 1"
           transform="matrix(1.161421,0,0,1.153155,157.1504,-257.7669)">
          <g
             transform="matrix(7.827886,0,0,8.049363,-2650.035,-3845.126)"
             inkscape:export-ydpi="300"
             inkscape:export-xdpi="300"
             inkscape:export-filename="F:\Qgis N_arrows\WEATHER\snow.png"
             id="g5681">
            <g
               id="g5683">
              <path
                 sodipodi:nodetypes="cccccc"
                 id="path5685"
                 d="M 372.31753,537.54465 L 372.31753,533.12406 C 372.33896,532.98741 372.50341,532.59656 372.68247,533.12406 L 372.68247,537.54465 L 372.31753,537.54465 L 372.31753,537.54465 z "
                 style="fill:none;fill-rule:evenodd;stroke:black;stroke-width:0.53500003;stroke-linecap:butt;stroke-linejoin:miter;stroke-miterlimit:4;stroke-dasharray:none;stroke-opacity:1" />
              <path
                 sodipodi:nodetypes="cccccc"
                 id="path5687"
                 d="M 372.44468,534.97191 L 373.97044,533.44615 C 373.99737,533.37876 373.977,533.08858 373.62587,533.10158 L 372.10011,534.62734 L 372.44468,534.97191 L 372.44468,534.97191 z "
                 style="fill:none;fill-rule:evenodd;stroke:black;stroke-width:0.31299999;stroke-linecap:butt;stroke-linejoin:miter;stroke-miterlimit:4;stroke-dasharray:none;stroke-opacity:1" />
              <path
                 sodipodi:nodetypes="cccccc"
                 id="path5689"
                 d="M 372.39908,534.9047 L 370.87332,533.37894 C 370.84639,533.31155 370.86676,533.02137 371.21789,533.03437 L 372.74365,534.56013 L 372.39908,534.9047 L 372.39908,534.9047 z "
                 style="fill:none;fill-rule:evenodd;stroke:black;stroke-width:0.31299999;stroke-linecap:butt;stroke-linejoin:miter;stroke-miterlimit:4;stroke-dasharray:none;stroke-opacity:1" />
            </g>
            <g
               id="g5691"
               transform="matrix(-1,0,0,-1,745.0114,1075.614)">
              <path
                 sodipodi:nodetypes="cccccc"
                 id="path5693"
                 d="M 372.31753,537.54465 L 372.31753,533.12406 C 372.33896,532.98741 372.50341,532.59656 372.68247,533.12406 L 372.68247,537.54465 L 372.31753,537.54465 L 372.31753,537.54465 z "
                 style="fill:none;fill-rule:evenodd;stroke:black;stroke-width:0.53500003;stroke-linecap:butt;stroke-linejoin:miter;stroke-miterlimit:4;stroke-dasharray:none;stroke-opacity:1" />
              <path
                 sodipodi:nodetypes="cccccc"
                 id="path5695"
                 d="M 372.44468,534.97191 L 373.97044,533.44615 C 373.99737,533.37876 373.977,533.08858 373.62587,533.10158 L 372.10011,534.62734 L 372.44468,534.97191 L 372.44468,534.97191 z "
                 style="fill:none;fill-rule:evenodd;stroke:black;stroke-width:0.31299999;stroke-linecap:butt;stroke-linejoin:miter;stroke-miterlimit:4;stroke-dasharray:none;stroke-opacity:1" />
              <path
                 sodipodi:nodetypes="cccccc"
                 id="path5697"
                 d="M 372.39908,534.9047 L 370.87332,533.37894 C 370.84639,533.31155 370.86676,533.02137 371.21789,533.03437 L 372.74365,534.56013 L 372.39908,534.9047 L 372.39908,534.9047 z "
                 style="fill:none;fill-rule:evenodd;stroke:black;stroke-width:0.31299999;stroke-linecap:butt;stroke-linejoin:miter;stroke-miterlimit:4;stroke-dasharray:none;stroke-opacity:1" />
            </g>
            <g
               id="g5699"
               transform="matrix(0,-1,1,0,-165.7601,910.2045)">
              <path
                 sodipodi:nodetypes="cccccc"
                 id="path5701"
                 d="M 372.31753,537.54465 L 372.31753,533.12406 C 372.33896,532.98741 372.50341,532.59656 372.68247,533.12406 L 372.68247,537.54465 L 372.31753,537.54465 L 372.31753,537.54465 z "
                 style="fill:none;fill-rule:evenodd;stroke:black;stroke-width:0.53500003;stroke-linecap:butt;stroke-linejoin:miter;stroke-miterlimit:4;stroke-dasharray:none;stroke-opacity:1" />
              <path
                 sodipodi:nodetypes="cccccc"
                 id="path5703"
                 d="M 372.44468,534.97191 L 373.97044,533.44615 C 373.99737,533.37876 373.977,533.08858 373.62587,533.10158 L 372.10011,534.62734 L 372.44468,534.97191 L 372.44468,534.97191 z "
                 style="fill:none;fill-rule:evenodd;stroke:black;stroke-width:0.31299999;stroke-linecap:butt;stroke-linejoin:miter;stroke-miterlimit:4;stroke-dasharray:none;stroke-opacity:1" />
              <path
                 sodipodi:nodetypes="cccccc"
                 id="path5705"
                 d="M 372.39908,534.9047 L 370.87332,533.37894 C 370.84639,533.31155 370.86676,533.02137 371.21789,533.03437 L 372.74365,534.56013 L 372.39908,534.9047 L 372.39908,534.9047 z "
                 style="fill:none;fill-rule:evenodd;stroke:black;stroke-width:0.31299999;stroke-linecap:butt;stroke-linejoin:miter;stroke-miterlimit:4;stroke-dasharray:none;stroke-opacity:1" />
            </g>
            <g
               id="g5707"
               transform="matrix(0,1,-1,0,910.7155,165.2112)">
              <path
                 sodipodi:nodetypes="cccccc"
                 id="path5709"
                 d="M 372.31753,537.54465 L 372.31753,533.12406 C 372.33896,532.98741 372.50341,532.59656 372.68247,533.12406 L 372.68247,537.54465 L 372.31753,537.54465 L 372.31753,537.54465 z "
                 style="fill:none;fill-rule:evenodd;stroke:black;stroke-width:0.53500003;stroke-linecap:butt;stroke-linejoin:miter;stroke-miterlimit:4;stroke-dasharray:none;stroke-opacity:1" />
              <path
                 sodipodi:nodetypes="cccccc"
                 id="path5711"
                 d="M 372.44468,534.97191 L 373.97044,533.44615 C 373.99737,533.37876 373.977,533.08858 373.62587,533.10158 L 372.10011,534.62734 L 372.44468,534.97191 L 372.44468,534.97191 z "
                 style="fill:none;fill-rule:evenodd;stroke:black;stroke-width:0.31299999;stroke-linecap:butt;stroke-linejoin:miter;stroke-miterlimit:4;stroke-dasharray:none;stroke-opacity:1" />
              <path
                 sodipodi:nodetypes="cccccc"
                 id="path5713"
                 d="M 372.39908,534.9047 L 370.87332,533.37894 C 370.84639,533.31155 370.86676,533.02137 371.21789,533.03437 L 372.74365,534.56013 L 372.39908,534.9047 L 372.39908,534.9047 z "
                 style="fill:none;fill-rule:evenodd;stroke:black;stroke-width:0.31299999;stroke-linecap:butt;stroke-linejoin:miter;stroke-miterlimit:4;stroke-dasharray:none;stroke-opacity:1" />
            </g>
            <g
               id="g5715"
               transform="matrix(0.707107,-0.707107,0.707107,0.707107,-270.9847,421.1091)">
              <path
                 sodipodi:nodetypes="cccccc"
                 id="path5717"
                 d="M 372.31753,537.54465 L 372.31753,533.12406 C 372.33896,532.98741 372.50341,532.59656 372.68247,533.12406 L 372.68247,537.54465 L 372.31753,537.54465 L 372.31753,537.54465 z "
                 style="fill:none;fill-rule:evenodd;stroke:black;stroke-width:0.53500003;stroke-linecap:butt;stroke-linejoin:miter;stroke-miterlimit:4;stroke-dasharray:none;stroke-opacity:1" />
              <path
                 sodipodi:nodetypes="cccccc"
                 id="path5719"
                 d="M 372.44468,534.97191 L 373.97044,533.44615 C 373.99737,533.37876 373.977,533.08858 373.62587,533.10158 L 372.10011,534.62734 L 372.44468,534.97191 L 372.44468,534.97191 z "
                 style="fill:none;fill-rule:evenodd;stroke:black;stroke-width:0.31299999;stroke-linecap:butt;stroke-linejoin:miter;stroke-miterlimit:4;stroke-dasharray:none;stroke-opacity:1" />
              <path
                 sodipodi:nodetypes="cccccc"
                 id="path5721"
                 d="M 372.39908,534.9047 L 370.87332,533.37894 C 370.84639,533.31155 370.86676,533.02137 371.21789,533.03437 L 372.74365,534.56013 L 372.39908,534.9047 L 372.39908,534.9047 z "
                 style="fill:none;fill-rule:evenodd;stroke:black;stroke-width:0.31299999;stroke-linecap:butt;stroke-linejoin:miter;stroke-miterlimit:4;stroke-dasharray:none;stroke-opacity:1" />
            </g>
            <g
               id="g5723"
               transform="matrix(0.707107,0.707107,-0.707107,0.707107,489.1008,-105.5333)">
              <path
                 sodipodi:nodetypes="cccccc"
                 id="path5725"
                 d="M 372.31753,537.54465 L 372.31753,533.12406 C 372.33896,532.98741 372.50341,532.59656 372.68247,533.12406 L 372.68247,537.54465 L 372.31753,537.54465 L 372.31753,537.54465 z "
                 style="fill:none;fill-rule:evenodd;stroke:black;stroke-width:0.53500003;stroke-linecap:butt;stroke-linejoin:miter;stroke-miterlimit:4;stroke-dasharray:none;stroke-opacity:1" />
              <path
                 sodipodi:nodetypes="cccccc"
                 id="path5727"
                 d="M 372.44468,534.97191 L 373.97044,533.44615 C 373.99737,533.37876 373.977,533.08858 373.62587,533.10158 L 372.10011,534.62734 L 372.44468,534.97191 L 372.44468,534.97191 z "
                 style="fill:none;fill-rule:evenodd;stroke:black;stroke-width:0.31299999;stroke-linecap:butt;stroke-linejoin:miter;stroke-miterlimit:4;stroke-dasharray:none;stroke-opacity:1" />
              <path
                 sodipodi:nodetypes="cccccc"
                 id="path5729"
                 d="M 372.39908,534.9047 L 370.87332,533.37894 C 370.84639,533.31155 370.86676,533.02137 371.21789,533.03437 L 372.74365,534.56013 L 372.39908,534.9047 L 372.39908,534.9047 z "
                 style="fill:none;fill-rule:evenodd;stroke:black;stroke-width:0.31299999;stroke-linecap:butt;stroke-linejoin:miter;stroke-miterlimit:4;stroke-dasharray:none;stroke-opacity:1" />
            </g>
            <g
               id="g5731"
               transform="matrix(-0.707107,0.707107,-0.707107,-0.707107,1016.116,654.4629)">
              <path
                 sodipodi:nodetypes="cccccc"
                 id="path5733"
                 d="M 372.31753,537.54465 L 372.31753,533.12406 C 372.33896,532.98741 372.50341,532.59656 372.68247,533.12406 L 372.68247,537.54465 L 372.31753,537.54465 L 372.31753,537.54465 z "
                 style="fill:none;fill-rule:evenodd;stroke:black;stroke-width:0.53500003;stroke-linecap:butt;stroke-linejoin:miter;stroke-miterlimit:4;stroke-dasharray:none;stroke-opacity:1" />
              <path
                 sodipodi:nodetypes="cccccc"
                 id="path5735"
                 d="M 372.44468,534.97191 L 373.97044,533.44615 C 373.99737,533.37876 373.977,533.08858 373.62587,533.10158 L 372.10011,534.62734 L 372.44468,534.97191 L 372.44468,534.97191 z "
                 style="fill:none;fill-rule:evenodd;stroke:black;stroke-width:0.31299999;stroke-linecap:butt;stroke-linejoin:miter;stroke-miterlimit:4;stroke-dasharray:none;stroke-opacity:1" />
              <path
                 sodipodi:nodetypes="cccccc"
                 id="path5737"
                 d="M 372.39908,534.9047 L 370.87332,533.37894 C 370.84639,533.31155 370.86676,533.02137 371.21789,533.03437 L 372.74365,534.56013 L 372.39908,534.9047 L 372.39908,534.9047 z "
                 style="fill:none;fill-rule:evenodd;stroke:black;stroke-width:0.31299999;stroke-linecap:butt;stroke-linejoin:miter;stroke-miterlimit:4;stroke-dasharray:none;stroke-opacity:1" />
            </g>
            <g
               id="g5739"
               transform="matrix(-0.707107,-0.707107,0.707107,-0.707107,255.5209,1181.478)">
              <path
                 sodipodi:nodetypes="cccccc"
                 id="path5741"
                 d="M 372.31753,537.54465 L 372.31753,533.12406 C 372.33896,532.98741 372.50341,532.59656 372.68247,533.12406 L 372.68247,537.54465 L 372.31753,537.54465 L 372.31753,537.54465 z "
                 style="fill:none;fill-rule:evenodd;stroke:black;stroke-width:0.53500003;stroke-linecap:butt;stroke-linejoin:miter;stroke-miterlimit:4;stroke-dasharray:none;stroke-opacity:1" />
              <path
                 sodipodi:nodetypes="cccccc"
                 id="path5743"
                 d="M 372.44468,534.97191 L 373.97044,533.44615 C 373.99737,533.37876 373.977,533.08858 373.62587,533.10158 L 372.10011,534.62734 L 372.44468,534.97191 L 372.44468,534.97191 z "
                 style="fill:none;fill-rule:evenodd;stroke:black;stroke-width:0.31299999;stroke-linecap:butt;stroke-linejoin:miter;stroke-miterlimit:4;stroke-dasharray:none;stroke-opacity:1" />
              <path
                 sodipodi:nodetypes="cccccc"
                 id="path5745"
                 d="M 372.39908,534.9047 L 370.87332,533.37894 C 370.84639,533.31155 370.86676,533.02137 371.21789,533.03437 L 372.74365,534.56013 L 372.39908,534.9047 L 372.39908,534.9047 z "
                 style="fill:none;fill-rule:evenodd;stroke:black;stroke-width:0.31299999;stroke-linecap:butt;stroke-linejoin:miter;stroke-miterlimit:4;stroke-dasharray:none;stroke-opacity:1" />
            </g>
          </g>
        </g>
      </g>
      <g
         transform="matrix(0.513269,0,0,0.483755,-50.6433,338.9188)"
         inkscape:label="Livello 1"
         id="g5747">
        <g
           id="g5749"
           inkscape:label="Livello 1"
           transform="matrix(1.161421,0,0,1.153155,157.1504,-257.7669)">
          <g
             transform="matrix(7.827886,0,0,8.049363,-2650.035,-3845.126)"
             inkscape:export-ydpi="300"
             inkscape:export-xdpi="300"
             inkscape:export-filename="F:\Qgis N_arrows\WEATHER\snow.png"
             id="g5751">
            <g
               id="g5753">
              <path
                 sodipodi:nodetypes="cccccc"
                 id="path5755"
                 d="M 372.31753,537.54465 L 372.31753,533.12406 C 372.33896,532.98741 372.50341,532.59656 372.68247,533.12406 L 372.68247,537.54465 L 372.31753,537.54465 L 372.31753,537.54465 z "
                 style="fill:none;fill-rule:evenodd;stroke:black;stroke-width:0.53500003;stroke-linecap:butt;stroke-linejoin:miter;stroke-miterlimit:4;stroke-dasharray:none;stroke-opacity:1" />
              <path
                 sodipodi:nodetypes="cccccc"
                 id="path5757"
                 d="M 372.44468,534.97191 L 373.97044,533.44615 C 373.99737,533.37876 373.977,533.08858 373.62587,533.10158 L 372.10011,534.62734 L 372.44468,534.97191 L 372.44468,534.97191 z "
                 style="fill:none;fill-rule:evenodd;stroke:black;stroke-width:0.31299999;stroke-linecap:butt;stroke-linejoin:miter;stroke-miterlimit:4;stroke-dasharray:none;stroke-opacity:1" />
              <path
                 sodipodi:nodetypes="cccccc"
                 id="path5759"
                 d="M 372.39908,534.9047 L 370.87332,533.37894 C 370.84639,533.31155 370.86676,533.02137 371.21789,533.03437 L 372.74365,534.56013 L 372.39908,534.9047 L 372.39908,534.9047 z "
                 style="fill:none;fill-rule:evenodd;stroke:black;stroke-width:0.31299999;stroke-linecap:butt;stroke-linejoin:miter;stroke-miterlimit:4;stroke-dasharray:none;stroke-opacity:1" />
            </g>
            <g
               id="g5761"
               transform="matrix(-1,0,0,-1,745.0114,1075.614)">
              <path
                 sodipodi:nodetypes="cccccc"
                 id="path5763"
                 d="M 372.31753,537.54465 L 372.31753,533.12406 C 372.33896,532.98741 372.50341,532.59656 372.68247,533.12406 L 372.68247,537.54465 L 372.31753,537.54465 L 372.31753,537.54465 z "
                 style="fill:none;fill-rule:evenodd;stroke:black;stroke-width:0.53500003;stroke-linecap:butt;stroke-linejoin:miter;stroke-miterlimit:4;stroke-dasharray:none;stroke-opacity:1" />
              <path
                 sodipodi:nodetypes="cccccc"
                 id="path5765"
                 d="M 372.44468,534.97191 L 373.97044,533.44615 C 373.99737,533.37876 373.977,533.08858 373.62587,533.10158 L 372.10011,534.62734 L 372.44468,534.97191 L 372.44468,534.97191 z "
                 style="fill:none;fill-rule:evenodd;stroke:black;stroke-width:0.31299999;stroke-linecap:butt;stroke-linejoin:miter;stroke-miterlimit:4;stroke-dasharray:none;stroke-opacity:1" />
              <path
                 sodipodi:nodetypes="cccccc"
                 id="path5767"
                 d="M 372.39908,534.9047 L 370.87332,533.37894 C 370.84639,533.31155 370.86676,533.02137 371.21789,533.03437 L 372.74365,534.56013 L 372.39908,534.9047 L 372.39908,534.9047 z "
                 style="fill:none;fill-rule:evenodd;stroke:black;stroke-width:0.31299999;stroke-linecap:butt;stroke-linejoin:miter;stroke-miterlimit:4;stroke-dasharray:none;stroke-opacity:1" />
            </g>
            <g
               id="g5769"
               transform="matrix(0,-1,1,0,-165.7601,910.2045)">
              <path
                 sodipodi:nodetypes="cccccc"
                 id="path5771"
                 d="M 372.31753,537.54465 L 372.31753,533.12406 C 372.33896,532.98741 372.50341,532.59656 372.68247,533.12406 L 372.68247,537.54465 L 372.31753,537.54465 L 372.31753,537.54465 z "
                 style="fill:none;fill-rule:evenodd;stroke:black;stroke-width:0.53500003;stroke-linecap:butt;stroke-linejoin:miter;stroke-miterlimit:4;stroke-dasharray:none;stroke-opacity:1" />
              <path
                 sodipodi:nodetypes="cccccc"
                 id="path5773"
                 d="M 372.44468,534.97191 L 373.97044,533.44615 C 373.99737,533.37876 373.977,533.08858 373.62587,533.10158 L 372.10011,534.62734 L 372.44468,534.97191 L 372.44468,534.97191 z "
                 style="fill:none;fill-rule:evenodd;stroke:black;stroke-width:0.31299999;stroke-linecap:butt;stroke-linejoin:miter;stroke-miterlimit:4;stroke-dasharray:none;stroke-opacity:1" />
              <path
                 sodipodi:nodetypes="cccccc"
                 id="path5775"
                 d="M 372.39908,534.9047 L 370.87332,533.37894 C 370.84639,533.31155 370.86676,533.02137 371.21789,533.03437 L 372.74365,534.56013 L 372.39908,534.9047 L 372.39908,534.9047 z "
                 style="fill:none;fill-rule:evenodd;stroke:black;stroke-width:0.31299999;stroke-linecap:butt;stroke-linejoin:miter;stroke-miterlimit:4;stroke-dasharray:none;stroke-opacity:1" />
            </g>
            <g
               id="g5777"
               transform="matrix(0,1,-1,0,910.7155,165.2112)">
              <path
                 sodipodi:nodetypes="cccccc"
                 id="path5779"
                 d="M 372.31753,537.54465 L 372.31753,533.12406 C 372.33896,532.98741 372.50341,532.59656 372.68247,533.12406 L 372.68247,537.54465 L 372.31753,537.54465 L 372.31753,537.54465 z "
                 style="fill:none;fill-rule:evenodd;stroke:black;stroke-width:0.53500003;stroke-linecap:butt;stroke-linejoin:miter;stroke-miterlimit:4;stroke-dasharray:none;stroke-opacity:1" />
              <path
                 sodipodi:nodetypes="cccccc"
                 id="path5781"
                 d="M 372.44468,534.97191 L 373.97044,533.44615 C 373.99737,533.37876 373.977,533.08858 373.62587,533.10158 L 372.10011,534.62734 L 372.44468,534.97191 L 372.44468,534.97191 z "
                 style="fill:none;fill-rule:evenodd;stroke:black;stroke-width:0.31299999;stroke-linecap:butt;stroke-linejoin:miter;stroke-miterlimit:4;stroke-dasharray:none;stroke-opacity:1" />
              <path
                 sodipodi:nodetypes="cccccc"
                 id="path5783"
                 d="M 372.39908,534.9047 L 370.87332,533.37894 C 370.84639,533.31155 370.86676,533.02137 371.21789,533.03437 L 372.74365,534.56013 L 372.39908,534.9047 L 372.39908,534.9047 z "
                 style="fill:none;fill-rule:evenodd;stroke:black;stroke-width:0.31299999;stroke-linecap:butt;stroke-linejoin:miter;stroke-miterlimit:4;stroke-dasharray:none;stroke-opacity:1" />
            </g>
            <g
               id="g5785"
               transform="matrix(0.707107,-0.707107,0.707107,0.707107,-270.9847,421.1091)">
              <path
                 sodipodi:nodetypes="cccccc"
                 id="path5787"
                 d="M 372.31753,537.54465 L 372.31753,533.12406 C 372.33896,532.98741 372.50341,532.59656 372.68247,533.12406 L 372.68247,537.54465 L 372.31753,537.54465 L 372.31753,537.54465 z "
                 style="fill:none;fill-rule:evenodd;stroke:black;stroke-width:0.53500003;stroke-linecap:butt;stroke-linejoin:miter;stroke-miterlimit:4;stroke-dasharray:none;stroke-opacity:1" />
              <path
                 sodipodi:nodetypes="cccccc"
                 id="path5789"
                 d="M 372.44468,534.97191 L 373.97044,533.44615 C 373.99737,533.37876 373.977,533.08858 373.62587,533.10158 L 372.10011,534.62734 L 372.44468,534.97191 L 372.44468,534.97191 z "
                 style="fill:none;fill-rule:evenodd;stroke:black;stroke-width:0.31299999;stroke-linecap:butt;stroke-linejoin:miter;stroke-miterlimit:4;stroke-dasharray:none;stroke-opacity:1" />
              <path
                 sodipodi:nodetypes="cccccc"
                 id="path5791"
                 d="M 372.39908,534.9047 L 370.87332,533.37894 C 370.84639,533.31155 370.86676,533.02137 371.21789,533.03437 L 372.74365,534.56013 L 372.39908,534.9047 L 372.39908,534.9047 z "
                 style="fill:none;fill-rule:evenodd;stroke:black;stroke-width:0.31299999;stroke-linecap:butt;stroke-linejoin:miter;stroke-miterlimit:4;stroke-dasharray:none;stroke-opacity:1" />
            </g>
            <g
               id="g5793"
               transform="matrix(0.707107,0.707107,-0.707107,0.707107,489.1008,-105.5333)">
              <path
                 sodipodi:nodetypes="cccccc"
                 id="path5795"
                 d="M 372.31753,537.54465 L 372.31753,533.12406 C 372.33896,532.98741 372.50341,532.59656 372.68247,533.12406 L 372.68247,537.54465 L 372.31753,537.54465 L 372.31753,537.54465 z "
                 style="fill:none;fill-rule:evenodd;stroke:black;stroke-width:0.53500003;stroke-linecap:butt;stroke-linejoin:miter;stroke-miterlimit:4;stroke-dasharray:none;stroke-opacity:1" />
              <path
                 sodipodi:nodetypes="cccccc"
                 id="path5797"
                 d="M 372.44468,534.97191 L 373.97044,533.44615 C 373.99737,533.37876 373.977,533.08858 373.62587,533.10158 L 372.10011,534.62734 L 372.44468,534.97191 L 372.44468,534.97191 z "
                 style="fill:none;fill-rule:evenodd;stroke:black;stroke-width:0.31299999;stroke-linecap:butt;stroke-linejoin:miter;stroke-miterlimit:4;stroke-dasharray:none;stroke-opacity:1" />
              <path
                 sodipodi:nodetypes="cccccc"
                 id="path5799"
                 d="M 372.39908,534.9047 L 370.87332,533.37894 C 370.84639,533.31155 370.86676,533.02137 371.21789,533.03437 L 372.74365,534.56013 L 372.39908,534.9047 L 372.39908,534.9047 z "
                 style="fill:none;fill-rule:evenodd;stroke:black;stroke-width:0.31299999;stroke-linecap:butt;stroke-linejoin:miter;stroke-miterlimit:4;stroke-dasharray:none;stroke-opacity:1" />
            </g>
            <g
               id="g5801"
               transform="matrix(-0.707107,0.707107,-0.707107,-0.707107,1016.116,654.4629)">
              <path
                 sodipodi:nodetypes="cccccc"
                 id="path5803"
                 d="M 372.31753,537.54465 L 372.31753,533.12406 C 372.33896,532.98741 372.50341,532.59656 372.68247,533.12406 L 372.68247,537.54465 L 372.31753,537.54465 L 372.31753,537.54465 z "
                 style="fill:none;fill-rule:evenodd;stroke:black;stroke-width:0.53500003;stroke-linecap:butt;stroke-linejoin:miter;stroke-miterlimit:4;stroke-dasharray:none;stroke-opacity:1" />
              <path
                 sodipodi:nodetypes="cccccc"
                 id="path5805"
                 d="M 372.44468,534.97191 L 373.97044,533.44615 C 373.99737,533.37876 373.977,533.08858 373.62587,533.10158 L 372.10011,534.62734 L 372.44468,534.97191 L 372.44468,534.97191 z "
                 style="fill:none;fill-rule:evenodd;stroke:black;stroke-width:0.31299999;stroke-linecap:butt;stroke-linejoin:miter;stroke-miterlimit:4;stroke-dasharray:none;stroke-opacity:1" />
              <path
                 sodipodi:nodetypes="cccccc"
                 id="path5807"
                 d="M 372.39908,534.9047 L 370.87332,533.37894 C 370.84639,533.31155 370.86676,533.02137 371.21789,533.03437 L 372.74365,534.56013 L 372.39908,534.9047 L 372.39908,534.9047 z "
                 style="fill:none;fill-rule:evenodd;stroke:black;stroke-width:0.31299999;stroke-linecap:butt;stroke-linejoin:miter;stroke-miterlimit:4;stroke-dasharray:none;stroke-opacity:1" />
            </g>
            <g
               id="g5809"
               transform="matrix(-0.707107,-0.707107,0.707107,-0.707107,255.5209,1181.478)">
              <path
                 sodipodi:nodetypes="cccccc"
                 id="path5811"
                 d="M 372.31753,537.54465 L 372.31753,533.12406 C 372.33896,532.98741 372.50341,532.59656 372.68247,533.12406 L 372.68247,537.54465 L 372.31753,537.54465 L 372.31753,537.54465 z "
                 style="fill:none;fill-rule:evenodd;stroke:black;stroke-width:0.53500003;stroke-linecap:butt;stroke-linejoin:miter;stroke-miterlimit:4;stroke-dasharray:none;stroke-opacity:1" />
              <path
                 sodipodi:nodetypes="cccccc"
                 id="path5813"
                 d="M 372.44468,534.97191 L 373.97044,533.44615 C 373.99737,533.37876 373.977,533.08858 373.62587,533.10158 L 372.10011,534.62734 L 372.44468,534.97191 L 372.44468,534.97191 z "
                 style="fill:none;fill-rule:evenodd;stroke:black;stroke-width:0.31299999;stroke-linecap:butt;stroke-linejoin:miter;stroke-miterlimit:4;stroke-dasharray:none;stroke-opacity:1" />
              <path
                 sodipodi:nodetypes="cccccc"
                 id="path5815"
                 d="M 372.39908,534.9047 L 370.87332,533.37894 C 370.84639,533.31155 370.86676,533.02137 371.21789,533.03437 L 372.74365,534.56013 L 372.39908,534.9047 L 372.39908,534.9047 z "
                 style="fill:none;fill-rule:evenodd;stroke:black;stroke-width:0.31299999;stroke-linecap:butt;stroke-linejoin:miter;stroke-miterlimit:4;stroke-dasharray:none;stroke-opacity:1" />
            </g>
          </g>
        </g>
      </g>
      <g
         transform="matrix(0.513269,0,0,0.483755,12.49123,405.5889)"
         inkscape:label="Livello 1"
         id="g5817">
        <g
           id="g5819"
           inkscape:label="Livello 1"
           transform="matrix(1.161421,0,0,1.153155,157.1504,-257.7669)">
          <g
             transform="matrix(7.827886,0,0,8.049363,-2650.035,-3845.126)"
             inkscape:export-ydpi="300"
             inkscape:export-xdpi="300"
             inkscape:export-filename="F:\Qgis N_arrows\WEATHER\snow.png"
             id="g5821">
            <g
               id="g5823">
              <path
                 sodipodi:nodetypes="cccccc"
                 id="path5825"
                 d="M 372.31753,537.54465 L 372.31753,533.12406 C 372.33896,532.98741 372.50341,532.59656 372.68247,533.12406 L 372.68247,537.54465 L 372.31753,537.54465 L 372.31753,537.54465 z "
                 style="fill:none;fill-rule:evenodd;stroke:black;stroke-width:0.53500003;stroke-linecap:butt;stroke-linejoin:miter;stroke-miterlimit:4;stroke-dasharray:none;stroke-opacity:1" />
              <path
                 sodipodi:nodetypes="cccccc"
                 id="path5827"
                 d="M 372.44468,534.97191 L 373.97044,533.44615 C 373.99737,533.37876 373.977,533.08858 373.62587,533.10158 L 372.10011,534.62734 L 372.44468,534.97191 L 372.44468,534.97191 z "
                 style="fill:none;fill-rule:evenodd;stroke:black;stroke-width:0.31299999;stroke-linecap:butt;stroke-linejoin:miter;stroke-miterlimit:4;stroke-dasharray:none;stroke-opacity:1" />
              <path
                 sodipodi:nodetypes="cccccc"
                 id="path5829"
                 d="M 372.39908,534.9047 L 370.87332,533.37894 C 370.84639,533.31155 370.86676,533.02137 371.21789,533.03437 L 372.74365,534.56013 L 372.39908,534.9047 L 372.39908,534.9047 z "
                 style="fill:none;fill-rule:evenodd;stroke:black;stroke-width:0.31299999;stroke-linecap:butt;stroke-linejoin:miter;stroke-miterlimit:4;stroke-dasharray:none;stroke-opacity:1" />
            </g>
            <g
               id="g5831"
               transform="matrix(-1,0,0,-1,745.0114,1075.614)">
              <path
                 sodipodi:nodetypes="cccccc"
                 id="path5833"
                 d="M 372.31753,537.54465 L 372.31753,533.12406 C 372.33896,532.98741 372.50341,532.59656 372.68247,533.12406 L 372.68247,537.54465 L 372.31753,537.54465 L 372.31753,537.54465 z "
                 style="fill:none;fill-rule:evenodd;stroke:black;stroke-width:0.53500003;stroke-linecap:butt;stroke-linejoin:miter;stroke-miterlimit:4;stroke-dasharray:none;stroke-opacity:1" />
              <path
                 sodipodi:nodetypes="cccccc"
                 id="path5835"
                 d="M 372.44468,534.97191 L 373.97044,533.44615 C 373.99737,533.37876 373.977,533.08858 373.62587,533.10158 L 372.10011,534.62734 L 372.44468,534.97191 L 372.44468,534.97191 z "
                 style="fill:none;fill-rule:evenodd;stroke:black;stroke-width:0.31299999;stroke-linecap:butt;stroke-linejoin:miter;stroke-miterlimit:4;stroke-dasharray:none;stroke-opacity:1" />
              <path
                 sodipodi:nodetypes="cccccc"
                 id="path5837"
                 d="M 372.39908,534.9047 L 370.87332,533.37894 C 370.84639,533.31155 370.86676,533.02137 371.21789,533.03437 L 372.74365,534.56013 L 372.39908,534.9047 L 372.39908,534.9047 z "
                 style="fill:none;fill-rule:evenodd;stroke:black;stroke-width:0.31299999;stroke-linecap:butt;stroke-linejoin:miter;stroke-miterlimit:4;stroke-dasharray:none;stroke-opacity:1" />
            </g>
            <g
               id="g5839"
               transform="matrix(0,-1,1,0,-165.7601,910.2045)">
              <path
                 sodipodi:nodetypes="cccccc"
                 id="path5841"
                 d="M 372.31753,537.54465 L 372.31753,533.12406 C 372.33896,532.98741 372.50341,532.59656 372.68247,533.12406 L 372.68247,537.54465 L 372.31753,537.54465 L 372.31753,537.54465 z "
                 style="fill:none;fill-rule:evenodd;stroke:black;stroke-width:0.53500003;stroke-linecap:butt;stroke-linejoin:miter;stroke-miterlimit:4;stroke-dasharray:none;stroke-opacity:1" />
              <path
                 sodipodi:nodetypes="cccccc"
                 id="path5843"
                 d="M 372.44468,534.97191 L 373.97044,533.44615 C 373.99737,533.37876 373.977,533.08858 373.62587,533.10158 L 372.10011,534.62734 L 372.44468,534.97191 L 372.44468,534.97191 z "
                 style="fill:none;fill-rule:evenodd;stroke:black;stroke-width:0.31299999;stroke-linecap:butt;stroke-linejoin:miter;stroke-miterlimit:4;stroke-dasharray:none;stroke-opacity:1" />
              <path
                 sodipodi:nodetypes="cccccc"
                 id="path5845"
                 d="M 372.39908,534.9047 L 370.87332,533.37894 C 370.84639,533.31155 370.86676,533.02137 371.21789,533.03437 L 372.74365,534.56013 L 372.39908,534.9047 L 372.39908,534.9047 z "
                 style="fill:none;fill-rule:evenodd;stroke:black;stroke-width:0.31299999;stroke-linecap:butt;stroke-linejoin:miter;stroke-miterlimit:4;stroke-dasharray:none;stroke-opacity:1" />
            </g>
            <g
               id="g5847"
               transform="matrix(0,1,-1,0,910.7155,165.2112)">
              <path
                 sodipodi:nodetypes="cccccc"
                 id="path5849"
                 d="M 372.31753,537.54465 L 372.31753,533.12406 C 372.33896,532.98741 372.50341,532.59656 372.68247,533.12406 L 372.68247,537.54465 L 372.31753,537.54465 L 372.31753,537.54465 z "
                 style="fill:none;fill-rule:evenodd;stroke:black;stroke-width:0.53500003;stroke-linecap:butt;stroke-linejoin:miter;stroke-miterlimit:4;stroke-dasharray:none;stroke-opacity:1" />
              <path
                 sodipodi:nodetypes="cccccc"
                 id="path5851"
                 d="M 372.44468,534.97191 L 373.97044,533.44615 C 373.99737,533.37876 373.977,533.08858 373.62587,533.10158 L 372.10011,534.62734 L 372.44468,534.97191 L 372.44468,534.97191 z "
                 style="fill:none;fill-rule:evenodd;stroke:black;stroke-width:0.31299999;stroke-linecap:butt;stroke-linejoin:miter;stroke-miterlimit:4;stroke-dasharray:none;stroke-opacity:1" />
              <path
                 sodipodi:nodetypes="cccccc"
                 id="path5853"
                 d="M 372.39908,534.9047 L 370.87332,533.37894 C 370.84639,533.31155 370.86676,533.02137 371.21789,533.03437 L 372.74365,534.56013 L 372.39908,534.9047 L 372.39908,534.9047 z "
                 style="fill:none;fill-rule:evenodd;stroke:black;stroke-width:0.31299999;stroke-linecap:butt;stroke-linejoin:miter;stroke-miterlimit:4;stroke-dasharray:none;stroke-opacity:1" />
            </g>
            <g
               id="g5855"
               transform="matrix(0.707107,-0.707107,0.707107,0.707107,-270.9847,421.1091)">
              <path
                 sodipodi:nodetypes="cccccc"
                 id="path5857"
                 d="M 372.31753,537.54465 L 372.31753,533.12406 C 372.33896,532.98741 372.50341,532.59656 372.68247,533.12406 L 372.68247,537.54465 L 372.31753,537.54465 L 372.31753,537.54465 z "
                 style="fill:none;fill-rule:evenodd;stroke:black;stroke-width:0.53500003;stroke-linecap:butt;stroke-linejoin:miter;stroke-miterlimit:4;stroke-dasharray:none;stroke-opacity:1" />
              <path
                 sodipodi:nodetypes="cccccc"
                 id="path5859"
                 d="M 372.44468,534.97191 L 373.97044,533.44615 C 373.99737,533.37876 373.977,533.08858 373.62587,533.10158 L 372.10011,534.62734 L 372.44468,534.97191 L 372.44468,534.97191 z "
                 style="fill:none;fill-rule:evenodd;stroke:black;stroke-width:0.31299999;stroke-linecap:butt;stroke-linejoin:miter;stroke-miterlimit:4;stroke-dasharray:none;stroke-opacity:1" />
              <path
                 sodipodi:nodetypes="cccccc"
                 id="path5861"
                 d="M 372.39908,534.9047 L 370.87332,533.37894 C 370.84639,533.31155 370.86676,533.02137 371.21789,533.03437 L 372.74365,534.56013 L 372.39908,534.9047 L 372.39908,534.9047 z "
                 style="fill:none;fill-rule:evenodd;stroke:black;stroke-width:0.31299999;stroke-linecap:butt;stroke-linejoin:miter;stroke-miterlimit:4;stroke-dasharray:none;stroke-opacity:1" />
            </g>
            <g
               id="g5863"
               transform="matrix(0.707107,0.707107,-0.707107,0.707107,489.1008,-105.5333)">
              <path
                 sodipodi:nodetypes="cccccc"
                 id="path5865"
                 d="M 372.31753,537.54465 L 372.31753,533.12406 C 372.33896,532.98741 372.50341,532.59656 372.68247,533.12406 L 372.68247,537.54465 L 372.31753,537.54465 L 372.31753,537.54465 z "
                 style="fill:none;fill-rule:evenodd;stroke:black;stroke-width:0.53500003;stroke-linecap:butt;stroke-linejoin:miter;stroke-miterlimit:4;stroke-dasharray:none;stroke-opacity:1" />
              <path
                 sodipodi:nodetypes="cccccc"
                 id="path5867"
                 d="M 372.44468,534.97191 L 373.97044,533.44615 C 373.99737,533.37876 373.977,533.08858 373.62587,533.10158 L 372.10011,534.62734 L 372.44468,534.97191 L 372.44468,534.97191 z "
                 style="fill:none;fill-rule:evenodd;stroke:black;stroke-width:0.31299999;stroke-linecap:butt;stroke-linejoin:miter;stroke-miterlimit:4;stroke-dasharray:none;stroke-opacity:1" />
              <path
                 sodipodi:nodetypes="cccccc"
                 id="path5869"
                 d="M 372.39908,534.9047 L 370.87332,533.37894 C 370.84639,533.31155 370.86676,533.02137 371.21789,533.03437 L 372.74365,534.56013 L 372.39908,534.9047 L 372.39908,534.9047 z "
                 style="fill:none;fill-rule:evenodd;stroke:black;stroke-width:0.31299999;stroke-linecap:butt;stroke-linejoin:miter;stroke-miterlimit:4;stroke-dasharray:none;stroke-opacity:1" />
            </g>
            <g
               id="g5871"
               transform="matrix(-0.707107,0.707107,-0.707107,-0.707107,1016.116,654.4629)">
              <path
                 sodipodi:nodetypes="cccccc"
                 id="path5873"
                 d="M 372.31753,537.54465 L 372.31753,533.12406 C 372.33896,532.98741 372.50341,532.59656 372.68247,533.12406 L 372.68247,537.54465 L 372.31753,537.54465 L 372.31753,537.54465 z "
                 style="fill:none;fill-rule:evenodd;stroke:black;stroke-width:0.53500003;stroke-linecap:butt;stroke-linejoin:miter;stroke-miterlimit:4;stroke-dasharray:none;stroke-opacity:1" />
              <path
                 sodipodi:nodetypes="cccccc"
                 id="path5875"
                 d="M 372.44468,534.97191 L 373.97044,533.44615 C 373.99737,533.37876 373.977,533.08858 373.62587,533.10158 L 372.10011,534.62734 L 372.44468,534.97191 L 372.44468,534.97191 z "
                 style="fill:none;fill-rule:evenodd;stroke:black;stroke-width:0.31299999;stroke-linecap:butt;stroke-linejoin:miter;stroke-miterlimit:4;stroke-dasharray:none;stroke-opacity:1" />
              <path
                 sodipodi:nodetypes="cccccc"
                 id="path5877"
                 d="M 372.39908,534.9047 L 370.87332,533.37894 C 370.84639,533.31155 370.86676,533.02137 371.21789,533.03437 L 372.74365,534.56013 L 372.39908,534.9047 L 372.39908,534.9047 z "
                 style="fill:none;fill-rule:evenodd;stroke:black;stroke-width:0.31299999;stroke-linecap:butt;stroke-linejoin:miter;stroke-miterlimit:4;stroke-dasharray:none;stroke-opacity:1" />
            </g>
            <g
               id="g5879"
               transform="matrix(-0.707107,-0.707107,0.707107,-0.707107,255.5209,1181.478)">
              <path
                 sodipodi:nodetypes="cccccc"
                 id="path5881"
                 d="M 372.31753,537.54465 L 372.31753,533.12406 C 372.33896,532.98741 372.50341,532.59656 372.68247,533.12406 L 372.68247,537.54465 L 372.31753,537.54465 L 372.31753,537.54465 z "
                 style="fill:none;fill-rule:evenodd;stroke:black;stroke-width:0.53500003;stroke-linecap:butt;stroke-linejoin:miter;stroke-miterlimit:4;stroke-dasharray:none;stroke-opacity:1" />
              <path
                 sodipodi:nodetypes="cccccc"
                 id="path5883"
                 d="M 372.44468,534.97191 L 373.97044,533.44615 C 373.99737,533.37876 373.977,533.08858 373.62587,533.10158 L 372.10011,534.62734 L 372.44468,534.97191 L 372.44468,534.97191 z "
                 style="fill:none;fill-rule:evenodd;stroke:black;stroke-width:0.31299999;stroke-linecap:butt;stroke-linejoin:miter;stroke-miterlimit:4;stroke-dasharray:none;stroke-opacity:1" />
              <path
                 sodipodi:nodetypes="cccccc"
                 id="path5885"
                 d="M 372.39908,534.9047 L 370.87332,533.37894 C 370.84639,533.31155 370.86676,533.02137 371.21789,533.03437 L 372.74365,534.56013 L 372.39908,534.9047 L 372.39908,534.9047 z "
                 style="fill:none;fill-rule:evenodd;stroke:black;stroke-width:0.31299999;stroke-linecap:butt;stroke-linejoin:miter;stroke-miterlimit:4;stroke-dasharray:none;stroke-opacity:1" />
            </g>
          </g>
        </g>
      </g>
    </g>
  </g>
</svg>
