<?xml version="1.0" encoding="UTF-8" standalone="no"?>
<!-- Generator: Tilo Wuetherich, Landesarchiv Baden-Wuerttemberg SVG
  Version: 6.00 Build 51448 -->

<svg
   xmlns:dc="http://purl.org/dc/elements/1.1/"
   xmlns:cc="http://creativecommons.org/ns#"
   xmlns:rdf="http://www.w3.org/1999/02/22-rdf-syntax-ns#"
   xmlns:svg="http://www.w3.org/2000/svg"
   xmlns="http://www.w3.org/2000/svg"
   xmlns:sodipodi="http://sodipodi.sourceforge.net/DTD/sodipodi-0.dtd"
   xmlns:inkscape="http://www.inkscape.org/namespaces/inkscape"
   version="1.1"
   id="Ebene_1"
   width="20"
   height="20"
   viewBox="0 0 20 20"
   overflow="visible"
   enable-background="new 0 0 20 20"
   xml:space="preserve"
   inkscape:version="0.47 r22583"
   sodipodi:docname="10.2.03.svg"><metadata
   id="metadata13"><rdf:RDF><cc:Work
       rdf:about=""><dc:format>image/svg+xml</dc:format><dc:type
         rdf:resource="http://purl.org/dc/dcmitype/StillImage" /><dc:title></dc:title></cc:Work></rdf:RDF></metadata><defs
   id="defs11"><inkscape:perspective
     sodipodi:type="inkscape:persp3d"
     inkscape:vp_x="0 : 10 : 1"
     inkscape:vp_y="0 : 1000 : 0"
     inkscape:vp_z="20 : 10 : 1"
     inkscape:persp3d-origin="10 : 6.6666667 : 1"
     id="perspective15" /><inkscape:perspective
     id="perspective14762"
     inkscape:persp3d-origin="0.5 : 0.33333333 : 1"
     inkscape:vp_z="1 : 0.5 : 1"
     inkscape:vp_y="0 : 1000 : 0"
     inkscape:vp_x="0 : 0.5 : 1"
     sodipodi:type="inkscape:persp3d" /><inkscape:perspective
     id="perspective14812"
     inkscape:persp3d-origin="0.5 : 0.33333333 : 1"
     inkscape:vp_z="1 : 0.5 : 1"
     inkscape:vp_y="0 : 1000 : 0"
     inkscape:vp_x="0 : 0.5 : 1"
     sodipodi:type="inkscape:persp3d" /><inkscape:perspective
     id="perspective14893"
     inkscape:persp3d-origin="0.5 : 0.33333333 : 1"
     inkscape:vp_z="1 : 0.5 : 1"
     inkscape:vp_y="0 : 1000 : 0"
     inkscape:vp_x="0 : 0.5 : 1"
     sodipodi:type="inkscape:persp3d" /><inkscape:perspective
     id="perspective14974"
     inkscape:persp3d-origin="0.5 : 0.33333333 : 1"
     inkscape:vp_z="1 : 0.5 : 1"
     inkscape:vp_y="0 : 1000 : 0"
     inkscape:vp_x="0 : 0.5 : 1"
     sodipodi:type="inkscape:persp3d" /><inkscape:perspective
     id="perspective14999"
     inkscape:persp3d-origin="0.5 : 0.33333333 : 1"
     inkscape:vp_z="1 : 0.5 : 1"
     inkscape:vp_y="0 : 1000 : 0"
     inkscape:vp_x="0 : 0.5 : 1"
     sodipodi:type="inkscape:persp3d" /><inkscape:perspective
     id="perspective15024"
     inkscape:persp3d-origin="0.5 : 0.33333333 : 1"
     inkscape:vp_z="1 : 0.5 : 1"
     inkscape:vp_y="0 : 1000 : 0"
     inkscape:vp_x="0 : 0.5 : 1"
     sodipodi:type="inkscape:persp3d" /><inkscape:perspective
     id="perspective15067"
     inkscape:persp3d-origin="0.5 : 0.33333333 : 1"
     inkscape:vp_z="1 : 0.5 : 1"
     inkscape:vp_y="0 : 1000 : 0"
     inkscape:vp_x="0 : 0.5 : 1"
     sodipodi:type="inkscape:persp3d" /><inkscape:perspective
     id="perspective15110"
     inkscape:persp3d-origin="0.5 : 0.33333333 : 1"
     inkscape:vp_z="1 : 0.5 : 1"
     inkscape:vp_y="0 : 1000 : 0"
     inkscape:vp_x="0 : 0.5 : 1"
     sodipodi:type="inkscape:persp3d" /><inkscape:perspective
     id="perspective15169"
     inkscape:persp3d-origin="0.5 : 0.33333333 : 1"
     inkscape:vp_z="1 : 0.5 : 1"
     inkscape:vp_y="0 : 1000 : 0"
     inkscape:vp_x="0 : 0.5 : 1"
     sodipodi:type="inkscape:persp3d" /><inkscape:perspective
     id="perspective15223"
     inkscape:persp3d-origin="0.5 : 0.33333333 : 1"
     inkscape:vp_z="1 : 0.5 : 1"
     inkscape:vp_y="0 : 1000 : 0"
     inkscape:vp_x="0 : 0.5 : 1"
     sodipodi:type="inkscape:persp3d" /><inkscape:perspective
     id="perspective15273"
     inkscape:persp3d-origin="0.5 : 0.33333333 : 1"
     inkscape:vp_z="1 : 0.5 : 1"
     inkscape:vp_y="0 : 1000 : 0"
     inkscape:vp_x="0 : 0.5 : 1"
     sodipodi:type="inkscape:persp3d" /><inkscape:perspective
     id="perspective16656"
     inkscape:persp3d-origin="0.5 : 0.33333333 : 1"
     inkscape:vp_z="1 : 0.5 : 1"
     inkscape:vp_y="0 : 1000 : 0"
     inkscape:vp_x="0 : 0.5 : 1"
     sodipodi:type="inkscape:persp3d" /><inkscape:perspective
     id="perspective16706"
     inkscape:persp3d-origin="0.5 : 0.33333333 : 1"
     inkscape:vp_z="1 : 0.5 : 1"
     inkscape:vp_y="0 : 1000 : 0"
     inkscape:vp_x="0 : 0.5 : 1"
     sodipodi:type="inkscape:persp3d" /><inkscape:perspective
     id="perspective16868"
     inkscape:persp3d-origin="0.5 : 0.33333333 : 1"
     inkscape:vp_z="1 : 0.5 : 1"
     inkscape:vp_y="0 : 1000 : 0"
     inkscape:vp_x="0 : 0.5 : 1"
     sodipodi:type="inkscape:persp3d" /><inkscape:perspective
     id="perspective16918"
     inkscape:persp3d-origin="0.5 : 0.33333333 : 1"
     inkscape:vp_z="1 : 0.5 : 1"
     inkscape:vp_y="0 : 1000 : 0"
     inkscape:vp_x="0 : 0.5 : 1"
     sodipodi:type="inkscape:persp3d" /><inkscape:perspective
     id="perspective19890"
     inkscape:persp3d-origin="0.5 : 0.33333333 : 1"
     inkscape:vp_z="1 : 0.5 : 1"
     inkscape:vp_y="0 : 1000 : 0"
     inkscape:vp_x="0 : 0.5 : 1"
     sodipodi:type="inkscape:persp3d" /><inkscape:perspective
     id="perspective19944"
     inkscape:persp3d-origin="0.5 : 0.33333333 : 1"
     inkscape:vp_z="1 : 0.5 : 1"
     inkscape:vp_y="0 : 1000 : 0"
     inkscape:vp_x="0 : 0.5 : 1"
     sodipodi:type="inkscape:persp3d" /><inkscape:perspective
     id="perspective20014"
     inkscape:persp3d-origin="0.5 : 0.33333333 : 1"
     inkscape:vp_z="1 : 0.5 : 1"
     inkscape:vp_y="0 : 1000 : 0"
     inkscape:vp_x="0 : 0.5 : 1"
     sodipodi:type="inkscape:persp3d" /><inkscape:perspective
     id="perspective20076"
     inkscape:persp3d-origin="0.5 : 0.33333333 : 1"
     inkscape:vp_z="1 : 0.5 : 1"
     inkscape:vp_y="0 : 1000 : 0"
     inkscape:vp_x="0 : 0.5 : 1"
     sodipodi:type="inkscape:persp3d" /><inkscape:perspective
     id="perspective25708"
     inkscape:persp3d-origin="0.5 : 0.33333333 : 1"
     inkscape:vp_z="1 : 0.5 : 1"
     inkscape:vp_y="0 : 1000 : 0"
     inkscape:vp_x="0 : 0.5 : 1"
     sodipodi:type="inkscape:persp3d" /><inkscape:perspective
     id="perspective25775"
     inkscape:persp3d-origin="0.5 : 0.33333333 : 1"
     inkscape:vp_z="1 : 0.5 : 1"
     inkscape:vp_y="0 : 1000 : 0"
     inkscape:vp_x="0 : 0.5 : 1"
     sodipodi:type="inkscape:persp3d" /><inkscape:perspective
     id="perspective25818"
     inkscape:persp3d-origin="0.5 : 0.33333333 : 1"
     inkscape:vp_z="1 : 0.5 : 1"
     inkscape:vp_y="0 : 1000 : 0"
     inkscape:vp_x="0 : 0.5 : 1"
     sodipodi:type="inkscape:persp3d" /><inkscape:perspective
     id="perspective25861"
     inkscape:persp3d-origin="0.5 : 0.33333333 : 1"
     inkscape:vp_z="1 : 0.5 : 1"
     inkscape:vp_y="0 : 1000 : 0"
     inkscape:vp_x="0 : 0.5 : 1"
     sodipodi:type="inkscape:persp3d" /></defs><sodipodi:namedview
   pagecolor="#ffffff"
   bordercolor="#666666"
   borderopacity="1"
   objecttolerance="10"
   gridtolerance="10"
   guidetolerance="10"
   inkscape:pageopacity="0"
   inkscape:pageshadow="2"
   inkscape:window-width="1024"
   inkscape:window-height="695"
   id="namedview9"
   showgrid="false"
   inkscape:zoom="11.8"
   inkscape:cx="9.0620488"
   inkscape:cy="10"
   inkscape:window-x="0"
   inkscape:window-y="24"
   inkscape:window-maximized="1"
   inkscape:current-layer="Ebene_1" />
  
  
  
<path
   id="path21855"
   style="fill:#ffffff;fill-opacity:1;fill-rule:nonzero;stroke:none"
   d="m 9.7283483,10.79375 c 0.2225,-0.0625 0.4549997,-0.09625 0.6962497,-0.09625 1.74125,0 3.94375,2.5525 3.885,4.6975 -0.0575,2.14875 -1.68125,4.35 -4.8712497,4.35 -3.18875,0 -5.625,-2.0275 -5.625,-5.8 0,-3.7725 5.21875,-8.2975 5.68375,-9.04875 0.46125,-0.75625 0.7512497,-2.9 -1.10375,-4.64125 0,0 2.0524997,1.7075 2.6112497,3.82875 0.755,2.84875 0.0625,5.49125 -0.67375,6.0975 l -0.6024997,0.6125" /><g
   id="g25926"
   transform="translate(0.93795112,0)"><path
     d="m 9.0626738,0.316875 c 1.2062502,0 3.1062502,5.09625 2.3787502,5.95 -0.7275,0.8525 0.915,0.70625 0.395,3.43125 -0.52,2.725 -1.435,3.3075 -1.20625,3.745 0.22875,0.43625 1.15875,4.86125 0.3325,5.6775 -0.49625,0.49125 -0.665,0.5625 -0.665,0.5625 l -2.4712502,0 c 0,0 -0.16875,-0.07125 -0.665,-0.5625 -0.82625,-0.81625 0.10375,-5.24125 0.3325,-5.6775 0.22875,-0.4375 -0.68625,-1.02 -1.20625,-3.745 -0.52,-2.725 1.12375,-2.57875 0.395,-3.43125 -0.72875,-0.85375 1.1725,-5.95 2.3775,-5.95 l 0.0025,0"
     style="fill:#ffffff;fill-opacity:1;fill-rule:nonzero;stroke:none"
     id="path21867" /><path
     d="m 9.0626738,0.316875 c 1.2062502,0 3.1062502,5.09625 2.3787502,5.95 -0.7275,0.8525 0.915,0.70625 0.395,3.43125 -0.52,2.725 -1.435,3.3075 -1.20625,3.745 0.22875,0.43625 1.15875,4.86125 0.3325,5.6775 -0.49625,0.49125 -0.665,0.5625 -0.665,0.5625 l -2.4712502,0 c 0,0 -0.16875,-0.07125 -0.665,-0.5625 -0.82625,-0.81625 0.10375,-5.24125 0.3325,-5.6775 0.22875,-0.4375 -0.68625,-1.02 -1.20625,-3.745 -0.52,-2.725 1.12375,-2.57875 0.395,-3.43125 -0.72875,-0.85375 1.1725,-5.95 2.3775,-5.95 l 0.0025,0 z"
     style="fill:none;stroke:#000000;stroke-width:0.44999999;stroke-linecap:butt;stroke-linejoin:miter;stroke-miterlimit:4;stroke-opacity:1;stroke-dasharray:none"
     id="path21869" /><path
     d="m 6.8351738,6.489375 2.22375,1.7875 2.2300002,-1.78625"
     style="fill:none;stroke:#000000;stroke-width:0.44999999;stroke-linecap:butt;stroke-linejoin:miter;stroke-miterlimit:4;stroke-opacity:1;stroke-dasharray:none"
     id="path21871" /><path
     d="m 7.3951738,13.733125 1.66375,-0.34 1.6700002,0.3425"
     style="fill:none;stroke:#000000;stroke-width:0.44999999;stroke-linecap:butt;stroke-linejoin:miter;stroke-miterlimit:4;stroke-opacity:1;stroke-dasharray:none"
     id="path21873" /><path
     d="m 10.735174,12.858125 0.13375,-0.265 2.74,-0.665 1.505,1.17375 1.055,1.59375 -1.52375,-1.57 -1.27,-0.6575 -2.7425,0.6325 0.1025,-0.2425"
     style="fill:#ffffff;fill-opacity:1;fill-rule:nonzero;stroke:none"
     id="path21875" /><path
     d="m 10.735174,12.858125 0.13375,-0.265 2.74,-0.665 1.505,1.17375 1.055,1.59375 -1.52375,-1.57 -1.27,-0.6575 -2.7425,0.6325 0.1025,-0.2425 z"
     style="fill:none;stroke:#000000;stroke-width:0.44999999;stroke-linecap:butt;stroke-linejoin:miter;stroke-miterlimit:4;stroke-opacity:1;stroke-dasharray:none"
     id="path21877" /><path
     d="m 6.4726738,10.534375 -0.06,-0.24 -2.45375,-1.18 -1.47625,0.50375 -1.94500004,-2.1325 1.71000004,2.41375 1.52375,-0.4575 2.7675,1.31875 -0.06625,-0.22625"
     style="fill:#ffffff;fill-opacity:1;fill-rule:nonzero;stroke:none"
     id="path21879" /><path
     d="m 6.4726738,10.534375 -0.06,-0.24 -2.45375,-1.18 -1.47625,0.50375 -1.94500004,-2.1325 1.71000004,2.41375 1.52375,-0.4575 2.7675,1.31875 -0.06625,-0.22625 z"
     style="fill:none;stroke:#000000;stroke-width:0.44999999;stroke-linecap:butt;stroke-linejoin:miter;stroke-miterlimit:4;stroke-opacity:1;stroke-dasharray:none"
     id="path21881" /><path
     d="m 6.2176738,8.204375 0.075,-0.3425 -0.53125,-0.14375 -2.20375,-1.29 -1.57,-0.445 -0.9375,-2.67125 0.60875,2.83625 1.7575,0.67875 2.345,1.43 0.42625,0.26875 0.03,-0.32125"
     style="fill:#ffffff;fill-opacity:1;fill-rule:nonzero;stroke:none"
     id="path21883" /><path
     d="m 6.2176738,8.204375 0.075,-0.3425 -0.53125,-0.14375 -2.20375,-1.29 -1.57,-0.445 -0.9375,-2.67125 0.60875,2.83625 1.7575,0.67875 2.345,1.43 0.42625,0.26875 0.03,-0.32125 z"
     style="fill:none;stroke:#000000;stroke-width:0.44999999;stroke-linecap:butt;stroke-linejoin:miter;stroke-miterlimit:4;stroke-opacity:1;stroke-dasharray:none"
     id="path21885" /><path
     d="m 11.651424,10.534375 0.05875,-0.24 2.455,-1.18 1.47625,0.50375 1.945,-2.1325 -1.71125,2.41375 -1.5225,-0.4575 -2.7675,1.31875 0.06625,-0.22625"
     style="fill:#ffffff;fill-opacity:1;fill-rule:nonzero;stroke:none"
     id="path21887" /><path
     d="m 11.651424,10.534375 0.05875,-0.24 2.455,-1.18 1.47625,0.50375 1.945,-2.1325 -1.71125,2.41375 -1.5225,-0.4575 -2.7675,1.31875 0.06625,-0.22625 z"
     style="fill:none;stroke:#000000;stroke-width:0.44999999;stroke-linecap:butt;stroke-linejoin:miter;stroke-miterlimit:4;stroke-opacity:1;stroke-dasharray:none"
     id="path21889" /><path
     d="m 11.906424,8.204375 -0.075,-0.3425 0.5325,-0.14375 2.2025,-1.29 1.57,-0.445 0.9375,-2.67125 -0.60875,2.83625 -1.7575,0.67875 -2.34375,1.43 -0.42625,0.26875 -0.03125,-0.32125"
     style="fill:#ffffff;fill-opacity:1;fill-rule:nonzero;stroke:none"
     id="path21891" /><path
     d="m 11.906424,8.204375 -0.075,-0.3425 0.5325,-0.14375 2.2025,-1.29 1.57,-0.445 0.9375,-2.67125 -0.60875,2.83625 -1.7575,0.67875 -2.34375,1.43 -0.42625,0.26875 -0.03125,-0.32125 z"
     style="fill:none;stroke:#000000;stroke-width:0.44999999;stroke-linecap:butt;stroke-linejoin:miter;stroke-miterlimit:4;stroke-opacity:1;stroke-dasharray:none"
     id="path21893" /><path
     d="m 7.3889238,12.858125 -0.13375,-0.265 -2.74,-0.665 -1.505,1.17375 -1.055,1.59375 1.52375,-1.57 1.27125,-0.6575 2.74125,0.6325 -0.1025,-0.2425"
     style="fill:#ffffff;fill-opacity:1;fill-rule:nonzero;stroke:none"
     id="path21895" /><path
     d="m 7.3889238,12.858125 -0.13375,-0.265 -2.74,-0.665 -1.505,1.17375 -1.055,1.59375 1.52375,-1.57 1.27125,-0.6575 2.74125,0.6325 -0.1025,-0.2425 z"
     style="fill:none;stroke:#000000;stroke-width:0.44999999;stroke-linecap:butt;stroke-linejoin:miter;stroke-miterlimit:4;stroke-opacity:1;stroke-dasharray:none"
     id="path21897" /><path
     d="m 8.2164238,2.683125 c 0,0.21375 -0.15625,0.385 -0.35,0.385 -0.19375,0 -0.35,-0.17125 -0.35,-0.385 0,-0.2125 0.15625,-0.38625 0.35,-0.38625 0.19375,0 0.35,0.17375 0.35,0.38625"
     style="fill:#000000;fill-opacity:1;fill-rule:nonzero;stroke:none"
     id="path21899" /><path
     d="m 10.658924,2.683125 c 0,0.21375 -0.15625,0.385 -0.35,0.385 -0.19375,0 -0.3512502,-0.17125 -0.3512502,-0.385 0,-0.2125 0.1575002,-0.38625 0.3512502,-0.38625 0.19375,0 0.35,0.17375 0.35,0.38625"
     style="fill:#000000;fill-opacity:1;fill-rule:nonzero;stroke:none"
     id="path21901" /></g></svg>