<?xml version="1.0" encoding="UTF-8" standalone="no"?>
<!-- Created with Inkscape (http://www.inkscape.org/) -->

<svg
   xmlns:dc="http://purl.org/dc/elements/1.1/"
   xmlns:cc="http://creativecommons.org/ns#"
   xmlns:rdf="http://www.w3.org/1999/02/22-rdf-syntax-ns#"
   xmlns:svg="http://www.w3.org/2000/svg"
   xmlns="http://www.w3.org/2000/svg"
   xmlns:sodipodi="http://sodipodi.sourceforge.net/DTD/sodipodi-0.dtd"
   xmlns:inkscape="http://www.inkscape.org/namespaces/inkscape"
   width="32px"
   height="32px"
   id="svg8353"
   version="1.1"
   inkscape:version="0.47 r22583"
   sodipodi:docname="10.2.19.svg">
  <defs
     id="defs8355">
    <inkscape:perspective
       sodipodi:type="inkscape:persp3d"
       inkscape:vp_x="0 : 16 : 1"
       inkscape:vp_y="0 : 1000 : 0"
       inkscape:vp_z="32 : 16 : 1"
       inkscape:persp3d-origin="16 : 10.666667 : 1"
       id="perspective8361" />
    <inkscape:perspective
       id="perspective8383"
       inkscape:persp3d-origin="0.5 : 0.33333333 : 1"
       inkscape:vp_z="1 : 0.5 : 1"
       inkscape:vp_y="0 : 1000 : 0"
       inkscape:vp_x="0 : 0.5 : 1"
       sodipodi:type="inkscape:persp3d" />
    <inkscape:perspective
       id="perspective8383-3"
       inkscape:persp3d-origin="0.5 : 0.33333333 : 1"
       inkscape:vp_z="1 : 0.5 : 1"
       inkscape:vp_y="0 : 1000 : 0"
       inkscape:vp_x="0 : 0.5 : 1"
       sodipodi:type="inkscape:persp3d" />
    <inkscape:perspective
       id="perspective8529"
       inkscape:persp3d-origin="0.5 : 0.33333333 : 1"
       inkscape:vp_z="1 : 0.5 : 1"
       inkscape:vp_y="0 : 1000 : 0"
       inkscape:vp_x="0 : 0.5 : 1"
       sodipodi:type="inkscape:persp3d" />
    <inkscape:perspective
       id="perspective8577"
       inkscape:persp3d-origin="0.5 : 0.33333333 : 1"
       inkscape:vp_z="1 : 0.5 : 1"
       inkscape:vp_y="0 : 1000 : 0"
       inkscape:vp_x="0 : 0.5 : 1"
       sodipodi:type="inkscape:persp3d" />
  </defs>
  <sodipodi:namedview
     id="base"
     pagecolor="#ffffff"
     bordercolor="#666666"
     borderopacity="1.0"
     inkscape:pageopacity="0.0"
     inkscape:pageshadow="2"
     inkscape:zoom="11.197802"
     inkscape:cx="16"
     inkscape:cy="16"
     inkscape:current-layer="layer1"
     showgrid="true"
     inkscape:grid-bbox="true"
     inkscape:document-units="px"
     inkscape:window-width="720"
     inkscape:window-height="710"
     inkscape:window-x="536"
     inkscape:window-y="10"
     inkscape:window-maximized="0" />
  <metadata
     id="metadata8358">
    <rdf:RDF>
      <cc:Work
         rdf:about="">
        <dc:format>image/svg+xml</dc:format>
        <dc:type
           rdf:resource="http://purl.org/dc/dcmitype/StillImage" />
        <dc:title></dc:title>
      </cc:Work>
    </rdf:RDF>
  </metadata>
  <g
     id="layer1"
     inkscape:label="Layer 1"
     inkscape:groupmode="layer">
    <g
       transform="translate(-225.83758,-878.0653)"
       id="g8558">
      <path
         d="m 245.65075,885.13335 c 2.735,1.78375 4.54375,4.875 4.54375,8.38625 0,5.527 -4.4825,10.00937 -10.01,10.00937 -2.68375,0 -5.1175,-1.05225 -6.91125,-2.7685 0,0 -0.0662,-1.65524 1.1525,-3.584 1.22,-1.92812 2.82,-2.85187 2.82,-2.85187 -0.90625,-1.08625 -1.45125,-2.4875 -1.45125,-4.01625 0,-3.47125 2.81125,-6.28375 6.28,-6.28375 1.30125,0 2.50875,0.38875 3.51,1.065 l 0.0662,0.0437"
         style="fill:#ffffff;fill-opacity:1;fill-rule:nonzero;stroke:none"
         id="path12685" />
      <path
         d="m 245.65075,885.13335 c 2.735,1.78375 4.54375,4.875 4.54375,8.38625 0,5.527 -4.4825,10.00937 -10.01,10.00937 -2.68375,0 -5.1175,-1.05225 -6.91125,-2.7685 0,0 -0.0662,-1.65524 1.1525,-3.584 1.22,-1.92812 2.82,-2.85187 2.82,-2.85187 -0.90625,-1.08625 -1.45125,-2.4875 -1.45125,-4.01625 0,-3.47125 2.81125,-6.28375 6.28,-6.28375 1.30125,0 2.50875,0.38875 3.51,1.065 l 0.0662,0.0437 z"
         style="fill:none;stroke:#000000;stroke-width:0.44999999;stroke-linecap:butt;stroke-linejoin:miter;stroke-miterlimit:4;stroke-opacity:1;stroke-dasharray:none"
         id="path12687" />
      <path
         d="m 242.02575,890.21335 c 0,0.25875 -0.21,0.46875 -0.46875,0.46875 -0.25625,0 -0.46625,-0.21 -0.46625,-0.46875 0,-0.25875 0.21,-0.46625 0.46625,-0.46625 0.25875,0 0.46875,0.2075 0.46875,0.46625"
         style="fill:#000000;fill-opacity:1;fill-rule:nonzero;stroke:none"
         id="path12689" />
      <path
         d="m 242.02575,890.21335 c 0,0.25875 -0.21,0.46875 -0.46875,0.46875 -0.25625,0 -0.46625,-0.21 -0.46625,-0.46875 0,-0.25875 0.21,-0.46625 0.46625,-0.46625 0.25875,0 0.46875,0.2075 0.46875,0.46625 z"
         style="fill:none;stroke:#000000;stroke-width:0.44999999;stroke-linecap:butt;stroke-linejoin:miter;stroke-miterlimit:4;stroke-opacity:1;stroke-dasharray:none"
         id="path12691" />
      <path
         d="m 237.24575,894.3246 4.62875,-3.76375"
         style="fill:none;stroke:#000000;stroke-width:0.44999999;stroke-linecap:butt;stroke-linejoin:miter;stroke-miterlimit:4;stroke-opacity:1;stroke-dasharray:none"
         id="path12693" />
      <path
         d="m 241.4245,890.1671 c -0.54875,-0.14375 -0.0712,-0.97125 -0.53,-1.1225 -0.4475,-0.1475 -0.94875,1.38625 -1.40125,1.2375 -0.47625,-0.15375 0.0275,-1.6875 -0.44875,-1.84125 -0.45875,-0.15125 -0.96,1.38 -1.42375,1.23125 -0.4475,-0.1475 0.0513,-1.68 -0.3975,-1.82875 -0.415,-0.135 -0.89625,1.40125 -1.30875,1.26375"
         style="fill:none;stroke:#000000;stroke-width:0.44999999;stroke-linecap:butt;stroke-linejoin:miter;stroke-miterlimit:4;stroke-opacity:1;stroke-dasharray:none"
         id="path12695" />
      <path
         d="m 241.5095,890.0646 c -0.12125,-0.5225 1.64,-0.97375 1.515,-1.49125 -0.12125,-0.5225 -1.8775,-0.11 -2,-0.6325 -0.12125,-0.53 1.6325,-0.94 1.51,-1.4725 -0.125,-0.52 -1.87875,-0.1075 -2.0025,-0.63 -0.1225,-0.525 1.63375,-0.935 1.51,-1.46 -0.05,-0.215 -0.515,-0.25625 -0.925,-0.27625"
         style="fill:none;stroke:#000000;stroke-width:0.44999999;stroke-linecap:butt;stroke-linejoin:miter;stroke-miterlimit:4;stroke-opacity:1;stroke-dasharray:none"
         id="path12697" />
      <path
         d="m 241.69325,890.1496 c 0.59375,-0.32375 1.7175,1.63125 2.3125,1.30375 0.58875,-0.32125 -0.55125,-2.40875 0.0412,-2.73375 0.5925,-0.325 1.73375,1.765 2.3325,1.4375 0.585,-0.32 -0.555,-2.40875 0.0275,-2.72875 0.5625,-0.3075 1.70625,1.78125 2.26875,1.47625 0.12,-0.0675 0.14875,-0.23625 0.14625,-0.43125"
         style="fill:none;stroke:#000000;stroke-width:0.44999999;stroke-linecap:butt;stroke-linejoin:miter;stroke-miterlimit:4;stroke-opacity:1;stroke-dasharray:none"
         id="path12699" />
      <path
         d="m 241.66825,890.34085 c 0.49,0.4875 -1.1375,2.11625 -0.65,2.605 0.48,0.47875 2.10625,-1.15 2.58375,-0.67125 0.49125,0.4875 -1.1375,2.11625 -0.65,2.605 0.485,0.485 2.11375,-1.1425 2.59875,-0.6575 0.4925,0.49125 -1.13625,2.11937 -0.645,2.6125 0.48625,0.4835 2.115,-1.145 2.6,-0.65875 0.46875,0.46837 -1.15875,2.09675 -0.69,2.5655 0.40125,0.40287 1.73625,-0.82763 2.34875,-0.80075"
         style="fill:none;stroke:#000000;stroke-width:0.44999999;stroke-linecap:butt;stroke-linejoin:miter;stroke-miterlimit:4;stroke-opacity:1;stroke-dasharray:none"
         id="path12701" />
    </g>
  </g>
</svg>
