<?xml version="1.0" encoding="UTF-8" standalone="no"?>
<!-- Generator: Tilo Wuetherich, Landesarchiv Baden-Wuerttemberg SVG
  Version: 6.00 Build 51448 -->

<svg
   xmlns:dc="http://purl.org/dc/elements/1.1/"
   xmlns:cc="http://creativecommons.org/ns#"
   xmlns:rdf="http://www.w3.org/1999/02/22-rdf-syntax-ns#"
   xmlns:svg="http://www.w3.org/2000/svg"
   xmlns="http://www.w3.org/2000/svg"
   xmlns:sodipodi="http://sodipodi.sourceforge.net/DTD/sodipodi-0.dtd"
   xmlns:inkscape="http://www.inkscape.org/namespaces/inkscape"
   version="1.1"
   id="Ebene_1"
   width="20"
   height="20"
   viewBox="0 0 20 20"
   overflow="visible"
   enable-background="new 0 0 20 20"
   xml:space="preserve"
   inkscape:version="0.47 r22583"
   sodipodi:docname="10.2.05.svg"><metadata
   id="metadata13"><rdf:RDF><cc:Work
       rdf:about=""><dc:format>image/svg+xml</dc:format><dc:type
         rdf:resource="http://purl.org/dc/dcmitype/StillImage" /><dc:title></dc:title></cc:Work></rdf:RDF></metadata><defs
   id="defs11"><inkscape:perspective
     sodipodi:type="inkscape:persp3d"
     inkscape:vp_x="0 : 10 : 1"
     inkscape:vp_y="0 : 1000 : 0"
     inkscape:vp_z="20 : 10 : 1"
     inkscape:persp3d-origin="10 : 6.6666667 : 1"
     id="perspective15" /><inkscape:perspective
     id="perspective14762"
     inkscape:persp3d-origin="0.5 : 0.33333333 : 1"
     inkscape:vp_z="1 : 0.5 : 1"
     inkscape:vp_y="0 : 1000 : 0"
     inkscape:vp_x="0 : 0.5 : 1"
     sodipodi:type="inkscape:persp3d" /><inkscape:perspective
     id="perspective14812"
     inkscape:persp3d-origin="0.5 : 0.33333333 : 1"
     inkscape:vp_z="1 : 0.5 : 1"
     inkscape:vp_y="0 : 1000 : 0"
     inkscape:vp_x="0 : 0.5 : 1"
     sodipodi:type="inkscape:persp3d" /><inkscape:perspective
     id="perspective14893"
     inkscape:persp3d-origin="0.5 : 0.33333333 : 1"
     inkscape:vp_z="1 : 0.5 : 1"
     inkscape:vp_y="0 : 1000 : 0"
     inkscape:vp_x="0 : 0.5 : 1"
     sodipodi:type="inkscape:persp3d" /><inkscape:perspective
     id="perspective14974"
     inkscape:persp3d-origin="0.5 : 0.33333333 : 1"
     inkscape:vp_z="1 : 0.5 : 1"
     inkscape:vp_y="0 : 1000 : 0"
     inkscape:vp_x="0 : 0.5 : 1"
     sodipodi:type="inkscape:persp3d" /><inkscape:perspective
     id="perspective14999"
     inkscape:persp3d-origin="0.5 : 0.33333333 : 1"
     inkscape:vp_z="1 : 0.5 : 1"
     inkscape:vp_y="0 : 1000 : 0"
     inkscape:vp_x="0 : 0.5 : 1"
     sodipodi:type="inkscape:persp3d" /><inkscape:perspective
     id="perspective15024"
     inkscape:persp3d-origin="0.5 : 0.33333333 : 1"
     inkscape:vp_z="1 : 0.5 : 1"
     inkscape:vp_y="0 : 1000 : 0"
     inkscape:vp_x="0 : 0.5 : 1"
     sodipodi:type="inkscape:persp3d" /><inkscape:perspective
     id="perspective15067"
     inkscape:persp3d-origin="0.5 : 0.33333333 : 1"
     inkscape:vp_z="1 : 0.5 : 1"
     inkscape:vp_y="0 : 1000 : 0"
     inkscape:vp_x="0 : 0.5 : 1"
     sodipodi:type="inkscape:persp3d" /><inkscape:perspective
     id="perspective15110"
     inkscape:persp3d-origin="0.5 : 0.33333333 : 1"
     inkscape:vp_z="1 : 0.5 : 1"
     inkscape:vp_y="0 : 1000 : 0"
     inkscape:vp_x="0 : 0.5 : 1"
     sodipodi:type="inkscape:persp3d" /><inkscape:perspective
     id="perspective15169"
     inkscape:persp3d-origin="0.5 : 0.33333333 : 1"
     inkscape:vp_z="1 : 0.5 : 1"
     inkscape:vp_y="0 : 1000 : 0"
     inkscape:vp_x="0 : 0.5 : 1"
     sodipodi:type="inkscape:persp3d" /><inkscape:perspective
     id="perspective15223"
     inkscape:persp3d-origin="0.5 : 0.33333333 : 1"
     inkscape:vp_z="1 : 0.5 : 1"
     inkscape:vp_y="0 : 1000 : 0"
     inkscape:vp_x="0 : 0.5 : 1"
     sodipodi:type="inkscape:persp3d" /><inkscape:perspective
     id="perspective15273"
     inkscape:persp3d-origin="0.5 : 0.33333333 : 1"
     inkscape:vp_z="1 : 0.5 : 1"
     inkscape:vp_y="0 : 1000 : 0"
     inkscape:vp_x="0 : 0.5 : 1"
     sodipodi:type="inkscape:persp3d" /><inkscape:perspective
     id="perspective16656"
     inkscape:persp3d-origin="0.5 : 0.33333333 : 1"
     inkscape:vp_z="1 : 0.5 : 1"
     inkscape:vp_y="0 : 1000 : 0"
     inkscape:vp_x="0 : 0.5 : 1"
     sodipodi:type="inkscape:persp3d" /><inkscape:perspective
     id="perspective16706"
     inkscape:persp3d-origin="0.5 : 0.33333333 : 1"
     inkscape:vp_z="1 : 0.5 : 1"
     inkscape:vp_y="0 : 1000 : 0"
     inkscape:vp_x="0 : 0.5 : 1"
     sodipodi:type="inkscape:persp3d" /><inkscape:perspective
     id="perspective16868"
     inkscape:persp3d-origin="0.5 : 0.33333333 : 1"
     inkscape:vp_z="1 : 0.5 : 1"
     inkscape:vp_y="0 : 1000 : 0"
     inkscape:vp_x="0 : 0.5 : 1"
     sodipodi:type="inkscape:persp3d" /><inkscape:perspective
     id="perspective16918"
     inkscape:persp3d-origin="0.5 : 0.33333333 : 1"
     inkscape:vp_z="1 : 0.5 : 1"
     inkscape:vp_y="0 : 1000 : 0"
     inkscape:vp_x="0 : 0.5 : 1"
     sodipodi:type="inkscape:persp3d" /><inkscape:perspective
     id="perspective19890"
     inkscape:persp3d-origin="0.5 : 0.33333333 : 1"
     inkscape:vp_z="1 : 0.5 : 1"
     inkscape:vp_y="0 : 1000 : 0"
     inkscape:vp_x="0 : 0.5 : 1"
     sodipodi:type="inkscape:persp3d" /><inkscape:perspective
     id="perspective19944"
     inkscape:persp3d-origin="0.5 : 0.33333333 : 1"
     inkscape:vp_z="1 : 0.5 : 1"
     inkscape:vp_y="0 : 1000 : 0"
     inkscape:vp_x="0 : 0.5 : 1"
     sodipodi:type="inkscape:persp3d" /><inkscape:perspective
     id="perspective20014"
     inkscape:persp3d-origin="0.5 : 0.33333333 : 1"
     inkscape:vp_z="1 : 0.5 : 1"
     inkscape:vp_y="0 : 1000 : 0"
     inkscape:vp_x="0 : 0.5 : 1"
     sodipodi:type="inkscape:persp3d" /><inkscape:perspective
     id="perspective20076"
     inkscape:persp3d-origin="0.5 : 0.33333333 : 1"
     inkscape:vp_z="1 : 0.5 : 1"
     inkscape:vp_y="0 : 1000 : 0"
     inkscape:vp_x="0 : 0.5 : 1"
     sodipodi:type="inkscape:persp3d" /><inkscape:perspective
     id="perspective25708"
     inkscape:persp3d-origin="0.5 : 0.33333333 : 1"
     inkscape:vp_z="1 : 0.5 : 1"
     inkscape:vp_y="0 : 1000 : 0"
     inkscape:vp_x="0 : 0.5 : 1"
     sodipodi:type="inkscape:persp3d" /><inkscape:perspective
     id="perspective25775"
     inkscape:persp3d-origin="0.5 : 0.33333333 : 1"
     inkscape:vp_z="1 : 0.5 : 1"
     inkscape:vp_y="0 : 1000 : 0"
     inkscape:vp_x="0 : 0.5 : 1"
     sodipodi:type="inkscape:persp3d" /><inkscape:perspective
     id="perspective25818"
     inkscape:persp3d-origin="0.5 : 0.33333333 : 1"
     inkscape:vp_z="1 : 0.5 : 1"
     inkscape:vp_y="0 : 1000 : 0"
     inkscape:vp_x="0 : 0.5 : 1"
     sodipodi:type="inkscape:persp3d" /><inkscape:perspective
     id="perspective25861"
     inkscape:persp3d-origin="0.5 : 0.33333333 : 1"
     inkscape:vp_z="1 : 0.5 : 1"
     inkscape:vp_y="0 : 1000 : 0"
     inkscape:vp_x="0 : 0.5 : 1"
     sodipodi:type="inkscape:persp3d" /><inkscape:perspective
     id="perspective25975"
     inkscape:persp3d-origin="0.5 : 0.33333333 : 1"
     inkscape:vp_z="1 : 0.5 : 1"
     inkscape:vp_y="0 : 1000 : 0"
     inkscape:vp_x="0 : 0.5 : 1"
     sodipodi:type="inkscape:persp3d" /><inkscape:perspective
     id="perspective26105"
     inkscape:persp3d-origin="0.5 : 0.33333333 : 1"
     inkscape:vp_z="1 : 0.5 : 1"
     inkscape:vp_y="0 : 1000 : 0"
     inkscape:vp_x="0 : 0.5 : 1"
     sodipodi:type="inkscape:persp3d" /></defs><sodipodi:namedview
   pagecolor="#ffffff"
   bordercolor="#666666"
   borderopacity="1"
   objecttolerance="10"
   gridtolerance="10"
   guidetolerance="10"
   inkscape:pageopacity="0"
   inkscape:pageshadow="2"
   inkscape:window-width="1024"
   inkscape:window-height="695"
   id="namedview9"
   showgrid="false"
   inkscape:zoom="11.8"
   inkscape:cx="9.0620488"
   inkscape:cy="10"
   inkscape:window-x="0"
   inkscape:window-y="24"
   inkscape:window-maximized="1"
   inkscape:current-layer="Ebene_1" />
  
  
  
<path
   id="path21855"
   style="fill:#ffffff;fill-opacity:1;fill-rule:nonzero;stroke:none"
   d="m 9.7283483,10.79375 c 0.2225,-0.0625 0.4549997,-0.09625 0.6962497,-0.09625 1.74125,0 3.94375,2.5525 3.885,4.6975 -0.0575,2.14875 -1.68125,4.35 -4.8712497,4.35 -3.18875,0 -5.625,-2.0275 -5.625,-5.8 0,-3.7725 5.21875,-8.2975 5.68375,-9.04875 0.46125,-0.75625 0.7512497,-2.9 -1.10375,-4.64125 0,0 2.0524997,1.7075 2.6112497,3.82875 0.755,2.84875 0.0625,5.49125 -0.67375,6.0975 l -0.6024997,0.6125" /><g
   id="g26182"
   transform="matrix(0.81,0,0,0.81,2.6597404,1.9)"><path
     d="m 4.1370488,9.281875 c -0.41875,0.5375 -0.53,0.88375 -0.53,0.88375 l -1.5825,-2.82 0.40625,-1.85 1.79375,-3.14875 2.97125,-1.95125 -1.87625,2.5525 2.5275,-1.76625 -2.11625,3.03125 -1.43,1.74125 -0.125,1.39125 0.6325,1.23125 c 0,0 -0.37375,0.32375 -0.67125,0.705"
     style="fill:#ffffff;fill-opacity:1;fill-rule:nonzero;stroke:none"
     id="path21947" /><path
     d="m 4.1370488,9.281875 c -0.41875,0.5375 -0.53,0.88375 -0.53,0.88375 l -1.5825,-2.82 0.40625,-1.85 1.79375,-3.14875 2.97125,-1.95125 -1.87625,2.5525 2.5275,-1.76625 -2.11625,3.03125 -1.43,1.74125 -0.125,1.39125 0.6325,1.23125 c 0,0 -0.37375,0.32375 -0.67125,0.705 z"
     style="fill:none;stroke:#000000;stroke-width:0.44999999;stroke-linecap:butt;stroke-linejoin:miter;stroke-miterlimit:4;stroke-opacity:1;stroke-dasharray:none"
     id="path21949" /><path
     d="m 13.982049,9.270625 c 0.43125,0.55625 0.53375,0.895 0.53375,0.895 l 1.58375,-2.82 -0.40625,-1.85 -1.7925,-3.14875 -2.97375,-1.95125 1.8775,2.5525 -2.5275,-1.76625 2.1175,3.03125 1.42875,1.74125 0.125,1.39125 -0.6325,1.23125 c 0,0 0.39,0.3375 0.66625,0.69375"
     style="fill:#ffffff;fill-opacity:1;fill-rule:nonzero;stroke:none"
     id="path21951" /><path
     d="m 13.982049,9.270625 c 0.43125,0.55625 0.53375,0.895 0.53375,0.895 l 1.58375,-2.82 -0.40625,-1.85 -1.7925,-3.14875 -2.97375,-1.95125 1.8775,2.5525 -2.5275,-1.76625 2.1175,3.03125 1.42875,1.74125 0.125,1.39125 -0.6325,1.23125 c 0,0 0.39,0.3375 0.66625,0.69375 z"
     style="fill:none;stroke:#000000;stroke-width:0.44999999;stroke-linecap:butt;stroke-linejoin:miter;stroke-miterlimit:4;stroke-opacity:1;stroke-dasharray:none"
     id="path21953" /><path
     d="m 4.2245488,2.346875 1.09,0.6 0.40875,1.2675"
     style="fill:none;stroke:#000000;stroke-width:0.44999999;stroke-linecap:butt;stroke-linejoin:miter;stroke-miterlimit:4;stroke-opacity:1;stroke-dasharray:none"
     id="path21955" /><path
     d="m 9.0632988,15.154375 c 0.67875,0 2.0150002,-0.02875 2.9762502,-0.9925 0.9625,-0.96125 1.1275,-2.5275 2.435,-3.2825 0.73625,-0.4225 -1.50625,-3.935 -5.4112502,-3.935 -3.90625,0 -6.14875,3.5125 -5.41375,3.935 1.31,0.755 1.4725,2.32125 2.435,3.2825 0.9625,0.96375 2.29875,0.9925 2.97875,0.9925"
     style="fill:#ffffff;fill-opacity:1;fill-rule:nonzero;stroke:none"
     id="path21957" /><path
     d="m 9.0632988,15.154375 c 0.67875,0 2.0150002,-0.02875 2.9762502,-0.9925 0.9625,-0.96125 1.1275,-2.5275 2.435,-3.2825 0.73625,-0.4225 -1.50625,-3.935 -5.4112502,-3.935 -3.90625,0 -6.14875,3.5125 -5.41375,3.935 1.31,0.755 1.4725,2.32125 2.435,3.2825 0.9625,0.96375 2.29875,0.9925 2.97875,0.9925 z"
     style="fill:none;stroke:#000000;stroke-width:0.44999999;stroke-linecap:butt;stroke-linejoin:miter;stroke-miterlimit:4;stroke-opacity:1;stroke-dasharray:none"
     id="path21959" /><path
     d="m 4.9182988,12.299375 c 0,0 -0.17875,-0.33125 -0.38125,-0.6075 -0.2025,-0.27125 -0.4025,-0.45 -0.4025,-0.45 l -2.26375,-0.82 -1.90375003,-1.93625 -0.13,-4.92125 -0.4275,4.955 2.26375003,2.59125 3.245,1.18875"
     style="fill:#ffffff;fill-opacity:1;fill-rule:nonzero;stroke:none"
     id="path21961" /><path
     d="m 4.9182988,12.299375 c 0,0 -0.17875,-0.33125 -0.38125,-0.6075 -0.2025,-0.27125 -0.4025,-0.45 -0.4025,-0.45 l -2.26375,-0.82 -1.90375003,-1.93625 -0.13,-4.92125 -0.4275,4.955 2.26375003,2.59125 3.245,1.18875 z"
     style="fill:none;stroke:#000000;stroke-width:0.44999999;stroke-linecap:butt;stroke-linejoin:miter;stroke-miterlimit:4;stroke-opacity:1;stroke-dasharray:none"
     id="path21963" /><path
     d="m 5.5170488,13.415625 -0.39875,-0.735 -3.86875,-1.3125 -2.2975,-0.23 -1.9675,1.47625 -0.1325,2.16625 0.5575,-1.7725 1.70749997,-1.24625 1.96875003,0.23 4.43125,1.42375"
     style="fill:#ffffff;fill-opacity:1;fill-rule:nonzero;stroke:none"
     id="path21965" /><path
     d="m 5.5170488,13.415625 -0.39875,-0.735 -3.86875,-1.3125 -2.2975,-0.23 -1.9675,1.47625 -0.1325,2.16625 0.5575,-1.7725 1.70749997,-1.24625 1.96875003,0.23 4.43125,1.42375 z"
     style="fill:none;stroke:#000000;stroke-width:0.44999999;stroke-linecap:butt;stroke-linejoin:miter;stroke-miterlimit:4;stroke-opacity:1;stroke-dasharray:none"
     id="path21967" /><path
     d="m 6.0257988,14.101875 c 0,0 -0.18375,-0.1975 -0.28375,-0.3425 -0.11625,-0.17 -0.225,-0.34375 -0.225,-0.34375 l -3.21875,-0.24375 -2.06625003,0.6575 -1.67374997,1.3775 -0.59,2.62625 1.08249997,-2.2 1.6075,-1.05 1.96875003,-0.68875 3.39875,0.2075"
     style="fill:#ffffff;fill-opacity:1;fill-rule:nonzero;stroke:none"
     id="path21969" /><path
     d="m 6.0257988,14.101875 c 0,0 -0.18375,-0.1975 -0.28375,-0.3425 -0.11625,-0.17 -0.225,-0.34375 -0.225,-0.34375 l -3.21875,-0.24375 -2.06625003,0.6575 -1.67374997,1.3775 -0.59,2.62625 1.08249997,-2.2 1.6075,-1.05 1.96875003,-0.68875 3.39875,0.2075 z"
     style="fill:none;stroke:#000000;stroke-width:0.44999999;stroke-linecap:butt;stroke-linejoin:miter;stroke-miterlimit:4;stroke-opacity:1;stroke-dasharray:none"
     id="path21971" /><path
     d="m 13.899549,2.346875 -1.09,0.6 -0.41,1.2675"
     style="fill:none;stroke:#000000;stroke-width:0.44999999;stroke-linecap:butt;stroke-linejoin:miter;stroke-miterlimit:4;stroke-opacity:1;stroke-dasharray:none"
     id="path21973" /><path
     d="m 13.205799,12.299375 c 0,0 0.1775,-0.33125 0.3825,-0.6075 0.20125,-0.27125 0.40125,-0.45 0.40125,-0.45 l 2.2625,-0.82 1.90375,-1.93625 0.13125,-4.92125 0.42625,4.955 -2.2625,2.59125 -3.245,1.18875"
     style="fill:#ffffff;fill-opacity:1;fill-rule:nonzero;stroke:none"
     id="path21975" /><path
     d="m 13.205799,12.299375 c 0,0 0.1775,-0.33125 0.3825,-0.6075 0.20125,-0.27125 0.40125,-0.45 0.40125,-0.45 l 2.2625,-0.82 1.90375,-1.93625 0.13125,-4.92125 0.42625,4.955 -2.2625,2.59125 -3.245,1.18875 z"
     style="fill:none;stroke:#000000;stroke-width:0.44999999;stroke-linecap:butt;stroke-linejoin:miter;stroke-miterlimit:4;stroke-opacity:1;stroke-dasharray:none"
     id="path21977" /><path
     d="m 12.605799,13.415625 0.4,-0.735 3.87,-1.3125 2.2975,-0.23 1.9675,1.47625 0.13125,2.16625 -0.5575,-1.7725 -1.70625,-1.24625 -1.97,0.23 -4.4325,1.42375"
     style="fill:#ffffff;fill-opacity:1;fill-rule:nonzero;stroke:none"
     id="path21979" /><path
     d="m 12.605799,13.415625 0.4,-0.735 3.87,-1.3125 2.2975,-0.23 1.9675,1.47625 0.13125,2.16625 -0.5575,-1.7725 -1.70625,-1.24625 -1.97,0.23 -4.4325,1.42375 z"
     style="fill:none;stroke:#000000;stroke-width:0.44999999;stroke-linecap:butt;stroke-linejoin:miter;stroke-miterlimit:4;stroke-opacity:1;stroke-dasharray:none"
     id="path21981" /><path
     d="m 12.098299,14.101875 c 0,0 0.18375,-0.1975 0.28375,-0.3425 0.1175,-0.17 0.22375,-0.34375 0.22375,-0.34375 l 3.22,-0.24375 2.06625,0.6575 1.67375,1.3775 0.59125,2.62625 -1.08375,-2.2 -1.6075,-1.05 -1.96875,-0.68875 -3.39875,0.2075"
     style="fill:#ffffff;fill-opacity:1;fill-rule:nonzero;stroke:none"
     id="path21983" /><path
     d="m 12.098299,14.101875 c 0,0 0.18375,-0.1975 0.28375,-0.3425 0.1175,-0.17 0.22375,-0.34375 0.22375,-0.34375 l 3.22,-0.24375 2.06625,0.6575 1.67375,1.3775 0.59125,2.62625 -1.08375,-2.2 -1.6075,-1.05 -1.96875,-0.68875 -3.39875,0.2075 z"
     style="fill:none;stroke:#000000;stroke-width:0.44999999;stroke-linecap:butt;stroke-linejoin:miter;stroke-miterlimit:4;stroke-opacity:1;stroke-dasharray:none"
     id="path21985" /><path
     d="m 12.098299,14.101875 0.54375,0.515 2.46,1.0825 1.67375,1.51 0.72375,1.27875 -1.80625,1.11625 0.36125,-2.0025 -1.6075,-0.72125 -2.10125,-1.3775 -3.2812502,-0.16375 -0.005,0 -3.28125,0.16375 -2.10125,1.3775 -1.6075,0.72125 0.36125,2.0025 -1.80500003,-1.11625 0.72250003,-1.27875 1.67375,-1.51 2.46,-1.0825 0.54375,-0.515 0.2125,0.2025 c 0.94625,0.825 2.18,0.85 2.825,0.85 0.6425,0 1.8800002,-0.02625 2.8262502,-0.85 l 0.20875,-0.2025"
     style="fill:#ffffff;fill-opacity:1;fill-rule:nonzero;stroke:none"
     id="path21987" /><path
     d="m 12.098299,14.101875 0.54375,0.515 2.46,1.0825 1.67375,1.51 0.72375,1.27875 -1.80625,1.11625 0.36125,-2.0025 -1.6075,-0.72125 -2.10125,-1.3775 -3.2812502,-0.16375 -0.005,0 -3.28125,0.16375 -2.10125,1.3775 -1.6075,0.72125 0.36125,2.0025 -1.80500003,-1.11625 0.72250003,-1.27875 1.67375,-1.51 2.46,-1.0825 0.54375,-0.515 0.2125,0.2025 c 0.94625,0.825 2.18,0.85 2.825,0.85 0.6425,0 1.8800002,-0.02625 2.8262502,-0.85 l 0.20875,-0.2025 z"
     style="fill:none;stroke:#000000;stroke-width:0.44999999;stroke-linecap:butt;stroke-linejoin:miter;stroke-miterlimit:4;stroke-opacity:1;stroke-dasharray:none"
     id="path21989" /></g></svg>