<?xml version="1.0" encoding="UTF-8" standalone="no"?>
<!-- Created with Inkscape (http://www.inkscape.org/) -->

<svg
   xmlns:dc="http://purl.org/dc/elements/1.1/"
   xmlns:cc="http://creativecommons.org/ns#"
   xmlns:rdf="http://www.w3.org/1999/02/22-rdf-syntax-ns#"
   xmlns:svg="http://www.w3.org/2000/svg"
   xmlns="http://www.w3.org/2000/svg"
   xmlns:sodipodi="http://sodipodi.sourceforge.net/DTD/sodipodi-0.dtd"
   xmlns:inkscape="http://www.inkscape.org/namespaces/inkscape"
   width="32px"
   height="32px"
   id="svg8353"
   version="1.1"
   inkscape:version="0.47 r22583"
   sodipodi:docname="10.2.45.svg">
  <defs
     id="defs8355">
    <inkscape:perspective
       sodipodi:type="inkscape:persp3d"
       inkscape:vp_x="0 : 16 : 1"
       inkscape:vp_y="0 : 1000 : 0"
       inkscape:vp_z="32 : 16 : 1"
       inkscape:persp3d-origin="16 : 10.666667 : 1"
       id="perspective8361" />
    <inkscape:perspective
       id="perspective8383"
       inkscape:persp3d-origin="0.5 : 0.33333333 : 1"
       inkscape:vp_z="1 : 0.5 : 1"
       inkscape:vp_y="0 : 1000 : 0"
       inkscape:vp_x="0 : 0.5 : 1"
       sodipodi:type="inkscape:persp3d" />
    <inkscape:perspective
       id="perspective8383-3"
       inkscape:persp3d-origin="0.5 : 0.33333333 : 1"
       inkscape:vp_z="1 : 0.5 : 1"
       inkscape:vp_y="0 : 1000 : 0"
       inkscape:vp_x="0 : 0.5 : 1"
       sodipodi:type="inkscape:persp3d" />
    <inkscape:perspective
       id="perspective8529"
       inkscape:persp3d-origin="0.5 : 0.33333333 : 1"
       inkscape:vp_z="1 : 0.5 : 1"
       inkscape:vp_y="0 : 1000 : 0"
       inkscape:vp_x="0 : 0.5 : 1"
       sodipodi:type="inkscape:persp3d" />
    <inkscape:perspective
       id="perspective8577"
       inkscape:persp3d-origin="0.5 : 0.33333333 : 1"
       inkscape:vp_z="1 : 0.5 : 1"
       inkscape:vp_y="0 : 1000 : 0"
       inkscape:vp_x="0 : 0.5 : 1"
       sodipodi:type="inkscape:persp3d" />
    <inkscape:perspective
       id="perspective8636"
       inkscape:persp3d-origin="0.5 : 0.33333333 : 1"
       inkscape:vp_z="1 : 0.5 : 1"
       inkscape:vp_y="0 : 1000 : 0"
       inkscape:vp_x="0 : 0.5 : 1"
       sodipodi:type="inkscape:persp3d" />
    <inkscape:perspective
       id="perspective8693"
       inkscape:persp3d-origin="0.5 : 0.33333333 : 1"
       inkscape:vp_z="1 : 0.5 : 1"
       inkscape:vp_y="0 : 1000 : 0"
       inkscape:vp_x="0 : 0.5 : 1"
       sodipodi:type="inkscape:persp3d" />
    <inkscape:perspective
       id="perspective8747"
       inkscape:persp3d-origin="0.5 : 0.33333333 : 1"
       inkscape:vp_z="1 : 0.5 : 1"
       inkscape:vp_y="0 : 1000 : 0"
       inkscape:vp_x="0 : 0.5 : 1"
       sodipodi:type="inkscape:persp3d" />
    <inkscape:perspective
       id="perspective8783"
       inkscape:persp3d-origin="0.5 : 0.33333333 : 1"
       inkscape:vp_z="1 : 0.5 : 1"
       inkscape:vp_y="0 : 1000 : 0"
       inkscape:vp_x="0 : 0.5 : 1"
       sodipodi:type="inkscape:persp3d" />
  </defs>
  <sodipodi:namedview
     id="base"
     pagecolor="#ffffff"
     bordercolor="#666666"
     borderopacity="1.0"
     inkscape:pageopacity="0.0"
     inkscape:pageshadow="2"
     inkscape:zoom="11.197802"
     inkscape:cx="16"
     inkscape:cy="16"
     inkscape:current-layer="layer1"
     showgrid="true"
     inkscape:grid-bbox="true"
     inkscape:document-units="px"
     inkscape:window-width="720"
     inkscape:window-height="710"
     inkscape:window-x="536"
     inkscape:window-y="10"
     inkscape:window-maximized="0" />
  <metadata
     id="metadata8358">
    <rdf:RDF>
      <cc:Work
         rdf:about="">
        <dc:format>image/svg+xml</dc:format>
        <dc:type
           rdf:resource="http://purl.org/dc/dcmitype/StillImage" />
        <dc:title></dc:title>
      </cc:Work>
    </rdf:RDF>
  </metadata>
  <g
     id="layer1"
     inkscape:label="Layer 1"
     inkscape:groupmode="layer">
    <g
       transform="translate(-657.87159,-250.35319)"
       id="g8770">
      <path
         d="m 664.452,268.4896 c 0.385,0.7125 2.9125,5.65625 2.9125,5.65625 l 9.00875,-0.6025 c 0,0 5.695,-4.9975 7.085,-7.91 1.16,-2.43 0.66,-5.38375 0.66,-5.38375 0,0 -1.31875,2.76125 -2.58125,3.845 -0.92875,0.79375 -2.3625,1.375 -2.3625,1.375 0,0 -0.605,-2.14375 -1.26375,-3.3525 -0.66,-1.20875 -2.0325,-2.96625 -2.0325,-2.96625 0,0 0.44,2.74625 -0.22,3.845 -0.65875,1.09875 -1.7575,2.0875 -1.7575,2.0875 0,0 -2.58125,-3.45875 -4.395,-4.8875 -1.8125,-1.43 -4.72375,-2.03375 -4.72375,-2.03375 0,0 4.175,4.56125 3.79,7.0875 -0.38375,2.525 -4.12,3.24 -4.12,3.24"
         style="fill:#ffffff;fill-opacity:1;fill-rule:nonzero;stroke:none"
         id="path13023" />
      <path
         d="m 664.452,268.4896 c 0.385,0.7125 2.9125,5.65625 2.9125,5.65625 l 9.00875,-0.6025 c 0,0 5.695,-4.9975 7.085,-7.91 1.16,-2.43 0.66,-5.38375 0.66,-5.38375 0,0 -1.31875,2.76125 -2.58125,3.845 -0.92875,0.79375 -2.3625,1.375 -2.3625,1.375 0,0 -0.605,-2.14375 -1.26375,-3.3525 -0.66,-1.20875 -2.0325,-2.96625 -2.0325,-2.96625 0,0 0.44,2.74625 -0.22,3.845 -0.65875,1.09875 -1.7575,2.0875 -1.7575,2.0875 0,0 -2.58125,-3.45875 -4.395,-4.8875 -1.8125,-1.43 -4.72375,-2.03375 -4.72375,-2.03375 0,0 4.175,4.56125 3.79,7.0875 -0.38375,2.525 -4.12,3.24 -4.12,3.24 z"
         style="fill:none;stroke:#000000;stroke-width:0.44999999;stroke-linecap:butt;stroke-linejoin:miter;stroke-miterlimit:4;stroke-opacity:1;stroke-dasharray:none"
         id="path13025" />
      <path
         d="m 666.4295,272.2246 c 2.23625,-0.56875 3.18625,-3.24 4.725,-3.29625 1.5375,-0.055 4.755,2.63625 5.24875,4.56"
         style="fill:none;stroke:#000000;stroke-width:0.44999999;stroke-linecap:butt;stroke-linejoin:miter;stroke-miterlimit:4;stroke-opacity:1;stroke-dasharray:none"
         id="path13027" />
    </g>
  </g>
</svg>
