<?xml version="1.0" encoding="UTF-8" standalone="no"?>
<!-- Created with Inkscape (http://www.inkscape.org/) -->

<svg
   xmlns:dc="http://purl.org/dc/elements/1.1/"
   xmlns:cc="http://creativecommons.org/ns#"
   xmlns:rdf="http://www.w3.org/1999/02/22-rdf-syntax-ns#"
   xmlns:svg="http://www.w3.org/2000/svg"
   xmlns="http://www.w3.org/2000/svg"
   xmlns:sodipodi="http://sodipodi.sourceforge.net/DTD/sodipodi-0.dtd"
   xmlns:inkscape="http://www.inkscape.org/namespaces/inkscape"
   width="32px"
   height="32px"
   id="svg8353"
   version="1.1"
   inkscape:version="0.47 r22583"
   sodipodi:docname="10.2.21.svg">
  <defs
     id="defs8355">
    <inkscape:perspective
       sodipodi:type="inkscape:persp3d"
       inkscape:vp_x="0 : 16 : 1"
       inkscape:vp_y="0 : 1000 : 0"
       inkscape:vp_z="32 : 16 : 1"
       inkscape:persp3d-origin="16 : 10.666667 : 1"
       id="perspective8361" />
    <inkscape:perspective
       id="perspective8383"
       inkscape:persp3d-origin="0.5 : 0.33333333 : 1"
       inkscape:vp_z="1 : 0.5 : 1"
       inkscape:vp_y="0 : 1000 : 0"
       inkscape:vp_x="0 : 0.5 : 1"
       sodipodi:type="inkscape:persp3d" />
    <inkscape:perspective
       id="perspective8383-3"
       inkscape:persp3d-origin="0.5 : 0.33333333 : 1"
       inkscape:vp_z="1 : 0.5 : 1"
       inkscape:vp_y="0 : 1000 : 0"
       inkscape:vp_x="0 : 0.5 : 1"
       sodipodi:type="inkscape:persp3d" />
    <inkscape:perspective
       id="perspective8529"
       inkscape:persp3d-origin="0.5 : 0.33333333 : 1"
       inkscape:vp_z="1 : 0.5 : 1"
       inkscape:vp_y="0 : 1000 : 0"
       inkscape:vp_x="0 : 0.5 : 1"
       sodipodi:type="inkscape:persp3d" />
    <inkscape:perspective
       id="perspective8577"
       inkscape:persp3d-origin="0.5 : 0.33333333 : 1"
       inkscape:vp_z="1 : 0.5 : 1"
       inkscape:vp_y="0 : 1000 : 0"
       inkscape:vp_x="0 : 0.5 : 1"
       sodipodi:type="inkscape:persp3d" />
    <inkscape:perspective
       id="perspective8636"
       inkscape:persp3d-origin="0.5 : 0.33333333 : 1"
       inkscape:vp_z="1 : 0.5 : 1"
       inkscape:vp_y="0 : 1000 : 0"
       inkscape:vp_x="0 : 0.5 : 1"
       sodipodi:type="inkscape:persp3d" />
    <inkscape:perspective
       id="perspective8693"
       inkscape:persp3d-origin="0.5 : 0.33333333 : 1"
       inkscape:vp_z="1 : 0.5 : 1"
       inkscape:vp_y="0 : 1000 : 0"
       inkscape:vp_x="0 : 0.5 : 1"
       sodipodi:type="inkscape:persp3d" />
  </defs>
  <sodipodi:namedview
     id="base"
     pagecolor="#ffffff"
     bordercolor="#666666"
     borderopacity="1.0"
     inkscape:pageopacity="0.0"
     inkscape:pageshadow="2"
     inkscape:zoom="11.197802"
     inkscape:cx="16"
     inkscape:cy="16"
     inkscape:current-layer="layer1"
     showgrid="true"
     inkscape:grid-bbox="true"
     inkscape:document-units="px"
     inkscape:window-width="720"
     inkscape:window-height="710"
     inkscape:window-x="536"
     inkscape:window-y="10"
     inkscape:window-maximized="0" />
  <metadata
     id="metadata8358">
    <rdf:RDF>
      <cc:Work
         rdf:about="">
        <dc:format>image/svg+xml</dc:format>
        <dc:type
           rdf:resource="http://purl.org/dc/dcmitype/StillImage" />
        <dc:title></dc:title>
      </cc:Work>
    </rdf:RDF>
  </metadata>
  <g
     id="layer1"
     inkscape:label="Layer 1"
     inkscape:groupmode="layer">
    <g
       transform="translate(-225.84942,-945.89161)"
       id="g8674">
      <path
         d="m 245.57575,953.9211 c 2.7375,1.78712 4.54125,4.8755 4.54125,8.38812 0,5.52738 -4.47875,10.00975 -10.00875,10.00975 -2.68,0 -5.11375,-1.05225 -6.9125,-2.7685 0,0 -0.0637,-1.65475 1.15625,-3.584 1.21875,-1.92875 2.82125,-2.84912 2.82125,-2.84912 -0.90625,-1.08888 -1.45375,-2.49025 -1.45375,-4.021 0,-3.46625 2.8125,-6.28175 6.2825,-6.28175 1.2975,0 2.50875,0.38875 3.51,1.065 l 0.0637,0.0415"
         style="fill:#ffffff;fill-opacity:1;fill-rule:nonzero;stroke:none"
         id="path12719" />
      <path
         d="m 245.57575,953.9211 c 2.7375,1.78712 4.54125,4.8755 4.54125,8.38812 0,5.52738 -4.47875,10.00975 -10.00875,10.00975 -2.68,0 -5.11375,-1.05225 -6.9125,-2.7685 0,0 -0.0637,-1.65475 1.15625,-3.584 1.21875,-1.92875 2.82125,-2.84912 2.82125,-2.84912 -0.90625,-1.08888 -1.45375,-2.49025 -1.45375,-4.021 0,-3.46625 2.8125,-6.28175 6.2825,-6.28175 1.2975,0 2.50875,0.38875 3.51,1.065 l 0.0637,0.0415 z"
         style="fill:none;stroke:#000000;stroke-width:0.44999999;stroke-linecap:butt;stroke-linejoin:miter;stroke-miterlimit:4;stroke-opacity:1;stroke-dasharray:none"
         id="path12721" />
      <path
         d="m 241.952,959.0036 c 0,0.25875 -0.2125,0.47162 -0.46875,0.47162 -0.26,0 -0.46875,-0.21287 -0.46875,-0.47162 0,-0.25825 0.20875,-0.46588 0.46875,-0.46588 0.25625,0 0.46875,0.20763 0.46875,0.46588"
         style="fill:#000000;fill-opacity:1;fill-rule:nonzero;stroke:none"
         id="path12723" />
      <path
         d="m 241.952,959.0036 c 0,0.25875 -0.2125,0.47162 -0.46875,0.47162 -0.26,0 -0.46875,-0.21287 -0.46875,-0.47162 0,-0.25825 0.20875,-0.46588 0.46875,-0.46588 0.25625,0 0.46875,0.20763 0.46875,0.46588 z"
         style="fill:none;stroke:#000000;stroke-width:0.44999999;stroke-linecap:butt;stroke-linejoin:miter;stroke-miterlimit:4;stroke-opacity:1;stroke-dasharray:none"
         id="path12725" />
      <path
         d="m 237.17325,963.11735 4.6275,-3.769"
         style="fill:none;stroke:#000000;stroke-width:0.44999999;stroke-linecap:butt;stroke-linejoin:miter;stroke-miterlimit:4;stroke-opacity:1;stroke-dasharray:none"
         id="path12727" />
      <path
         d="m 236.697,955.74185 c -0.71375,1.03762 1.06375,3.75787 4.70125,3.29887"
         style="fill:none;stroke:#000000;stroke-width:0.44999999;stroke-linecap:butt;stroke-linejoin:miter;stroke-miterlimit:4;stroke-opacity:1;stroke-dasharray:none"
         id="path12729" />
      <path
         d="m 242.6295,952.84635 c -1.84,-0.08 -3.20875,3.71337 -1.26,6.087"
         style="fill:none;stroke:#000000;stroke-width:0.44999999;stroke-linecap:butt;stroke-linejoin:miter;stroke-miterlimit:4;stroke-opacity:1;stroke-dasharray:none"
         id="path12731" />
      <path
         d="m 249.052,957.78772 c -0.9625,-1.88962 -6.33875,-2.0795 -7.515,1.12363"
         style="fill:none;stroke:#000000;stroke-width:0.44999999;stroke-linecap:butt;stroke-linejoin:miter;stroke-miterlimit:4;stroke-opacity:1;stroke-dasharray:none"
         id="path12733" />
      <path
         d="m 247.36825,969.1726 c 1.94125,-2.14113 0.465,-10.96438 -5.7,-10.1715"
         style="fill:none;stroke:#000000;stroke-width:0.44999999;stroke-linecap:butt;stroke-linejoin:miter;stroke-miterlimit:4;stroke-opacity:1;stroke-dasharray:none"
         id="path12735" />
    </g>
  </g>
</svg>
