<?xml version="1.0" encoding="UTF-8" standalone="no"?>
<!-- Generator: Tilo Wuetherich, Landesarchiv Baden-Wuerttemberg SVG
  Version: 6.00 Build 51448 -->

<svg
   xmlns:dc="http://purl.org/dc/elements/1.1/"
   xmlns:cc="http://creativecommons.org/ns#"
   xmlns:rdf="http://www.w3.org/1999/02/22-rdf-syntax-ns#"
   xmlns:svg="http://www.w3.org/2000/svg"
   xmlns="http://www.w3.org/2000/svg"
   xmlns:sodipodi="http://sodipodi.sourceforge.net/DTD/sodipodi-0.dtd"
   xmlns:inkscape="http://www.inkscape.org/namespaces/inkscape"
   version="1.1"
   id="Ebene_1"
   width="20"
   height="20"
   viewBox="0 0 20 20"
   overflow="visible"
   enable-background="new 0 0 20 20"
   xml:space="preserve"
   inkscape:version="0.47 r22583"
   sodipodi:docname="14.01.svg"><metadata
   id="metadata13"><rdf:RDF><cc:Work
       rdf:about=""><dc:format>image/svg+xml</dc:format><dc:type
         rdf:resource="http://purl.org/dc/dcmitype/StillImage" /><dc:title></dc:title></cc:Work></rdf:RDF></metadata><defs
   id="defs11"><inkscape:perspective
     sodipodi:type="inkscape:persp3d"
     inkscape:vp_x="0 : 10 : 1"
     inkscape:vp_y="0 : 1000 : 0"
     inkscape:vp_z="20 : 10 : 1"
     inkscape:persp3d-origin="10 : 6.6666667 : 1"
     id="perspective15" /><inkscape:perspective
     id="perspective14762"
     inkscape:persp3d-origin="0.5 : 0.33333333 : 1"
     inkscape:vp_z="1 : 0.5 : 1"
     inkscape:vp_y="0 : 1000 : 0"
     inkscape:vp_x="0 : 0.5 : 1"
     sodipodi:type="inkscape:persp3d" /><inkscape:perspective
     id="perspective14812"
     inkscape:persp3d-origin="0.5 : 0.33333333 : 1"
     inkscape:vp_z="1 : 0.5 : 1"
     inkscape:vp_y="0 : 1000 : 0"
     inkscape:vp_x="0 : 0.5 : 1"
     sodipodi:type="inkscape:persp3d" /><inkscape:perspective
     id="perspective14893"
     inkscape:persp3d-origin="0.5 : 0.33333333 : 1"
     inkscape:vp_z="1 : 0.5 : 1"
     inkscape:vp_y="0 : 1000 : 0"
     inkscape:vp_x="0 : 0.5 : 1"
     sodipodi:type="inkscape:persp3d" /><inkscape:perspective
     id="perspective14974"
     inkscape:persp3d-origin="0.5 : 0.33333333 : 1"
     inkscape:vp_z="1 : 0.5 : 1"
     inkscape:vp_y="0 : 1000 : 0"
     inkscape:vp_x="0 : 0.5 : 1"
     sodipodi:type="inkscape:persp3d" /><inkscape:perspective
     id="perspective14999"
     inkscape:persp3d-origin="0.5 : 0.33333333 : 1"
     inkscape:vp_z="1 : 0.5 : 1"
     inkscape:vp_y="0 : 1000 : 0"
     inkscape:vp_x="0 : 0.5 : 1"
     sodipodi:type="inkscape:persp3d" /><inkscape:perspective
     id="perspective15024"
     inkscape:persp3d-origin="0.5 : 0.33333333 : 1"
     inkscape:vp_z="1 : 0.5 : 1"
     inkscape:vp_y="0 : 1000 : 0"
     inkscape:vp_x="0 : 0.5 : 1"
     sodipodi:type="inkscape:persp3d" /><inkscape:perspective
     id="perspective15067"
     inkscape:persp3d-origin="0.5 : 0.33333333 : 1"
     inkscape:vp_z="1 : 0.5 : 1"
     inkscape:vp_y="0 : 1000 : 0"
     inkscape:vp_x="0 : 0.5 : 1"
     sodipodi:type="inkscape:persp3d" /><inkscape:perspective
     id="perspective15110"
     inkscape:persp3d-origin="0.5 : 0.33333333 : 1"
     inkscape:vp_z="1 : 0.5 : 1"
     inkscape:vp_y="0 : 1000 : 0"
     inkscape:vp_x="0 : 0.5 : 1"
     sodipodi:type="inkscape:persp3d" /><inkscape:perspective
     id="perspective15169"
     inkscape:persp3d-origin="0.5 : 0.33333333 : 1"
     inkscape:vp_z="1 : 0.5 : 1"
     inkscape:vp_y="0 : 1000 : 0"
     inkscape:vp_x="0 : 0.5 : 1"
     sodipodi:type="inkscape:persp3d" /><inkscape:perspective
     id="perspective15223"
     inkscape:persp3d-origin="0.5 : 0.33333333 : 1"
     inkscape:vp_z="1 : 0.5 : 1"
     inkscape:vp_y="0 : 1000 : 0"
     inkscape:vp_x="0 : 0.5 : 1"
     sodipodi:type="inkscape:persp3d" /><inkscape:perspective
     id="perspective15273"
     inkscape:persp3d-origin="0.5 : 0.33333333 : 1"
     inkscape:vp_z="1 : 0.5 : 1"
     inkscape:vp_y="0 : 1000 : 0"
     inkscape:vp_x="0 : 0.5 : 1"
     sodipodi:type="inkscape:persp3d" /><inkscape:perspective
     id="perspective16656"
     inkscape:persp3d-origin="0.5 : 0.33333333 : 1"
     inkscape:vp_z="1 : 0.5 : 1"
     inkscape:vp_y="0 : 1000 : 0"
     inkscape:vp_x="0 : 0.5 : 1"
     sodipodi:type="inkscape:persp3d" /><inkscape:perspective
     id="perspective16706"
     inkscape:persp3d-origin="0.5 : 0.33333333 : 1"
     inkscape:vp_z="1 : 0.5 : 1"
     inkscape:vp_y="0 : 1000 : 0"
     inkscape:vp_x="0 : 0.5 : 1"
     sodipodi:type="inkscape:persp3d" /></defs><sodipodi:namedview
   pagecolor="#ffffff"
   bordercolor="#666666"
   borderopacity="1"
   objecttolerance="10"
   gridtolerance="10"
   guidetolerance="10"
   inkscape:pageopacity="0"
   inkscape:pageshadow="2"
   inkscape:window-width="1024"
   inkscape:window-height="695"
   id="namedview9"
   showgrid="false"
   inkscape:zoom="11.8"
   inkscape:cx="9.0620488"
   inkscape:cy="10"
   inkscape:window-x="0"
   inkscape:window-y="24"
   inkscape:window-maximized="1"
   inkscape:current-layer="Ebene_1" />
  
  
  
<g
   id="g16807"
   transform="translate(0.93795094,6.5e-7)"><path
     d="m 6.7303879,6.6714314 c 0.3212156,0 0.5813775,-0.2601618 0.5813775,-0.5813775 0,-0.32076 -0.2601619,-0.5809218 -0.5813775,-0.5809218 -0.3212156,0 -0.5809219,0.2601618 -0.5809219,0.5809218 0,0.3212157 0.2597063,0.5813775 0.5809219,0.5813775 z"
     style="fill:none;stroke:#00adef;stroke-width:0.26244;stroke-linecap:butt;stroke-linejoin:miter;stroke-miterlimit:4;stroke-opacity:1;stroke-dasharray:none"
     id="path15995" /><path
     d="m 6.7991873,10.874117 c 0.3212156,0 0.5809219,-0.260162 0.5809219,-0.580922 0,-0.3207604 -0.2597063,-0.5813779 -0.5809219,-0.5813779 -0.3203044,0 -0.5813775,0.2606175 -0.5813775,0.5813779 0,0.32076 0.2610731,0.580922 0.5813775,0.580922 z"
     style="fill:none;stroke:#00adef;stroke-width:0.26244;stroke-linecap:butt;stroke-linejoin:miter;stroke-miterlimit:4;stroke-opacity:1;stroke-dasharray:none"
     id="path15997" /><path
     d="m 7.6817329,10.105477 c 0.3212156,0 0.5813775,-0.2601618 0.5813775,-0.5813774 0,-0.32076 -0.2601619,-0.5809219 -0.5813775,-0.5809219 -0.3203044,0 -0.5809219,0.2601619 -0.5809219,0.5809219 0,0.3212156 0.2606175,0.5813774 0.5809219,0.5813774 z"
     style="fill:none;stroke:#00adef;stroke-width:0.26244;stroke-linecap:butt;stroke-linejoin:miter;stroke-miterlimit:4;stroke-opacity:1;stroke-dasharray:none"
     id="path15999" /><path
     d="m 8.4790767,9.2224758 c 0.3212156,0 0.5813775,-0.2601619 0.5813775,-0.5809219 0,-0.32076 -0.2601619,-0.5813775 -0.5813775,-0.5813775 -0.3203044,0 -0.5809219,0.2606175 -0.5809219,0.5813775 0,0.32076 0.2606175,0.5809219 0.5809219,0.5809219 z"
     style="fill:none;stroke:#00adef;stroke-width:0.26244;stroke-linecap:butt;stroke-linejoin:miter;stroke-miterlimit:4;stroke-opacity:1;stroke-dasharray:none"
     id="path16001" /><path
     d="m 9.3051248,8.3681789 c 0.3212157,0 0.5809226,-0.2601618 0.5809226,-0.5809218 0,-0.32076 -0.2597069,-0.5813775 -0.5809226,-0.5813775 -0.3203044,0 -0.5813775,0.2606175 -0.5813775,0.5813775 0,0.32076 0.2610731,0.5809218 0.5813775,0.5809218 z"
     style="fill:none;stroke:#00adef;stroke-width:0.26244;stroke-linecap:butt;stroke-linejoin:miter;stroke-miterlimit:4;stroke-opacity:1;stroke-dasharray:none"
     id="path16003" /><path
     d="m 11.115778,6.0449471 c 0.321216,0 0.581835,-0.2601619 0.581835,-0.5813775 0,-0.32076 -0.260618,-0.5809219 -0.581834,-0.5809219 -0.321216,0 -0.580921,0.2601619 -0.580921,0.5809219 0,0.3212156 0.259705,0.5813775 0.580921,0.5813775 z"
     style="fill:none;stroke:#00adef;stroke-width:0.26244;stroke-linecap:butt;stroke-linejoin:miter;stroke-miterlimit:4;stroke-opacity:1;stroke-dasharray:none"
     id="path16005" /><path
     d="m 11.51445,7.1270564 c 0.321216,0 0.581834,-0.2601618 0.581834,-0.5813775 0,-0.32076 -0.260618,-0.5809218 -0.581833,-0.5809218 -0.321216,0 -0.580922,0.2601618 -0.580922,0.5809218 0,0.3212157 0.259706,0.5813775 0.580922,0.5813775 z"
     style="fill:none;stroke:#00adef;stroke-width:0.26244;stroke-linecap:butt;stroke-linejoin:miter;stroke-miterlimit:4;stroke-opacity:1;stroke-dasharray:none"
     id="path16007" /><path
     d="m 11.856169,8.2374146 c 0.321216,0 0.581834,-0.2601619 0.581834,-0.5809219 0,-0.3212156 -0.260618,-0.5813775 -0.581834,-0.5813775 -0.320759,0 -0.580922,0.2601619 -0.580922,0.5813775 0,0.32076 0.260163,0.5809219 0.580922,0.5809219 z"
     style="fill:none;stroke:#00adef;stroke-width:0.26244;stroke-linecap:butt;stroke-linejoin:miter;stroke-miterlimit:4;stroke-opacity:1;stroke-dasharray:none"
     id="path16009" /><path
     d="m 11.742262,9.4051814 c 0.321217,0 0.581834,-0.2601618 0.581834,-0.5813775 0,-0.32076 -0.260617,-0.5809218 -0.581834,-0.5809218 -0.320759,0 -0.580922,0.2601618 -0.580922,0.5809218 0,0.3212157 0.260163,0.5813775 0.580922,0.5813775 z"
     style="fill:none;stroke:#00adef;stroke-width:0.26244;stroke-linecap:butt;stroke-linejoin:miter;stroke-miterlimit:4;stroke-opacity:1;stroke-dasharray:none"
     id="path16011" /><path
     d="m 11.229685,10.458587 c 0.321215,0 0.581833,-0.260162 0.581833,-0.5809224 0,-0.3212157 -0.260617,-0.5813775 -0.581833,-0.5813775 -0.321215,0 -0.580922,0.2601618 -0.580922,0.5813775 0,0.3207604 0.259707,0.5809224 0.580922,0.5809224 z"
     style="fill:none;stroke:#00adef;stroke-width:0.26244;stroke-linecap:butt;stroke-linejoin:miter;stroke-miterlimit:4;stroke-opacity:1;stroke-dasharray:none"
     id="path16013" /><path
     d="m 10.77406,11.540696 c 0.321215,0 0.581833,-0.260162 0.581833,-0.580922 0,-0.321216 -0.260618,-0.581377 -0.581833,-0.581377 -0.321215,0 -0.580923,0.260161 -0.580923,0.581377 0,0.32076 0.259708,0.580922 0.580923,0.580922 z"
     style="fill:none;stroke:#00adef;stroke-width:0.26244;stroke-linecap:butt;stroke-linejoin:miter;stroke-miterlimit:4;stroke-opacity:1;stroke-dasharray:none"
     id="path16015" /><path
     d="m 8.5743023,15.117351 c 0.3212156,0 0.5813775,-0.260161 0.5813775,-0.581377 0,-0.320759 -0.2601619,-0.58092 -0.5813775,-0.58092 -0.3212156,0 -0.5809219,0.260161 -0.5809219,0.58092 0,0.321216 0.2597063,0.581377 0.5809219,0.581377 z"
     style="fill:none;stroke:#00adef;stroke-width:0.26244;stroke-linecap:butt;stroke-linejoin:miter;stroke-miterlimit:4;stroke-opacity:1;stroke-dasharray:none"
     id="path16017" /><path
     d="m 9.7133649,15.003446 c 0.3212161,0 0.5813771,-0.260163 0.5813771,-0.581378 0,-0.320759 -0.260161,-0.580921 -0.5813771,-0.580921 -0.3212157,0 -0.580922,0.260162 -0.580922,0.580921 0,0.321215 0.2597063,0.581378 0.580922,0.581378 z"
     style="fill:none;stroke:#00adef;stroke-width:0.26244;stroke-linecap:butt;stroke-linejoin:miter;stroke-miterlimit:4;stroke-opacity:1;stroke-dasharray:none"
     id="path16019" /><path
     d="m 10.824178,14.71868 c 0.321217,0 0.580922,-0.260162 0.580922,-0.581376 0,-0.32076 -0.259705,-0.580923 -0.580922,-0.580923 -0.321216,0 -0.581377,0.260163 -0.581377,0.580923 0,0.321214 0.260161,0.581376 0.581377,0.581376 z"
     style="fill:none;stroke:#00adef;stroke-width:0.26244;stroke-linecap:butt;stroke-linejoin:miter;stroke-miterlimit:4;stroke-opacity:1;stroke-dasharray:none"
     id="path16021" /><path
     d="m 11.877583,14.291304 c 0.321217,0 0.581377,-0.260162 0.581377,-0.580922 0,-0.32076 -0.260161,-0.581377 -0.581377,-0.581377 -0.321216,0 -0.580921,0.260617 -0.580921,0.581377 0,0.32076 0.259705,0.580922 0.580921,0.580922 z"
     style="fill:none;stroke:#00adef;stroke-width:0.26244;stroke-linecap:butt;stroke-linejoin:miter;stroke-miterlimit:4;stroke-opacity:1;stroke-dasharray:none"
     id="path16023" /><path
     d="m 12.959692,13.892632 c 0.321217,0 0.581378,-0.260161 0.581378,-0.580921 0,-0.32076 -0.260162,-0.581377 -0.581378,-0.581377 -0.321215,0 -0.580922,0.260617 -0.580922,0.581377 0,0.32076 0.259707,0.580921 0.580922,0.580921 z"
     style="fill:none;stroke:#00adef;stroke-width:0.26244;stroke-linecap:butt;stroke-linejoin:miter;stroke-miterlimit:4;stroke-opacity:1;stroke-dasharray:none"
     id="path16025" /><path
     d="m 13.984849,13.380054 c 0.321216,0 0.581378,-0.260162 0.581378,-0.580922 0,-0.32076 -0.260162,-0.581377 -0.581378,-0.581377 -0.321216,0 -0.580922,0.260617 -0.580922,0.581377 0,0.32076 0.259706,0.580922 0.580922,0.580922 z"
     style="fill:none;stroke:#00adef;stroke-width:0.26244;stroke-linecap:butt;stroke-linejoin:miter;stroke-miterlimit:4;stroke-opacity:1;stroke-dasharray:none"
     id="path16027" /><path
     d="m 15.03871,12.896181 c 0.321215,0 0.580922,-0.260163 0.580922,-0.581377 0,-0.320761 -0.259707,-0.580923 -0.580922,-0.580923 -0.321216,0 -0.581378,0.260162 -0.581378,0.580923 0,0.321215 0.260163,0.581377 0.581378,0.581377 z"
     style="fill:none;stroke:#00adef;stroke-width:0.26244;stroke-linecap:butt;stroke-linejoin:miter;stroke-miterlimit:4;stroke-opacity:1;stroke-dasharray:none"
     id="path16029" /><path
     d="m 15.978208,12.212744 c 0.321216,0 0.581377,-0.260163 0.581377,-0.581378 0,-0.320761 -0.260161,-0.580922 -0.581377,-0.580922 -0.321216,0 -0.580921,0.260161 -0.580921,0.580922 0,0.321215 0.259705,0.581378 0.580921,0.581378 z"
     style="fill:none;stroke:#00adef;stroke-width:0.26244;stroke-linecap:butt;stroke-linejoin:miter;stroke-miterlimit:4;stroke-opacity:1;stroke-dasharray:none"
     id="path16031" /><path
     d="m 16.79241,11.398541 c 0.321215,0 0.581377,-0.260162 0.581377,-0.581377 0,-0.320761 -0.260162,-0.580922 -0.581377,-0.580922 -0.321215,0 -0.580922,0.260161 -0.580922,0.580922 0,0.321214 0.259707,0.581377 0.580922,0.581377 z"
     style="fill:none;stroke:#00adef;stroke-width:0.26244;stroke-linecap:butt;stroke-linejoin:miter;stroke-miterlimit:4;stroke-opacity:1;stroke-dasharray:none"
     id="path16033" /><path
     d="m 17.589754,10.544244 c 0.321216,0 0.581378,-0.260162 0.581378,-0.5813776 0,-0.32076 -0.260162,-0.5809218 -0.581378,-0.5809218 -0.321216,0 -0.580922,0.2601618 -0.580922,0.5809218 0,0.3212146 0.259706,0.5813776 0.580922,0.5813776 z"
     style="fill:none;stroke:#00adef;stroke-width:0.26244;stroke-linecap:butt;stroke-linejoin:miter;stroke-miterlimit:4;stroke-opacity:1;stroke-dasharray:none"
     id="path16035" /><path
     d="m 0.53434362,9.4789927 c 0.32121562,0 0.58092188,-0.2601619 0.58092188,-0.5813775 0,-0.32076 -0.25970626,-0.5809219 -0.58092188,-0.5809219 -0.32030438,0 -0.58137751,0.2601619 -0.58137751,0.5809219 0,0.3212156 0.26107313,0.5813775 0.58137751,0.5813775 z"
     style="fill:none;stroke:#00adef;stroke-width:0.26244;stroke-linecap:butt;stroke-linejoin:miter;stroke-miterlimit:4;stroke-opacity:1;stroke-dasharray:none"
     id="path16037" /><path
     d="m 0.81910924,10.589351 c 0.32121566,0 0.58092186,-0.260162 0.58092186,-0.580922 0,-0.3207601 -0.2597062,-0.5813776 -0.58092186,-0.5813776 -0.32030437,0 -0.5813775,0.2606175 -0.5813775,0.5813776 0,0.32076 0.26107313,0.580922 0.5813775,0.580922 z"
     style="fill:none;stroke:#00adef;stroke-width:0.26244;stroke-linecap:butt;stroke-linejoin:miter;stroke-miterlimit:4;stroke-opacity:1;stroke-dasharray:none"
     id="path16039" /><path
     d="m 1.2747343,11.671461 c 0.3212156,0 0.5809218,-0.260162 0.5809218,-0.580922 0,-0.320761 -0.2597062,-0.581378 -0.5809218,-0.581378 -0.3203044,0 -0.58137756,0.260617 -0.58137756,0.581378 0,0.32076 0.26107316,0.580922 0.58137756,0.580922 z"
     style="fill:none;stroke:#00adef;stroke-width:0.26244;stroke-linecap:butt;stroke-linejoin:miter;stroke-miterlimit:4;stroke-opacity:1;stroke-dasharray:none"
     id="path16041" /><path
     d="m 1.9581718,12.611415 c 0.3212156,0 0.5809217,-0.260162 0.5809217,-0.581378 0,-0.320761 -0.2597061,-0.580921 -0.5809217,-0.580921 -0.3203044,0 -0.5813775,0.26016 -0.5813775,0.580921 0,0.321216 0.2610731,0.581378 0.5813775,0.581378 z"
     style="fill:none;stroke:#00adef;stroke-width:0.26244;stroke-linecap:butt;stroke-linejoin:miter;stroke-miterlimit:4;stroke-opacity:1;stroke-dasharray:none"
     id="path16043" /><path
     d="m 2.8407173,13.351806 c 0.3212156,0 0.5813775,-0.260163 0.5813775,-0.581377 0,-0.32076 -0.2601619,-0.580923 -0.5813775,-0.580923 -0.3203044,0 -0.5809219,0.260163 -0.5809219,0.580923 0,0.321215 0.2606175,0.581377 0.5809219,0.581377 z"
     style="fill:none;stroke:#00adef;stroke-width:0.26244;stroke-linecap:butt;stroke-linejoin:miter;stroke-miterlimit:4;stroke-opacity:1;stroke-dasharray:none"
     id="path16045" /><path
     d="m 3.8376248,13.97829 c 0.3212156,0 0.5809219,-0.260162 0.5809219,-0.581378 0,-0.32076 -0.2597063,-0.580921 -0.5809219,-0.580921 -0.3203044,0 -0.5813775,0.260161 -0.5813775,0.580921 0,0.321217 0.2610731,0.581378 0.5813775,0.581378 z"
     style="fill:none;stroke:#00adef;stroke-width:0.26244;stroke-linecap:butt;stroke-linejoin:miter;stroke-miterlimit:4;stroke-opacity:1;stroke-dasharray:none"
     id="path16047" /><path
     d="m 5.8022798,7.3717271 c 0.3212156,0 0.5813775,-0.2601619 0.5813775,-0.5813775 0,-0.32076 -0.2601619,-0.5809219 -0.5813775,-0.5809219 -0.3203044,0 -0.5809219,0.2601619 -0.5809219,0.5809219 0,0.3212156 0.2606175,0.5813775 0.5809219,0.5813775 z"
     style="fill:none;stroke:#00adef;stroke-width:0.26244;stroke-linecap:butt;stroke-linejoin:miter;stroke-miterlimit:4;stroke-opacity:1;stroke-dasharray:none"
     id="path16049" /><path
     d="m 4.9766873,8.1690708 c 0.3212156,0 0.5809219,-0.2601619 0.5809219,-0.5813775 0,-0.32076 -0.2597063,-0.5809219 -0.5809219,-0.5809219 -0.3203044,0 -0.5813775,0.2601619 -0.5813775,0.5809219 0,0.3212156 0.2610731,0.5813775 0.5813775,0.5813775 z"
     style="fill:none;stroke:#00adef;stroke-width:0.26244;stroke-linecap:butt;stroke-linejoin:miter;stroke-miterlimit:4;stroke-opacity:1;stroke-dasharray:none"
     id="path16051" /><path
     d="m 4.407156,9.1942271 c 0.3212157,0 0.5809219,-0.2601619 0.5809219,-0.5813775 0,-0.32076 -0.2597062,-0.5809219 -0.5809219,-0.5809219 -0.3203043,0 -0.5813775,0.2601619 -0.5813775,0.5809219 0,0.3212156 0.2610732,0.5813775 0.5813775,0.5813775 z"
     style="fill:none;stroke:#00adef;stroke-width:0.26244;stroke-linecap:butt;stroke-linejoin:miter;stroke-miterlimit:4;stroke-opacity:1;stroke-dasharray:none"
     id="path16053" /></g></svg>