<?xml version="1.0" encoding="UTF-8" standalone="no"?>
<!-- Generator: Tilo Wuetherich, Landesarchiv Baden-Wuerttemberg SVG
  Version: 6.00 Build 51448 -->

<svg
   xmlns:dc="http://purl.org/dc/elements/1.1/"
   xmlns:cc="http://creativecommons.org/ns#"
   xmlns:rdf="http://www.w3.org/1999/02/22-rdf-syntax-ns#"
   xmlns:svg="http://www.w3.org/2000/svg"
   xmlns="http://www.w3.org/2000/svg"
   xmlns:sodipodi="http://sodipodi.sourceforge.net/DTD/sodipodi-0.dtd"
   xmlns:inkscape="http://www.inkscape.org/namespaces/inkscape"
   version="1.1"
   id="Ebene_1"
   width="20"
   height="20"
   viewBox="0 0 20 20"
   overflow="visible"
   enable-background="new 0 0 20 20"
   xml:space="preserve"
   inkscape:version="0.47 r22583"
   sodipodi:docname="10.2.29.svg"><metadata
   id="metadata13"><rdf:RDF><cc:Work
       rdf:about=""><dc:format>image/svg+xml</dc:format><dc:type
         rdf:resource="http://purl.org/dc/dcmitype/StillImage" /><dc:title></dc:title></cc:Work></rdf:RDF></metadata><defs
   id="defs11"><inkscape:perspective
     sodipodi:type="inkscape:persp3d"
     inkscape:vp_x="0 : 10 : 1"
     inkscape:vp_y="0 : 1000 : 0"
     inkscape:vp_z="20 : 10 : 1"
     inkscape:persp3d-origin="10 : 6.6666667 : 1"
     id="perspective15" /><inkscape:perspective
     id="perspective14762"
     inkscape:persp3d-origin="0.5 : 0.33333333 : 1"
     inkscape:vp_z="1 : 0.5 : 1"
     inkscape:vp_y="0 : 1000 : 0"
     inkscape:vp_x="0 : 0.5 : 1"
     sodipodi:type="inkscape:persp3d" /><inkscape:perspective
     id="perspective14812"
     inkscape:persp3d-origin="0.5 : 0.33333333 : 1"
     inkscape:vp_z="1 : 0.5 : 1"
     inkscape:vp_y="0 : 1000 : 0"
     inkscape:vp_x="0 : 0.5 : 1"
     sodipodi:type="inkscape:persp3d" /><inkscape:perspective
     id="perspective14893"
     inkscape:persp3d-origin="0.5 : 0.33333333 : 1"
     inkscape:vp_z="1 : 0.5 : 1"
     inkscape:vp_y="0 : 1000 : 0"
     inkscape:vp_x="0 : 0.5 : 1"
     sodipodi:type="inkscape:persp3d" /><inkscape:perspective
     id="perspective14974"
     inkscape:persp3d-origin="0.5 : 0.33333333 : 1"
     inkscape:vp_z="1 : 0.5 : 1"
     inkscape:vp_y="0 : 1000 : 0"
     inkscape:vp_x="0 : 0.5 : 1"
     sodipodi:type="inkscape:persp3d" /><inkscape:perspective
     id="perspective14999"
     inkscape:persp3d-origin="0.5 : 0.33333333 : 1"
     inkscape:vp_z="1 : 0.5 : 1"
     inkscape:vp_y="0 : 1000 : 0"
     inkscape:vp_x="0 : 0.5 : 1"
     sodipodi:type="inkscape:persp3d" /><inkscape:perspective
     id="perspective15024"
     inkscape:persp3d-origin="0.5 : 0.33333333 : 1"
     inkscape:vp_z="1 : 0.5 : 1"
     inkscape:vp_y="0 : 1000 : 0"
     inkscape:vp_x="0 : 0.5 : 1"
     sodipodi:type="inkscape:persp3d" /><inkscape:perspective
     id="perspective15067"
     inkscape:persp3d-origin="0.5 : 0.33333333 : 1"
     inkscape:vp_z="1 : 0.5 : 1"
     inkscape:vp_y="0 : 1000 : 0"
     inkscape:vp_x="0 : 0.5 : 1"
     sodipodi:type="inkscape:persp3d" /><inkscape:perspective
     id="perspective15110"
     inkscape:persp3d-origin="0.5 : 0.33333333 : 1"
     inkscape:vp_z="1 : 0.5 : 1"
     inkscape:vp_y="0 : 1000 : 0"
     inkscape:vp_x="0 : 0.5 : 1"
     sodipodi:type="inkscape:persp3d" /><inkscape:perspective
     id="perspective15169"
     inkscape:persp3d-origin="0.5 : 0.33333333 : 1"
     inkscape:vp_z="1 : 0.5 : 1"
     inkscape:vp_y="0 : 1000 : 0"
     inkscape:vp_x="0 : 0.5 : 1"
     sodipodi:type="inkscape:persp3d" /><inkscape:perspective
     id="perspective15223"
     inkscape:persp3d-origin="0.5 : 0.33333333 : 1"
     inkscape:vp_z="1 : 0.5 : 1"
     inkscape:vp_y="0 : 1000 : 0"
     inkscape:vp_x="0 : 0.5 : 1"
     sodipodi:type="inkscape:persp3d" /><inkscape:perspective
     id="perspective15273"
     inkscape:persp3d-origin="0.5 : 0.33333333 : 1"
     inkscape:vp_z="1 : 0.5 : 1"
     inkscape:vp_y="0 : 1000 : 0"
     inkscape:vp_x="0 : 0.5 : 1"
     sodipodi:type="inkscape:persp3d" /><inkscape:perspective
     id="perspective16656"
     inkscape:persp3d-origin="0.5 : 0.33333333 : 1"
     inkscape:vp_z="1 : 0.5 : 1"
     inkscape:vp_y="0 : 1000 : 0"
     inkscape:vp_x="0 : 0.5 : 1"
     sodipodi:type="inkscape:persp3d" /><inkscape:perspective
     id="perspective16706"
     inkscape:persp3d-origin="0.5 : 0.33333333 : 1"
     inkscape:vp_z="1 : 0.5 : 1"
     inkscape:vp_y="0 : 1000 : 0"
     inkscape:vp_x="0 : 0.5 : 1"
     sodipodi:type="inkscape:persp3d" /><inkscape:perspective
     id="perspective16868"
     inkscape:persp3d-origin="0.5 : 0.33333333 : 1"
     inkscape:vp_z="1 : 0.5 : 1"
     inkscape:vp_y="0 : 1000 : 0"
     inkscape:vp_x="0 : 0.5 : 1"
     sodipodi:type="inkscape:persp3d" /><inkscape:perspective
     id="perspective16918"
     inkscape:persp3d-origin="0.5 : 0.33333333 : 1"
     inkscape:vp_z="1 : 0.5 : 1"
     inkscape:vp_y="0 : 1000 : 0"
     inkscape:vp_x="0 : 0.5 : 1"
     sodipodi:type="inkscape:persp3d" /><inkscape:perspective
     id="perspective19890"
     inkscape:persp3d-origin="0.5 : 0.33333333 : 1"
     inkscape:vp_z="1 : 0.5 : 1"
     inkscape:vp_y="0 : 1000 : 0"
     inkscape:vp_x="0 : 0.5 : 1"
     sodipodi:type="inkscape:persp3d" /><inkscape:perspective
     id="perspective19944"
     inkscape:persp3d-origin="0.5 : 0.33333333 : 1"
     inkscape:vp_z="1 : 0.5 : 1"
     inkscape:vp_y="0 : 1000 : 0"
     inkscape:vp_x="0 : 0.5 : 1"
     sodipodi:type="inkscape:persp3d" /><inkscape:perspective
     id="perspective20014"
     inkscape:persp3d-origin="0.5 : 0.33333333 : 1"
     inkscape:vp_z="1 : 0.5 : 1"
     inkscape:vp_y="0 : 1000 : 0"
     inkscape:vp_x="0 : 0.5 : 1"
     sodipodi:type="inkscape:persp3d" /><inkscape:perspective
     id="perspective20076"
     inkscape:persp3d-origin="0.5 : 0.33333333 : 1"
     inkscape:vp_z="1 : 0.5 : 1"
     inkscape:vp_y="0 : 1000 : 0"
     inkscape:vp_x="0 : 0.5 : 1"
     sodipodi:type="inkscape:persp3d" /><inkscape:perspective
     id="perspective25708"
     inkscape:persp3d-origin="0.5 : 0.33333333 : 1"
     inkscape:vp_z="1 : 0.5 : 1"
     inkscape:vp_y="0 : 1000 : 0"
     inkscape:vp_x="0 : 0.5 : 1"
     sodipodi:type="inkscape:persp3d" /><inkscape:perspective
     id="perspective25775"
     inkscape:persp3d-origin="0.5 : 0.33333333 : 1"
     inkscape:vp_z="1 : 0.5 : 1"
     inkscape:vp_y="0 : 1000 : 0"
     inkscape:vp_x="0 : 0.5 : 1"
     sodipodi:type="inkscape:persp3d" /><inkscape:perspective
     id="perspective25818"
     inkscape:persp3d-origin="0.5 : 0.33333333 : 1"
     inkscape:vp_z="1 : 0.5 : 1"
     inkscape:vp_y="0 : 1000 : 0"
     inkscape:vp_x="0 : 0.5 : 1"
     sodipodi:type="inkscape:persp3d" /><inkscape:perspective
     id="perspective25861"
     inkscape:persp3d-origin="0.5 : 0.33333333 : 1"
     inkscape:vp_z="1 : 0.5 : 1"
     inkscape:vp_y="0 : 1000 : 0"
     inkscape:vp_x="0 : 0.5 : 1"
     sodipodi:type="inkscape:persp3d" /><inkscape:perspective
     id="perspective25975"
     inkscape:persp3d-origin="0.5 : 0.33333333 : 1"
     inkscape:vp_z="1 : 0.5 : 1"
     inkscape:vp_y="0 : 1000 : 0"
     inkscape:vp_x="0 : 0.5 : 1"
     sodipodi:type="inkscape:persp3d" /><inkscape:perspective
     id="perspective26105"
     inkscape:persp3d-origin="0.5 : 0.33333333 : 1"
     inkscape:vp_z="1 : 0.5 : 1"
     inkscape:vp_y="0 : 1000 : 0"
     inkscape:vp_x="0 : 0.5 : 1"
     sodipodi:type="inkscape:persp3d" /><inkscape:perspective
     id="perspective26235"
     inkscape:persp3d-origin="0.5 : 0.33333333 : 1"
     inkscape:vp_z="1 : 0.5 : 1"
     inkscape:vp_y="0 : 1000 : 0"
     inkscape:vp_x="0 : 0.5 : 1"
     sodipodi:type="inkscape:persp3d" /><inkscape:perspective
     id="perspective26419"
     inkscape:persp3d-origin="0.5 : 0.33333333 : 1"
     inkscape:vp_z="1 : 0.5 : 1"
     inkscape:vp_y="0 : 1000 : 0"
     inkscape:vp_x="0 : 0.5 : 1"
     sodipodi:type="inkscape:persp3d" /><inkscape:perspective
     id="perspective26565"
     inkscape:persp3d-origin="0.5 : 0.33333333 : 1"
     inkscape:vp_z="1 : 0.5 : 1"
     inkscape:vp_y="0 : 1000 : 0"
     inkscape:vp_x="0 : 0.5 : 1"
     sodipodi:type="inkscape:persp3d" /><inkscape:perspective
     id="perspective26679"
     inkscape:persp3d-origin="0.5 : 0.33333333 : 1"
     inkscape:vp_z="1 : 0.5 : 1"
     inkscape:vp_y="0 : 1000 : 0"
     inkscape:vp_x="0 : 0.5 : 1"
     sodipodi:type="inkscape:persp3d" /><inkscape:perspective
     id="perspective26722"
     inkscape:persp3d-origin="0.5 : 0.33333333 : 1"
     inkscape:vp_z="1 : 0.5 : 1"
     inkscape:vp_y="0 : 1000 : 0"
     inkscape:vp_x="0 : 0.5 : 1"
     sodipodi:type="inkscape:persp3d" /><inkscape:perspective
     id="perspective26768"
     inkscape:persp3d-origin="0.5 : 0.33333333 : 1"
     inkscape:vp_z="1 : 0.5 : 1"
     inkscape:vp_y="0 : 1000 : 0"
     inkscape:vp_x="0 : 0.5 : 1"
     sodipodi:type="inkscape:persp3d" /><inkscape:perspective
     id="perspective26814"
     inkscape:persp3d-origin="0.5 : 0.33333333 : 1"
     inkscape:vp_z="1 : 0.5 : 1"
     inkscape:vp_y="0 : 1000 : 0"
     inkscape:vp_x="0 : 0.5 : 1"
     sodipodi:type="inkscape:persp3d" /><inkscape:perspective
     id="perspective26896"
     inkscape:persp3d-origin="0.5 : 0.33333333 : 1"
     inkscape:vp_z="1 : 0.5 : 1"
     inkscape:vp_y="0 : 1000 : 0"
     inkscape:vp_x="0 : 0.5 : 1"
     sodipodi:type="inkscape:persp3d" /><inkscape:perspective
     id="perspective26999"
     inkscape:persp3d-origin="0.5 : 0.33333333 : 1"
     inkscape:vp_z="1 : 0.5 : 1"
     inkscape:vp_y="0 : 1000 : 0"
     inkscape:vp_x="0 : 0.5 : 1"
     sodipodi:type="inkscape:persp3d" /><inkscape:perspective
     id="perspective27073"
     inkscape:persp3d-origin="0.5 : 0.33333333 : 1"
     inkscape:vp_z="1 : 0.5 : 1"
     inkscape:vp_y="0 : 1000 : 0"
     inkscape:vp_x="0 : 0.5 : 1"
     sodipodi:type="inkscape:persp3d" /><inkscape:perspective
     id="perspective27156"
     inkscape:persp3d-origin="0.5 : 0.33333333 : 1"
     inkscape:vp_z="1 : 0.5 : 1"
     inkscape:vp_y="0 : 1000 : 0"
     inkscape:vp_x="0 : 0.5 : 1"
     sodipodi:type="inkscape:persp3d" /><inkscape:perspective
     id="perspective27214"
     inkscape:persp3d-origin="0.5 : 0.33333333 : 1"
     inkscape:vp_z="1 : 0.5 : 1"
     inkscape:vp_y="0 : 1000 : 0"
     inkscape:vp_x="0 : 0.5 : 1"
     sodipodi:type="inkscape:persp3d" /><inkscape:perspective
     id="perspective27304"
     inkscape:persp3d-origin="0.5 : 0.33333333 : 1"
     inkscape:vp_z="1 : 0.5 : 1"
     inkscape:vp_y="0 : 1000 : 0"
     inkscape:vp_x="0 : 0.5 : 1"
     sodipodi:type="inkscape:persp3d" /><inkscape:perspective
     id="perspective27362"
     inkscape:persp3d-origin="0.5 : 0.33333333 : 1"
     inkscape:vp_z="1 : 0.5 : 1"
     inkscape:vp_y="0 : 1000 : 0"
     inkscape:vp_x="0 : 0.5 : 1"
     sodipodi:type="inkscape:persp3d" /><inkscape:perspective
     id="perspective27432"
     inkscape:persp3d-origin="0.5 : 0.33333333 : 1"
     inkscape:vp_z="1 : 0.5 : 1"
     inkscape:vp_y="0 : 1000 : 0"
     inkscape:vp_x="0 : 0.5 : 1"
     sodipodi:type="inkscape:persp3d" /><inkscape:perspective
     id="perspective27498"
     inkscape:persp3d-origin="0.5 : 0.33333333 : 1"
     inkscape:vp_z="1 : 0.5 : 1"
     inkscape:vp_y="0 : 1000 : 0"
     inkscape:vp_x="0 : 0.5 : 1"
     sodipodi:type="inkscape:persp3d" /><inkscape:perspective
     id="perspective27844"
     inkscape:persp3d-origin="0.5 : 0.33333333 : 1"
     inkscape:vp_z="1 : 0.5 : 1"
     inkscape:vp_y="0 : 1000 : 0"
     inkscape:vp_x="0 : 0.5 : 1"
     sodipodi:type="inkscape:persp3d" /><inkscape:perspective
     id="perspective27894"
     inkscape:persp3d-origin="0.5 : 0.33333333 : 1"
     inkscape:vp_z="1 : 0.5 : 1"
     inkscape:vp_y="0 : 1000 : 0"
     inkscape:vp_x="0 : 0.5 : 1"
     sodipodi:type="inkscape:persp3d" /><inkscape:perspective
     id="perspective27944"
     inkscape:persp3d-origin="0.5 : 0.33333333 : 1"
     inkscape:vp_z="1 : 0.5 : 1"
     inkscape:vp_y="0 : 1000 : 0"
     inkscape:vp_x="0 : 0.5 : 1"
     sodipodi:type="inkscape:persp3d" /><inkscape:perspective
     id="perspective28014"
     inkscape:persp3d-origin="0.5 : 0.33333333 : 1"
     inkscape:vp_z="1 : 0.5 : 1"
     inkscape:vp_y="0 : 1000 : 0"
     inkscape:vp_x="0 : 0.5 : 1"
     sodipodi:type="inkscape:persp3d" /><inkscape:perspective
     id="perspective28084"
     inkscape:persp3d-origin="0.5 : 0.33333333 : 1"
     inkscape:vp_z="1 : 0.5 : 1"
     inkscape:vp_y="0 : 1000 : 0"
     inkscape:vp_x="0 : 0.5 : 1"
     sodipodi:type="inkscape:persp3d" /></defs><sodipodi:namedview
   pagecolor="#ffffff"
   bordercolor="#666666"
   borderopacity="1"
   objecttolerance="10"
   gridtolerance="10"
   guidetolerance="10"
   inkscape:pageopacity="0"
   inkscape:pageshadow="2"
   inkscape:window-width="1024"
   inkscape:window-height="695"
   id="namedview9"
   showgrid="false"
   inkscape:zoom="11.8"
   inkscape:cx="9.0620488"
   inkscape:cy="10"
   inkscape:window-x="0"
   inkscape:window-y="24"
   inkscape:window-maximized="1"
   inkscape:current-layer="Ebene_1" />
  
  
  
<path
   id="path21855"
   style="fill:#ffffff;fill-opacity:1;fill-rule:nonzero;stroke:none"
   d="m 9.7283483,10.79375 c 0.2225,-0.0625 0.4549997,-0.09625 0.6962497,-0.09625 1.74125,0 3.94375,2.5525 3.885,4.6975 -0.0575,2.14875 -1.68125,4.35 -4.8712497,4.35 -3.18875,0 -5.625,-2.0275 -5.625,-5.8 0,-3.7725 5.21875,-8.2975 5.68375,-9.04875 0.46125,-0.75625 0.7512497,-2.9 -1.10375,-4.64125 0,0 2.0524997,1.7075 2.6112497,3.82875 0.755,2.84875 0.0625,5.49125 -0.67375,6.0975 l -0.6024997,0.6125" /><g
   id="g28125"
   transform="matrix(0.81,0,0,0.81,2.6597405,1.8999998)"><path
     d="m 10.039326,2.9030926 c -0.2837499,-0.085 -0.7899999,-0.165 -1.2399999,-0.02625 -0.45375,0.145 -0.62,0.36875 -0.65,0.62125"
     style="fill:#ffffff;fill-opacity:1;fill-rule:nonzero;stroke:none"
     id="path22489" /><path
     d="m 10.039326,2.9030926 c -0.2837499,-0.085 -0.7899999,-0.165 -1.2399999,-0.02625 -0.45375,0.145 -0.62,0.36875 -0.65,0.62125"
     style="fill:none;stroke:#000000;stroke-width:0.44999999;stroke-linecap:butt;stroke-linejoin:miter;stroke-miterlimit:4;stroke-opacity:1;stroke-dasharray:none"
     id="path22491" /><path
     d="m 4.5018265,4.8743426 c -0.39375,-0.1125 -1.31875,-0.24625 -1.7675,-0.04875 -0.44875,0.1975 -0.7925,0.95625 -0.7925,1.40875"
     style="fill:#ffffff;fill-opacity:1;fill-rule:nonzero;stroke:none"
     id="path22493" /><path
     d="m 4.5018265,4.8743426 c -0.39375,-0.1125 -1.31875,-0.24625 -1.7675,-0.04875 -0.44875,0.1975 -0.7925,0.95625 -0.7925,1.40875"
     style="fill:none;stroke:#000000;stroke-width:0.44999999;stroke-linecap:butt;stroke-linejoin:miter;stroke-miterlimit:4;stroke-opacity:1;stroke-dasharray:none"
     id="path22495" /><path
     d="m 20.195576,-0.30940735 c -0.52,-0.11375 -1.6925,0.6225 -2.2,0.6225 -0.50625,0 -0.475,-0.39875 -1.07125,0 -0.59375,0.39249996 -0.0275,-0.78875 -1.155,-0.06 -1.13,0.73624996 -2.6525,1.38624995 -3.9825,2.00624995 -1.325,0.6175 -4.6524999,1.4625 -6.1474995,2.11625 -1.49375,0.6475 -4.12125,1.74875 -5.84250002,3.57875 -1.71874998,1.8375 -3.29999998,4.1787504 -2.22624998,7.1412504 1.0725,2.96125 3.555,4.99625 7.08125,5.19125 3.5274996,0.19875 6.1237495,-0.5075 6.1237495,-0.93125 0,-0.42125 -1.1024999,-0.93125 -3.5274999,-0.93125 -2.4237496,0 -6.54499962,-1.015 -7.05249962,-2.1425 -0.50875,-1.13375 2.17000002,-5.7875 3.47000002,-5.89875 1.295,-0.1125 2.565,0.2675 3.5512496,-0.225 0.11625,-0.05375 0.31375,-0.2550004 0.31375,-0.2550004 l 0.02625,1.4375004 0.82,0.73625 1.41125,0.05625 0.7049999,0.39375 -0.3975,-0.6475 1.0475,0.0825 -0.70625,-0.335 0.9875,-0.0575 -0.875,-0.22875 0.9575,-0.25 -2.0587499,-0.08625 0,-1.4112504 c 0,0 1.5249999,-0.36875 2.0874999,-0.96 0.56375,-0.59 2.2275,-2.11625 2.96375,-2.285 0.23875,-0.055 0.66625,0.0375 0.79,0.33625 0.2775,0.6875 0.21625,1.945 0.6475,2.11625 0.62,0.2575 1.835,0.22875 1.835,0.22875 l -0.53875,-0.4525 1.01875,0.14 -0.62125,-0.3375 0.92875,0.06 -0.76125,-0.25625 0.64875,-0.195 -1.6375,-0.03375 -0.05625,-0.9 c 0,0 -0.05375,-1.41125 -0.47625,-1.86375 -0.425,-0.4475 1.52125,-0.89875 1.35375,-1.66375 -0.17,-0.76 0.73625,-0.22625 1.04375,-1.1575 0.30875,-0.93 2.03125,-0.98625 2.00125,-1.43499999 -0.02625,-0.4525 0.34,-0.50999996 0.1975,-0.82249996 -0.13875,-0.30875 -0.42125,-0.36375 -0.6775,-0.42125"
     style="fill:#ffffff;fill-opacity:1;fill-rule:nonzero;stroke:none"
     id="path22497" /><path
     d="m 20.195576,-0.30940735 c -0.52,-0.11375 -1.6925,0.6225 -2.2,0.6225 -0.50625,0 -0.475,-0.39875 -1.07125,0 -0.59375,0.39249996 -0.0275,-0.78875 -1.155,-0.06 -1.13,0.73624996 -2.6525,1.38624995 -3.9825,2.00624995 -1.325,0.6175 -4.6524999,1.4625 -6.1474995,2.11625 -1.49375,0.6475 -4.12125,1.74875 -5.84250002,3.57875 -1.71874998,1.8375 -3.29999998,4.1787504 -2.22624998,7.1412504 1.0725,2.96125 3.555,4.99625 7.08125,5.19125 3.5274996,0.19875 6.1237495,-0.5075 6.1237495,-0.93125 0,-0.42125 -1.1024999,-0.93125 -3.5274999,-0.93125 -2.4237496,0 -6.54499962,-1.015 -7.05249962,-2.1425 -0.50875,-1.13375 2.17000002,-5.7875 3.47000002,-5.89875 1.295,-0.1125 2.565,0.2675 3.5512496,-0.225 0.11625,-0.05375 0.31375,-0.2550004 0.31375,-0.2550004 l 0.02625,1.4375004 0.82,0.73625 1.41125,0.05625 0.7049999,0.39375 -0.3975,-0.6475 1.0475,0.0825 -0.70625,-0.335 0.9875,-0.0575 -0.875,-0.22875 0.9575,-0.25 -2.0587499,-0.08625 0,-1.4112504 c 0,0 1.5249999,-0.36875 2.0874999,-0.96 0.56375,-0.59 2.2275,-2.11625 2.96375,-2.285 0.23875,-0.055 0.66625,0.0375 0.79,0.33625 0.2775,0.6875 0.21625,1.945 0.6475,2.11625 0.62,0.2575 1.835,0.22875 1.835,0.22875 l -0.53875,-0.4525 1.01875,0.14 -0.62125,-0.3375 0.92875,0.06 -0.76125,-0.25625 0.64875,-0.195 -1.6375,-0.03375 -0.05625,-0.9 c 0,0 -0.05375,-1.41125 -0.47625,-1.86375 -0.425,-0.4475 1.52125,-0.89875 1.35375,-1.66375 -0.17,-0.76 0.73625,-0.22625 1.04375,-1.1575 0.30875,-0.93 2.03125,-0.98625 2.00125,-1.43499999 -0.02625,-0.4525 0.34,-0.50999996 0.1975,-0.82249996 -0.13875,-0.30875 -0.42125,-0.36375 -0.6775,-0.42125 z"
     style="fill:none;stroke:#000000;stroke-width:0.44999999;stroke-linecap:butt;stroke-linejoin:miter;stroke-miterlimit:4;stroke-opacity:1;stroke-dasharray:none"
     id="path22499" /><path
     d="m 9.4480761,9.5930926 -0.0275,-1.04375 c 0,0 -0.9875,-1.55 -2.4287496,-1.41 -1.43625,0.1425 -2.1675,0.70625 -2.36875,1.3"
     style="fill:none;stroke:#000000;stroke-width:0.44999999;stroke-linecap:butt;stroke-linejoin:miter;stroke-miterlimit:4;stroke-opacity:1;stroke-dasharray:none"
     id="path22501" /><path
     d="m 16.220576,5.1205926 c -0.4825,-0.68 -0.98875,-1.48375 -1.545,-1.47625 -0.50125,0.0075 -1.22625,0.3975 -1.25,0.92375"
     style="fill:none;stroke:#000000;stroke-width:0.44999999;stroke-linecap:butt;stroke-linejoin:miter;stroke-miterlimit:4;stroke-opacity:1;stroke-dasharray:none"
     id="path22503" /><path
     d="m 20.734326,0.60934261 -0.62375,0.125 -0.505,0.48124999 -0.6225,0 -0.59,0.67625 -1.58375,-0.05625 -0.56,0.76125"
     style="fill:none;stroke:#000000;stroke-width:0.44999999;stroke-linecap:butt;stroke-linejoin:miter;stroke-miterlimit:4;stroke-opacity:1;stroke-dasharray:none"
     id="path22505" /><path
     d="m 1.4505765,17.226843 c -1.31625002,-0.53125 -4.305,-2.6325 -4.23125,-4.06125"
     style="fill:none;stroke:#000000;stroke-width:0.44999999;stroke-linecap:butt;stroke-linejoin:miter;stroke-miterlimit:4;stroke-opacity:1;stroke-dasharray:none"
     id="path22507" /></g></svg>