<?xml version="1.0" encoding="UTF-8" standalone="no"?>
<!-- Created with Inkscape (http://www.inkscape.org/) -->

<svg
   xmlns:dc="http://purl.org/dc/elements/1.1/"
   xmlns:cc="http://creativecommons.org/ns#"
   xmlns:rdf="http://www.w3.org/1999/02/22-rdf-syntax-ns#"
   xmlns:svg="http://www.w3.org/2000/svg"
   xmlns="http://www.w3.org/2000/svg"
   xmlns:sodipodi="http://sodipodi.sourceforge.net/DTD/sodipodi-0.dtd"
   xmlns:inkscape="http://www.inkscape.org/namespaces/inkscape"
   width="32px"
   height="32px"
   id="svg6453"
   version="1.1"
   inkscape:version="0.48.0 r9654"
   sodipodi:docname="16.07.svg">
  <defs
     id="defs6455" />
  <sodipodi:namedview
     id="base"
     pagecolor="#ffffff"
     bordercolor="#666666"
     borderopacity="1.0"
     inkscape:pageopacity="0.0"
     inkscape:pageshadow="2"
     inkscape:zoom="11.197802"
     inkscape:cx="16"
     inkscape:cy="16"
     inkscape:current-layer="layer1"
     showgrid="true"
     inkscape:grid-bbox="true"
     inkscape:document-units="px"
     inkscape:window-width="469"
     inkscape:window-height="455"
     inkscape:window-x="626"
     inkscape:window-y="130"
     inkscape:window-maximized="0" />
  <metadata
     id="metadata6458">
    <rdf:RDF>
      <cc:Work
         rdf:about="">
        <dc:format>image/svg+xml</dc:format>
        <dc:type
           rdf:resource="http://purl.org/dc/dcmitype/StillImage" />
        <dc:title></dc:title>
      </cc:Work>
    </rdf:RDF>
  </metadata>
  <g
     id="layer1"
     inkscape:label="Layer 1"
     inkscape:groupmode="layer">
    <g
       id="g6580"
       transform="matrix(0,-1,1,0,-0.74386591,32.357212)">
      <path
         inkscape:connector-curvature="0"
         d="m 7.8585585,13.396964 c 0.2225,-0.18875 0.25125,-0.52375 0.0637,-0.7475 -0.19,-0.22625 -0.525,-0.255 -0.75,-0.0663 -0.22625,0.1875 -0.25125,0.525 -0.065,0.74875 0.18875,0.22625 0.5225,0.255 0.75125,0.065"
         style="fill:#000000;fill-opacity:1;fill-rule:nonzero;stroke:none"
         id="path4812" />
      <path
         inkscape:connector-curvature="0"
         d="m 9.0622985,14.831964 c 0.22625,-0.185 0.2525,-0.5225 0.0625,-0.74875 -0.18624,-0.225 -0.5225,-0.25375 -0.74625,-0.0637 -0.22374,0.1875 -0.25249,0.525 -0.065,0.75 0.18624,0.22375 0.52125,0.25125 0.74874,0.0625"
         style="fill:#000000;fill-opacity:1;fill-rule:nonzero;stroke:none"
         id="path4814" />
      <path
         inkscape:connector-curvature="0"
         d="m 10.264808,16.269464 c 0.22875,-0.18625 0.255,-0.52375 0.0662,-0.74875 -0.18875,-0.22375 -0.5237495,-0.25375 -0.7499995,-0.0662 -0.22375,0.18875 -0.25125,0.525 -0.065,0.75 0.19125,0.22625 0.5249995,0.25375 0.7487495,0.065"
         style="fill:#000000;fill-opacity:1;fill-rule:nonzero;stroke:none"
         id="path4816" />
      <path
         inkscape:connector-curvature="0"
         d="m 11.472298,17.704464 c 0.22375,-0.1875 0.25376,-0.52125 0.0638,-0.74625 -0.18876,-0.22625 -0.5225,-0.255 -0.7475,-0.0637 -0.22251,0.18625 -0.255,0.5225 -0.065,0.74625 0.1875,0.225 0.52375,0.255 0.74874,0.0638"
         style="fill:#000000;fill-opacity:1;fill-rule:nonzero;stroke:none"
         id="path4818" />
      <path
         inkscape:connector-curvature="0"
         d="m 12.624798,19.081964 c 0.22625,-0.18875 0.25875,-0.5225 0.0663,-0.74875 -0.18624,-0.22625 -0.52499,-0.25375 -0.745,-0.0637 -0.225,0.1875 -0.25749,0.5225 -0.0663,0.74625 0.19,0.2275 0.52125,0.25375 0.745,0.0663"
         style="fill:#000000;fill-opacity:1;fill-rule:nonzero;stroke:none"
         id="path4820" />
      <path
         inkscape:connector-curvature="0"
         d="m 13.831048,20.521964 c 0.22751,-0.1925 0.25626,-0.52625 0.0688,-0.74875 -0.19126,-0.2275 -0.525,-0.2575 -0.75,-0.0663 -0.22875,0.18375 -0.25626,0.52125 -0.0675,0.7475 0.1875,0.22375 0.52249,0.255 0.74874,0.0675"
         style="fill:#000000;fill-opacity:1;fill-rule:nonzero;stroke:none"
         id="path4822" />
      <path
         inkscape:connector-curvature="0"
         d="m 11.447298,13.394464 c 0.22375,-0.18875 0.255,-0.52375 0.0675,-0.7475 -0.19125,-0.22625 -0.525,-0.25375 -0.75125,-0.0675 -0.22125,0.19 -0.2525,0.5275 -0.0625,0.75 0.1875,0.22625 0.5225,0.255 0.74625,0.065"
         style="fill:#000000;fill-opacity:1;fill-rule:nonzero;stroke:none"
         id="path4824" />
      <path
         inkscape:connector-curvature="0"
         d="m 12.652308,14.831964 c 0.22624,-0.1875 0.25625,-0.52375 0.07,-0.7525 -0.19249,-0.22375 -0.52625,-0.25 -0.75125,-0.0625 -0.2275,0.1875 -0.255,0.525 -0.0663,0.7475 0.18875,0.22625 0.52375,0.255 0.7475,0.0675"
         style="fill:#000000;fill-opacity:1;fill-rule:nonzero;stroke:none"
         id="path4826" />
      <path
         inkscape:connector-curvature="0"
         d="m 13.859798,16.265714 c 0.22251,-0.185 0.255,-0.52125 0.0625,-0.74625 -0.18624,-0.22375 -0.52249,-0.255 -0.74624,-0.0663 -0.22375,0.18875 -0.2525,0.52375 -0.0663,0.74875 0.19126,0.22625 0.5225,0.25375 0.75,0.0637"
         style="fill:#000000;fill-opacity:1;fill-rule:nonzero;stroke:none"
         id="path4828" />
      <path
         inkscape:connector-curvature="0"
         d="m 15.067298,17.703214 c 0.2225,-0.18875 0.25125,-0.52375 0.0625,-0.74875 -0.18875,-0.225 -0.525,-0.2525 -0.74875,-0.0638 -0.2275,0.1875 -0.25125,0.52375 -0.0663,0.74875 0.19,0.225 0.52375,0.25375 0.7525,0.0637"
         style="fill:#000000;fill-opacity:1;fill-rule:nonzero;stroke:none"
         id="path4830" />
      <path
         inkscape:connector-curvature="0"
         d="m 16.221048,19.080714 c 0.22375,-0.19 0.2525,-0.52375 0.065,-0.75 -0.18875,-0.22375 -0.525,-0.25375 -0.75,-0.0637 -0.22875,0.1875 -0.2525,0.5225 -0.0662,0.74875 0.1875,0.22375 0.525,0.25125 0.75125,0.065"
         style="fill:#000000;fill-opacity:1;fill-rule:nonzero;stroke:none"
         id="path4832" />
      <path
         inkscape:connector-curvature="0"
         d="m 17.422298,20.519464 c 0.22751,-0.19125 0.25876,-0.52625 0.0688,-0.75 -0.19126,-0.225 -0.525,-0.25625 -0.75,-0.0663 -0.22501,0.1875 -0.25626,0.5225 -0.065,0.7475 0.18624,0.22375 0.52499,0.2575 0.74624,0.0688"
         style="fill:#000000;fill-opacity:1;fill-rule:nonzero;stroke:none"
         id="path4834" />
      <path
         inkscape:connector-curvature="0"
         d="m 20.231048,18.290714 4.4875,-1.70875 -4.4875,-1.665 2.8025,1.6625 -2.8025,1.71125 0,0"
         style="fill:#000000;fill-opacity:1;fill-rule:nonzero;stroke:none"
         id="path4848" />
      <path
         inkscape:connector-curvature="0"
         d="m 20.231048,18.290714 4.4875,-1.70875 -4.4875,-1.665 2.8025,1.6625 -2.8025,1.71125 0,0 z"
         style="fill:none;stroke:#000000;stroke-width:0.36000001;stroke-linecap:butt;stroke-linejoin:miter;stroke-miterlimit:4;stroke-opacity:1;stroke-dasharray:none"
         id="path4850" />
      <path
         inkscape:connector-curvature="0"
         d="m 6.9847985,16.575714 16.0487495,0"
         style="fill:none;stroke:#000000;stroke-width:0.54000002;stroke-linecap:butt;stroke-linejoin:miter;stroke-miterlimit:4;stroke-opacity:1;stroke-dasharray:none"
         id="path4852" />
    </g>
  </g>
</svg>
