<?xml version="1.0" encoding="UTF-8" standalone="no"?>
<!-- Created with Inkscape (http://www.inkscape.org/) -->
<svg
   xmlns:dc="http://purl.org/dc/elements/1.1/"
   xmlns:cc="http://web.resource.org/cc/"
   xmlns:rdf="http://www.w3.org/1999/02/22-rdf-syntax-ns#"
   xmlns:svg="http://www.w3.org/2000/svg"
   xmlns="http://www.w3.org/2000/svg"
   xmlns:sodipodi="http://sodipodi.sourceforge.net/DTD/sodipodi-0.dtd"
   xmlns:inkscape="http://www.inkscape.org/namespaces/inkscape"
   width="744.09448819"
   height="1052.3622047"
   id="svg2"
   sodipodi:version="0.32"
   inkscape:version="0.44.1"
   sodipodi:docbase="F:\Qgis N_arrows\WEATHER"
   sodipodi:docname="cloudy.svg">
  <defs
     id="defs4" />
  <sodipodi:namedview
     id="base"
     pagecolor="#ffffff"
     bordercolor="#666666"
     borderopacity="1.0"
     inkscape:pageopacity="0.0"
     inkscape:pageshadow="2"
     inkscape:zoom="0.98994949"
     inkscape:cx="375.75893"
     inkscape:cy="519.42857"
     inkscape:document-units="px"
     inkscape:current-layer="layer1"
     showgrid="true"
     inkscape:window-width="1280"
     inkscape:window-height="744"
     inkscape:window-x="-4"
     inkscape:window-y="-4" />
  <metadata
     id="metadata7">
    <rdf:RDF>
      <cc:Work
         rdf:about="">
        <dc:format>image/svg+xml</dc:format>
        <dc:type
           rdf:resource="http://purl.org/dc/dcmitype/StillImage" />
      </cc:Work>
    </rdf:RDF>
  </metadata>
  <g
     inkscape:label="Livello 1"
     inkscape:groupmode="layer"
     id="layer1">
    <g
       id="g1910"
       transform="matrix(4.239163,0,0,6.070648,-1024.697,-2684.691)">
      <path
         d="M 289.76171,551.74795 C 289.76397,551.52309 289.76356,551.29821 289.76413,551.07335 C 289.73925,550.71742 289.78158,550.3681 289.81347,550.01607 C 289.81936,549.65307 289.98506,549.34652 290.10627,549.01857 C 290.28116,548.62784 290.50771,548.26495 290.72283,547.89661 C 291.0027,547.65359 291.20296,547.34789 291.42901,547.0671 C 291.50507,546.72274 291.65679,546.40494 291.78174,546.07907 C 291.90587,545.7432 292.11468,545.46608 292.31461,545.17698 C 292.59148,544.83342 292.84648,544.47189 293.11311,544.11983 C 293.93729,543.14078 294.83017,542.22336 295.81809,541.40974 C 296.66331,540.77454 297.60656,540.29602 298.5512,539.83072 C 299.5025,539.44471 298.73898,539.76935 299.34361,539.39418 C 299.74347,539.07255 300.17622,538.79694 300.60224,538.51343 C 301.12631,538.10378 301.70553,537.91619 302.3357,537.78433 C 303.05236,537.7095 303.75286,537.88933 304.44328,538.05428 C 304.98999,538.30025 305.51655,538.2801 306.08962,538.26171 C 306.70924,538.13214 307.30015,538.17058 307.91372,538.27717 C 308.61199,538.62475 309.06214,538.38425 309.70426,538.06288 C 310.4726,537.47825 311.38338,537.12592 312.31017,536.85931 C 312.74645,536.93221 313.22051,536.94537 313.63087,536.9704 C 312.96144,537.6011 313.44808,536.47256 313.5219,536.23577 C 313.86869,535.39479 314.56865,534.86002 315.2491,534.30308 C 315.91076,533.7808 316.6615,533.42853 317.44212,533.13425 C 317.91857,532.9474 318.34918,532.65762 319.17113,532.22376 C 319.86343,531.89208 320.60735,531.78341 321.35952,531.69781 C 321.97496,531.59849 322.49459,531.241 323.03208,530.94669 C 323.67171,530.63994 324.3788,530.53907 325.06858,530.40983 C 325.66782,530.22605 326.09402,530.47326 326.60574,530.75475 C 327.04677,531.04506 327.46665,531.36392 327.89929,531.66355 C 328.43145,531.84064 329.00183,531.68187 329.54904,531.61687 C 330.51027,531.43766 331.19891,531.72163 331.98072,532.22518 C 332.42267,532.67858 332.83853,533.15253 333.29211,533.59453 C 333.69666,533.93637 334.11058,534.26673 334.52071,534.60177 C 334.95928,534.93292 335.32701,535.3331 335.69999,535.73203 C 335.92241,536.0497 336.23573,536.10908 336.55098,536.25797 C 336.92018,536.32339 337.29587,536.31422 337.66909,536.31964 C 338.1312,536.2561 338.51608,536.43853 338.93743,536.58555 C 339.40596,536.77955 339.81427,537.07082 340.22746,537.35819 C 340.63147,537.67198 340.92694,538.09234 341.24717,538.48629 C 341.67696,539.01948 342.13859,539.52104 342.54759,540.06931 C 342.8175,540.51424 343.05763,540.97636 343.31271,541.43038 C 343.61541,541.94556 343.93541,542.44939 344.2298,542.96898 C 344.44895,543.41463 344.75733,543.79345 345.07301,544.17196 C 345.40643,544.56435 345.79317,544.90441 346.16679,545.25663 C 346.60761,545.76839 346.87821,546.40038 347.18702,546.99606 C 347.49376,547.48999 347.73316,548.01971 347.9956,548.53734 C 348.28068,549.17545 348.63467,549.77863 348.97301,550.38906 C 349.2189,550.8194 349.45889,551.25301 349.69489,551.68797 C 349.82685,552.06992 349.87779,552.4769 349.9468,552.87393 C 350.18315,553.2327 350.15699,553.63395 350.20512,554.00706 C 349.80207,554.4507 349.44188,554.43487 348.93411,554.48962 C 348.57552,554.49356 348.21688,554.48831 347.85829,554.48534 C 347.49977,554.48261 347.14124,554.48251 346.78272,554.48194 C 346.42551,554.48169 346.0683,554.48179 345.7111,554.48179 C 345.35397,554.48182 344.99684,554.48182 344.63972,554.48183 C 344.28258,554.48184 343.92544,554.48184 343.5683,554.48184 C 343.21115,554.48184 342.85401,554.48184 342.49687,554.48184 C 342.13972,554.48184 341.78258,554.48184 341.42544,554.48184 C 341.0683,554.48184 340.71115,554.48184 340.35401,554.48184 C 339.99283,554.45915 339.63946,554.53503 339.28494,554.59253 C 338.92285,554.61452 338.56987,554.67548 338.21413,554.74281 C 337.77402,554.82357 337.32559,554.81902 336.88023,554.83354 C 336.43706,554.84091 335.99381,554.83975 335.5506,554.84002 C 335.13201,554.80697 334.76873,554.96877 334.38712,555.10772 C 333.96537,555.29881 333.51812,555.38827 333.07136,555.48922 C 332.65083,555.54935 332.22588,555.54766 331.80231,555.55614 C 331.43787,555.55726 331.07343,555.55549 330.709,555.55443 C 330.35242,555.55347 329.99585,555.55354 329.63928,555.55329 C 329.20356,555.5527 328.76783,555.55266 328.33211,555.55268 C 327.93557,555.55296 327.53904,555.55307 327.14251,555.5532 C 326.77686,555.55342 326.41121,555.55318 326.04556,555.55302 C 325.57337,555.55247 325.10118,555.55258 324.62899,555.55252 C 324.23516,555.60037 323.85799,555.51447 323.47243,555.46854 C 323.08896,555.39378 322.6974,555.39509 322.30876,555.37953 C 321.85663,555.37114 321.4044,555.37318 320.95222,555.37318 C 320.57375,555.3739 320.19529,555.37419 319.81683,555.37452 C 319.43608,555.3352 319.07032,555.40247 318.6993,555.45157 C 318.22692,555.60107 317.75552,555.75472 317.28425,555.90763 C 316.74003,556.12335 316.16067,556.18276 315.58395,556.2384 C 315.10098,556.27094 314.61687,556.26841 314.13315,556.27111 C 313.68042,556.26933 313.22769,556.26853 312.77496,556.26772 C 312.29273,556.26696 311.8105,556.26693 311.32827,556.2666 C 310.88261,556.26696 310.43696,556.26704 309.99131,556.26712 C 309.51271,556.26715 309.03412,556.26678 308.55553,556.2665 C 308.04855,556.27989 307.54156,556.25983 307.03629,556.24362 C 306.66448,556.16565 306.31667,555.98353 305.96083,555.84381 C 305.42066,555.7288 304.86529,555.73964 304.31602,555.72918 C 303.68436,555.72388 303.05267,555.72708 302.42099,555.7289 C 301.93406,555.73105 301.44712,555.73067 300.96018,555.73063 C 300.35156,555.73057 299.74294,555.73027 299.13433,555.73027 C 298.79324,555.77654 298.44784,555.78908 298.10785,555.84282 C 297.77393,556.24565 297.25504,556.36008 296.81769,556.54651 C 296.40983,556.55157 296.01306,556.46159 295.61505,556.38549 C 295.18338,556.30637 294.74516,556.29415 294.30832,556.27254 C 293.89183,556.26306 293.4752,556.26559 293.05863,556.26553 C 292.63297,556.26633 292.20731,556.26664 291.78164,556.26696 C 291.37141,556.26705 290.96118,556.26725 290.55094,556.26742 C 290.20405,556.31254 289.87528,556.22733 289.53692,556.1827 C 289.22975,556.14599 289.11169,555.89055 288.90388,555.71928 C 288.71149,555.53707 288.61214,555.28774 288.47689,555.0672 C 288.34791,554.80776 288.29272,554.52675 288.21068,554.25305 C 288.12011,553.89226 288.22963,553.569 288.31072,553.22311 C 288.42598,552.88954 288.60373,552.58479 288.76824,552.2745 C 289.53541,551.72968 289.19102,551.91738 289.48652,551.70556 C 289.60466,551.55192 289.72572,551.40384 289.84418,551.25441 L 290.32779,551.03376 C 290.20994,551.18906 290.10747,551.35119 289.97396,551.5 C 289.25262,552.00354 289.34609,551.92532 289.25237,552.05953 C 289.08574,552.36586 288.90886,552.6683 288.78849,552.99743 C 288.70451,553.33544 288.59086,553.64944 288.67812,554.00396 C 288.75802,554.27376 288.81091,554.55063 288.93854,554.80602 C 289.07196,555.02311 289.17023,555.26825 289.35984,555.44774 C 289.55958,555.60766 289.67459,555.85635 289.97158,555.87994 C 290.30705,555.92053 290.63514,555.99963 290.97824,555.95697 C 291.38822,555.95709 291.79821,555.95732 292.20819,555.95702 C 292.63376,555.95667 293.05933,555.95638 293.48491,555.95576 C 293.90209,555.95585 294.31938,555.95277 294.73647,555.96367 C 295.17441,555.98759 295.6137,556.00238 296.04622,556.08362 C 296.44205,556.15641 296.83681,556.24797 297.24237,556.23143 C 297.85702,555.90257 296.95747,556.64373 297.61474,556.0322 C 298.25251,555.66791 298.8052,555.38497 299.55765,555.42271 C 300.1667,555.42271 300.77576,555.42249 301.38481,555.42209 C 301.87174,555.42137 302.35866,555.42067 302.84559,555.42027 C 303.47676,555.4194 304.10795,555.41782 304.73911,555.42266 C 305.2929,555.43353 305.85352,555.42152 306.39674,555.54596 C 306.74791,555.6878 307.09376,555.87077 307.46552,555.93802 C 307.96965,555.9521 308.47499,555.96926 308.98034,555.95786 C 309.45951,555.95757 309.93868,555.95721 310.41784,555.95722 C 310.86302,555.95728 311.30821,555.95733 311.75339,555.95773 C 312.23603,555.95759 312.71868,555.95744 313.20132,555.95805 C 313.65423,555.9591 314.10714,555.96024 314.56005,555.96095 C 315.042,555.95835 315.52441,555.96145 316.0055,555.92695 C 316.58021,555.86729 317.15631,555.80302 317.698,555.58526 C 318.17102,555.43303 318.64285,555.27573 319.11831,555.1315 C 319.49226,555.08865 319.8629,555.02881 320.24444,555.0638 C 320.62258,555.0636 321.00072,555.06336 321.37886,555.06317 C 321.83117,555.06373 322.28354,555.06204 322.73579,555.07092 C 323.12693,555.0877 323.52102,555.08723 323.90655,555.16552 C 324.28891,555.20786 324.66481,555.28792 325.05464,555.24327 C 325.52729,555.24321 325.99994,555.24332 326.47259,555.24277 C 326.8384,555.24261 327.20421,555.24237 327.57003,555.24259 C 327.9661,555.24271 328.36218,555.24282 328.75825,555.24307 C 329.1945,555.24309 329.63074,555.24298 330.06699,555.24256 C 330.42358,555.24283 330.78018,555.24277 331.13677,555.24381 C 331.50093,555.24492 331.8651,555.24685 332.22926,555.24534 C 332.65089,555.23588 333.0741,555.23732 333.49219,555.17269 C 333.93635,555.06703 334.38152,554.97231 334.80147,554.78205 C 335.18821,554.64924 335.55612,554.4916 335.9778,554.5297 C 336.4201,554.5298 336.86242,554.53154 337.30468,554.5238 C 337.74933,554.50702 338.19711,554.51 338.63588,554.42426 C 338.99221,554.36054 339.34627,554.30148 339.70792,554.27553 C 340.06408,554.21868 340.41886,554.14695 340.78171,554.1711 C 341.13885,554.1711 341.49599,554.1711 341.85313,554.1711 C 342.21028,554.1711 342.56742,554.1711 342.92456,554.1711 C 343.28171,554.1711 343.63885,554.1711 343.99599,554.1711 C 344.35313,554.1711 344.71027,554.1711 345.06741,554.17109 C 345.42454,554.17108 345.78166,554.17108 346.13879,554.17105 C 346.496,554.17106 346.85322,554.17095 347.21044,554.17125 C 347.56902,554.1719 347.9276,554.17207 348.28617,554.17497 C 348.6444,554.17788 349.00271,554.1838 349.36092,554.17717 C 349.94613,554.09478 349.98561,554.1796 349.72346,554.23038 C 349.68702,553.87193 349.72571,553.47743 349.48381,553.12474 C 349.4136,552.7311 349.35939,552.32855 349.23528,551.94767 C 349.00152,551.51352 348.76436,551.08025 348.52073,550.65062 C 348.1828,550.03884 347.82953,549.43443 347.54001,548.79746 C 347.27725,548.28021 347.0388,547.75029 346.73444,547.25521 C 346.42822,546.66419 346.16072,546.03615 345.71781,545.53255 C 345.34413,545.17855 344.95827,544.83589 344.62418,544.44255 C 344.30493,544.0616 343.99199,543.68094 343.77399,543.22973 C 343.48174,542.70987 343.16262,542.20664 342.85835,541.69332 C 342.60337,541.24046 342.36237,540.78017 342.09559,540.33461 C 341.68881,539.78689 341.22966,539.28542 340.7987,538.75544 C 340.47991,538.36585 340.18447,537.95084 339.78267,537.6412 C 339.37252,537.35622 338.96761,537.06637 338.50106,536.87698 C 338.08185,536.73809 337.69818,536.56652 337.24147,536.63005 C 336.86563,536.62302 336.48693,536.63174 336.11614,536.55849 C 335.79799,536.3996 335.47338,536.32846 335.24941,536.00525 C 334.87928,535.60771 334.51464,535.20884 334.07744,534.88048 C 333.66488,534.54602 333.24849,534.21628 332.84619,533.86939 C 332.39571,533.42753 331.97968,532.95647 331.54114,532.50306 C 330.76429,532.00983 330.0802,531.74601 329.1312,531.92755 C 328.57236,531.99562 327.99676,532.15618 327.45696,531.95115 C 327.0271,531.64769 326.60903,531.3256 326.16557,531.03956 C 325.65806,530.76676 325.24145,530.54148 324.65285,530.72635 C 323.96374,530.85402 323.25934,530.9572 322.62495,531.27387 C 322.08534,531.57075 321.56223,531.9246 320.93945,532.00899 C 320.19135,532.09806 319.45213,532.21184 318.7658,532.54747 C 318.05304,532.92674 317.86357,533.06026 317.02688,533.45771 C 316.24419,533.76035 316.43682,533.59697 315.72973,534.11201 C 315.05094,534.65983 314.34889,535.18377 313.99685,536.01466 C 313.82106,536.62579 313.84636,536.98664 313.21377,537.2995 C 312.79325,537.25631 312.33159,537.21236 311.89607,537.1742 C 310.94209,537.45833 310.12001,537.77952 309.30112,538.38906 C 308.64734,538.70028 308.18544,538.92086 307.48327,538.57525 C 306.87277,538.47729 306.28287,538.44889 305.66812,538.57513 C 305.09341,538.58368 304.5612,538.59445 304.01411,538.34911 C 303.32559,538.18825 302.62803,538.01263 301.91459,538.09893 C 300.97353,538.31545 301.72238,537.97456 301.09284,538.32455 C 300.66638,538.60542 300.23138,538.87677 299.83254,539.19876 C 299.2904,539.55438 298.77144,539.95769 298.14193,540.15666 C 297.39281,540.52667 296.96504,540.70825 296.29107,541.21929 C 295.3026,542.02463 294.41197,542.9368 293.59318,543.91416 C 293.32801,544.26583 293.07279,544.6257 292.80121,544.97171 C 292.59652,545.25508 292.38331,545.52419 292.264,545.8614 C 292.13642,546.18517 291.97395,546.49972 291.91098,546.84783 C 291.68993,547.13749 291.50824,547.45466 291.20521,547.68535 C 290.98828,548.0509 290.76082,548.41108 290.58731,548.80074 C 290.46159,549.12376 290.29376,549.42349 290.28822,549.78382 C 290.25373,550.13325 290.20852,550.47906 290.23587,550.83298 C 290.23644,551.05703 290.23603,551.28108 290.23829,551.50512 L 289.76171,551.74795 z "
         id="path1872"
         style="opacity:0.97000002;fill:black;fill-opacity:1;stroke:black;stroke-width:0.40000001;stroke-linejoin:round;stroke-miterlimit:4;stroke-dasharray:none;stroke-opacity:1" />
      <path
         sodipodi:nodetypes="ccccc"
         id="path1884"
         d="M 332.70495,532.88536 C 336.92864,537.08834 342.72108,538.53062 347.58303,549.05677 C 348.17229,550.54203 348.76154,545.35288 349.3508,543.50094 C 350.27613,535.60187 346.93141,531.59646 338.36539,532.51552 L 332.70495,532.88536 z "
         style="fill:none;fill-rule:evenodd;stroke:black;stroke-width:1px;stroke-linecap:butt;stroke-linejoin:miter;stroke-opacity:1" />
      <path
         transform="matrix(-0.485313,-0.485308,-0.452206,0.452202,765.356,463.823)"
         d="M 359.9107 531.60327 A 0.98214287 7.0089288 0 1 1  357.94642,531.60327 A 0.98214287 7.0089288 0 1 1  359.9107 531.60327 z"
         sodipodi:ry="7.0089288"
         sodipodi:rx="0.98214287"
         sodipodi:cy="531.60327"
         sodipodi:cx="358.92856"
         id="path1896"
         style="opacity:0.97000002;fill:black;fill-opacity:1;stroke:black;stroke-width:0.40000001;stroke-linejoin:round;stroke-miterlimit:4;stroke-dasharray:none;stroke-opacity:1"
         sodipodi:type="arc" />
      <path
         transform="matrix(-0.683721,5.982162e-2,5.573454e-2,0.63708,551.8689,166.8148)"
         d="M 359.9107 531.60327 A 0.98214287 7.0089288 0 1 1  357.94642,531.60327 A 0.98214287 7.0089288 0 1 1  359.9107 531.60327 z"
         sodipodi:ry="7.0089288"
         sodipodi:rx="0.98214287"
         sodipodi:cy="531.60327"
         sodipodi:cx="358.92856"
         id="path1902"
         style="opacity:0.97000002;fill:black;fill-opacity:1;stroke:black;stroke-width:0.40000001;stroke-linejoin:round;stroke-miterlimit:4;stroke-dasharray:none;stroke-opacity:1"
         sodipodi:type="arc" />
      <path
         transform="matrix(0.675908,0.119177,0.111053,-0.629797,41.51655,818.84)"
         d="M 359.9107 531.60327 A 0.98214287 7.0089288 0 1 1  357.94642,531.60327 A 0.98214287 7.0089288 0 1 1  359.9107 531.60327 z"
         sodipodi:ry="7.0089288"
         sodipodi:rx="0.98214287"
         sodipodi:cy="531.60327"
         sodipodi:cx="358.92856"
         id="path1904"
         style="opacity:0.97000002;fill:black;fill-opacity:1;stroke:black;stroke-width:0.40000001;stroke-linejoin:round;stroke-miterlimit:4;stroke-dasharray:none;stroke-opacity:1"
         sodipodi:type="arc" />
      <path
         transform="matrix(0.17764,0.662945,0.617723,-0.165516,-37.23286,387.9382)"
         d="M 359.9107 531.60327 A 0.98214287 7.0089288 0 1 1  357.94642,531.60327 A 0.98214287 7.0089288 0 1 1  359.9107 531.60327 z"
         sodipodi:ry="7.0089288"
         sodipodi:rx="0.98214287"
         sodipodi:cy="531.60327"
         sodipodi:cx="358.92856"
         id="path1906"
         style="opacity:0.97000002;fill:black;fill-opacity:1;stroke:black;stroke-width:0.40000001;stroke-linejoin:round;stroke-miterlimit:4;stroke-dasharray:none;stroke-opacity:1"
         sodipodi:type="arc" />
      <path
         transform="matrix(0.177632,-0.662947,-0.617722,-0.16552,619.1602,872.7667)"
         d="M 359.9107 531.60327 A 0.98214287 7.0089288 0 1 1  357.94642,531.60327 A 0.98214287 7.0089288 0 1 1  359.9107 531.60327 z"
         sodipodi:ry="7.0089288"
         sodipodi:rx="0.98214287"
         sodipodi:cy="531.60327"
         sodipodi:cx="358.92856"
         id="path1908"
         style="opacity:0.97000002;fill:black;fill-opacity:1;stroke:black;stroke-width:0.40000001;stroke-linejoin:round;stroke-miterlimit:4;stroke-dasharray:none;stroke-opacity:1"
         sodipodi:type="arc" />
    </g>
  </g>
</svg>
