<?xml version="1.0" encoding="UTF-8" standalone="no"?>
<!-- Created with Inkscape (http://www.inkscape.org/) -->
<svg
   xmlns:dc="http://purl.org/dc/elements/1.1/"
   xmlns:cc="http://web.resource.org/cc/"
   xmlns:rdf="http://www.w3.org/1999/02/22-rdf-syntax-ns#"
   xmlns:svg="http://www.w3.org/2000/svg"
   xmlns="http://www.w3.org/2000/svg"
   xmlns:sodipodi="http://sodipodi.sourceforge.net/DTD/sodipodi-0.dtd"
   xmlns:inkscape="http://www.inkscape.org/namespaces/inkscape"
   width="744.09448819"
   height="1052.3622047"
   id="svg2"
   sodipodi:version="0.32"
   inkscape:version="0.44.1"
   sodipodi:docbase="C:\Documents and Settings\pc\Desktop\meteo\meteo svg\fumetto"
   sodipodi:docname="dust.svg">
  <defs
     id="defs4" />
  <sodipodi:namedview
     id="base"
     pagecolor="#ffffff"
     bordercolor="#666666"
     borderopacity="1.0"
     inkscape:pageopacity="0.0"
     inkscape:pageshadow="2"
     inkscape:zoom="1.979899"
     inkscape:cx="375"
     inkscape:cy="520"
     inkscape:document-units="px"
     inkscape:current-layer="layer1"
     inkscape:window-width="1280"
     inkscape:window-height="744"
     inkscape:window-x="-4"
     inkscape:window-y="-4"
     showgrid="true" />
  <metadata
     id="metadata7">
    <rdf:RDF>
      <cc:Work
         rdf:about="">
        <dc:format>image/svg+xml</dc:format>
        <dc:type
           rdf:resource="http://purl.org/dc/dcmitype/StillImage" />
      </cc:Work>
    </rdf:RDF>
  </metadata>
  <g
     inkscape:label="Livello 1"
     inkscape:groupmode="layer"
     id="layer1">
    <g
       id="g3861">
      <path
         transform="matrix(0.521041,0,0,0.459641,91.73576,300.6695)"
         d="M 249.28571 580.2193 A 9.2857141 12.857142 0 1 1  230.71429,580.2193 A 9.2857141 12.857142 0 1 1  249.28571 580.2193 z"
         sodipodi:ry="12.857142"
         sodipodi:rx="9.2857141"
         sodipodi:cy="580.2193"
         sodipodi:cx="240"
         id="path3587"
         style="opacity:0.98543689;fill:black;fill-opacity:1;stroke:black;stroke-width:3.56299996;stroke-linecap:square;stroke-linejoin:miter;stroke-miterlimit:4;stroke-dasharray:none;stroke-opacity:1"
         sodipodi:type="arc" />
      <path
         transform="matrix(0.521041,0,0,0.459641,172.8073,300.6696)"
         d="M 249.28571 580.2193 A 9.2857141 12.857142 0 1 1  230.71429,580.2193 A 9.2857141 12.857142 0 1 1  249.28571 580.2193 z"
         sodipodi:ry="12.857142"
         sodipodi:rx="9.2857141"
         sodipodi:cy="580.2193"
         sodipodi:cx="240"
         id="path3589"
         style="opacity:0.98543689;fill:black;fill-opacity:1;stroke:black;stroke-width:3.56299996;stroke-linecap:square;stroke-linejoin:miter;stroke-miterlimit:4;stroke-dasharray:none;stroke-opacity:1"
         sodipodi:type="arc" />
      <path
         transform="matrix(0.521041,0,0,0.459641,115.6644,306.3839)"
         d="M 249.28571 580.2193 A 9.2857141 12.857142 0 1 1  230.71429,580.2193 A 9.2857141 12.857142 0 1 1  249.28571 580.2193 z"
         sodipodi:ry="12.857142"
         sodipodi:rx="9.2857141"
         sodipodi:cy="580.2193"
         sodipodi:cx="240"
         id="path3599"
         style="opacity:0.98543689;fill:black;fill-opacity:1;stroke:black;stroke-width:3.56299996;stroke-linecap:square;stroke-linejoin:miter;stroke-miterlimit:4;stroke-dasharray:none;stroke-opacity:1"
         sodipodi:type="arc" />
      <path
         transform="matrix(0.521041,0,0,0.459641,132.093,274.9554)"
         d="M 249.28571 580.2193 A 9.2857141 12.857142 0 1 1  230.71429,580.2193 A 9.2857141 12.857142 0 1 1  249.28571 580.2193 z"
         sodipodi:ry="12.857142"
         sodipodi:rx="9.2857141"
         sodipodi:cy="580.2193"
         sodipodi:cx="240"
         id="path3601"
         style="opacity:0.98543689;fill:black;fill-opacity:1;stroke:black;stroke-width:3.56299996;stroke-linecap:square;stroke-linejoin:miter;stroke-miterlimit:4;stroke-dasharray:none;stroke-opacity:1"
         sodipodi:type="arc" />
      <path
         transform="matrix(0.521041,0,0,0.459641,132.093,298.5267)"
         d="M 249.28571 580.2193 A 9.2857141 12.857142 0 1 1  230.71429,580.2193 A 9.2857141 12.857142 0 1 1  249.28571 580.2193 z"
         sodipodi:ry="12.857142"
         sodipodi:rx="9.2857141"
         sodipodi:cy="580.2193"
         sodipodi:cx="240"
         id="path3603"
         style="opacity:0.98543689;fill:black;fill-opacity:1;stroke:black;stroke-width:3.56299996;stroke-linecap:square;stroke-linejoin:miter;stroke-miterlimit:4;stroke-dasharray:none;stroke-opacity:1"
         sodipodi:type="arc" />
      <path
         transform="matrix(0.521041,0,0,0.459641,184.9502,269.9553)"
         d="M 249.28571 580.2193 A 9.2857141 12.857142 0 1 1  230.71429,580.2193 A 9.2857141 12.857142 0 1 1  249.28571 580.2193 z"
         sodipodi:ry="12.857142"
         sodipodi:rx="9.2857141"
         sodipodi:cy="580.2193"
         sodipodi:cx="240"
         id="path3607"
         style="opacity:0.98543689;fill:black;fill-opacity:1;stroke:black;stroke-width:3.56299996;stroke-linecap:square;stroke-linejoin:miter;stroke-miterlimit:4;stroke-dasharray:none;stroke-opacity:1"
         sodipodi:type="arc" />
      <path
         transform="matrix(0.521041,0,0,0.459641,136.3787,319.9554)"
         d="M 249.28571 580.2193 A 9.2857141 12.857142 0 1 1  230.71429,580.2193 A 9.2857141 12.857142 0 1 1  249.28571 580.2193 z"
         sodipodi:ry="12.857142"
         sodipodi:rx="9.2857141"
         sodipodi:cy="580.2193"
         sodipodi:cx="240"
         id="path3611"
         style="opacity:0.98543689;fill:black;fill-opacity:1;stroke:black;stroke-width:3.56299996;stroke-linecap:square;stroke-linejoin:miter;stroke-miterlimit:4;stroke-dasharray:none;stroke-opacity:1"
         sodipodi:type="arc" />
      <path
         transform="matrix(0.521041,0,0,0.459641,95.66441,274.9553)"
         d="M 249.28571 580.2193 A 9.2857141 12.857142 0 1 1  230.71429,580.2193 A 9.2857141 12.857142 0 1 1  249.28571 580.2193 z"
         sodipodi:ry="12.857142"
         sodipodi:rx="9.2857141"
         sodipodi:cy="580.2193"
         sodipodi:cx="240"
         id="path3615"
         style="opacity:0.98543689;fill:black;fill-opacity:1;stroke:black;stroke-width:3.56299996;stroke-linecap:square;stroke-linejoin:miter;stroke-miterlimit:4;stroke-dasharray:none;stroke-opacity:1"
         sodipodi:type="arc" />
      <path
         transform="matrix(0.521041,0,0,0.459641,157.8073,312.8125)"
         d="M 249.28571 580.2193 A 9.2857141 12.857142 0 1 1  230.71429,580.2193 A 9.2857141 12.857142 0 1 1  249.28571 580.2193 z"
         sodipodi:ry="12.857142"
         sodipodi:rx="9.2857141"
         sodipodi:cy="580.2193"
         sodipodi:cx="240"
         id="path3629"
         style="opacity:0.98543689;fill:black;fill-opacity:1;stroke:black;stroke-width:3.56299996;stroke-linecap:square;stroke-linejoin:miter;stroke-miterlimit:4;stroke-dasharray:none;stroke-opacity:1"
         sodipodi:type="arc" />
      <path
         transform="matrix(0.521041,0,0,0.459641,153.7523,280.5933)"
         d="M 249.28571 580.2193 A 9.2857141 12.857142 0 1 1  230.71429,580.2193 A 9.2857141 12.857142 0 1 1  249.28571 580.2193 z"
         sodipodi:ry="12.857142"
         sodipodi:rx="9.2857141"
         sodipodi:cy="580.2193"
         sodipodi:cx="240"
         id="path3851"
         style="opacity:0.98543689;fill:black;fill-opacity:1;stroke:black;stroke-width:3.56299996;stroke-linecap:square;stroke-linejoin:miter;stroke-miterlimit:4;stroke-dasharray:none;stroke-opacity:1"
         sodipodi:type="arc" />
      <path
         transform="matrix(0.521041,0,0,0.459641,154.2573,230.5908)"
         d="M 249.28571 580.2193 A 9.2857141 12.857142 0 1 1  230.71429,580.2193 A 9.2857141 12.857142 0 1 1  249.28571 580.2193 z"
         sodipodi:ry="12.857142"
         sodipodi:rx="9.2857141"
         sodipodi:cy="580.2193"
         sodipodi:cx="240"
         id="path3853"
         style="opacity:0.98543689;fill:black;fill-opacity:1;stroke:black;stroke-width:3.56299996;stroke-linecap:square;stroke-linejoin:miter;stroke-miterlimit:4;stroke-dasharray:none;stroke-opacity:1"
         sodipodi:type="arc" />
      <path
         transform="matrix(0.521041,0,0,0.459641,151.732,256.3497)"
         d="M 249.28571 580.2193 A 9.2857141 12.857142 0 1 1  230.71429,580.2193 A 9.2857141 12.857142 0 1 1  249.28571 580.2193 z"
         sodipodi:ry="12.857142"
         sodipodi:rx="9.2857141"
         sodipodi:cy="580.2193"
         sodipodi:cx="240"
         id="path3855"
         style="opacity:0.98543689;fill:black;fill-opacity:1;stroke:black;stroke-width:3.56299996;stroke-linecap:square;stroke-linejoin:miter;stroke-miterlimit:4;stroke-dasharray:none;stroke-opacity:1"
         sodipodi:type="arc" />
      <path
         transform="matrix(0.521041,0,0,0.459641,174.9655,279.0781)"
         d="M 249.28571 580.2193 A 9.2857141 12.857142 0 1 1  230.71429,580.2193 A 9.2857141 12.857142 0 1 1  249.28571 580.2193 z"
         sodipodi:ry="12.857142"
         sodipodi:rx="9.2857141"
         sodipodi:cy="580.2193"
         sodipodi:cx="240"
         id="path3857"
         style="opacity:0.98543689;fill:black;fill-opacity:1;stroke:black;stroke-width:3.56299996;stroke-linecap:square;stroke-linejoin:miter;stroke-miterlimit:4;stroke-dasharray:none;stroke-opacity:1"
         sodipodi:type="arc" />
      <path
         transform="matrix(0.521041,0,0,0.459641,116.8817,251.804)"
         d="M 249.28571 580.2193 A 9.2857141 12.857142 0 1 1  230.71429,580.2193 A 9.2857141 12.857142 0 1 1  249.28571 580.2193 z"
         sodipodi:ry="12.857142"
         sodipodi:rx="9.2857141"
         sodipodi:cy="580.2193"
         sodipodi:cx="240"
         id="path3859"
         style="opacity:0.98543689;fill:black;fill-opacity:1;stroke:black;stroke-width:3.56299996;stroke-linecap:square;stroke-linejoin:miter;stroke-miterlimit:4;stroke-dasharray:none;stroke-opacity:1"
         sodipodi:type="arc" />
    </g>
  </g>
</svg>
