<?xml version="1.0" encoding="UTF-8" standalone="no"?>
<!-- Created with Inkscape (http://www.inkscape.org/) -->

<svg
   xmlns:dc="http://purl.org/dc/elements/1.1/"
   xmlns:cc="http://creativecommons.org/ns#"
   xmlns:rdf="http://www.w3.org/1999/02/22-rdf-syntax-ns#"
   xmlns:svg="http://www.w3.org/2000/svg"
   xmlns="http://www.w3.org/2000/svg"
   xmlns:sodipodi="http://sodipodi.sourceforge.net/DTD/sodipodi-0.dtd"
   xmlns:inkscape="http://www.inkscape.org/namespaces/inkscape"
   width="150"
   height="150"
   id="svg2"
   version="1.1"
   inkscape:version="0.48.4 r9939"
   sodipodi:docname="SS.svg">
  <title
     id="title6024">SS</title>
  <defs
     id="defs4" />
  <sodipodi:namedview
     id="base"
     pagecolor="#ffffff"
     bordercolor="#666666"
     borderopacity="1.0"
     inkscape:pageopacity="0.0"
     inkscape:pageshadow="2"
     inkscape:zoom="2.4654457"
     inkscape:cx="-34.712787"
     inkscape:cy="115.07834"
     inkscape:document-units="px"
     inkscape:current-layer="flowRoot2990"
     showgrid="false"
     width="150px"
     inkscape:window-width="1366"
     inkscape:window-height="725"
     inkscape:window-x="0"
     inkscape:window-y="25"
     inkscape:window-maximized="1" />
  <metadata
     id="metadata7">
    <rdf:RDF>
      <cc:Work
         rdf:about="">
        <dc:format>image/svg+xml</dc:format>
        <dc:type
           rdf:resource="http://purl.org/dc/dcmitype/StillImage" />
        <dc:title>SS</dc:title>
        <dc:creator>
          <cc:Agent>
            <dc:title>Arpa Piemonte SC22/Sea Consulting</dc:title>
          </cc:Agent>
        </dc:creator>
        <dc:rights>
          <cc:Agent>
            <dc:title />
          </cc:Agent>
        </dc:rights>
        <dc:date>2013.02.15</dc:date>
        <dc:description>Sondaggio a carotaggio continuo che intercetta il substrato</dc:description>
        <dc:subject>
          <rdf:Bag>
            <rdf:li>geologia geotecnica geofisica</rdf:li>
          </rdf:Bag>
        </dc:subject>
        <dc:contributor>
          <cc:Agent>
            <dc:title>DF, LL</dc:title>
          </cc:Agent>
        </dc:contributor>
        <cc:license
           rdf:resource="http://creativecommons.org/licenses/by/2.5/" />
        <dc:language>it</dc:language>
      </cc:Work>
      <cc:License
         rdf:about="http://creativecommons.org/licenses/by/3.0/">
        <cc:permits
           rdf:resource="http://creativecommons.org/ns#Reproduction" />
        <cc:permits
           rdf:resource="http://creativecommons.org/ns#Distribution" />
        <cc:requires
           rdf:resource="http://creativecommons.org/ns#Notice" />
        <cc:requires
           rdf:resource="http://creativecommons.org/ns#Attribution" />
        <cc:permits
           rdf:resource="http://creativecommons.org/ns#DerivativeWorks" />
      </cc:License>
    </rdf:RDF>
  </metadata>
  <g
     inkscape:label="Livello 1"
     inkscape:groupmode="layer"
     id="layer1"
     transform="translate(0,-902.36229)">
    <g
       id="g5739">
      <g
         style="fill:#ff0000;fill-opacity:1"
         transform="matrix(0.68036746,0,0,0.69026222,23.972442,302.73158)"
         id="g5093">
        <path
           sodipodi:type="arc"
           style="fill:#ff0000;fill-opacity:1;stroke:#000000;stroke-width:7.29610682;stroke-miterlimit:4;stroke-opacity:1;stroke-dasharray:none;stroke-dashoffset:0"
           id="path2987"
           sodipodi:cx="72.275337"
           sodipodi:cy="76.290634"
           sodipodi:rx="58.221798"
           sodipodi:ry="58.221798"
           d="m 130.49714,76.290634 c 0,32.155016 -26.06679,58.221796 -58.221803,58.221796 -32.155011,0 -58.221798,-26.06678 -58.221798,-58.221796 0,-32.155011 26.066787,-58.221798 58.221798,-58.221798 32.155013,0 58.221803,26.066787 58.221803,58.221798 z"
           transform="translate(2.7246606,901.06361)" />
      </g>
      <path
         inkscape:connector-curvature="0"
         id="path2989"
         d="m 74.902433,925.85709 c 0.195134,103.01041 0.195134,103.01041 0.195134,103.01041"
         style="fill:none;stroke:#000000;stroke-width:4.94393349;stroke-linecap:butt;stroke-linejoin:miter;stroke-miterlimit:4;stroke-opacity:1;stroke-dasharray:none" />
    </g>
    <path
       style="fill:none;stroke:#000000;stroke-width:5;stroke-linecap:butt;stroke-linejoin:miter;stroke-miterlimit:4;stroke-opacity:1;stroke-dasharray:none"
       d="m 24.167575,977.16987 c 101.664845,0.39594 101.664845,0.39594 101.664845,0.39594"
       id="path2991"
       inkscape:connector-curvature="0" />
    <g
       transform="matrix(7.2787713,0,0,7.1116203,742.83905,776.87867)"
       style="font-size:12px;font-style:normal;font-variant:normal;font-weight:normal;font-stretch:normal;text-align:start;line-height:125%;letter-spacing:0px;word-spacing:0px;writing-mode:lr-tb;text-anchor:start;fill:#ff0000;fill-opacity:1;stroke:none;font-family:Arial;-inkscape-font-specification:Arial"
       id="flowRoot2990">
      <g
         transform="scale(0.98845122,1.0116837)"
         style="font-size:1.66789198000000005px;line-height:125%;fill:#ff0000;font-family:Arial;-inkscape-font-specification:Arial;fill-opacity:1"
         id="text2990">
        <path
           d="m -87.588295,21.630272 0.918644,-0.140077 c 0.03909,0.178083 0.118358,0.313816 0.237805,0.4072 0.119444,0.09121 0.286667,0.13682 0.501671,0.136819 0.236717,1e-6 0.414799,-0.04343 0.534246,-0.130304 0.08035,-0.06081 0.120529,-0.142248 0.120532,-0.24432 -3e-6,-0.06949 -0.02172,-0.127045 -0.06515,-0.172653 -0.04561,-0.04343 -0.14768,-0.08361 -0.306214,-0.120531 -0.738391,-0.162879 -1.206399,-0.311642 -1.404026,-0.446292 -0.273639,-0.186767 -0.410458,-0.446289 -0.410458,-0.778566 0,-0.299697 0.118359,-0.551618 0.355078,-0.755764 0.236719,-0.204139 0.603741,-0.306211 1.10107,-0.306214 0.473436,3e-6 0.825256,0.0771 1.055463,0.231289 0.2302,0.154197 0.388737,0.382228 0.47561,0.684097 l -0.863265,0.159622 c -0.03692,-0.134645 -0.107503,-0.237802 -0.211744,-0.309472 -0.102074,-0.07166 -0.248666,-0.107498 -0.439776,-0.107501 -0.241064,3e-6 -0.413717,0.03367 -0.517959,0.100986 -0.0695,0.04778 -0.104244,0.109675 -0.104243,0.185683 -10e-7,0.06516 0.0304,0.120534 0.09121,0.166138 0.08252,0.06081 0.367021,0.146594 0.853491,0.25735 0.488638,0.110761 0.8296,0.246494 1.022887,0.4072 0.19111,0.162882 0.286666,0.389828 0.286669,0.680839 -3e-6,0.317074 -0.132479,0.589626 -0.397427,0.817658 -0.264955,0.228032 -0.656952,0.342048 -1.175994,0.342048 -0.471268,0 -0.844806,-0.09556 -1.120615,-0.286669 -0.273639,-0.191112 -0.452807,-0.450634 -0.537505,-0.778566"
           style="font-size:6.67156792000000021px;font-weight:bold;-inkscape-font-specification:Arial Bold;fill:#ff0000;fill-opacity:1"
           id="path2995" />
      </g>
    </g>
  </g>
</svg>
