<?xml version="1.0" encoding="UTF-8" standalone="no"?>
<!-- Created with Inkscape (http://www.inkscape.org/) -->

<svg
   xmlns:dc="http://purl.org/dc/elements/1.1/"
   xmlns:cc="http://creativecommons.org/ns#"
   xmlns:rdf="http://www.w3.org/1999/02/22-rdf-syntax-ns#"
   xmlns:svg="http://www.w3.org/2000/svg"
   xmlns="http://www.w3.org/2000/svg"
   xmlns:sodipodi="http://sodipodi.sourceforge.net/DTD/sodipodi-0.dtd"
   xmlns:inkscape="http://www.inkscape.org/namespaces/inkscape"
   width="64px"
   height="64px"
   id="svg8132"
   version="1.1"
   inkscape:version="0.48.2 r9819"
   sodipodi:docname="78.svg">
  <defs
     id="defs8134">
    <marker
       inkscape:stockid="Arrow2Mend"
       orient="auto"
       refY="0"
       refX="0"
       id="Arrow2Mend"
       style="overflow:visible">
      <path
         inkscape:connector-curvature="0"
         id="path4109"
         style="font-size:12px;fill-rule:evenodd;stroke-width:0.625;stroke-linejoin:round"
         d="M 8.7185878,4.0337352 -2.2072895,0.01601326 8.7185884,-4.0017078 c -1.7454984,2.3720609 -1.7354408,5.6174519 -6e-7,8.035443 z"
         transform="scale(-0.6,-0.6)" />
    </marker>
    <marker
       inkscape:stockid="Arrow1Lend"
       orient="auto"
       refY="0"
       refX="0"
       id="Arrow1Lend"
       style="overflow:visible">
      <path
         inkscape:connector-curvature="0"
         id="path4085"
         d="M 0,0 5,-5 -12.5,0 5,5 0,0 z"
         style="fill-rule:evenodd;stroke:#000000;stroke-width:1pt;marker-start:none"
         transform="matrix(-0.8,0,0,-0.8,-10,0)" />
    </marker>
    <marker
       inkscape:stockid="Arrow1Lend"
       orient="auto"
       refY="0"
       refX="0"
       id="Arrow1Lend-1"
       style="overflow:visible">
      <path
         inkscape:connector-curvature="0"
         id="path4085-8"
         d="M 0,0 5,-5 -12.5,0 5,5 0,0 z"
         style="fill-rule:evenodd;stroke:#000000;stroke-width:1pt;marker-start:none"
         transform="matrix(-0.8,0,0,-0.8,-10,0)" />
    </marker>
    <marker
       inkscape:stockid="Arrow1Lend"
       orient="auto"
       refY="0"
       refX="0"
       id="Arrow1Lend-3"
       style="overflow:visible">
      <path
         inkscape:connector-curvature="0"
         id="path4085-5"
         d="M 0,0 5,-5 -12.5,0 5,5 0,0 z"
         style="fill-rule:evenodd;stroke:#000000;stroke-width:1pt;marker-start:none"
         transform="matrix(-0.8,0,0,-0.8,-10,0)" />
    </marker>
    <marker
       inkscape:stockid="Arrow1Lend"
       orient="auto"
       refY="0"
       refX="0"
       id="Arrow1Lend-9"
       style="overflow:visible">
      <path
         inkscape:connector-curvature="0"
         id="path4085-9"
         d="M 0,0 5,-5 -12.5,0 5,5 0,0 z"
         style="fill-rule:evenodd;stroke:#000000;stroke-width:1pt;marker-start:none"
         transform="matrix(-0.8,0,0,-0.8,-10,0)" />
    </marker>
    <marker
       inkscape:stockid="Arrow1Lend"
       orient="auto"
       refY="0"
       refX="0"
       id="Arrow1Lend-8"
       style="overflow:visible">
      <path
         inkscape:connector-curvature="0"
         id="path4085-1"
         d="M 0,0 5,-5 -12.5,0 5,5 0,0 z"
         style="fill-rule:evenodd;stroke:#000000;stroke-width:1pt;marker-start:none"
         transform="matrix(-0.8,0,0,-0.8,-10,0)" />
    </marker>
    <marker
       inkscape:stockid="Arrow2Lstart"
       orient="auto"
       refY="0"
       refX="0"
       id="Arrow2Lstart"
       style="overflow:visible">
      <path
         inkscape:connector-curvature="0"
         id="path4100"
         style="font-size:12px;fill-rule:evenodd;stroke-width:0.625;stroke-linejoin:round"
         d="M 8.7185878,4.0337352 -2.2072895,0.01601326 8.7185884,-4.0017078 c -1.7454984,2.3720609 -1.7354408,5.6174519 -6e-7,8.035443 z"
         transform="matrix(1.1,0,0,1.1,1.1,0)" />
    </marker>
    <marker
       inkscape:stockid="Arrow2Lend"
       orient="auto"
       refY="0"
       refX="0"
       id="Arrow2Lend"
       style="overflow:visible">
      <path
         inkscape:connector-curvature="0"
         id="path4103"
         style="font-size:12px;fill-rule:evenodd;stroke-width:0.625;stroke-linejoin:round"
         d="M 8.7185878,4.0337352 -2.2072895,0.01601326 8.7185884,-4.0017078 c -1.7454984,2.3720609 -1.7354408,5.6174519 -6e-7,8.035443 z"
         transform="matrix(-1.1,0,0,-1.1,-1.1,0)" />
    </marker>
  </defs>
  <sodipodi:namedview
     id="base"
     pagecolor="#ffffff"
     bordercolor="#666666"
     borderopacity="1.0"
     inkscape:pageopacity="0.0"
     inkscape:pageshadow="2"
     inkscape:zoom="3.8890873"
     inkscape:cx="32.766784"
     inkscape:cy="21.691567"
     inkscape:current-layer="g8448"
     showgrid="true"
     inkscape:document-units="px"
     inkscape:grid-bbox="true"
     inkscape:window-width="466"
     inkscape:window-height="694"
     inkscape:window-x="3"
     inkscape:window-y="7"
     inkscape:window-maximized="0" />
  <metadata
     id="metadata8137">
    <rdf:RDF>
      <cc:Work
         rdf:about="">
        <dc:format>image/svg+xml</dc:format>
        <dc:type
           rdf:resource="http://purl.org/dc/dcmitype/StillImage" />
        <dc:title></dc:title>
      </cc:Work>
    </rdf:RDF>
  </metadata>
  <g
     id="layer1"
     inkscape:label="Layer 1"
     inkscape:groupmode="layer">
    <g
       transform="matrix(0.55247495,0,0,0.60122047,-182.28609,-1028.5381)"
       id="g8448">
      <path
         style="fill:none;stroke:#000000;stroke-width:3.81873798;stroke-linecap:butt;stroke-linejoin:miter;stroke-miterlimit:4;stroke-opacity:1;stroke-dasharray:none"
         d="m 332.69502,1763.7444 c 3.74067,-1.8834 7.28175,-7.8003 11.10272,-7.9818 0.19478,0 0.44661,0.2352 0.58434,0 0.13774,-0.2351 -0.13773,-0.7625 0,-0.9977 0.0585,-0.1 1.69463,-0.1 1.75307,0 1.8938,10.7937 -0.78477,-4.7374 0.58435,4.9886 0.10564,0.7215 0.44662,1.29 0.58435,1.9955 0.15678,0.8031 -0.1867,3.3533 0,3.9909 0.12319,0.4207 0.33797,0.7874 0.58435,0.9977 1.9186,-0.078 4.10671,0.2292 5.84354,0 2.08896,-0.2972 6.94274,-1.6966 8.76529,-2.9932 0.89901,-0.6395 1.49181,-2.1681 2.33742,-2.9931 1.13658,-1.1089 3.6624,-1.4769 4.67482,-1.9955 1.00471,-0.5146 1.92665,-1.4291 2.92176,-1.9954 0.76191,-0.4337 1.61909,-0.3845 2.33742,-0.9978 1.03873,-2.142 2.14041,-2.4492 2.92176,-1.9954 2.31864,-2.136 1.76759,0.2252 1.75307,3.9909 0.17422,0.8924 0.8631,1.2128 1.1687,1.9954 0.2416,0.6188 0.47872,1.274 0.58436,1.9955 0.005,0.033 -0.003,2.9879 0,2.9932 0.0188,0.032 1.61133,0 1.75305,0 1.28858,0 5.67922,0.2691 6.42789,0 2.59253,-0.9319 5.04536,-2.7713 7.59659,-3.9909 2.32012,-1.1092 4.68222,-1.9463 7.01224,-2.9932 1.37135,-0.6162 2.77383,-1.0962 4.09046,-1.9955 3.1919,-2.1799 0.69665,-1.9954 2.33742,-1.9954 0.19479,0 0.41013,-0.1487 0.58436,0 1.06406,0.9084 0.34254,0.7569 0.58435,1.9954 0.13773,0.7055 0.44662,1.29 0.58435,1.9955 0.0615,0.3155 -0.0871,0.7003 0,0.9977 0.50794,1.7345 1.18956,3.3049 1.75306,4.9886 0.21609,0.6457 0.34275,1.3767 0.58436,1.9955 0.15279,0.3913 0.49724,0.5515 0.58435,0.9977 0.12319,0.631 -0.17423,1.4005 0,1.9955 0.0871,0.2974 0.38956,0 0.58436,0 0.19478,0 0.38956,0 0.58435,0 0.38956,0 0.77913,0 1.1687,0 0.77914,0 1.57899,0.3047 2.33741,0 10.78847,-4.3342 4.26865,-2.1222 11.10271,-6.9841 1.13717,-0.809 2.38037,-1.1412 3.50612,-1.9955 0.64178,-0.487 1.12491,-1.4591 1.75306,-1.9954 0.17784,-0.1519 1.4899,0 1.75306,0 0.19478,0 0.44662,-0.2352 0.58436,0 0.13772,0.2352 0,0.6652 0,0.9977"
         id="path3825"
         inkscape:connector-curvature="0"
         sodipodi:nodetypes="cccccccscccsccccccccsscccscccsccccsssssccscc" />
    </g>
  </g>
</svg>
