<?xml version="1.0" encoding="UTF-8" standalone="no"?>
<!-- Created with Inkscape (http://www.inkscape.org/) -->

<svg
   xmlns:dc="http://purl.org/dc/elements/1.1/"
   xmlns:cc="http://creativecommons.org/ns#"
   xmlns:rdf="http://www.w3.org/1999/02/22-rdf-syntax-ns#"
   xmlns:svg="http://www.w3.org/2000/svg"
   xmlns="http://www.w3.org/2000/svg"
   xmlns:sodipodi="http://sodipodi.sourceforge.net/DTD/sodipodi-0.dtd"
   xmlns:inkscape="http://www.inkscape.org/namespaces/inkscape"
   width="64px"
   height="64px"
   id="svg8132"
   version="1.1"
   inkscape:version="0.48.2 r9819"
   sodipodi:docname="70.svg">
  <defs
     id="defs8134">
    <marker
       inkscape:stockid="Arrow2Mend"
       orient="auto"
       refY="0"
       refX="0"
       id="Arrow2Mend"
       style="overflow:visible">
      <path
         inkscape:connector-curvature="0"
         id="path4109"
         style="font-size:12px;fill-rule:evenodd;stroke-width:0.625;stroke-linejoin:round"
         d="M 8.7185878,4.0337352 -2.2072895,0.01601326 8.7185884,-4.0017078 c -1.7454984,2.3720609 -1.7354408,5.6174519 -6e-7,8.035443 z"
         transform="scale(-0.6,-0.6)" />
    </marker>
    <marker
       inkscape:stockid="Arrow1Lend"
       orient="auto"
       refY="0"
       refX="0"
       id="Arrow1Lend"
       style="overflow:visible">
      <path
         inkscape:connector-curvature="0"
         id="path4085"
         d="M 0,0 5,-5 -12.5,0 5,5 0,0 z"
         style="fill-rule:evenodd;stroke:#000000;stroke-width:1pt;marker-start:none"
         transform="matrix(-0.8,0,0,-0.8,-10,0)" />
    </marker>
    <marker
       inkscape:stockid="Arrow1Lend"
       orient="auto"
       refY="0"
       refX="0"
       id="Arrow1Lend-1"
       style="overflow:visible">
      <path
         inkscape:connector-curvature="0"
         id="path4085-8"
         d="M 0,0 5,-5 -12.5,0 5,5 0,0 z"
         style="fill-rule:evenodd;stroke:#000000;stroke-width:1pt;marker-start:none"
         transform="matrix(-0.8,0,0,-0.8,-10,0)" />
    </marker>
    <marker
       inkscape:stockid="Arrow1Lend"
       orient="auto"
       refY="0"
       refX="0"
       id="Arrow1Lend-3"
       style="overflow:visible">
      <path
         inkscape:connector-curvature="0"
         id="path4085-5"
         d="M 0,0 5,-5 -12.5,0 5,5 0,0 z"
         style="fill-rule:evenodd;stroke:#000000;stroke-width:1pt;marker-start:none"
         transform="matrix(-0.8,0,0,-0.8,-10,0)" />
    </marker>
    <marker
       inkscape:stockid="Arrow1Lend"
       orient="auto"
       refY="0"
       refX="0"
       id="Arrow1Lend-9"
       style="overflow:visible">
      <path
         inkscape:connector-curvature="0"
         id="path4085-9"
         d="M 0,0 5,-5 -12.5,0 5,5 0,0 z"
         style="fill-rule:evenodd;stroke:#000000;stroke-width:1pt;marker-start:none"
         transform="matrix(-0.8,0,0,-0.8,-10,0)" />
    </marker>
    <marker
       inkscape:stockid="Arrow1Lend"
       orient="auto"
       refY="0"
       refX="0"
       id="Arrow1Lend-8"
       style="overflow:visible">
      <path
         inkscape:connector-curvature="0"
         id="path4085-1"
         d="M 0,0 5,-5 -12.5,0 5,5 0,0 z"
         style="fill-rule:evenodd;stroke:#000000;stroke-width:1pt;marker-start:none"
         transform="matrix(-0.8,0,0,-0.8,-10,0)" />
    </marker>
    <marker
       inkscape:stockid="Arrow2Lstart"
       orient="auto"
       refY="0"
       refX="0"
       id="Arrow2Lstart"
       style="overflow:visible">
      <path
         inkscape:connector-curvature="0"
         id="path4100"
         style="font-size:12px;fill-rule:evenodd;stroke-width:0.625;stroke-linejoin:round"
         d="M 8.7185878,4.0337352 -2.2072895,0.01601326 8.7185884,-4.0017078 c -1.7454984,2.3720609 -1.7354408,5.6174519 -6e-7,8.035443 z"
         transform="matrix(1.1,0,0,1.1,1.1,0)" />
    </marker>
    <marker
       inkscape:stockid="Arrow2Lend"
       orient="auto"
       refY="0"
       refX="0"
       id="Arrow2Lend"
       style="overflow:visible">
      <path
         inkscape:connector-curvature="0"
         id="path4103"
         style="font-size:12px;fill-rule:evenodd;stroke-width:0.625;stroke-linejoin:round"
         d="M 8.7185878,4.0337352 -2.2072895,0.01601326 8.7185884,-4.0017078 c -1.7454984,2.3720609 -1.7354408,5.6174519 -6e-7,8.035443 z"
         transform="matrix(-1.1,0,0,-1.1,-1.1,0)" />
    </marker>
  </defs>
  <sodipodi:namedview
     id="base"
     pagecolor="#ffffff"
     bordercolor="#666666"
     borderopacity="1.0"
     inkscape:pageopacity="0.0"
     inkscape:pageshadow="2"
     inkscape:zoom="3.8890873"
     inkscape:cx="30.789678"
     inkscape:cy="31.976757"
     inkscape:current-layer="g8448"
     showgrid="true"
     inkscape:document-units="px"
     inkscape:grid-bbox="true"
     inkscape:window-width="758"
     inkscape:window-height="694"
     inkscape:window-x="807"
     inkscape:window-y="34"
     inkscape:window-maximized="0" />
  <metadata
     id="metadata8137">
    <rdf:RDF>
      <cc:Work
         rdf:about="">
        <dc:format>image/svg+xml</dc:format>
        <dc:type
           rdf:resource="http://purl.org/dc/dcmitype/StillImage" />
        <dc:title></dc:title>
      </cc:Work>
    </rdf:RDF>
  </metadata>
  <g
     id="layer1"
     inkscape:label="Layer 1"
     inkscape:groupmode="layer">
    <g
       transform="matrix(0.55247495,0,0,0.60122047,-182.28609,-1028.5381)"
       id="g8448">
      <g
         transform="matrix(1.8100368,0,0,1.6632834,-237.49822,-208.72079)"
         id="g17840">
        <path
           transform="translate(-4.756669,-3.5675017)"
           d="m 366.60328,1189.9658 c 0,9.8514 -8.06219,17.8375 -18.00739,17.8375 -9.94521,0 -18.00739,-7.9861 -18.00739,-17.8375 0,-9.8514 8.06218,-17.8375 18.00739,-17.8375 9.9452,0 18.00739,7.9861 18.00739,17.8375 z"
           sodipodi:ry="17.837509"
           sodipodi:rx="18.007389"
           sodipodi:cy="1189.9658"
           sodipodi:cx="348.59589"
           id="path17803"
           style="fill:none;stroke:#0000ff;stroke-width:3;stroke-miterlimit:4;stroke-opacity:1;stroke-dasharray:none"
           sodipodi:type="arc" />
        <path
           inkscape:connector-curvature="0"
           id="path17834"
           d="m 335.68492,1172.4681 c 0.22651,0.057 0.45302,0.1132 0.67953,0.1699 0.0566,0.057 0.0983,0.134 0.16988,0.1698 0.0506,0.025 0.11923,-0.025 0.16988,0 0.0716,0.036 0.0922,0.1505 0.16988,0.1699 0.16481,0.041 0.34848,-0.054 0.50964,0 0.0537,0.018 -0.04,0.1299 0,0.1699 0.0895,0.09 0.2222,0.1229 0.33976,0.1699 1.71007,0.684 -0.36069,-0.1327 0.84941,0.1699 0.12284,0.031 0.21964,0.1298 0.33976,0.1698 0.0537,0.018 0.12984,-0.04 0.16988,0 0.04,0.04 -0.04,0.1299 0,0.1699 0.0849,0.085 0.4247,-0.085 0.50965,0 0.35149,0.3515 -0.53713,-0.014 0.16988,0.3398 0.0507,0.025 0.12984,-0.04 0.16988,0 0.04,0.04 -0.0506,0.1445 0,0.1699 0.96266,0 0.0566,-0.1133 0.33976,0.1698 0.0849,0.085 0.4247,-0.085 0.50964,0 0.04,0.04 -0.04,0.1299 0,0.1699 0.04,0.04 0.12984,-0.04 0.16988,0 0.0401,0.04 -0.04,0.1299 0,0.1699 0.0801,0.08 0.25968,-0.08 0.33977,0 0.04,0.04 -0.0401,0.1298 0,0.1699 0.04,0.04 0.11923,-0.025 0.16988,0 0.0716,0.036 0.0983,0.1341 0.16988,0.1699 0.0507,0.025 0.12984,-0.04 0.16988,0 0.04,0.04 -0.04,0.1298 0,0.1699 0.04,0.04 0.12984,-0.04 0.16988,0 0.04,0.04 -0.04,0.1298 0,0.1698 0.04,0.04 0.12984,-0.04 0.16988,0 0.04,0.04 -0.04,0.1299 0,0.1699 0.0801,0.08 0.25968,-0.08 0.33976,0 0.04,0.04 -0.04,0.1299 0,0.1699 0.04,0.04 0.12984,-0.04 0.16988,0 0.0401,0.04 -0.04,0.1298 0,0.1699 0.0401,0.04 0.12984,-0.04 0.16989,0 0.04,0.04 -0.0401,0.1298 0,0.1699 0.0801,0.08 0.25967,-0.08 0.33976,0 0.04,0.04 -0.0253,0.1192 0,0.1698 0.0358,0.072 0.13406,0.098 0.16988,0.1699 0.0253,0.051 -0.04,0.1299 0,0.1699 0.04,0.04 0.12984,-0.04 0.16988,0 0.04,0.04 -0.04,0.1298 0,0.1699 0.04,0.04 0.12984,-0.04 0.16988,0 0.0801,0.08 -0.0801,0.2597 0,0.3397 0.04,0.04 0.12984,-0.04 0.16988,0 0.04,0.04 -0.04,0.1299 0,0.1699 0.04,0.04 0.12984,-0.04 0.16988,0 0.0849,0.085 -0.0849,0.4247 0,0.5097 0.04,0.04 0.12984,-0.04 0.16988,0 0.0801,0.08 -0.0507,0.2384 0,0.3397 0.0358,0.072 0.13407,0.098 0.16988,0.1699 0.0461,0.092 -0.0465,0.6331 0,0.6795 0.04,0.04 0.12984,-0.04 0.16989,0 0.04,0.04 0,0.1133 0,0.1699 0,0.057 0,0.1133 0,0.1699 0,0.2831 0,0.5663 0,0.8494 0,0.057 -0.0401,0.1298 0,0.1699 0.04,0.04 0.12984,-0.04 0.16988,0 0.04,0.04 0,0.1132 0,0.1699 0,0.3397 0,0.6795 0,1.0192 0,0.057 0,0.1133 0,0.1699 0,0.057 -0.04,0.1299 0,0.1699 0.04,0.04 0.12984,-0.04 0.16988,0 0.04,0.04 0,0.1133 0,0.1699 0,0.3398 0,0.6795 0,1.0193 0,0.453 0,0.906 0,1.359 0,0.057 0,0.1133 0,0.1699 0,0.057 0.04,0.1298 0,0.1699 -0.04,0.04 -0.12984,-0.04 -0.16988,0 -0.04,0.04 0,0.1132 0,0.1699 0,0.057 0,0.1132 0,0.1699 0,0.2831 0,0.5662 0,0.8494 0,0.057 0,0.1132 0,0.1698 0,0.057 0.0253,0.1193 0,0.1699 -0.0358,0.072 -0.13407,0.098 -0.16988,0.1699 -0.0258,0.052 0,0.4331 0,0.5096 0,0.4531 0,0.9061 0,1.3591 0,0.1518 -0.0271,0.7953 0,0.8494 0.0358,0.072 0.13406,0.098 0.16988,0.1699 0.0253,0.051 -0.04,0.1298 0,0.1699 0.04,0.04 0.12984,-0.04 0.16988,0 0.0849,0.085 -0.0849,0.4247 0,0.5096 0.04,0.04 0.12984,-0.04 0.16988,0 0.0566,0.057 -0.0567,0.2831 0,0.3398 0.04,0.04 0.12984,-0.04 0.16988,0 0.04,0.04 -0.04,0.1298 0,0.1698 0.04,0.04 0.12984,-0.04 0.16988,0 0.0566,0.057 -0.0566,0.2832 0,0.3398 0.04,0.04 0.12984,-0.04 0.16988,0 0.663,0.663 -0.0393,0.091 0.16988,0.5096 0.0358,0.072 0.13407,0.098 0.16988,0.1699 0.0253,0.051 -0.04,0.1299 0,0.1699 0.0401,0.04 0.12984,-0.04 0.16988,0 0.0401,0.04 -0.0253,0.1192 0,0.1699 0.11321,0.2264 0.22656,0.1133 0.33977,0.3398 0.0253,0.051 -0.04,0.1298 0,0.1698 0.04,0.04 0.12984,-0.04 0.16988,0 0.04,0.04 -0.0253,0.1193 0,0.1699 0.3535,0.707 -0.0117,-0.1816 0.33976,0.1699 0.0566,0.057 -0.0566,0.2831 0,0.3398 0.04,0.04 0.12984,-0.04 0.16988,0 0.04,0.04 -0.04,0.1298 0,0.1698 0.04,0.04 0.12984,-0.04 0.16988,0 0.04,0.04 -0.04,0.1299 0,0.1699 0.04,0.04 0.11923,-0.025 0.16988,0 0.14326,0.072 0.19651,0.2682 0.33977,0.3398 0.0506,0.025 0.12983,-0.04 0.16988,0 0.04,0.04 -0.0401,0.1298 0,0.1699 0.0801,0.08 0.25968,-0.08 0.33976,0 0.0801,0.08 -0.0801,0.2596 0,0.3397 0.0801,0.08 0.23846,-0.051 0.33976,0 0.0716,0.036 0.0982,0.1341 0.16988,0.1699 0.23433,0.1172 0.15196,-0.2057 0.33976,0.1699 0.0253,0.051 -0.04,0.1298 0,0.1699 0.0566,0.057 0.28313,-0.057 0.33977,0 0.04,0.04 -0.0401,0.1298 0,0.1699 0.0801,0.08 0.23846,-0.051 0.33976,0 0.0716,0.036 0.0983,0.134 0.16988,0.1698 0.1013,0.051 0.25968,-0.08 0.33976,0 0.04,0.04 -0.04,0.1299 0,0.1699 0.04,0.04 0.12984,-0.04 0.16988,0 0.04,0.04 -0.04,0.1299 0,0.1699 0.0566,0.057 0.2832,-0.057 0.33976,0 0.04,0.04 -0.04,0.1298 0,0.1699 0.04,0.04 0.11924,-0.025 0.16988,0 0.14326,0.072 0.19651,0.2681 0.33977,0.3397 0.10129,0.051 0.25968,-0.08 0.33976,0 0.04,0.04 -0.04,0.1299 0,0.1699 0.04,0.04 0.11923,-0.025 0.16988,0 0.0716,0.036 0.0983,0.1341 0.16988,0.1699 0.0507,0.025 0.12984,-0.04 0.16988,0 0.04,0.04 -0.04,0.1298 0,0.1699 0.0347,0.035 0.44229,-0.034 0.50964,0 0.0716,0.036 0.0983,0.134 0.16989,0.1699 0.0673,0.034 0.47491,-0.035 0.50964,0 0.04,0.04 -0.04,0.1298 0,0.1698 0.0566,0.057 0.2832,-0.057 0.33976,0 0.04,0.04 -0.04,0.1299 0,0.1699 0.008,0.01 0.76931,0 0.84941,0 0.0566,0 0.12984,-0.04 0.16988,0 0.04,0.04 -0.04,0.1299 0,0.1699 0.0849,0.085 0.4247,-0.085 0.50964,0 0.04,0.04 -0.04,0.1298 0,0.1699 0.007,0.01 0.61714,0 0.67952,0"
           style="fill:none;stroke:#0000fe;stroke-width:1px;stroke-linecap:butt;stroke-linejoin:miter;stroke-opacity:1" />
        <path
           inkscape:connector-curvature="0"
           id="path17836"
           d="m 331.4379,1197.1008 c 0,-0.5096 0,-1.0193 0,-1.5289 0,-0.1133 0,-0.453 0,-0.3398 0,0.1133 0,0.453 0,0.3398 0,-0.1699 0,-0.3398 0,-0.5096 0,-0.057 -0.0401,-0.1299 0,-0.1699 0.04,-0.04 0.12984,0.04 0.16988,0 0.0409,-0.041 -0.0409,-0.6387 0,-0.6796 0.04,-0.04 0.12984,0.04 0.16988,0 0.0849,-0.085 -0.0849,-0.4247 0,-0.5096 0.35149,-0.3515 -0.0137,0.5371 0.33976,-0.1699 0.0507,-0.1013 -0.0801,-0.2597 0,-0.3397 0.04,-0.04 0.12984,0.04 0.16988,0 0.0801,-0.08 -0.0507,-0.2385 0,-0.3398 0.0358,-0.072 0.13407,-0.098 0.16988,-0.1699 0.0253,-0.051 -0.04,-0.1298 0,-0.1699 0.04,-0.04 0.12984,0.04 0.16988,0 0.0567,-0.057 -0.0566,-0.2831 0,-0.3397 0.04,-0.04 0.12984,0.04 0.16988,0 0.0566,-0.057 -0.0566,-0.2832 0,-0.3398 0.0401,-0.04 0.12984,0.04 0.16989,0 0.0801,-0.08 -0.0801,-0.2597 0,-0.3398 0.04,-0.04 0.12983,0.04 0.16988,0 0.04,-0.04 -0.0401,-0.1298 0,-0.1698 0.04,-0.04 0.12984,0.04 0.16988,0 0.0801,-0.08 -0.0801,-0.2597 0,-0.3398 0.04,-0.04 0.12984,0.04 0.16988,0 0.0566,-0.057 -0.0566,-0.2831 0,-0.3398 0.0566,-0.056 0.2832,0.057 0.33976,0 0.0801,-0.08 -0.0507,-0.2384 0,-0.3397 0.0225,-0.045 0.46454,-0.4871 0.50964,-0.5097 0.0507,-0.025 0.12984,0.04 0.16988,0 0.0401,-0.04 -0.04,-0.1298 0,-0.1698 0.0401,-0.04 0.12984,0.04 0.16989,0 0.04,-0.04 -0.0401,-0.1299 0,-0.1699 0.0566,-0.057 0.28312,0.057 0.33976,0 0.04,-0.04 -0.04,-0.1299 0,-0.1699 0.04,-0.04 0.11923,0.025 0.16988,0 0.0716,-0.036 0.0983,-0.1341 0.16988,-0.1699 0.0506,-0.025 0.12984,0.04 0.16988,0 0.04,-0.04 -0.04,-0.1298 0,-0.1699 0.04,-0.04 0.11923,0.025 0.16988,0 0.0716,-0.036 0.0983,-0.134 0.16988,-0.1698 0.1013,-0.051 0.25968,0.08 0.33976,0 0.35149,-0.3515 -0.53712,0.014 0.16989,-0.3398 0.10129,-0.051 0.25968,0.08 0.33976,0 0.04,-0.04 -0.04,-0.1298 0,-0.1699 0.061,-0.061 0.56962,0.055 0.67952,0 0.0506,-0.025 -0.04,-0.1298 0,-0.1699 0.04,-0.04 0.11326,0 0.16988,0 0.0801,0 0.84171,0.01 0.84941,0 0.04,-0.04 -0.04,-0.1298 0,-0.1699 0.04,-0.04 0.11325,0 0.16988,0 0,-0.057 -0.04,-0.1298 0,-0.1698 0.04,-0.04 0.11325,0 0.16988,0 0.12041,0 0.97536,0.022 1.01929,0 0.0716,-0.036 0.0983,-0.1341 0.16988,-0.1699 0.11734,-0.059 0.78977,0.06 0.8494,0 0.35149,-0.3515 -0.53712,0.014 0.16988,-0.3398 0.0922,-0.046 0.63304,0.047 0.67953,0 0.04,-0.04 -0.04,-0.1298 0,-0.1699 0.005,-0.01 0.46844,0 0.50964,0 0.0765,0 0.45794,0.026 0.50964,0 0.0716,-0.036 0.0983,-0.134 0.16989,-0.1698 0.0439,-0.022 0.89887,0 1.01928,0 0.0566,0 0.12984,0.04 0.16988,0 0.04,-0.04 -0.04,-0.1299 0,-0.1699 0.0566,-0.057 0.28313,0.057 0.33976,0 0.04,-0.04 -0.04,-0.1299 0,-0.1699 0.0409,-0.041 0.63865,0.041 0.67953,0 0.04,-0.04 -0.04,-0.1298 0,-0.1699 0.04,-0.04 0.11325,0 0.16988,0 0.0801,0 0.84171,0.01 0.8494,0 0.0401,-0.04 -0.04,-0.1298 0,-0.1699 0.0409,-0.041 0.63865,0.041 0.67953,0 0.0566,-0.056 -0.0566,-0.2832 0,-0.3397 0.0801,-0.08 0.25968,0.08 0.33976,0 0.35149,-0.3515 -0.53712,0.014 0.16988,-0.3398 0.0674,-0.034 0.47492,0.035 0.50965,0 0.04,-0.04 -0.0401,-0.1298 0,-0.1699 0.0849,-0.085 0.4247,0.085 0.50964,0 0.04,-0.04 -0.04,-0.1298 0,-0.1698 0.0409,-0.041 0.63864,0.041 0.67952,0 0.04,-0.04 -0.04,-0.1299 0,-0.1699 0.45302,0 -0.0566,0.057 0.16988,-0.1699 0.0849,-0.085 0.42471,0.085 0.50965,0 0.04,-0.04 -0.04,-0.1299 0,-0.1699 0.0801,-0.08 0.23846,0.051 0.33976,0 0.56342,-0.5634 -0.16017,0.08 0.33976,-0.1699 0.0716,-0.036 0.0983,-0.134 0.16988,-0.1699 0.0507,-0.025 0.12984,0.04 0.16988,0 0.04,-0.04 -0.04,-0.1298 0,-0.1698 0.0801,-0.08 0.23847,0.051 0.33976,0 0.0716,-0.036 0.0983,-0.1341 0.16989,-0.1699 0.0506,-0.025 0.12984,0.04 0.16988,0 0.04,-0.04 -0.04,-0.1299 0,-0.1699 0.0801,-0.08 0.25968,0.08 0.33976,0 0.04,-0.04 -0.04,-0.1298 0,-0.1699 0.04,-0.04 0.12984,0.04 0.16988,0 0.04,-0.04 -0.0253,-0.1192 0,-0.1699 0.0358,-0.072 0.11325,-0.1132 0.16988,-0.1698 0.0566,-0.057 0.0983,-0.1341 0.16988,-0.1699 0.0506,-0.025 0.12984,0.04 0.16988,0 0.04,-0.04 -0.04,-0.1299 0,-0.1699 0.04,-0.04 0.12984,0.04 0.16988,0 0.0567,-0.057 -0.0566,-0.2831 0,-0.3398 0.0401,-0.04 0.12984,0.04 0.16988,0 0.0401,-0.04 -0.04,-0.1298 0,-0.1698 0.0401,-0.04 0.12984,0.04 0.16989,0 0.04,-0.04 -0.0401,-0.1299 0,-0.1699 0.04,-0.04 0.12984,0.04 0.16988,0 0.04,-0.04 -0.04,-0.1299 0,-0.1699 0.04,-0.04 0.12984,0.04 0.16988,0 0.04,-0.04 -0.04,-0.1298 0,-0.1699 0.04,-0.04 0.12984,0.04 0.16988,0 0.0566,-0.056 -0.0566,-0.2832 0,-0.3398 0.04,-0.04 0.12984,0.04 0.16988,0 0.0801,-0.08 -0.0801,-0.2596 0,-0.3397 0.04,-0.04 0.12984,0.04 0.16988,0 0.0801,-0.08 -0.0801,-0.2597 0,-0.3398 0.04,-0.04 0.12984,0.04 0.16988,0 0.04,-0.04 -0.04,-0.1298 0,-0.1699 0.04,-0.04 0.12984,0.04 0.16988,0 0.0567,-0.057 -0.0566,-0.2831 0,-0.3397 0.04,-0.04 0.12984,0.04 0.16988,0 0.0564,-0.056 -0.0564,-0.2834 0,-0.3398 0.0401,-0.04 0.12984,0.04 0.16989,0 0.04,-0.04 -0.0401,-0.1298 0,-0.1699 0.04,-0.04 0.12984,0.04 0.16988,0 0.0849,-0.085 -0.0849,-0.4247 0,-0.5096 0.04,-0.04 0.12984,0.04 0.16988,0 0.0801,-0.08 -0.0506,-0.2385 0,-0.3398 0.0358,-0.072 0.13406,-0.098 0.16988,-0.1698 0.0253,-0.051 -0.04,-0.1299 0,-0.1699 0.04,-0.04 0.12984,0.04 0.16988,0 0.0801,-0.08 -0.0801,-0.2597 0,-0.3398 0.04,-0.04 0.12984,0.04 0.16988,0 0.0849,-0.085 -0.0849,-0.4247 0,-0.5096 0.04,-0.04 0.12984,0.04 0.16988,0 0.0801,-0.08 -0.0801,-0.2597 0,-0.3398 0.04,-0.04 0.12984,0.04 0.16988,0 0.04,-0.04 -0.0253,-0.1192 0,-0.1699 0.56343,-0.5634 -0.0801,0.1602 0.16988,-0.3397 0.0358,-0.072 0.13407,-0.098 0.16988,-0.1699 0.0507,-0.1013 -0.0801,-0.2597 0,-0.3398 0.0566,-0.056 0.28321,0.057 0.33977,0 0.0849,-0.085 -0.0849,-0.4247 0,-0.5096 0.04,-0.04 0.12984,0.04 0.16988,0 0.04,-0.04 0,-0.1133 0,-0.1699 0,-0.2265 0,-0.453 0,-0.6795 0,-0.057 -0.0566,-0.1699 0,-0.1699 0.0566,0 0,0.1132 0,0.1699"
           style="fill:none;stroke:#0000ff;stroke-width:1px;stroke-linecap:butt;stroke-linejoin:miter;stroke-opacity:1" />
        <path
           inkscape:connector-curvature="0"
           id="path17838"
           d="m 327.19087,1180.6224 c -0.15781,-1.2013 0.77904,0.2402 1.01929,0 0.04,-0.04 -0.04,-0.1299 0,-0.1699 0.005,-0.01 0.46844,0 0.50964,0 1.01929,0 2.03857,0 3.05786,0 0.33976,0 0.67952,0 1.01928,0 0.0566,0 0.11326,0 0.16989,0 0.0566,0 0.11923,-0.025 0.16988,0 0.0716,0.036 0.0983,0.134 0.16988,0.1699 0.0506,0.025 0.12984,-0.04 0.16988,0 0.04,0.04 -0.04,0.1298 0,0.1698 0.0465,0.046 0.58736,-0.046 0.67952,0 0.0716,0.036 0.0983,0.1341 0.16988,0.1699 0.1013,0.051 0.23847,-0.051 0.33977,0 0.0716,0.036 0.0983,0.1341 0.16988,0.1699 0.1359,0.068 0.37373,-0.068 0.50964,0 0.0716,0.036 0.0982,0.1341 0.16988,0.1699 0.0507,0.025 0.12984,-0.04 0.16988,0 0.04,0.04 -0.04,0.1298 0,0.1699 0.0566,0.057 0.28313,-0.057 0.33976,0 0.0401,0.04 -0.04,0.1298 0,0.1698 0.0849,0.085 0.42471,-0.085 0.50965,0 0.04,0.04 -0.04,0.1299 0,0.1699 0.04,0.04 0.12984,-0.04 0.16988,0 0.04,0.04 -0.04,0.1299 0,0.1699 0.0801,0.08 0.23846,-0.051 0.33976,0 0.90603,0.453 -0.45302,0 0,0 0.85821,0 0.13056,0.1306 0.33976,0.3398 0.0801,0.08 0.25968,-0.08 0.33976,0 0.04,0.04 -0.04,0.1298 0,0.1699 0.04,0.04 0.12984,-0.04 0.16989,0 0.04,0.04 -0.04,0.1298 0,0.1698 0.04,0.04 0.12983,-0.04 0.16988,0 0.04,0.04 -0.0401,0.1299 0,0.1699 0.04,0.04 0.11325,0 0.16988,0 0,0.057 -0.04,0.1299 0,0.1699 0.04,0.04 0.12984,-0.04 0.16988,0 0.04,0.04 -0.04,0.1298 0,0.1699 0.04,0.04 0.12984,-0.04 0.16988,0 0.04,0.04 -0.04,0.1298 0,0.1699 0.0801,0.08 0.25968,-0.08 0.33976,0 0.04,0.04 -0.04,0.1298 0,0.1698 0.04,0.04 0.16988,-0.057 0.16988,0 0,0.057 -0.16988,-0.057 -0.16988,0 0,0.3535 0.23824,0.068 0.33976,0.1699 0.04,0.04 -0.04,0.1299 0,0.1699 0.0801,0.08 0.28912,-0.1013 0.33977,0 0.0506,0.1013 -0.0507,0.2385 0,0.3398 0.0253,0.051 0.11923,-0.025 0.16988,0 0.0716,0.036 0.0983,0.134 0.16988,0.1698 0.0507,0.025 0.12984,-0.04 0.16988,0 0.04,0.04 -0.04,0.1299 0,0.1699 0.04,0.04 0.12984,-0.04 0.16988,0 0.04,0.04 -0.04,0.1299 0,0.1699 0.04,0.04 0.12984,-0.04 0.16988,0 0.04,0.04 -0.04,0.1298 0,0.1699 0.0566,0.056 0.2832,-0.057 0.33976,0 0.04,0.04 -0.04,0.1298 0,0.1699 0.04,0.04 0.12984,-0.04 0.16988,0 0.0401,0.04 -0.04,0.1298 0,0.1699 0.0401,0.04 0.11924,-0.025 0.16988,0 0.0716,0.036 0.0983,0.134 0.16989,0.1698 0.0506,0.025 0.11325,0 0.16988,0 0.0566,0.057 0.0983,0.1341 0.16988,0.1699 0.0507,0.025 0.12984,-0.04 0.16988,0 0.04,0.04 -0.04,0.1299 0,0.1699 0.0801,0.08 0.25968,-0.08 0.33976,0 0.04,0.04 -0.04,0.1298 0,0.1699 0.04,0.04 0.11923,-0.025 0.16988,0 0.56343,0.5634 -0.16016,-0.08 0.33976,0.1699 0.0451,0.023 0.29465,0.3172 0.33977,0.3397 0.0506,0.025 0.11923,-0.025 0.16988,0 0.0716,0.036 0.0983,0.1341 0.16988,0.1699 0.1013,0.051 0.25968,-0.08 0.33976,0 0.04,0.04 -0.04,0.1298 0,0.1699 0.04,0.04 0.11325,0 0.16988,0 0.0566,0 0.11326,0 0.16988,0"
           style="fill:none;stroke:#0000ff;stroke-width:1px;stroke-linecap:butt;stroke-linejoin:miter;stroke-opacity:1" />
      </g>
    </g>
  </g>
</svg>
