<?xml version="1.0" encoding="UTF-8" standalone="no"?>
<!-- Created with Inkscape (http://www.inkscape.org/) -->

<svg
   xmlns:dc="http://purl.org/dc/elements/1.1/"
   xmlns:cc="http://creativecommons.org/ns#"
   xmlns:rdf="http://www.w3.org/1999/02/22-rdf-syntax-ns#"
   xmlns:svg="http://www.w3.org/2000/svg"
   xmlns="http://www.w3.org/2000/svg"
   xmlns:sodipodi="http://sodipodi.sourceforge.net/DTD/sodipodi-0.dtd"
   xmlns:inkscape="http://www.inkscape.org/namespaces/inkscape"
   width="64px"
   height="64px"
   id="svg8132"
   version="1.1"
   inkscape:version="0.48.2 r9819"
   sodipodi:docname="38.svg">
  <defs
     id="defs8134">
    <marker
       inkscape:stockid="Arrow2Mend"
       orient="auto"
       refY="0"
       refX="0"
       id="Arrow2Mend"
       style="overflow:visible">
      <path
         inkscape:connector-curvature="0"
         id="path4109"
         style="font-size:12px;fill-rule:evenodd;stroke-width:0.625;stroke-linejoin:round"
         d="M 8.7185878,4.0337352 -2.2072895,0.01601326 8.7185884,-4.0017078 c -1.7454984,2.3720609 -1.7354408,5.6174519 -6e-7,8.035443 z"
         transform="scale(-0.6,-0.6)" />
    </marker>
    <marker
       inkscape:stockid="Arrow1Lend"
       orient="auto"
       refY="0"
       refX="0"
       id="Arrow1Lend"
       style="overflow:visible">
      <path
         inkscape:connector-curvature="0"
         id="path4085"
         d="M 0,0 5,-5 -12.5,0 5,5 0,0 z"
         style="fill-rule:evenodd;stroke:#000000;stroke-width:1pt;marker-start:none"
         transform="matrix(-0.8,0,0,-0.8,-10,0)" />
    </marker>
    <marker
       inkscape:stockid="Arrow1Lend"
       orient="auto"
       refY="0"
       refX="0"
       id="Arrow1Lend-1"
       style="overflow:visible">
      <path
         inkscape:connector-curvature="0"
         id="path4085-8"
         d="M 0,0 5,-5 -12.5,0 5,5 0,0 z"
         style="fill-rule:evenodd;stroke:#000000;stroke-width:1pt;marker-start:none"
         transform="matrix(-0.8,0,0,-0.8,-10,0)" />
    </marker>
    <marker
       inkscape:stockid="Arrow1Lend"
       orient="auto"
       refY="0"
       refX="0"
       id="Arrow1Lend-3"
       style="overflow:visible">
      <path
         inkscape:connector-curvature="0"
         id="path4085-5"
         d="M 0,0 5,-5 -12.5,0 5,5 0,0 z"
         style="fill-rule:evenodd;stroke:#000000;stroke-width:1pt;marker-start:none"
         transform="matrix(-0.8,0,0,-0.8,-10,0)" />
    </marker>
    <marker
       inkscape:stockid="Arrow1Lend"
       orient="auto"
       refY="0"
       refX="0"
       id="Arrow1Lend-9"
       style="overflow:visible">
      <path
         inkscape:connector-curvature="0"
         id="path4085-9"
         d="M 0,0 5,-5 -12.5,0 5,5 0,0 z"
         style="fill-rule:evenodd;stroke:#000000;stroke-width:1pt;marker-start:none"
         transform="matrix(-0.8,0,0,-0.8,-10,0)" />
    </marker>
    <marker
       inkscape:stockid="Arrow1Lend"
       orient="auto"
       refY="0"
       refX="0"
       id="Arrow1Lend-8"
       style="overflow:visible">
      <path
         inkscape:connector-curvature="0"
         id="path4085-1"
         d="M 0,0 5,-5 -12.5,0 5,5 0,0 z"
         style="fill-rule:evenodd;stroke:#000000;stroke-width:1pt;marker-start:none"
         transform="matrix(-0.8,0,0,-0.8,-10,0)" />
    </marker>
    <marker
       inkscape:stockid="Arrow2Lstart"
       orient="auto"
       refY="0"
       refX="0"
       id="Arrow2Lstart"
       style="overflow:visible">
      <path
         inkscape:connector-curvature="0"
         id="path4100"
         style="font-size:12px;fill-rule:evenodd;stroke-width:0.625;stroke-linejoin:round"
         d="M 8.7185878,4.0337352 -2.2072895,0.01601326 8.7185884,-4.0017078 c -1.7454984,2.3720609 -1.7354408,5.6174519 -6e-7,8.035443 z"
         transform="matrix(1.1,0,0,1.1,1.1,0)" />
    </marker>
    <marker
       inkscape:stockid="Arrow2Lend"
       orient="auto"
       refY="0"
       refX="0"
       id="Arrow2Lend"
       style="overflow:visible">
      <path
         inkscape:connector-curvature="0"
         id="path4103"
         style="font-size:12px;fill-rule:evenodd;stroke-width:0.625;stroke-linejoin:round"
         d="M 8.7185878,4.0337352 -2.2072895,0.01601326 8.7185884,-4.0017078 c -1.7454984,2.3720609 -1.7354408,5.6174519 -6e-7,8.035443 z"
         transform="matrix(-1.1,0,0,-1.1,-1.1,0)" />
    </marker>
  </defs>
  <sodipodi:namedview
     id="base"
     pagecolor="#ffffff"
     bordercolor="#666666"
     borderopacity="1.0"
     inkscape:pageopacity="0.0"
     inkscape:pageshadow="2"
     inkscape:zoom="3.8890873"
     inkscape:cx="21.107235"
     inkscape:cy="21.691568"
     inkscape:current-layer="g8448"
     showgrid="true"
     inkscape:document-units="px"
     inkscape:grid-bbox="true"
     inkscape:window-width="544"
     inkscape:window-height="596"
     inkscape:window-x="1101"
     inkscape:window-y="57"
     inkscape:window-maximized="0" />
  <metadata
     id="metadata8137">
    <rdf:RDF>
      <cc:Work
         rdf:about="">
        <dc:format>image/svg+xml</dc:format>
        <dc:type
           rdf:resource="http://purl.org/dc/dcmitype/StillImage" />
        <dc:title></dc:title>
      </cc:Work>
    </rdf:RDF>
  </metadata>
  <g
     id="layer1"
     inkscape:label="Layer 1"
     inkscape:groupmode="layer">
    <g
       transform="matrix(0.55247495,0,0,0.60122047,-182.28609,-1028.5381)"
       id="g8448">
      <g
         id="g15007"
         transform="matrix(0.71928914,0,0,0.87875675,107.32454,216.77254)">
        <path
           inkscape:connector-curvature="0"
           d="m 376.65825,1762.3105 c 0.31134,1.433 0.85743,2.853 1.7225,4.1919 0.85068,1.1504 1.19989,2.4181 2.24783,3.5083 1.21421,0.8751 1.85176,2.0077 2.90954,2.9375 1.01203,1.1991 2.48308,2.0855 3.99184,3.0143 1.41672,1.0146 3.01572,1.3658 4.77278,1.9902 1.9607,0.4543 3.80564,1.0379 5.65767,1.6453 2.04919,0.5049 4.23405,0.6835 6.3624,1.0217 2.3842,0.3583 4.83403,0.4369 7.27251,0.4875 2.24191,-0.2016 4.29495,-0.7424 6.46091,-1.1228 1.0312,-0.1212 2.14017,-0.3477 3.06362,-0.6768 0.27831,-0.099 1.03353,-0.4738 0.75614,-0.3736 -14.77119,5.3361 -19.22399,8.0094 -14.30869,5.1209 1.3447,-0.7273 2.67513,-1.4683 4.03915,-2.1822 1.29738,-0.7513 2.49174,-1.5708 3.78295,-2.3258 1.35731,-1.1052 2.93874,-2.0846 4.40258,-3.1348 1.4592,-1.0311 2.72299,-2.1566 3.83897,-3.3476 1.11577,-1.3137 1.9312,-2.7199 2.67749,-4.1331 0.33184,-0.6852 0.78628,-1.3413 1.19412,-2.0087 0,0 16.58767,-4.9447 16.58767,-4.9447 l 0,0 c -0.34679,0.6792 -0.71797,1.3497 -1.27275,1.9744 -0.63956,1.465 -1.46568,2.9146 -2.48704,4.286 -0.85671,1.3269 -2.23571,2.551 -3.75471,3.5996 -0.89568,0.7872 -1.93122,1.6137 -3.06073,2.2745 -0.22582,0.132 -0.54475,0.1968 -0.74085,0.347 -0.2087,0.1599 -0.29337,0.3716 -0.44006,0.5575 -1.08712,0.8799 -2.48217,1.6066 -3.75409,2.3694 -1.12868,0.8637 -2.60109,1.5682 -4.02228,2.2179 -5.83471,3.5556 -13.2162,6.193 -20.98325,7.51 -2.20189,0.4462 -4.46719,0.8663 -6.80288,0.8 -2.51903,-0.095 -5.03438,-0.2575 -7.48247,-0.6686 -2.24892,-0.3423 -4.59275,-0.5069 -6.64727,-1.2374 -1.84946,-0.6203 -3.81476,-1.0516 -5.68792,-1.6379 -1.88966,-0.5898 -3.52497,-1.3238 -5.01393,-2.2803 -1.60693,-0.9713 -3.06484,-1.9757 -4.19787,-3.1994 -1.05777,-0.9762 -1.81753,-2.0771 -3.00142,-3.0096 -1.05346,-1.1603 -1.53493,-2.4433 -2.33308,-3.6751 -0.88355,-1.3833 -1.44367,-2.8436 -1.97892,-4.2945 0,0 16.22954,-5.601 16.22954,-5.601 z"
           id="path14430"
           style="fill:#000000;fill-opacity:1;stroke:#000000;stroke-width:4.33788776;stroke-miterlimit:4;stroke-opacity:1;stroke-dasharray:none" />
        <path
           inkscape:connector-curvature="0"
           d="m 397.72273,1766.0259 c -0.31134,-1.433 -0.85743,-2.853 -1.7225,-4.1919 -0.85068,-1.1504 -1.19989,-2.4181 -2.24783,-3.5083 -1.21421,-0.8751 -1.85176,-2.0077 -2.90955,-2.9375 -1.01203,-1.1991 -2.48308,-2.0855 -3.99183,-3.0143 -1.41672,-1.0146 -3.01572,-1.3658 -4.77278,-1.9903 -1.96071,-0.4542 -3.80564,-1.0378 -5.65767,-1.6452 -2.0492,-0.5049 -4.23406,-0.6836 -6.36241,-1.0217 -2.38419,-0.3583 -4.83403,-0.4369 -7.27251,-0.4875 -2.24191,0.2016 -4.29494,0.7424 -6.46091,1.1227 -1.03119,0.1213 -2.14016,0.3478 -3.06361,0.6769 -0.27831,0.099 -1.03353,0.4738 -0.75614,0.3736 14.77118,-5.3361 19.22398,-8.0094 14.30868,-5.1209 -1.34469,0.7273 -2.67512,1.4683 -4.03915,2.1822 -1.29738,0.7513 -2.49173,1.5708 -3.78294,2.3258 -1.35731,1.1052 -2.93874,2.0846 -4.40259,3.1348 -1.4592,1.031 -2.72298,2.1566 -3.83896,3.3476 -1.11578,1.3137 -1.9312,2.7199 -2.6775,4.1331 -0.33183,0.6852 -0.78628,1.3413 -1.19411,2.0087 0,0 -16.58767,4.9447 -16.58767,4.9447 l 0,0 c 0.34678,-0.6792 0.71797,-1.3497 1.27275,-1.9744 0.63955,-1.465 1.46567,-2.9146 2.48704,-4.286 0.85671,-1.3269 2.2357,-2.551 3.7547,-3.5996 0.89568,-0.7872 1.93122,-1.6137 3.06074,-2.2745 0.22582,-0.132 0.54475,-0.1968 0.74085,-0.347 0.2087,-0.1599 0.29337,-0.3717 0.44005,-0.5575 1.08713,-0.8799 2.48218,-1.6066 3.75409,-2.3694 1.12869,-0.8637 2.6011,-1.5683 4.02229,-2.2179 5.8347,-3.5556 13.2162,-6.193 20.98325,-7.51 2.20189,-0.4462 4.46718,-0.8663 6.80287,-0.8 2.51903,0.095 5.03439,0.2575 7.48248,0.6686 2.24892,0.3423 4.59275,0.5069 6.64727,1.2374 1.84946,0.6203 3.81476,1.0516 5.68791,1.6379 1.88966,0.5898 3.52498,1.3238 5.01393,2.2803 1.60693,0.9713 3.06485,1.9757 4.19787,3.1994 1.05777,0.9762 1.81754,2.0771 3.00143,3.0096 1.05346,1.1603 1.53493,2.4433 2.33308,3.6751 0.88355,1.3833 1.44367,2.8436 1.97891,4.2945 0,0 -16.22953,5.601 -16.22953,5.601 z"
           id="path14430-8"
           style="fill:#000000;fill-opacity:1;stroke:#000000;stroke-width:4.33788776;stroke-miterlimit:4;stroke-opacity:1;stroke-dasharray:none" />
      </g>
    </g>
  </g>
</svg>
