<?xml version="1.0" encoding="UTF-8" standalone="no"?>
<!-- Created with Inkscape (http://www.inkscape.org/) -->

<svg
   xmlns:dc="http://purl.org/dc/elements/1.1/"
   xmlns:cc="http://creativecommons.org/ns#"
   xmlns:rdf="http://www.w3.org/1999/02/22-rdf-syntax-ns#"
   xmlns:svg="http://www.w3.org/2000/svg"
   xmlns="http://www.w3.org/2000/svg"
   xmlns:sodipodi="http://sodipodi.sourceforge.net/DTD/sodipodi-0.dtd"
   xmlns:inkscape="http://www.inkscape.org/namespaces/inkscape"
   width="64px"
   height="64px"
   id="svg8132"
   version="1.1"
   inkscape:version="0.48.2 r9819"
   sodipodi:docname="45.svg">
  <defs
     id="defs8134">
    <marker
       inkscape:stockid="Arrow2Mend"
       orient="auto"
       refY="0"
       refX="0"
       id="Arrow2Mend"
       style="overflow:visible">
      <path
         inkscape:connector-curvature="0"
         id="path4109"
         style="font-size:12px;fill-rule:evenodd;stroke-width:0.625;stroke-linejoin:round"
         d="M 8.7185878,4.0337352 -2.2072895,0.01601326 8.7185884,-4.0017078 c -1.7454984,2.3720609 -1.7354408,5.6174519 -6e-7,8.035443 z"
         transform="scale(-0.6,-0.6)" />
    </marker>
    <marker
       inkscape:stockid="Arrow1Lend"
       orient="auto"
       refY="0"
       refX="0"
       id="Arrow1Lend"
       style="overflow:visible">
      <path
         inkscape:connector-curvature="0"
         id="path4085"
         d="M 0,0 5,-5 -12.5,0 5,5 0,0 z"
         style="fill-rule:evenodd;stroke:#000000;stroke-width:1pt;marker-start:none"
         transform="matrix(-0.8,0,0,-0.8,-10,0)" />
    </marker>
    <marker
       inkscape:stockid="Arrow1Lend"
       orient="auto"
       refY="0"
       refX="0"
       id="Arrow1Lend-1"
       style="overflow:visible">
      <path
         inkscape:connector-curvature="0"
         id="path4085-8"
         d="M 0,0 5,-5 -12.5,0 5,5 0,0 z"
         style="fill-rule:evenodd;stroke:#000000;stroke-width:1pt;marker-start:none"
         transform="matrix(-0.8,0,0,-0.8,-10,0)" />
    </marker>
    <marker
       inkscape:stockid="Arrow1Lend"
       orient="auto"
       refY="0"
       refX="0"
       id="Arrow1Lend-3"
       style="overflow:visible">
      <path
         inkscape:connector-curvature="0"
         id="path4085-5"
         d="M 0,0 5,-5 -12.5,0 5,5 0,0 z"
         style="fill-rule:evenodd;stroke:#000000;stroke-width:1pt;marker-start:none"
         transform="matrix(-0.8,0,0,-0.8,-10,0)" />
    </marker>
    <marker
       inkscape:stockid="Arrow1Lend"
       orient="auto"
       refY="0"
       refX="0"
       id="Arrow1Lend-9"
       style="overflow:visible">
      <path
         inkscape:connector-curvature="0"
         id="path4085-9"
         d="M 0,0 5,-5 -12.5,0 5,5 0,0 z"
         style="fill-rule:evenodd;stroke:#000000;stroke-width:1pt;marker-start:none"
         transform="matrix(-0.8,0,0,-0.8,-10,0)" />
    </marker>
    <marker
       inkscape:stockid="Arrow1Lend"
       orient="auto"
       refY="0"
       refX="0"
       id="Arrow1Lend-8"
       style="overflow:visible">
      <path
         inkscape:connector-curvature="0"
         id="path4085-1"
         d="M 0,0 5,-5 -12.5,0 5,5 0,0 z"
         style="fill-rule:evenodd;stroke:#000000;stroke-width:1pt;marker-start:none"
         transform="matrix(-0.8,0,0,-0.8,-10,0)" />
    </marker>
    <marker
       inkscape:stockid="Arrow2Lstart"
       orient="auto"
       refY="0"
       refX="0"
       id="Arrow2Lstart"
       style="overflow:visible">
      <path
         inkscape:connector-curvature="0"
         id="path4100"
         style="font-size:12px;fill-rule:evenodd;stroke-width:0.625;stroke-linejoin:round"
         d="M 8.7185878,4.0337352 -2.2072895,0.01601326 8.7185884,-4.0017078 c -1.7454984,2.3720609 -1.7354408,5.6174519 -6e-7,8.035443 z"
         transform="matrix(1.1,0,0,1.1,1.1,0)" />
    </marker>
    <marker
       inkscape:stockid="Arrow2Lend"
       orient="auto"
       refY="0"
       refX="0"
       id="Arrow2Lend"
       style="overflow:visible">
      <path
         inkscape:connector-curvature="0"
         id="path4103"
         style="font-size:12px;fill-rule:evenodd;stroke-width:0.625;stroke-linejoin:round"
         d="M 8.7185878,4.0337352 -2.2072895,0.01601326 8.7185884,-4.0017078 c -1.7454984,2.3720609 -1.7354408,5.6174519 -6e-7,8.035443 z"
         transform="matrix(-1.1,0,0,-1.1,-1.1,0)" />
    </marker>
  </defs>
  <sodipodi:namedview
     id="base"
     pagecolor="#ffffff"
     bordercolor="#666666"
     borderopacity="1.0"
     inkscape:pageopacity="0.0"
     inkscape:pageshadow="2"
     inkscape:zoom="3.8890873"
     inkscape:cx="30.789678"
     inkscape:cy="21.691568"
     inkscape:current-layer="g8448"
     showgrid="true"
     inkscape:document-units="px"
     inkscape:grid-bbox="true"
     inkscape:window-width="544"
     inkscape:window-height="596"
     inkscape:window-x="1101"
     inkscape:window-y="57"
     inkscape:window-maximized="0" />
  <metadata
     id="metadata8137">
    <rdf:RDF>
      <cc:Work
         rdf:about="">
        <dc:format>image/svg+xml</dc:format>
        <dc:type
           rdf:resource="http://purl.org/dc/dcmitype/StillImage" />
        <dc:title></dc:title>
      </cc:Work>
    </rdf:RDF>
  </metadata>
  <g
     id="layer1"
     inkscape:label="Layer 1"
     inkscape:groupmode="layer">
    <g
       transform="matrix(0.55247495,0,0,0.60122047,-182.28609,-1028.5381)"
       id="g8448">
      <g
         transform="matrix(1.8100368,0,0,1.6632834,-397.90755,455.58747)"
         id="g14773">
        <path
           inkscape:connector-curvature="0"
           id="path14765"
           d="m 426.26165,802.02487 c -0.0478,0 -0.0956,0 -0.14338,0 -0.0478,0 -0.10068,0.0214 -0.14338,0 -0.0605,-0.0302 -0.0829,-0.11318 -0.14337,-0.14338 -0.0778,-0.0389 -0.53431,0.0392 -0.57351,0 -0.0338,-0.0338 0.0338,-0.10958 0,-0.14338 -0.0345,-0.0345 -0.53901,0.0345 -0.57351,0 -0.0338,-0.0338 0.0338,-0.10958 0,-0.14338 -0.0478,-0.0478 -0.23896,0.0478 -0.28676,0 -0.0338,-0.0338 0.0338,-0.10957 0,-0.14337 -0.0717,-0.0717 -0.35843,0.0717 -0.43013,0 -0.0338,-0.0338 0.0338,-0.10958 0,-0.14338 -0.0293,-0.0293 -0.37334,0.0284 -0.43014,0 -0.0605,-0.0302 -0.0956,-0.0956 -0.14337,-0.14338 -0.0478,0 -0.10058,0.0214 -0.14338,0 -0.12091,-0.0604 -0.16585,-0.22625 -0.28676,-0.28675 -0.0427,-0.0214 -0.10067,0.0214 -0.14337,0 -0.0605,-0.0302 -0.0793,-0.12198 -0.14338,-0.14338 -0.0907,-0.0302 -0.19606,0.0302 -0.28676,0 -0.12824,-0.0427 -0.16585,-0.22626 -0.28675,-0.28676 -0.0428,-0.0214 -0.10068,0.0214 -0.14338,0 -0.0605,-0.0302 -0.0829,-0.11317 -0.14338,-0.14337 -0.0427,-0.0214 -0.10067,0.0214 -0.14337,0 -0.0605,-0.0302 -0.0829,-0.11318 -0.14338,-0.14338 -0.0428,-0.0214 -0.10958,0.0338 -0.14338,0 -0.0338,-0.0338 0.0214,-0.10058 0,-0.14338 -0.0302,-0.0605 -0.0956,-0.0956 -0.14338,-0.14338 -0.0478,-0.0478 -0.0829,-0.11317 -0.14338,-0.14337 -0.0427,-0.0214 -0.10067,0.0214 -0.14337,0 -0.0605,-0.0302 -0.0956,-0.0956 -0.14338,-0.14338 -0.0478,-0.0478 -0.11318,-0.083 -0.14338,-0.14338 -0.0214,-0.0427 0.0338,-0.10958 0,-0.14338 -0.0338,-0.0338 -0.10058,0.0214 -0.14338,0 -0.5967,-0.29835 0.15328,0.01 -0.14337,-0.28675 -0.0338,-0.0338 -0.10958,0.0338 -0.14338,0 -0.0338,-0.0338 0.0338,-0.10958 0,-0.14338 -0.0338,-0.0338 -0.10958,0.0338 -0.14338,0 -0.0338,-0.0338 0,-0.0956 0,-0.14338 -0.0478,0 -0.10958,0.0338 -0.14338,0 -0.0676,-0.0676 0.0676,-0.21915 0,-0.28675 -0.0338,-0.0338 -0.10957,0.0338 -0.14337,0 -0.0338,-0.0338 0.0338,-0.10958 0,-0.14338 -0.0338,-0.0338 -0.10958,0.0338 -0.14338,0 -0.0338,-0.0338 0.0338,-0.10958 0,-0.14338 -0.0338,-0.0338 -0.10958,0.0338 -0.14338,0 -0.0676,-0.0676 0.0428,-0.20125 0,-0.28675 -0.0302,-0.0605 -0.11318,-0.0829 -0.14338,-0.14338 -0.0214,-0.0427 0.0338,-0.10958 0,-0.14338 -0.0338,-0.0338 -0.10957,0.0338 -0.14337,0 -0.0676,-0.0676 0.0427,-0.20125 0,-0.28675 -0.0605,-0.12091 -0.22626,-0.16585 -0.28676,-0.28676 -0.0214,-0.0428 0.0338,-0.10958 0,-0.14338 -0.0338,-0.0338 -0.10958,0.0338 -0.14338,0 -0.0338,-0.0338 0,-0.0956 0,-0.14337 0,-0.28676 0,-0.57352 0,-0.86027 0,-0.0997 -0.0259,-0.66509 0,-0.71689 0.0302,-0.0605 0.12198,-0.0793 0.14338,-0.14338 0.0302,-0.0907 0,-0.19115 0,-0.28675 0,-0.0478 -0.0214,-0.10058 0,-0.14338 0.0302,-0.0605 0.11318,-0.0829 0.14338,-0.14338 0.0428,-0.0855 -0.0676,-0.21915 0,-0.28675 0.0338,-0.0338 0.10958,0.0338 0.14338,0 0.0717,-0.0717 -0.0717,-0.35843 0,-0.43013 0.0338,-0.0338 0.10957,0.0338 0.14337,0 0.0338,-0.0338 -0.0214,-0.10068 0,-0.14338 0.0302,-0.0605 0.11318,-0.0829 0.14338,-0.14338 0.0428,-0.0855 -0.0676,-0.21915 0,-0.28675 0.29676,-0.29666 -0.0116,0.45332 0.28676,-0.14338 0.0389,-0.0778 -0.0392,-0.53431 0,-0.57351 0.0338,-0.0338 0.0956,0 0.14337,0 0,-0.0478 -0.0338,-0.10958 0,-0.14338 0.0676,-0.0676 0.21916,0.0676 0.28676,0 0.0338,-0.0338 -0.0214,-0.10058 0,-0.14338 0.0302,-0.0605 0.11318,-0.0829 0.14338,-0.14338 0.0214,-0.0427 -0.0338,-0.10957 0,-0.14337 0.0676,-0.0676 0.21915,0.0676 0.28675,0 0.0338,-0.0338 -0.0338,-0.10958 0,-0.14338 0.0338,-0.0338 0.10958,0.0338 0.14338,0 0.0338,-0.0338 -0.0338,-0.10958 0,-0.14338 0.0338,-0.0338 0.10058,0.0214 0.14338,0 0.0605,-0.0302 0.0829,-0.11318 0.14337,-0.14338 0.0428,-0.0214 0.10958,0.0338 0.14338,0 0.0338,-0.0338 -0.0338,-0.10957 0,-0.14337 0.0338,-0.0338 0.10958,0.0338 0.14338,0 0.0338,-0.0338 -0.0338,-0.10958 0,-0.14338 0.0293,-0.0293 0.37333,0.0284 0.43013,0 0.12091,-0.0604 0.16585,-0.22626 0.28676,-0.28676 0.0855,-0.0427 0.21915,0.0676 0.28675,0 0.0338,-0.0338 -0.0338,-0.10957 0,-0.14337 0.0717,-0.0717 0.35844,0.0717 0.43014,0 0.0338,-0.0338 -0.0338,-0.10958 0,-0.14338 0.0338,-0.0338 0.10067,0.0214 0.14337,0 0.0605,-0.0302 0.0829,-0.11318 0.14338,-0.14338 0.0427,-0.0214 0.10058,0.0214 0.14338,0 0.0605,-0.0302 0.0829,-0.11318 0.14338,-0.14338 0.0427,-0.0214 0.10957,0.0338 0.14337,0 0.0338,-0.0338 -0.0338,-0.10957 0,-0.14337 0.0478,-0.0478 0.23896,0.0478 0.28676,0 0.0338,-0.0338 -0.0338,-0.10958 0,-0.14338 0.0338,-0.0338 0.10068,0.0214 0.14338,0 0.0605,-0.0302 0.0829,-0.11318 0.14337,-0.14338 0.0428,-0.0214 0.10958,0.0338 0.14338,0 0.0338,-0.0338 -0.0338,-0.10958 0,-0.14338 0.0676,-0.0676 0.21916,0.0676 0.28676,0 0.0676,-0.0676 -0.0676,-0.21915 0,-0.28675 0.0338,-0.0338 0.10058,0.0214 0.14338,0 0.0605,-0.0302 0.0829,-0.11318 0.14337,-0.14338 0.0855,-0.0428 0.21916,0.0676 0.28676,0 0.0338,-0.0338 -0.0338,-0.10958 0,-0.14338 0.0338,-0.0338 0.10958,0.0338 0.14338,0 0.0338,-0.0338 -0.0338,-0.10958 0,-0.14338 0.0338,-0.0338 0.10957,0.0338 0.14337,0 0.0338,-0.0338 0.0338,-0.10957 0,-0.14337 -0.0338,-0.0338 -0.0956,0 -0.14337,0 -0.0478,0 -0.0956,0 -0.14338,0 -0.0478,0 -0.0956,0 -0.14338,0 -0.0478,0 -0.10958,0.0338 -0.14338,0 -0.0338,-0.0338 0.0338,-0.10958 0,-0.14338 -0.29675,-0.29665 0.0116,0.45332 -0.28675,-0.14338 -0.0214,-0.0427 0,-0.0956 0,-0.14338 -0.0478,0 -0.10958,0.0338 -0.14338,0 -0.0338,-0.0338 0.0338,-0.10957 0,-0.14337 -0.29676,-0.29666 0.0116,0.45332 -0.28676,-0.14338 -0.0214,-0.0428 0.0338,-0.10958 0,-0.14338 -0.0676,-0.0676 -0.21915,0.0676 -0.28675,0 -0.0338,-0.0338 0.0338,-0.10958 0,-0.14338 -0.0338,-0.0338 -0.10958,0.0338 -0.14338,0 -0.0338,-0.0338 0.0338,-0.10957 0,-0.14337 -0.0338,-0.0338 -0.10958,0.0338 -0.14338,0 -0.0338,-0.0338 0.0338,-0.10958 0,-0.14338 -0.0338,-0.0338 -0.10957,0.0338 -0.14337,0 -0.0338,-0.0338 0.0338,-0.10958 0,-0.14338 -0.0338,-0.0338 -0.10058,0.0214 -0.14338,0 -0.038,-0.019 -0.24876,-0.26775 -0.28676,-0.28675 -0.0427,-0.0214 -0.10957,0.0338 -0.14337,0 -0.0338,-0.0338 0.0214,-0.10068 0,-0.14338 -0.0302,-0.0605 -0.0956,-0.0956 -0.14338,-0.14338 0,-0.0478 0.0214,-0.10058 0,-0.14338 -0.0302,-0.0605 -0.11318,-0.0829 -0.14338,-0.14338 -0.0259,-0.0518 0,-0.61718 0,-0.71688 0,-0.52572 0,-1.05144 0,-1.57716 0,-0.0348 -0.005,-0.42513 0,-0.43013 0.0338,-0.0338 0.10958,0.0338 0.14338,0 0.0478,-0.0478 -0.0478,-0.23896 0,-0.28676 0.0338,-0.0338 0.10958,0.0338 0.14338,0 0.0345,-0.0345 -0.0345,-0.53901 0,-0.57351 0.0338,-0.0338 0.10957,0.0338 0.14337,0 0.0717,-0.0717 -0.0717,-0.35843 0,-0.43013 0.0338,-0.0338 0.10958,0.0338 0.14338,0 0.0478,-0.0478 -0.0478,-0.23895 0,-0.28675 0.0338,-0.0338 0.10958,0.0338 0.14338,0 0.0478,-0.0478 -0.0478,-0.23896 0,-0.28676 0.0338,-0.0338 0.10958,0.0338 0.14338,0 0.0338,-0.0338 -0.0338,-0.10958 0,-0.14338 0.0338,-0.0338 0.10957,0.0338 0.14337,0 0.0717,-0.0717 -0.0717,-0.35843 0,-0.43013 0.0338,-0.0338 0.10958,0.0338 0.14338,0 0.0676,-0.0676 -0.0676,-0.21915 0,-0.28675 0.0338,-0.0338 0.10958,0.0338 0.14338,0 0.0338,-0.0338 -0.0338,-0.10958 0,-0.14338 0.0338,-0.0338 0.10958,0.0338 0.14338,0 0.0338,-0.0338 -0.0338,-0.10958 0,-0.14338 0.0477,-0.0477 0.23905,0.0477 0.28675,0 0.0478,-0.0478 -0.0478,-0.23896 0,-0.28676 0.0338,-0.0338 0.10958,0.0338 0.14338,0 0.0338,-0.0338 -0.0338,-0.10957 0,-0.14337 0.0338,-0.0338 0.10958,0.0338 0.14338,0 0.0676,-0.0676 -0.0676,-0.21916 0,-0.28676 0.0338,-0.0338 0.10958,0.0338 0.14338,0 0.0338,-0.0338 -0.0338,-0.10958 0,-0.14338 0.0338,-0.0338 0.12197,0.0428 0.14337,0 0.0427,-0.0855 -0.0427,-0.20125 0,-0.28675 0.0427,-0.0855 0.21916,0.0676 0.28676,0 0.0338,-0.0338 -0.0214,-0.10068 0,-0.14338 0.0302,-0.0605 0.11318,-0.0829 0.14338,-0.14338 0.0214,-0.0427 -0.0338,-0.10957 0,-0.14337 0.0338,-0.0338 0.10957,0.0338 0.14337,0 0.0338,-0.0338 -0.0338,-0.10958 0,-0.14338 0.0338,-0.0338 0.10958,0.0338 0.14338,0 0.0676,-0.0676 -0.0428,-0.20126 0,-0.28676 0.0302,-0.0605 0.11318,-0.0829 0.14338,-0.14337 0.0214,-0.0427 -0.0338,-0.10958 0,-0.14338 0.29675,-0.29666 -0.0116,0.45332 0.28675,-0.14338 0.0214,-0.0428 -0.0214,-0.10068 0,-0.14338 0.0302,-0.0605 0.11318,-0.083 0.14338,-0.14337 0.0214,-0.0428 -0.0338,-0.10958 0,-0.14338 0.0338,-0.0338 0.10068,0.0214 0.14338,0 0.5967,-0.29836 -0.15328,0.01 0.14338,-0.28676 0.19117,-0.19118 0.14337,0.23897 0.14337,-0.14338 0,-0.38234 -0.0478,0.0478 0.14338,-0.14337 0.0338,-0.0338 -0.0338,-0.10958 0,-0.14338 0.0338,-0.0338 0.10958,0.0338 0.14338,0 0.0338,-0.0338 0.0338,-0.10958 0,-0.14338 -0.0676,-0.0676 -0.21916,0.0676 -0.28676,0 -0.0338,-0.0338 0.0338,-0.10958 0,-0.14338 -0.0478,-0.0478 -0.23895,0.0478 -0.28675,0 -0.0676,-0.0676 0.0676,-0.21915 0,-0.28675 -0.0676,-0.0676 -0.21916,0.0676 -0.28676,0 -0.0338,-0.0338 0.0338,-0.10958 0,-0.14338 -0.0338,-0.0338 -0.10957,0.0338 -0.14337,0 -0.0338,-0.0338 0.0338,-0.10958 0,-0.14338 -0.0338,-0.0338 -0.10958,0.0338 -0.14338,0 -0.29665,-0.29675 0.45332,0.0116 -0.14338,-0.28675 -0.0428,-0.0214 -0.10958,0.0338 -0.14338,0 -0.0478,-0.0478 0.0478,-0.23896 0,-0.28676 -0.0338,-0.0338 -0.10957,0.0338 -0.14337,0 -0.0477,-0.0477 0.0477,-0.23905 0,-0.28675 -0.29676,-0.29666 0.0116,0.45332 -0.28676,-0.14338 -0.0214,-0.0427 0.0214,-0.10068 0,-0.14338 -0.0302,-0.0605 -0.11318,-0.083 -0.14338,-0.14337 -0.0382,-0.0765 0.0383,-0.21026 0,-0.28676 -0.0302,-0.0605 -0.11317,-0.0829 -0.14337,-0.14338 -0.0214,-0.0427 0.0214,-0.10067 0,-0.14337 -0.0302,-0.0605 -0.11318,-0.0829 -0.14338,-0.14338 -0.0214,-0.0427 0.0214,-0.10068 0,-0.14338 -0.0302,-0.0605 -0.11318,-0.0829 -0.14338,-0.14338 -0.0428,-0.0855 0.0676,-0.21915 0,-0.28675 -0.0338,-0.0338 -0.10958,0.0338 -0.14338,0 -0.0717,-0.0717 0.0717,-0.35844 0,-0.43014 -0.0338,-0.0338 -0.10958,0.0338 -0.14338,0 -0.0338,-0.0338 0,-0.0956 0,-0.14337 0,-0.38234 0,-0.76468 0,-1.14702 0,-0.0478 0,-0.0956 0,-0.14338 0,-0.0478 -0.0338,-0.10958 0,-0.14338 0.0338,-0.0338 0.10958,0.0338 0.14338,0 0.0676,-0.0676 -0.0676,-0.21915 0,-0.28675 0.0338,-0.0338 0.10958,0.0338 0.14338,0 0.0717,-0.0717 -0.0717,-0.35844 0,-0.43014 0.0338,-0.0338 0.10958,0.0338 0.14338,0 0.0676,-0.0676 -0.0427,-0.20125 0,-0.28675 0.0302,-0.0605 0.11318,-0.083 0.14338,-0.14338 0.0427,-0.0855 -0.0676,-0.21916 0,-0.28676 0.0338,-0.0338 0.10067,0.0214 0.14337,0 0.59671,-0.29835 -0.15327,0.01 0.14338,-0.28675 0.0338,-0.0338 0.10958,0.0338 0.14338,0 0.0478,-0.0478 -0.0478,-0.23896 0,-0.28676 0.0338,-0.0338 0.10958,0.0338 0.14338,0 0.0338,-0.0338 -0.0338,-0.10957 0,-0.14337 0.0338,-0.0338 0.10067,0.0214 0.14337,0 0.59671,-0.29836 -0.15327,0.01 0.14338,-0.28676 0.0338,-0.0338 0.10958,0.0338 0.14338,0 0.0338,-0.0338 -0.0338,-0.10958 0,-0.14338 0.0676,-0.0676 0.21915,0.0676 0.28675,0 0.0338,-0.0338 -0.0338,-0.10957 0,-0.14337 0.0338,-0.0338 0.10958,0.0338 0.14338,0 0.29665,-0.29676 -0.45332,0.0116 0.14338,-0.28676 0.0428,-0.0214 0.10058,0.0214 0.14338,0 0.0605,-0.0302 0.0829,-0.11318 0.14337,-0.14338 0.0428,-0.0214 0.10958,0.0338 0.14338,0 0.0676,-0.0676 -0.0676,-0.21915 0,-0.28675 0.0676,-0.0676 0.20126,0.0427 0.28676,0 0.0605,-0.0302 0.0829,-0.11318 0.14337,-0.14338 0.0428,-0.0214 0.10068,0.0214 0.14338,0 0.0605,-0.0302 0.083,-0.11318 0.14338,-0.14338 0.0428,-0.0214 0.10958,0.0338 0.14338,0 0.29665,-0.29675 -0.45333,0.0116 0.14338,-0.28675 0.0427,-0.0214 0.10067,0.0214 0.14337,0 0.0605,-0.0302 0.0829,-0.11318 0.14338,-0.14338 0.0427,-0.0214 0.10958,0.0338 0.14338,0 0.0338,-0.0338 -0.0338,-0.10958 0,-0.14338 0.0338,-0.0338 0.10958,0.0338 0.14338,0 0.0338,-0.0338 -0.0338,-0.10958 0,-0.14338 0.0338,-0.0338 0.10957,0.0338 0.14337,0 0.0338,-0.0338 -0.0338,-0.10957 0,-0.14337 0.0338,-0.0338 0.10958,0.0338 0.14338,0 0.0338,-0.0338 -0.0338,-0.10958 0,-0.14338 0.29676,-0.29665 -0.0116,0.45332 0.28676,-0.14338 0.0214,-0.0427 -0.0214,-0.10058 0,-0.14338 0.0605,-0.1209 0.22625,-0.16584 0.28675,-0.28675 0.0214,-0.0427 -0.0214,-0.10068 0,-0.14338 0.29836,-0.5967 -0.01,0.15328 0.28676,-0.14338 0.0338,-0.0338 -0.0338,-0.10957 0,-0.14337 0.0338,-0.0338 0.10957,0.0338 0.14337,0 0.0676,-0.0676 -0.0676,-0.21916 0,-0.28676 0.0338,-0.0338 0.10958,0.0338 0.14338,0 0.0338,-0.0338 -0.0338,-0.10958 0,-0.14338 0.0338,-0.0338 0.10958,0.0338 0.14338,0 0.0477,-0.0477 -0.0477,-0.23905 0,-0.28675 0.0338,-0.0338 0.10958,0.0338 0.14338,0 0.0338,-0.0338 -0.0214,-0.10068 0,-0.14338 0.0302,-0.0605 0.11317,-0.0829 0.14337,-0.14338 0.0428,-0.0855 -0.0676,-0.21915 0,-0.28675 0.0338,-0.0338 0.10958,0.0338 0.14338,0 0.0338,-0.0338 -0.0214,-0.10058 0,-0.14338 0.0302,-0.0605 0.11318,-0.0829 0.14338,-0.14338 0.0428,-0.0855 -0.0676,-0.21915 0,-0.28675 0.0338,-0.0338 0.10958,0.0338 0.14338,0 0.0676,-0.0676 -0.0427,-0.20126 0,-0.28676 0.29835,-0.5967 -0.01,0.15328 0.28675,-0.14338 0.0279,-0.0279 -0.0262,-0.66448 0,-0.71688 0.0214,-0.0427 0.10958,0.0338 0.14338,0 0.005,-0.005 0,-0.39534 0,-0.43014 0,-0.71689 0,-1.43377 0,-2.15066 0.19117,0.19117 0.38234,0.38234 0.57351,0.57351 0,0.0478 -0.0151,0.098 0,0.14338 0.0338,0.10138 0.10958,0.18537 0.14338,0.28675 0.0151,0.0453 -0.0338,0.10959 0,0.14338 0.0338,0.0338 0.10958,-0.0338 0.14338,0 0.0338,0.0338 -0.0214,0.10063 0,0.14338 0.32809,0.65618 -0.0594,-0.60841 0.28675,0.43013 0.0302,0.0907 -0.0676,0.21917 0,0.28676 0.0338,0.0338 0.10958,-0.0338 0.14338,0 0.0338,0.0338 -0.0338,0.10958 0,0.14337 0.0338,0.0338 0.10958,-0.0338 0.14338,0 0.0338,0.0338 -0.0338,0.10959 0,0.14338 0.0338,0.0338 0.10958,-0.0338 0.14337,0 0.0338,0.0338 -0.0214,0.10063 0,0.14338 0.0302,0.0604 0.11315,0.0829 0.14338,0.14338 0.0214,0.0427 -0.0338,0.10958 0,0.14337 0.0338,0.0338 0.0956,0 0.14338,0 0,0.0478 -0.0338,0.10959 0,0.14338 0.0477,0.0477 0.23902,-0.0477 0.28675,0 0.0338,0.0338 -0.0427,0.12201 0,0.14338 0.0855,0.0428 0.20127,-0.0427 0.28676,0 0.0428,0.0214 -0.0427,0.122 0,0.14338 0.0855,0.0427 0.21917,-0.0676 0.28675,0 0.0676,0.0676 -0.0427,0.20126 0,0.28675 0.0214,0.0427 0.10064,-0.0214 0.14338,0 0.0605,0.0302 0.0829,0.11315 0.14338,0.14338 0.0428,0.0214 0.10958,-0.0338 0.14338,0 0.0338,0.0338 -0.0338,0.10958 0,0.14338 0.0676,0.0676 0.24401,-0.0855 0.28675,0 0.0428,0.0855 -0.0427,0.20126 0,0.28675 0.0214,0.0428 0.10959,-0.0338 0.14338,0 0.0338,0.0338 -0.0214,0.10063 0,0.14338 0.0302,0.0605 0.0956,0.0956 0.14338,0.14338 0.0478,0.0478 0.0829,0.11315 0.14338,0.14337 0.0427,0.0214 0.10958,-0.0338 0.14337,0 0.0756,0.0756 0.0678,0.21119 0.14338,0.28676 0.0338,0.0338 0.10958,-0.0338 0.14338,0 0.0338,0.0338 -0.0428,0.122 0,0.14338 0.0855,0.0427 0.20722,-0.053 0.28675,0 0.0889,0.0593 0.0678,0.21119 0.14338,0.28675 0.0338,0.0338 0.0956,0 0.14338,0 0.0478,0.0478 0.10589,0.0871 0.14338,0.14338 0.0873,0.13097 0.12238,0.34795 0.28675,0.43013 0.0427,0.0214 0.0956,0 0.14338,0 0.0478,0.0478 0.0829,0.11315 0.14338,0.14338 0.0427,0.0214 0.10958,-0.0338 0.14337,0 0.0338,0.0338 -0.0338,0.10958 0,0.14338 0.0676,0.0676 0.21917,-0.0676 0.28676,0 0.0338,0.0338 -0.0214,0.10063 0,0.14338 0.0822,0.16437 0.29916,0.19944 0.43013,0.28675 0.0562,0.0375 0.11315,0.0829 0.14338,0.14338 0.0214,0.0427 -0.0428,0.122 0,0.14338 0.0855,0.0427 0.20126,-0.0428 0.28676,0 0.0427,0.0214 -0.0214,0.10063 0,0.14337 0.0302,0.0605 0.11315,0.0829 0.14337,0.14338 0.0214,0.0427 -0.0338,0.10959 0,0.14338 0.0676,0.0676 0.21917,-0.0676 0.28676,0 0.0338,0.0338 -0.0338,0.10958 0,0.14338 0.0338,0.0338 0.10958,-0.0338 0.14338,0 0.0676,0.0676 -0.0428,0.20126 0,0.28675 0.29835,0.59671 -0.01,-0.15327 0.28675,0.14338 0.0676,0.0676 -0.0428,0.20126 0,0.28676 0.0302,0.0604 0.11315,0.0829 0.14338,0.14337 0.0284,0.0568 -0.0293,0.40082 0,0.43014 0.0338,0.0338 0.122,-0.0427 0.14338,0 0.0427,0.0855 -0.0232,0.19402 0,0.28675 0.0259,0.10368 0.10958,0.18537 0.14337,0.28676 0.0325,0.0974 0,0.8187 0,1.00364 0,0.28675 0,0.57351 0,0.86027 0,0.0478 0.0338,0.10958 0,0.14337 -0.0338,0.0338 -0.10958,-0.0338 -0.14337,0 -0.0676,0.0676 0.0427,0.20126 0,0.28676 -0.0302,0.0604 -0.11315,0.0829 -0.14338,0.14338 -0.0382,0.0764 0.0382,0.21033 0,0.28675 -0.0302,0.0605 -0.11315,0.0829 -0.14338,0.14338 -0.0214,0.0428 0.0338,0.10958 0,0.14338 -0.0338,0.0338 -0.10958,-0.0338 -0.14338,0 -0.0676,0.0676 0.0427,0.20126 0,0.28675 -0.29835,0.5967 0.01,-0.15327 -0.28675,0.14338 -0.0717,0.0717 0.0717,0.35844 0,0.43013 -0.0676,0.0676 -0.21917,-0.0676 -0.28676,0 -0.0338,0.0338 0.0214,0.10063 0,0.14338 -0.0302,0.0604 -0.0956,0.0956 -0.14337,0.14338 -0.0478,0.0478 -0.0829,0.11315 -0.14338,0.14337 -0.0427,0.0214 -0.10959,-0.0338 -0.14338,0 -0.0338,0.0338 0.0338,0.10959 0,0.14338 -0.0478,0.0478 -0.23895,-0.0478 -0.28675,0 -0.0478,0.0478 0.0478,0.23897 0,0.28676 -0.0717,0.0717 -0.35845,-0.0717 -0.43014,0 -0.0338,0.0338 0.0338,0.10958 0,0.14338 -0.0676,0.0676 -0.24401,-0.0855 -0.28675,0 -0.0428,0.0855 0.0427,0.20126 0,0.28675 -0.0214,0.0427 -0.10959,-0.0338 -0.14338,0 -0.0338,0.0338 0.0338,0.10958 0,0.14338 -0.0676,0.0676 -0.20126,-0.0428 -0.28676,0 -0.5967,0.29835 0.15328,-0.01 -0.14337,0.28675 -0.0293,0.0293 -0.37329,-0.0284 -0.43014,0 -0.0605,0.0302 -0.0829,0.11315 -0.14337,0.14338 -0.0855,0.0427 -0.21917,-0.0676 -0.28676,0 -0.0338,0.0338 0.0338,0.10958 0,0.14338 -0.0676,0.0676 -0.20126,-0.0427 -0.28675,0 -0.34334,0.17166 0.0904,0.28675 -0.28676,0.28675"
           style="fill:none;stroke:#000000;stroke-width:1px;stroke-linecap:butt;stroke-linejoin:miter;stroke-opacity:1" />
        <path
           inkscape:connector-curvature="0"
           id="path14767"
           d="m 437.73186,774.20961 c 0.49085,-0.22024 0.46763,0.30551 0.71689,0.43013 0.0427,0.0214 0.10063,-0.0214 0.14337,0 0.0605,0.0302 0.0829,0.11315 0.14338,0.14338 0.0855,0.0427 0.21917,-0.0676 0.28676,0 0.0338,0.0338 -0.0338,0.10958 0,0.14338 0.0717,0.0717 0.35844,-0.0717 0.43013,0 0.29665,0.29665 -0.45333,-0.0116 0.14338,0.28675 0.0855,0.0427 0.21916,-0.0676 0.28675,0 0.0338,0.0338 -0.0338,0.10959 0,0.14338 0.0676,0.0676 0.21917,-0.0676 0.28676,0 0.0338,0.0338 -0.0338,0.10958 0,0.14338 0.0338,0.0338 0.10063,-0.0214 0.14338,0 0.19126,0.0956 0.0955,0.19112 0.28675,0.28675 0.0428,0.0214 0.10958,-0.0338 0.14338,0 0.0338,0.0338 -0.0338,0.10959 0,0.14338 0.0338,0.0338 0.10958,-0.0338 0.14338,0 0.29665,0.29665 -0.45333,-0.0116 0.14337,0.28676 0.0855,0.0427 0.21917,-0.0676 0.28676,0 0.0338,0.0338 -0.0338,0.10958 0,0.14337 0.0338,0.0338 0.10063,-0.0214 0.14338,0 0.0605,0.0302 0.0829,0.11316 0.14337,0.14338 0.0855,0.0427 0.21917,-0.0676 0.28676,0 0.0676,0.0676 -0.0676,0.21917 0,0.28676 0.0338,0.0338 0.10063,-0.0214 0.14338,0 0.5967,0.29835 -0.15328,-0.01 0.14337,0.28675 0.0338,0.0338 0.0956,0 0.14338,0 0,0.0478 -0.0214,0.10063 0,0.14338 0.0302,0.0604 0.0956,0.0956 0.14338,0.14338 0.0478,0.0478 0.0829,0.11315 0.14338,0.14337 0.0427,0.0214 0.122,-0.0427 0.14337,0 0.0428,0.0855 -0.0302,0.19608 0,0.28676 0.0214,0.0641 0.0956,0.0956 0.14338,0.14338 0,0.14338 -0.0348,0.29103 0,0.43013 0.0995,0.3978 0.13075,-0.0126 0.28676,0.14338 0.0717,0.0717 -0.0717,0.35844 0,0.43013 0.0338,0.0338 0.10958,-0.0338 0.14338,0 0.0676,0.0676 -0.0428,0.20126 0,0.28676 0.0302,0.0604 0.11315,0.0829 0.14337,0.14337 0.0428,0.0855 -0.0676,0.21917 0,0.28676 0.0338,0.0338 0.10959,-0.0338 0.14338,0 0.0338,0.0338 0,0.0956 0,0.14338 0,0.33454 0,0.66909 0,1.00364 0,0.0526 0.006,0.56774 0,0.57351 -0.0338,0.0338 -0.10958,-0.0338 -0.14338,0 -0.0478,0.0478 0.0478,0.23899 0,0.28676 -0.0338,0.0338 -0.10958,-0.0338 -0.14337,0 -0.0338,0.0338 0.0214,0.10063 0,0.14337 -0.0302,0.0605 -0.11316,0.0829 -0.14338,0.14338 -0.0214,0.0427 0.0338,0.10958 0,0.14338 -0.0338,0.0338 -0.10959,-0.0338 -0.14338,0 -0.0676,0.0676 0.0676,0.21917 0,0.28675 -0.0338,0.0338 -0.10958,-0.0338 -0.14338,0 -0.0676,0.0676 0.0676,0.21917 0,0.28676 -0.0338,0.0338 -0.10958,-0.0338 -0.14338,0 -0.0676,0.0676 0.0676,0.21917 0,0.28675 -0.0478,0.0478 -0.23892,-0.0478 -0.28675,0 -0.0338,0.0338 0.0338,0.10959 0,0.14338 -0.0338,0.0338 -0.10958,-0.0338 -0.14338,0 -0.0338,0.0338 0.0214,0.10063 0,0.14338 -0.019,0.0381 -0.39206,0.4111 -0.43013,0.43013 -0.0428,0.0214 -0.10958,-0.0338 -0.14338,0 -0.0338,0.0338 0.0338,0.10959 0,0.14338 -0.0338,0.0338 -0.10958,-0.0338 -0.14338,0 -0.29665,0.29665 0.45333,-0.0116 -0.14337,0.28676 -0.0855,0.0427 -0.24401,-0.0855 -0.28676,0 -0.0427,0.0855 0.0428,0.20126 0,0.28675 -0.0214,0.0428 -0.10063,-0.0214 -0.14338,0 -0.1209,0.0605 -0.16585,0.2263 -0.28675,0.28676 -0.0428,0.0214 -0.10959,-0.0338 -0.14338,0 -0.0338,0.0338 0.0428,0.122 0,0.14337 -0.0855,0.0427 -0.20126,-0.0427 -0.28675,0 -0.0428,0.0214 0.0338,0.10959 0,0.14338 -0.0338,0.0338 -0.10064,-0.0214 -0.14338,0 -0.12091,0.0604 -0.15852,0.24401 -0.28676,0.28676 -0.0907,0.0302 -0.20126,-0.0427 -0.28675,0 -0.0428,0.0214 0.0338,0.10958 0,0.14337 -0.0338,0.0338 -0.10959,-0.0338 -0.14338,0 -0.29665,0.29666 0.45333,-0.0116 -0.14338,0.28676 -0.0428,0.0214 -0.10063,-0.0214 -0.14338,0 -0.0605,0.0302 -0.0829,0.11315 -0.14337,0.14338 -0.0855,0.0427 -0.21917,-0.0676 -0.28676,0 -0.29665,0.29665 0.45333,-0.0116 -0.14338,0.28675 -0.0427,0.0214 -0.0956,0 -0.14337,0 -0.0478,0.0478 -0.0829,0.11315 -0.14338,0.14338 -0.0427,0.0214 -0.10958,-0.0338 -0.14338,0 -0.0338,0.0338 0.0338,0.10958 0,0.14338 -0.0338,0.0338 -0.10958,-0.0338 -0.14338,0 -0.0338,0.0338 0.0427,0.122 0,0.14337 -0.81247,0 -0.0478,-0.0956 -0.28675,0.14338 -0.0478,0.0478 -0.23893,-0.0478 -0.28676,0 -0.0338,0.0338 0.0338,0.10959 0,0.14338 -0.0338,0.0338 -0.10063,-0.0214 -0.14337,0 -0.0605,0.0302 -0.0829,0.11315 -0.14338,0.14338 -0.0855,0.0427 -0.21917,-0.0676 -0.28676,0 -0.0338,0.0338 0.0338,0.10958 0,0.14338 -0.0338,0.0338 -0.10958,-0.0338 -0.14338,0 -0.0338,0.0338 0.0338,0.10958 0,0.14337 -0.0717,0.0717 -0.35844,-0.0717 -0.43013,0 -0.0338,0.0338 0.0338,0.10959 0,0.14338 -0.0338,0.0338 -0.10958,-0.0338 -0.14338,0 -0.0338,0.0338 0.0338,0.10958 0,0.14338 -0.0717,0.0717 -0.35844,-0.0717 -0.43013,0 -0.19117,0.19117 0.23896,0.14338 -0.14338,0.14338 -0.0478,0 -0.0956,0 -0.14337,0 -0.0478,0 -0.10959,-0.0338 -0.14338,0 -0.0338,0.0338 0.0338,0.10958 0,0.14337 -0.0338,0.0338 -0.10958,-0.0338 -0.14338,0 -0.0338,0.0338 0.0338,0.10959 0,0.14338 -0.0717,0.0717 -0.35844,-0.0717 -0.43013,0 -0.19117,0.19117 0.23896,0.14338 -0.14338,0.14338"
           style="fill:none;stroke:#000000;stroke-width:1px;stroke-linecap:butt;stroke-linejoin:miter;stroke-opacity:1" />
        <path
           inkscape:connector-curvature="0"
           id="path14769"
           d="m 438.30537,786.54008 c 0.19117,0.14338 0.71689,0.23897 0.57351,0.43014 -0.14338,0.19117 -0.57351,-0.6691 -0.57351,-0.43014 0,0.75421 0.36172,0.71689 0.71689,0.71689 0.0478,0 0.10958,-0.0338 0.14337,0 0.0338,0.0338 -0.0338,0.10959 0,0.14338 0.0478,0.0478 0.239,-0.0478 0.28676,0 0.29665,0.29665 -0.45333,-0.0116 0.14338,0.28676 0.0855,0.0427 0.21916,-0.0676 0.28675,0 0.0338,0.0338 -0.0338,0.10958 0,0.14337 0.0676,0.0676 0.20126,-0.0427 0.28676,0 0.0605,0.0302 0.0829,0.11315 0.14338,0.14338 0.0427,0.0214 0.10063,-0.0214 0.14337,0 0.0605,0.0302 0.0829,0.11315 0.14338,0.14338 0.0428,0.0214 0.10958,-0.0338 0.14338,0 0.0338,0.0338 -0.0338,0.10958 0,0.14338 0.0338,0.0338 0.098,-0.0151 0.14338,0 0.10138,0.0338 0.19783,0.0841 0.28675,0.14337 0.11248,0.075 0.16585,0.22631 0.28676,0.28676 0.0855,0.0428 0.21916,-0.0676 0.28675,0 0.0338,0.0338 -0.0338,0.10958 0,0.14338 0.0676,0.0676 0.21917,-0.0676 0.28676,0 0.0338,0.0338 -0.0338,0.10958 0,0.14337 0.0338,0.0338 0.10958,-0.0338 0.14337,0 0.0338,0.0338 -0.0338,0.10959 0,0.14338 0.0676,0.0676 0.20127,-0.0428 0.28676,0 0.5967,0.29835 -0.15328,-0.01 0.14338,0.28676 0.0338,0.0338 0.10958,-0.0338 0.14337,0 0.0338,0.0338 -0.0338,0.10958 0,0.14337 0.0676,0.0676 0.21917,-0.0676 0.28676,0 0.0338,0.0338 -0.0338,0.10959 0,0.14338 0.0338,0.0338 0.10063,-0.0214 0.14338,0 0.1209,0.0605 0.16585,0.2263 0.28675,0.28676 0.0428,0.0214 0.10959,-0.0338 0.14338,0 0.0676,0.0676 -0.0676,0.21916 0,0.28675 0.0676,0.0676 0.21917,-0.0676 0.28676,0 0.0338,0.0338 -0.0338,0.10959 0,0.14338 0.0338,0.0338 0.10958,-0.0338 0.14337,0 0.0338,0.0338 -0.0427,0.122 0,0.14338 0.0855,0.0427 0.20126,-0.0428 0.28676,0 0.0428,0.0214 -0.0214,0.10063 0,0.14338 0.0302,0.0605 0.0829,0.11315 0.14338,0.14337 0.38234,0 -0.0478,-0.0478 0.14337,0.14338 0.0338,0.0338 0.10959,-0.0338 0.14338,0 0.0338,0.0338 -0.0214,0.10063 0,0.14338 0.0302,0.0605 0.11315,0.0829 0.14338,0.14338 0.0214,0.0427 -0.0338,0.10958 0,0.14337 0.29665,0.29666 -0.0116,-0.45332 0.28675,0.14338 0.0214,0.0427 -0.0214,0.10063 0,0.14338 0.0302,0.0604 0.11315,0.0829 0.14338,0.14338 0.0428,0.0855 -0.0676,0.21916 0,0.28675 0.0338,0.0338 0.10958,-0.0338 0.14338,0 0.0338,0.0338 -0.0338,0.10958 0,0.14338 0.0338,0.0338 0.10958,-0.0338 0.14338,0 0.0717,0.0717 -0.0717,0.35844 0,0.43013 0.0338,0.0338 0.10958,-0.0338 0.14337,0 0.0345,0.0345 -0.0345,0.53901 0,0.57351 0.0338,0.0338 0.10959,-0.0338 0.14338,0 0.0293,0.0293 -0.0284,0.37329 0,0.43014 0.0302,0.0604 0.11315,0.0829 0.14338,0.14337 0.0428,0.0855 -0.0427,0.20126 0,0.28676 0.0302,0.0605 0.11315,0.0829 0.14338,0.14338 0.0284,0.0568 -0.0293,0.40082 0,0.43013 0.0338,0.0338 0.10958,-0.0338 0.14337,0 0.0293,0.0293 -0.0284,0.37328 0,0.43013 0.0302,0.0604 0.11316,0.0829 0.14338,0.14338 0.0214,0.0428 -0.0338,0.10958 0,0.14338 0.0338,0.0338 0.10959,-0.0338 0.14338,0 0.0392,0.0392 -0.0389,0.49573 0,0.57351 0.0302,0.0604 0.11315,0.0829 0.14338,0.14337 0.0188,0.0377 0,0.49854 0,0.57352 0,0.38234 0,0.76468 0,1.14702 0,0.38234 0,0.76468 0,1.14702 0,0.0646 0.0218,0.3865 0,0.43013 -0.0302,0.0604 -0.12201,0.0793 -0.14338,0.14338 -0.0346,0.10375 0.0473,0.52625 0,0.57351 -0.0338,0.0338 -0.10958,-0.0338 -0.14338,0 -0.0293,0.0293 0.0284,0.37328 0,0.43013 -0.0302,0.0604 -0.11315,0.0829 -0.14338,0.14338 -0.0284,0.0569 0.0293,0.40082 0,0.43013 -0.0338,0.0338 -0.10958,-0.0338 -0.14337,0 -0.0293,0.0293 0.0284,0.37329 0,0.43013 -0.0302,0.0605 -0.11315,0.0829 -0.14338,0.14338 -0.0214,0.0427 0.0338,0.10959 0,0.14338 -0.0338,0.0338 -0.10958,-0.0338 -0.14338,0 -0.0676,0.0676 0.0676,0.21917 0,0.28675 -0.0338,0.0338 -0.10958,-0.0338 -0.14338,0 -0.0676,0.0676 0.0427,0.20127 0,0.28676 -0.0302,0.0604 -0.11315,0.0829 -0.14337,0.14338 -0.0214,0.0427 0.0338,0.10958 0,0.14338 -0.0338,0.0338 -0.10959,-0.0338 -0.14338,0 -0.0676,0.0676 0.0676,0.21916 0,0.28675 -0.0338,0.0338 -0.10958,-0.0338 -0.14338,0 -0.0338,0.0338 0.0214,0.10063 0,0.14338 -0.0302,0.0605 -0.11315,0.0829 -0.14338,0.14338 -0.0427,0.0855 0.0676,0.21916 0,0.28675 -0.0338,0.0338 -0.10958,-0.0338 -0.14337,0 -0.0338,0.0338 0.0338,0.10958 0,0.14338 -0.0338,0.0338 -0.10959,-0.0338 -0.14338,0 -0.0338,0.0338 0.0214,0.10063 0,0.14338 -0.0302,0.0604 -0.11315,0.0829 -0.14338,0.14337 -0.0428,0.0855 0.0676,0.21917 0,0.28676 -0.0676,0.0676 -0.21917,-0.0676 -0.28675,0 -0.0717,0.0717 0.0717,0.35844 0,0.43013 -0.0338,0.0338 -0.10959,-0.0338 -0.14338,0 -0.29666,0.29666 0.45332,-0.0116 -0.14338,0.28676 -0.0428,0.0214 -0.10958,-0.0338 -0.14338,0 -0.0345,0.0345 0.0345,0.53901 0,0.57351 -0.0338,0.0338 -0.10958,-0.0338 -0.14337,0 -0.0338,0.0338 0.0214,0.10063 0,0.14338 -0.0605,0.1209 -0.22631,0.16584 -0.28676,0.28675 -0.0214,0.0427 0.0338,0.10958 0,0.14338 -0.0338,0.0338 -0.10063,-0.0214 -0.14338,0 -0.0604,0.0302 -0.0829,0.11315 -0.14337,0.14338 -0.0428,0.0214 -0.10959,-0.0338 -0.14338,0 -0.0676,0.0676 0.0676,0.21916 0,0.28675 -0.0676,0.0676 -0.21917,-0.0676 -0.28676,0 -0.0338,0.0338 0.0338,0.10958 0,0.14338 -0.0338,0.0338 -0.10063,-0.0214 -0.14338,0 -0.0605,0.0302 -0.0829,0.11315 -0.14337,0.14338 -0.0855,0.0427 -0.21917,-0.0676 -0.28676,0 -0.29665,0.29665 0.45333,-0.0116 -0.14338,0.28675 -0.0427,0.0214 -0.10063,-0.0214 -0.14337,0 -0.0605,0.0302 -0.0829,0.11315 -0.14338,0.14338 -0.0855,0.0427 -0.21917,-0.0676 -0.28676,0 -0.0338,0.0338 0.0338,0.10958 0,0.14338 -0.0676,0.0676 -0.20126,-0.0427 -0.28675,0 -0.0605,0.0302 -0.0829,0.11315 -0.14338,0.14337 -0.35313,0.17657 0.12943,-0.41618 -0.43013,0.14338 -0.0338,0.0338 0.0338,0.10958 0,0.14338 -0.0676,0.0676 -0.20126,-0.0428 -0.28676,0 -0.0605,0.0302 -0.0829,0.11315 -0.14337,0.14338 -0.0855,0.0427 -0.21917,-0.0676 -0.28676,0 -0.0338,0.0338 0.0338,0.10958 0,0.14337 -0.0345,0.0345 -0.53901,-0.0345 -0.57351,0 -0.0338,0.0338 0.0338,0.10959 0,0.14338 -0.0338,0.0338 -0.0956,0 -0.14338,0 0,0.0478 0.0338,0.10959 0,0.14338 -0.0717,0.0717 -0.35844,-0.0717 -0.43013,0 -0.29665,0.29665 0.45332,-0.0116 -0.14338,0.28676 -0.0568,0.0284 -0.40082,-0.0293 -0.43013,0 -0.0338,0.0338 0.0338,0.10958 0,0.14337 -0.0676,0.0676 -0.21917,-0.0676 -0.28676,0 -0.0338,0.0338 0.0338,0.10959 0,0.14338 -0.0676,0.0676 -0.20126,-0.0428 -0.28675,0 -0.0605,0.0302 -0.0829,0.11315 -0.14338,0.14338 -0.0428,0.0214 -0.10958,-0.0338 -0.14338,0 -0.0338,0.0338 0.0338,0.10958 0,0.14338 -0.0717,0.0717 -0.35844,-0.0717 -0.43013,0 -0.0338,0.0338 0.0338,0.10958 0,0.14337 -0.0717,0.0717 -0.35844,-0.0717 -0.43013,0 -0.0338,0.0338 0.0338,0.10959 0,0.14338 -0.0338,0.0338 -0.0956,0 -0.14338,0 -0.28676,0 -0.57351,0 -0.86027,0 -0.28675,0 -0.57351,0 -0.86026,0 -0.0478,0 -0.10959,0.0338 -0.14338,0 -0.0338,-0.0338 0.0338,-0.10958 0,-0.14338 -0.0338,-0.0338 -0.10958,0.0338 -0.14338,0 -0.0338,-0.0338 0.0338,-0.10958 0,-0.14337 -0.0338,-0.0338 -0.10958,0.0338 -0.14337,0 -0.0338,-0.0338 0.0338,-0.10959 0,-0.14338 -0.0338,-0.0338 -0.10959,0.0338 -0.14338,0 -0.0338,-0.0338 0.0338,-0.10959 0,-0.14338 -0.0338,-0.0338 -0.10959,0.0338 -0.14338,0 -0.0676,-0.0676 0.0676,-0.21917 0,-0.28675 -0.0478,-0.0478 -0.23892,0.0478 -0.28676,0 -0.0338,-0.0338 0.0338,-0.10959 0,-0.14338 -0.0676,-0.0676 -0.21916,0.0676 -0.28675,0 -0.0338,-0.0338 0.0338,-0.10959 0,-0.14338 -0.0338,-0.0338 -0.10958,0.0338 -0.14338,0 -0.0676,-0.0676 0.0676,-0.21917 0,-0.28676 -0.0676,-0.0676 -0.21916,0.0676 -0.28675,0 -0.0338,-0.0338 0.0338,-0.10958 0,-0.14337 -0.0338,-0.0338 -0.10959,0.0338 -0.14338,0 -0.0338,-0.0338 0.0338,-0.10959 0,-0.14338 -0.0338,-0.0338 -0.10958,0.0338 -0.14338,0 -0.0338,-0.0338 0.0338,-0.10958 0,-0.14338 -0.0338,-0.0338 -0.10958,0.0338 -0.14338,0 -0.0338,-0.0338 0.0338,-0.10958 0,-0.14338 -0.0338,-0.0338 -0.0956,0 -0.14337,0 0,-0.0478 0.0338,-0.10958 0,-0.14337 -0.0338,-0.0338 -0.10959,0.0338 -0.14338,0 -0.0676,-0.0676 0.0676,-0.21917 0,-0.28676 -0.0338,-0.0338 -0.10063,0.0214 -0.14338,0 -0.5967,-0.29835 0.15328,0.01 -0.14338,-0.28675 -0.0338,-0.0338 -0.10958,0.0338 -0.14337,0 -0.0676,-0.0676 0.0676,-0.21917 0,-0.28676 -0.0338,-0.0338 -0.10959,0.0338 -0.14338,0 -0.0338,-0.0338 0,-0.0956 0,-0.14338 -0.0478,0 -0.10063,0.0214 -0.14338,0 -0.5967,-0.29835 0.15328,0.01 -0.14338,-0.28675 -0.0338,-0.0338 -0.10958,0.0338 -0.14337,0 -0.0676,-0.0676 0.0676,-0.21917 0,-0.28676 -0.0338,-0.0338 -0.10959,0.0338 -0.14338,0 -0.0338,-0.0338 0.0338,-0.10958 0,-0.14337 -0.0338,-0.0338 -0.10959,0.0338 -0.14338,0 -0.0676,-0.0676 0.0428,-0.20127 0,-0.28676 -0.0302,-0.0604 -0.11315,-0.0829 -0.14338,-0.14338 -0.0427,-0.0855 0.0676,-0.21916 0,-0.28675 -0.0338,-0.0338 -0.10958,0.0338 -0.14338,0 -0.0717,-0.0717 0.0717,-0.35845 0,-0.43014 -0.0338,-0.0338 -0.10958,0.0338 -0.14337,0 -0.0338,-0.0338 0.0214,-0.10063 0,-0.14337 -0.0302,-0.0605 -0.11315,-0.0829 -0.14338,-0.14338 -0.0428,-0.0855 0.0676,-0.21917 0,-0.28676 -0.0338,-0.0338 -0.10958,0.0338 -0.14338,0 -0.0293,-0.0293 0.0284,-0.37328 0,-0.43013 -0.0605,-0.12091 -0.2263,-0.16585 -0.28675,-0.28675 -0.0389,-0.0778 0.0392,-0.53428 0,-0.57351 -0.0338,-0.0338 -0.10959,0.0338 -0.14338,0 -0.005,-0.005 0,-0.39536 0,-0.43014 0,-0.71689 0,-1.43377 0,-2.15066 0,-0.90806 0,-1.81612 0,-2.72418 0,-0.47792 0,-0.95585 0,-1.43377 0,-0.0478 0,-0.0956 0,-0.14338 0,-0.0478 -0.0338,-0.10958 0,-0.14338 0.0338,-0.0338 0.10958,0.0338 0.14338,0 0.0676,-0.0676 -0.0676,-0.21916 0,-0.28675 0.0338,-0.0338 0.10958,0.0338 0.14337,0 0.0717,-0.0717 -0.0717,-0.35845 0,-0.43014 0.0338,-0.0338 0.10959,0.0338 0.14338,0 0.0293,-0.0293 -0.0284,-0.37328 0,-0.43013 0.29835,-0.5967 -0.01,0.15328 0.28676,-0.14338 0.0717,-0.0717 -0.0717,-0.35844 0,-0.43013 0.19117,-0.19117 0.14337,0.23896 0.14337,-0.14338 0,-0.0478 0,-0.0956 0,-0.14337 0,-0.0478 -0.0338,-0.10959 0,-0.14338 0.0338,-0.0338 0.10959,0.0338 0.14338,0 0.0338,-0.0338 -0.0338,-0.10959 0,-0.14338 0.0338,-0.0338 0.10959,0.0338 0.14338,0 0.0338,-0.0338 -0.0338,-0.10958 0,-0.14338 0.0338,-0.0338 0.10958,0.0338 0.14338,0 0.0478,-0.0478 -0.0478,-0.23892 0,-0.28675 0.0338,-0.0338 0.10958,0.0338 0.14338,0 0.0676,-0.0676 -0.0676,-0.21917 0,-0.28676 0.0338,-0.0338 0.10958,0.0338 0.14337,0 0.0338,-0.0338 -0.0338,-0.10958 0,-0.14338 0.0338,-0.0338 0.10959,0.0338 0.14338,0 0.0676,-0.0676 -0.0676,-0.21916 0,-0.28675 0.0338,-0.0338 0.10958,0.0338 0.14338,0 0.0676,-0.0676 -0.0676,-0.21917 0,-0.28676 0.19117,-0.19117 0.14338,0.23897 0.14338,-0.14337"
           style="fill:none;stroke:#000000;stroke-width:1px;stroke-linecap:butt;stroke-linejoin:miter;stroke-opacity:1" />
        <path
           inkscape:connector-curvature="0"
           id="path14771"
           d="m 418.66264,808.76362 c 0.23896,0.0956 0.49619,0.15433 0.71688,0.28675 0.041,0.0246 0,0.0956 0,0.14338 0.0478,0.0478 0.0829,0.11315 0.14338,0.14338 0.0855,0.0427 0.21917,-0.0676 0.28676,0 0.0338,0.0338 -0.0338,0.10958 0,0.14337 0.0338,0.0338 0.10063,-0.0214 0.14337,0 0.0605,0.0302 0.0829,0.11315 0.14338,0.14338 0.0428,0.0214 0.0956,0 0.14338,0 0.0478,0.0478 0.0829,0.11315 0.14338,0.14338 0.0427,0.0214 0.10958,-0.0338 0.14337,0 0.0338,0.0338 -0.0338,0.10958 0,0.14338 0.0676,0.0676 0.20127,-0.0427 0.28676,0 0.0604,0.0302 0.0829,0.11315 0.14338,0.14337 0.0855,0.0428 0.21916,-0.0676 0.28675,0 0.0338,0.0338 -0.0338,0.10959 0,0.14338 0.0338,0.0338 0.10063,-0.0214 0.14338,0 0.0605,0.0302 0.0829,0.11315 0.14338,0.14338 0.0427,0.0214 0.10958,-0.0338 0.14338,0 0.0338,0.0338 -0.0338,0.10958 0,0.14338 0.0293,0.0293 0.37328,-0.0284 0.43013,0 0.0605,0.0302 0.0829,0.11315 0.14338,0.14337 0.0855,0.0427 0.21916,-0.0676 0.28675,0 0.0338,0.0338 -0.0338,0.10959 0,0.14338 0.0293,0.0293 0.37329,-0.0284 0.43013,0 0.0605,0.0302 0.0829,0.11315 0.14338,0.14338 0.0519,0.0259 0.61716,0 0.71689,0 0.0478,0 0.10958,-0.0338 0.14338,0 0.0338,0.0338 -0.0427,0.122 0,0.14338 0.0901,0.045 0.48339,-0.0451 0.57351,0 0.0605,0.0302 0.0829,0.11315 0.14338,0.14337 0.0427,0.0214 0.10958,-0.0338 0.14337,0 0.0338,0.0338 -0.0338,0.10959 0,0.14338 0.0392,0.0392 0.49573,-0.0389 0.57351,0 0.0605,0.0302 0.0829,0.11315 0.14338,0.14338 0.0377,0.0188 0.49854,0 0.57351,0 0.38234,0 0.76468,0 1.14702,0 0.52572,0 1.05144,0 1.57716,0 0.0478,0 0.0956,0 0.14337,0 0.0478,0 0.10959,0.0338 0.14338,0 0.0338,-0.0338 -0.0428,-0.122 0,-0.14338 0.088,-0.044 0.62801,0.0444 0.71689,0 0.0605,-0.0302 0.0829,-0.11315 0.14338,-0.14338 0.099,-0.0495 0.66656,0.0503 0.71688,0 0.0338,-0.0338 -0.0338,-0.10958 0,-0.14337 0.006,-0.006 0.52086,0 0.57352,0 0.14337,0 0.30189,0.0641 0.43013,0 0.0428,-0.0214 -0.0338,-0.10959 0,-0.14338 0.0345,-0.0345 0.53901,0.0345 0.57351,0 0.0338,-0.0338 -0.0338,-0.10958 0,-0.14338 0.0717,-0.0717 0.35844,0.0717 0.43013,0 0.0338,-0.0338 -0.0338,-0.10958 0,-0.14338 0.0717,-0.0717 0.35845,0.0717 0.43013,0 0.0338,-0.0338 -0.0338,-0.10958 0,-0.14337 0.0345,-0.0345 0.53901,0.0345 0.57351,0 0.0338,-0.0338 -0.0338,-0.10959 0,-0.14338 0.0717,-0.0717 0.35845,0.0717 0.43014,0 0.0338,-0.0338 -0.0338,-0.10958 0,-0.14338 0.005,-0.005 0.39536,0 0.43013,0 0.38234,0 -0.0478,0.0478 0.14338,-0.14338 0.0503,-0.0503 0.61785,0.0495 0.71689,0 0.0605,-0.0302 0.0829,-0.11315 0.14337,-0.14337 0.099,-0.0495 0.66656,0.0503 0.71689,0 0.0338,-0.0338 -0.0338,-0.10959 0,-0.14338 0.0338,-0.0338 0.10959,0.0338 0.14338,0 0.19117,-0.19117 -0.23896,-0.14338 0.14338,-0.14338"
           style="fill:none;stroke:#000000;stroke-width:1px;stroke-linecap:butt;stroke-linejoin:miter;stroke-opacity:1" />
      </g>
    </g>
  </g>
</svg>
