<?xml version="1.0" encoding="UTF-8" standalone="no"?>
<!-- Created with Inkscape (http://www.inkscape.org/) -->

<svg
   xmlns:dc="http://purl.org/dc/elements/1.1/"
   xmlns:cc="http://creativecommons.org/ns#"
   xmlns:rdf="http://www.w3.org/1999/02/22-rdf-syntax-ns#"
   xmlns:svg="http://www.w3.org/2000/svg"
   xmlns="http://www.w3.org/2000/svg"
   xmlns:sodipodi="http://sodipodi.sourceforge.net/DTD/sodipodi-0.dtd"
   xmlns:inkscape="http://www.inkscape.org/namespaces/inkscape"
   width="64px"
   height="64px"
   id="svg8132"
   version="1.1"
   inkscape:version="0.48.2 r9819"
   sodipodi:docname="35.svg">
  <defs
     id="defs8134">
    <marker
       inkscape:stockid="Arrow2Mend"
       orient="auto"
       refY="0"
       refX="0"
       id="Arrow2Mend"
       style="overflow:visible">
      <path
         inkscape:connector-curvature="0"
         id="path4109"
         style="font-size:12px;fill-rule:evenodd;stroke-width:0.625;stroke-linejoin:round"
         d="M 8.7185878,4.0337352 -2.2072895,0.01601326 8.7185884,-4.0017078 c -1.7454984,2.3720609 -1.7354408,5.6174519 -6e-7,8.035443 z"
         transform="scale(-0.6,-0.6)" />
    </marker>
    <marker
       inkscape:stockid="Arrow1Lend"
       orient="auto"
       refY="0"
       refX="0"
       id="Arrow1Lend"
       style="overflow:visible">
      <path
         inkscape:connector-curvature="0"
         id="path4085"
         d="M 0,0 5,-5 -12.5,0 5,5 0,0 z"
         style="fill-rule:evenodd;stroke:#000000;stroke-width:1pt;marker-start:none"
         transform="matrix(-0.8,0,0,-0.8,-10,0)" />
    </marker>
    <marker
       inkscape:stockid="Arrow1Lend"
       orient="auto"
       refY="0"
       refX="0"
       id="Arrow1Lend-1"
       style="overflow:visible">
      <path
         inkscape:connector-curvature="0"
         id="path4085-8"
         d="M 0,0 5,-5 -12.5,0 5,5 0,0 z"
         style="fill-rule:evenodd;stroke:#000000;stroke-width:1pt;marker-start:none"
         transform="matrix(-0.8,0,0,-0.8,-10,0)" />
    </marker>
    <marker
       inkscape:stockid="Arrow1Lend"
       orient="auto"
       refY="0"
       refX="0"
       id="Arrow1Lend-3"
       style="overflow:visible">
      <path
         inkscape:connector-curvature="0"
         id="path4085-5"
         d="M 0,0 5,-5 -12.5,0 5,5 0,0 z"
         style="fill-rule:evenodd;stroke:#000000;stroke-width:1pt;marker-start:none"
         transform="matrix(-0.8,0,0,-0.8,-10,0)" />
    </marker>
    <marker
       inkscape:stockid="Arrow1Lend"
       orient="auto"
       refY="0"
       refX="0"
       id="Arrow1Lend-9"
       style="overflow:visible">
      <path
         inkscape:connector-curvature="0"
         id="path4085-9"
         d="M 0,0 5,-5 -12.5,0 5,5 0,0 z"
         style="fill-rule:evenodd;stroke:#000000;stroke-width:1pt;marker-start:none"
         transform="matrix(-0.8,0,0,-0.8,-10,0)" />
    </marker>
    <marker
       inkscape:stockid="Arrow1Lend"
       orient="auto"
       refY="0"
       refX="0"
       id="Arrow1Lend-8"
       style="overflow:visible">
      <path
         inkscape:connector-curvature="0"
         id="path4085-1"
         d="M 0,0 5,-5 -12.5,0 5,5 0,0 z"
         style="fill-rule:evenodd;stroke:#000000;stroke-width:1pt;marker-start:none"
         transform="matrix(-0.8,0,0,-0.8,-10,0)" />
    </marker>
    <marker
       inkscape:stockid="Arrow2Lstart"
       orient="auto"
       refY="0"
       refX="0"
       id="Arrow2Lstart"
       style="overflow:visible">
      <path
         inkscape:connector-curvature="0"
         id="path4100"
         style="font-size:12px;fill-rule:evenodd;stroke-width:0.625;stroke-linejoin:round"
         d="M 8.7185878,4.0337352 -2.2072895,0.01601326 8.7185884,-4.0017078 c -1.7454984,2.3720609 -1.7354408,5.6174519 -6e-7,8.035443 z"
         transform="matrix(1.1,0,0,1.1,1.1,0)" />
    </marker>
    <marker
       inkscape:stockid="Arrow2Lend"
       orient="auto"
       refY="0"
       refX="0"
       id="Arrow2Lend"
       style="overflow:visible">
      <path
         inkscape:connector-curvature="0"
         id="path4103"
         style="font-size:12px;fill-rule:evenodd;stroke-width:0.625;stroke-linejoin:round"
         d="M 8.7185878,4.0337352 -2.2072895,0.01601326 8.7185884,-4.0017078 c -1.7454984,2.3720609 -1.7354408,5.6174519 -6e-7,8.035443 z"
         transform="matrix(-1.1,0,0,-1.1,-1.1,0)" />
    </marker>
  </defs>
  <sodipodi:namedview
     id="base"
     pagecolor="#ffffff"
     bordercolor="#666666"
     borderopacity="1.0"
     inkscape:pageopacity="0.0"
     inkscape:pageshadow="2"
     inkscape:zoom="1.375"
     inkscape:cx="9.090909"
     inkscape:cy="-17.454546"
     inkscape:current-layer="g8448"
     showgrid="true"
     inkscape:document-units="px"
     inkscape:grid-bbox="true"
     inkscape:window-width="469"
     inkscape:window-height="425"
     inkscape:window-x="11"
     inkscape:window-y="14"
     inkscape:window-maximized="0" />
  <metadata
     id="metadata8137">
    <rdf:RDF>
      <cc:Work
         rdf:about="">
        <dc:format>image/svg+xml</dc:format>
        <dc:type
           rdf:resource="http://purl.org/dc/dcmitype/StillImage" />
        <dc:title></dc:title>
      </cc:Work>
    </rdf:RDF>
  </metadata>
  <g
     id="layer1"
     inkscape:label="Layer 1"
     inkscape:groupmode="layer">
    <g
       transform="matrix(0.55247495,0,0,0.60122047,-182.28609,-1028.5381)"
       id="g8448">
      <g
         id="g13709">
        <path
           inkscape:connector-curvature="0"
           id="path12870-1"
           d="m 359.78552,1738.5753 c 0.0863,-0.3171 -0.0863,-1.0306 0.25882,-0.9513 0.34508,0.08 -0.57697,1.0975 -0.25882,0.9513 0.44994,-0.2066 0.4974,-0.8046 0.77645,-1.1891 -0.0259,-0.4712 0.38122,-0.1131 0.51762,-0.2379 0.0863,-0.08 -0.0863,-0.3963 0,-0.4757 0.061,-0.056 0.18166,0.035 0.25882,0 0.32738,-0.1497 0.44907,-0.563 0.77645,-0.7134 0.1544,-0.072 0.36329,0.072 0.51762,0 0.0771,-0.035 0,-0.158 0,-0.2378 0.17249,0 0.35393,0.05 0.51763,0 0.80784,-0.2475 -0.0863,-0.158 0.25882,-0.4757 0.061,-0.057 0.17249,0 0.2588,0 0.17249,-0.08 0.38123,-0.1131 0.51763,-0.2379 0.061,-0.056 -0.061,-0.1817 0,-0.2378 0.061,-0.057 0.18166,0.035 0.25882,0 1.18449,-0.5442 -1.09826,0.098 0.77643,-0.4755 0.16363,-0.05 0.35395,0.05 0.51764,0 0.18301,-0.057 0.33047,-0.195 0.51763,-0.2379 0.16743,-0.038 0.36329,0.072 0.51762,0 0.0771,-0.035 -0.0771,-0.2024 0,-0.2378 0.15602,-0.072 1.21665,0.072 1.29406,0 0.061,-0.057 -0.061,-0.1818 0,-0.2379 0.0402,-0.037 0.67575,0.032 0.77646,0 0.18301,-0.057 0.33462,-0.1818 0.51763,-0.2378 0.0818,-0.025 0.1978,0.057 0.2588,0 0.061,-0.057 -0.061,-0.1818 0,-0.2379 0.061,-0.057 0.1725,0 0.25882,0 0.25076,0 1.39856,0.047 1.55288,0 0.18301,-0.057 0.33048,-0.1948 0.51764,-0.2378 0.25108,-0.058 0.51763,0 0.77643,0 0.6039,0 1.2078,0 1.8117,0 0.30208,0 1.35096,-0.047 1.55289,0 0.18715,0.043 0.33047,0.1949 0.51763,0.2378 0.16743,0.038 0.35393,-0.05 0.51762,0 0.11566,0.035 0.14299,0.2024 0.25881,0.2379 0.16363,0.05 0.34509,0 0.51764,0 0.0863,0 0.18165,-0.035 0.25881,0 0.85838,0.7887 -0.24401,-0.1115 0.51762,0.2378 0.10915,0.05 0.14969,0.1876 0.25882,0.2379 0.16272,0.075 0.87258,-0.075 1.03525,0 0.10914,0.05 0.14969,0.1876 0.25882,0.2378 0.10262,0.047 0.72352,-0.048 0.77645,0 0.061,0.057 -0.061,0.1816 0,0.2379 0.061,0.056 0.18163,-0.035 0.25881,0 0.10915,0.05 0.14969,0.1876 0.2588,0.2377 0.0771,0.035 0.17703,-0.025 0.25882,0 0.18301,0.056 0.33462,0.1817 0.51764,0.2378 0.16362,0.05 0.39561,-0.1114 0.51761,0 0.061,0.057 -0.061,0.1818 0,0.2378 0.061,0.057 0.18166,-0.035 0.25882,0 0.10914,0.05 0.14969,0.1878 0.25882,0.2379 0.16036,0.073 0.95868,-0.07 1.03525,0 0.061,0.057 -0.061,0.1818 0,0.2378 0.12199,0.1115 0.36331,-0.072 0.51763,0 0.10915,0.05 0.14969,0.1877 0.25882,0.2379 0.0771,0.035 0.1978,-0.057 0.25881,0 0.061,0.057 -0.061,0.1818 0,0.2378 0.12942,0.1198 0.64704,-0.1197 0.77644,0 0.061,0.057 -0.061,0.1818 0,0.2379 0.12199,0.1114 0.36331,-0.072 0.51763,0 0.21826,0.1 0.29938,0.3752 0.51762,0.4755 0.15439,0.072 0.36331,-0.072 0.51763,0 0.10915,0.05 0.14969,0.1878 0.25882,0.2379 0.1544,0.072 0.39562,-0.1115 0.51763,0 0.061,0.056 -0.061,0.1818 0,0.2378 0.122,0.1115 0.35394,-0.05 0.51762,0 0.18301,0.057 0.33462,0.1818 0.51764,0.2379 0.16362,0.05 0.39561,-0.1115 0.51763,0 0.061,0.056 -0.061,0.1818 0,0.2378 0.12942,0.1198 0.64703,-0.1197 0.77643,0 0.5355,0.492 -0.8183,-0.02 0.25882,0.4757 0.10263,0.047 0.72353,-0.048 0.77643,0 0.061,0.057 -0.061,0.1817 0,0.2379 0.12942,0.1181 0.64704,-0.1198 0.77645,0 0.061,0.057 -0.061,0.1816 0,0.2377 0.122,0.1114 0.39562,-0.1115 0.51762,0 0.061,0.056 -0.061,0.1818 0,0.2378 0.061,0.057 0.18166,-0.035 0.25882,0 0.10914,0.05 0.14969,0.1878 0.25882,0.2379 0.15439,0.072 0.36331,-0.072 0.51763,0 0.10914,0.05 0.14969,0.1877 0.25882,0.2378 0.0771,0.035 0.18163,-0.035 0.2588,0 0.10914,0.05 0.14969,0.1876 0.25881,0.2379 0.10263,0.046 0.72353,-0.048 0.77645,0 0.061,0.056 -0.061,0.1818 0,0.2378 0.0554,0.052 0.89257,-0.043 1.03526,0 0.17249,0.08 0.34508,0.158 0.51763,0.2379 0,0.08 -0.061,0.1818 0,0.2378 0.0708,0.065 0.89485,-0.065 1.03525,0 0.10915,0.05 0.14969,0.1876 0.25882,0.2377 0.0681,0.032 0.89991,0 1.03525,0 0.77643,0 1.55288,0 2.32932,0 0.51763,0 1.03526,0 1.55288,0 0.0863,0 0.1725,0 0.25882,0 0.0863,0 0.18165,0.035 0.25882,0 0.10914,-0.05 0.14969,-0.1876 0.25881,-0.2377 0.0771,-0.035 0.1978,0.057 0.25882,0 0.061,-0.057 -0.0771,-0.2024 0,-0.2378 0.1544,-0.072 0.34508,0 0.51762,0 0.0863,0 0.19781,0.057 0.25881,0 0.061,-0.057 -0.061,-0.1818 0,-0.2379 0.12942,-0.1181 0.64704,0.1198 0.77645,0 0.061,-0.056 -0.0771,-0.2024 0,-0.2378 0.1544,-0.072 0.3633,0.072 0.51762,0 0.0771,-0.035 -0.061,-0.1818 0,-0.2379 0.0862,-0.08 0.43148,0.08 0.51763,0 0.061,-0.056 -0.061,-0.1818 0,-0.2378 0.12942,-0.1198 0.64704,0.1197 0.77644,0 0.5355,-0.492 -0.8183,0.02 0.25882,-0.4757 0.16272,-0.075 0.87258,0.075 1.03526,0 0.10915,-0.05 0.14969,-0.1877 0.2588,-0.2377 0.1544,-0.072 0.39562,0.1114 0.51764,0 0.061,-0.057 -0.061,-0.1818 0,-0.2379 0.0862,-0.08 0.43147,0.08 0.51763,0 0,-0.6342 -0.0863,0.08 0.2588,-0.2378 0.061,-0.057 -0.061,-0.1818 0,-0.2379 0.122,-0.1114 0.36331,0.072 0.51764,0 0.10914,-0.05 0.14969,-0.1878 0.25881,-0.2378 0.0771,-0.035 0.1978,0.056 0.25882,0 0.061,-0.057 -0.061,-0.1818 0,-0.2379 0.0862,-0.08 0.43139,0.08 0.51762,0 0.061,-0.056 -0.061,-0.1818 0,-0.2378 0.12199,-0.1115 0.39563,0.1114 0.51763,0 0.061,-0.057 -0.061,-0.1818 0,-0.2379 0.122,-0.1114 0.36331,0.072 0.51763,0 0.10915,-0.05 0.14969,-0.1876 0.25882,-0.2378 0.1544,-0.071 0.39562,0.1131 0.51762,0 0.061,-0.057 -0.061,-0.1816 0,-0.2377 0.34508,-0.3172 0.25881,0.3964 0.25881,-0.2379"
           style="fill:none;stroke:#ff0000;stroke-width:1.73510921px;stroke-linecap:butt;stroke-linejoin:miter;stroke-opacity:1" />
        <path
           inkscape:connector-curvature="0"
           id="path12870-6"
           d="m 325.62207,1760.4556 c 0.0863,-0.317 -0.0863,-1.0306 0.25882,-0.9512 0.34509,0.08 -0.57697,1.0974 -0.25882,0.9512 0.44994,-0.2066 0.4974,-0.8045 0.77646,-1.1891 -0.0259,-0.4712 0.38121,-0.1131 0.51761,-0.2378 0.0863,-0.08 -0.0863,-0.3964 0,-0.4757 0.061,-0.057 0.18166,0.035 0.25882,0 0.32738,-0.1497 0.44907,-0.5631 0.77645,-0.7134 0.1544,-0.072 0.36329,0.072 0.51762,0 0.0771,-0.035 0,-0.158 0,-0.2379 0.17249,0 0.35393,0.05 0.51763,0 0.80784,-0.2475 -0.0863,-0.158 0.25882,-0.4757 0.061,-0.057 0.17249,0 0.2588,0 0.17249,-0.08 0.38123,-0.1131 0.51763,-0.2378 0.061,-0.057 -0.061,-0.1818 0,-0.2379 0.061,-0.056 0.18166,0.035 0.25882,0 1.18449,-0.5442 -1.09826,0.098 0.77643,-0.4755 0.16363,-0.05 0.35396,0.05 0.51764,0 0.18301,-0.057 0.33047,-0.1949 0.51763,-0.2379 0.16743,-0.038 0.36329,0.072 0.51762,0 0.0771,-0.035 -0.0771,-0.2024 0,-0.2378 0.15602,-0.072 1.21665,0.072 1.29406,0 0.061,-0.057 -0.061,-0.1818 0,-0.2379 0.0402,-0.037 0.67575,0.032 0.77646,0 0.18301,-0.057 0.33462,-0.1818 0.51763,-0.2378 0.0818,-0.025 0.1978,0.056 0.2588,0 0.061,-0.057 -0.061,-0.1818 0,-0.2379 0.061,-0.056 0.1725,0 0.25882,0 0.25076,0 1.39856,0.047 1.55288,0 0.18301,-0.056 0.33048,-0.1947 0.51764,-0.2378 0.25108,-0.058 0.51763,0 0.77643,0 0.6039,0 1.2078,0 1.8117,0 0.30208,0 1.35096,-0.047 1.55289,0 0.18715,0.043 0.33047,0.1949 0.51763,0.2378 0.16743,0.038 0.35394,-0.05 0.51762,0 0.11566,0.035 0.14299,0.2025 0.25881,0.2379 0.16363,0.05 0.34509,0 0.51764,0 0.0863,0 0.18165,-0.035 0.25882,0 0.85837,0.7887 -0.24402,-0.1114 0.51761,0.2378 0.10915,0.05 0.14969,0.1877 0.25882,0.2379 0.16272,0.075 0.87258,-0.075 1.03525,0 0.10914,0.05 0.14969,0.1876 0.25882,0.2378 0.10263,0.047 0.72352,-0.048 0.77645,0 0.061,0.057 -0.061,0.1817 0,0.2379 0.061,0.057 0.18164,-0.035 0.25882,0 0.10914,0.05 0.14969,0.1876 0.25879,0.2377 0.0771,0.035 0.17703,-0.025 0.25882,0 0.18301,0.056 0.33462,0.1818 0.51764,0.2378 0.16362,0.05 0.39562,-0.1114 0.51761,0 0.061,0.057 -0.061,0.1818 0,0.2379 0.061,0.056 0.18166,-0.035 0.25882,0 0.10914,0.05 0.14969,0.1878 0.25882,0.2378 0.16037,0.073 0.95868,-0.07 1.03525,0 0.061,0.057 -0.061,0.1818 0,0.2379 0.12199,0.1114 0.36331,-0.072 0.51763,0 0.10915,0.05 0.14969,0.1876 0.25882,0.2378 0.0771,0.035 0.1978,-0.057 0.25882,0 0.061,0.057 -0.061,0.1818 0,0.2379 0.12941,0.1197 0.64703,-0.1198 0.77643,0 0.061,0.057 -0.061,0.1818 0,0.2378 0.122,0.1115 0.36331,-0.072 0.51763,0 0.21826,0.1 0.29938,0.3753 0.51762,0.4756 0.1544,0.072 0.36331,-0.072 0.51763,0 0.10915,0.05 0.14969,0.1877 0.25882,0.2378 0.1544,0.071 0.39562,-0.1114 0.51764,0 0.061,0.057 -0.061,0.1818 0,0.2379 0.12199,0.1114 0.35393,-0.05 0.51761,0 0.18301,0.057 0.33462,0.1818 0.51764,0.2378 0.16362,0.05 0.39562,-0.1114 0.51763,0 0.061,0.057 -0.061,0.1818 0,0.2379 0.12942,0.1197 0.64703,-0.1198 0.77643,0 0.5355,0.492 -0.8183,-0.02 0.25882,0.4757 0.10263,0.046 0.72353,-0.048 0.77643,0 0.061,0.056 -0.061,0.1816 0,0.2378 0.12942,0.1181 0.64704,-0.1198 0.77646,0 0.061,0.057 -0.061,0.1816 0,0.2377 0.12199,0.1114 0.39562,-0.1115 0.51761,0 0.061,0.057 -0.061,0.1818 0,0.2378 0.061,0.057 0.18166,-0.035 0.25882,0 0.10914,0.05 0.14969,0.1878 0.25882,0.2379 0.15439,0.072 0.36331,-0.072 0.51763,0 0.10915,0.05 0.14969,0.1878 0.25882,0.2378 0.0771,0.035 0.18163,-0.035 0.2588,0 0.10914,0.05 0.14969,0.1877 0.25881,0.2379 0.10263,0.047 0.72353,-0.048 0.77646,0 0.061,0.056 -0.061,0.1818 0,0.2378 0.0554,0.052 0.89256,-0.043 1.03525,0 0.17249,0.08 0.34508,0.158 0.51763,0.2379 0,0.08 -0.061,0.1818 0,0.2378 0.0708,0.065 0.89485,-0.065 1.03525,0 0.10915,0.05 0.14969,0.1877 0.25882,0.2377 0.0681,0.032 0.89991,0 1.03525,0 0.77643,0 1.55288,0 2.32932,0 0.51763,0 1.03527,0 1.55288,0 0.0863,0 0.1725,0 0.25882,0 0.0863,0 0.18165,0.035 0.25882,0 0.10914,-0.05 0.14969,-0.1876 0.25881,-0.2377 0.0771,-0.035 0.1978,0.057 0.25882,0 0.061,-0.057 -0.0771,-0.2024 0,-0.2378 0.1544,-0.072 0.34508,0 0.51762,0 0.0863,0 0.19782,0.056 0.25881,0 0.061,-0.057 -0.061,-0.1818 0,-0.2379 0.12942,-0.1181 0.64704,0.1198 0.77646,0 0.061,-0.056 -0.0771,-0.2024 0,-0.2378 0.15439,-0.072 0.36329,0.072 0.51761,0 0.0771,-0.035 -0.061,-0.1818 0,-0.2379 0.0862,-0.08 0.43148,0.08 0.51764,0 0.061,-0.056 -0.061,-0.1818 0,-0.2378 0.12941,-0.1198 0.64703,0.1197 0.77643,0 0.5355,-0.492 -0.8183,0.02 0.25882,-0.4757 0.16272,-0.075 0.87258,0.075 1.03526,0 0.10915,-0.05 0.1497,-0.1876 0.2588,-0.2377 0.1544,-0.072 0.39562,0.1114 0.51764,0 0.061,-0.056 -0.061,-0.1818 0,-0.2378 0.0862,-0.08 0.43147,0.08 0.51763,0 0,-0.6343 -0.0863,0.08 0.2588,-0.2379 0.061,-0.057 -0.061,-0.1818 0,-0.2378 0.122,-0.1115 0.36331,0.072 0.51764,0 0.10914,-0.05 0.14969,-0.1878 0.25881,-0.2379 0.0771,-0.035 0.1978,0.057 0.25882,0 0.061,-0.057 -0.061,-0.1818 0,-0.2378 0.0862,-0.08 0.43139,0.08 0.51762,0 0.061,-0.057 -0.061,-0.1818 0,-0.2379 0.12199,-0.1114 0.39563,0.1114 0.51763,0 0.061,-0.057 -0.061,-0.1818 0,-0.2378 0.122,-0.1115 0.36331,0.072 0.51764,0 0.10914,-0.05 0.14969,-0.1877 0.25881,-0.2379 0.1544,-0.072 0.39562,0.1131 0.51762,0 0.061,-0.056 -0.061,-0.1816 0,-0.2377 0.34508,-0.3172 0.25882,0.3964 0.25882,-0.2378"
           style="fill:none;stroke:#ff0000;stroke-width:1.73510921px;stroke-linecap:butt;stroke-linejoin:miter;stroke-opacity:1" />
        <path
           inkscape:connector-curvature="0"
           id="path12870-7"
           d="m 355.90332,1777.5793 c 0.0863,-0.3171 -0.0863,-1.0306 0.25882,-0.9513 0.34508,0.08 -0.57697,1.0975 -0.25882,0.9513 0.44994,-0.2066 0.4974,-0.8046 0.77645,-1.1891 -0.0259,-0.4712 0.38121,-0.1131 0.51762,-0.2379 0.0863,-0.08 -0.0863,-0.3963 0,-0.4757 0.061,-0.056 0.18165,0.035 0.25882,0 0.32738,-0.1497 0.44907,-0.563 0.77645,-0.7134 0.15439,-0.072 0.36329,0.072 0.51761,0 0.0771,-0.035 0,-0.158 0,-0.2378 0.1725,0 0.35394,0.05 0.51764,0 0.80783,-0.2475 -0.0863,-0.158 0.25881,-0.4757 0.061,-0.057 0.1725,0 0.2588,0 0.1725,-0.08 0.38123,-0.1131 0.51764,-0.2379 0.061,-0.057 -0.061,-0.1818 0,-0.2378 0.061,-0.057 0.18165,0.035 0.25881,0 1.18449,-0.5442 -1.09825,0.098 0.77644,-0.4755 0.16363,-0.05 0.35395,0.05 0.51763,0 0.18302,-0.057 0.33048,-0.195 0.51764,-0.2379 0.16743,-0.038 0.36329,0.072 0.51761,0 0.0771,-0.035 -0.0771,-0.2024 0,-0.2378 0.15603,-0.072 1.21666,0.072 1.29407,0 0.061,-0.057 -0.061,-0.1818 0,-0.2379 0.0402,-0.037 0.67574,0.032 0.77645,0 0.18302,-0.056 0.33462,-0.1818 0.51764,-0.2378 0.0818,-0.025 0.1978,0.056 0.2588,0 0.061,-0.057 -0.061,-0.1818 0,-0.2379 0.061,-0.056 0.17249,0 0.25881,0 0.25077,0 1.39856,0.047 1.55289,0 0.18301,-0.056 0.33047,-0.1948 0.51763,-0.2378 0.25109,-0.058 0.51764,0 0.77644,0 0.6039,0 1.2078,0 1.8117,0 0.30207,0 1.35095,-0.047 1.55288,0 0.18716,0.043 0.33048,0.1949 0.51764,0.2378 0.16743,0.038 0.35393,-0.05 0.51761,0 0.11566,0.035 0.143,0.2024 0.25882,0.2379 0.16363,0.05 0.34508,0 0.51763,0 0.0863,0 0.18166,-0.035 0.25882,0 0.85838,0.7887 -0.24401,-0.1115 0.51762,0.2378 0.10914,0.05 0.14969,0.1876 0.25881,0.2379 0.16273,0.075 0.87259,-0.075 1.03526,0 0.10914,0.05 0.14969,0.1876 0.25881,0.2378 0.10263,0.047 0.72353,-0.048 0.77645,0 0.061,0.057 -0.061,0.1816 0,0.2379 0.061,0.056 0.18164,-0.035 0.25882,0 0.10915,0.05 0.14969,0.1876 0.2588,0.2376 0.0771,0.035 0.17702,-0.025 0.25882,0 0.18301,0.057 0.33462,0.1818 0.51763,0.2379 0.16363,0.05 0.39562,-0.1114 0.51762,0 0.061,0.056 -0.061,0.1818 0,0.2378 0.061,0.057 0.18165,-0.035 0.25882,0 0.10914,0.05 0.14969,0.1878 0.25881,0.2379 0.16037,0.073 0.95869,-0.07 1.03525,0 0.061,0.057 -0.061,0.1818 0,0.2378 0.122,0.1115 0.36331,-0.072 0.51764,0 0.10914,0.05 0.14969,0.1877 0.25881,0.2379 0.0771,0.035 0.19781,-0.057 0.25882,0 0.061,0.057 -0.061,0.1818 0,0.2378 0.12942,0.1198 0.64704,-0.1197 0.77644,0 0.061,0.057 -0.061,0.1818 0,0.2379 0.12199,0.1114 0.36331,-0.071 0.51763,0 0.21825,0.1 0.29938,0.3752 0.51762,0.4755 0.15439,0.072 0.36331,-0.071 0.51763,0 0.10915,0.05 0.14969,0.1878 0.25882,0.2379 0.15439,0.072 0.39562,-0.1115 0.51763,0 0.061,0.056 -0.061,0.1818 0,0.2378 0.122,0.1115 0.35394,-0.05 0.51762,0 0.18301,0.057 0.33462,0.1818 0.51763,0.2379 0.16363,0.05 0.39562,-0.1115 0.51764,0 0.061,0.057 -0.061,0.1818 0,0.2378 0.12941,0.1198 0.64703,-0.1197 0.77643,0 0.5355,0.492 -0.8183,-0.02 0.25882,0.4757 0.10263,0.047 0.72352,-0.048 0.77643,0 0.061,0.057 -0.061,0.1817 0,0.2379 0.12942,0.1181 0.64703,-0.1198 0.77645,0 0.061,0.056 -0.061,0.1816 0,0.2377 0.122,0.1114 0.39562,-0.1115 0.51762,0 0.061,0.056 -0.061,0.1818 0,0.2378 0.061,0.057 0.18165,-0.035 0.25882,0 0.10914,0.05 0.14969,0.1878 0.25881,0.2379 0.1544,0.072 0.36331,-0.072 0.51764,0 0.10914,0.05 0.14969,0.1877 0.25881,0.2378 0.0771,0.035 0.18164,-0.035 0.2588,0 0.10915,0.05 0.14969,0.1876 0.25882,0.2379 0.10263,0.047 0.72353,-0.048 0.77645,0 0.061,0.057 -0.061,0.1818 0,0.2378 0.0554,0.052 0.89257,-0.043 1.03525,0 0.1725,0.08 0.34509,0.158 0.51764,0.2379 0,0.08 -0.061,0.1817 0,0.2378 0.0708,0.065 0.89484,-0.065 1.03525,0 0.10914,0.05 0.14969,0.1876 0.25881,0.2377 0.0681,0.032 0.89992,0 1.03525,0 0.77644,0 1.55289,0 2.32932,0 0.51764,0 1.03527,0 1.55289,0 0.0863,0 0.17249,0 0.25881,0 0.0863,0 0.18166,0.035 0.25882,0 0.10915,-0.05 0.14969,-0.1876 0.25882,-0.2377 0.0771,-0.035 0.1978,0.057 0.25882,0 0.061,-0.056 -0.0771,-0.2024 0,-0.2378 0.15439,-0.072 0.34508,0 0.51761,0 0.0863,0 0.19782,0.056 0.25882,0 0.061,-0.057 -0.061,-0.1818 0,-0.2379 0.12942,-0.1181 0.64703,0.1198 0.77645,0 0.061,-0.056 -0.0771,-0.2024 0,-0.2378 0.1544,-0.072 0.36329,0.072 0.51762,0 0.0771,-0.035 -0.061,-0.1818 0,-0.2379 0.0862,-0.08 0.43147,0.08 0.51763,0 0.061,-0.057 -0.061,-0.1818 0,-0.2378 0.12942,-0.1198 0.64704,0.1197 0.77644,0 0.53549,-0.492 -0.8183,0.02 0.25881,-0.4757 0.16272,-0.075 0.87258,0.075 1.03527,0 0.10915,-0.05 0.14969,-0.1877 0.2588,-0.2377 0.1544,-0.072 0.39562,0.1114 0.51763,0 0.061,-0.057 -0.061,-0.1818 0,-0.2379 0.0862,-0.08 0.43148,0.08 0.51764,0 0,-0.6342 -0.0863,0.08 0.2588,-0.2378 0.061,-0.057 -0.061,-0.1818 0,-0.2379 0.12199,-0.1114 0.36331,0.072 0.51763,0 0.10915,-0.05 0.14969,-0.1878 0.25882,-0.2378 0.0771,-0.035 0.1978,0.057 0.25882,0 0.061,-0.057 -0.061,-0.1818 0,-0.2379 0.0861,-0.08 0.43138,0.08 0.51761,0 0.061,-0.057 -0.061,-0.1818 0,-0.2378 0.122,-0.1115 0.39564,0.1114 0.51764,0 0.061,-0.057 -0.061,-0.1818 0,-0.2379 0.12199,-0.1114 0.36331,0.072 0.51763,0 0.10915,-0.05 0.14969,-0.1876 0.25882,-0.2378 0.15439,-0.072 0.39562,0.1131 0.51761,0 0.061,-0.057 -0.061,-0.1817 0,-0.2377 0.34509,-0.3172 0.25882,0.3964 0.25882,-0.2379"
           style="fill:none;stroke:#ff0000;stroke-width:1.73510921px;stroke-linecap:butt;stroke-linejoin:miter;stroke-opacity:1" />
        <path
           inkscape:connector-curvature="0"
           id="path12870-54"
           d="m 324.83567,1798.0297 c 0.0863,-0.3171 -0.0863,-1.0306 0.25881,-0.9513 0.34509,0.08 -0.57696,1.0975 -0.25881,0.9513 0.44994,-0.2066 0.4974,-0.8046 0.77645,-1.1891 -0.0259,-0.4712 0.38121,-0.1131 0.51762,-0.2379 0.0863,-0.08 -0.0863,-0.3963 0,-0.4757 0.061,-0.057 0.18165,0.035 0.25881,0 0.32738,-0.1497 0.44907,-0.563 0.77645,-0.7134 0.1544,-0.072 0.3633,0.072 0.51762,0 0.0771,-0.035 0,-0.158 0,-0.2378 0.1725,0 0.35393,0.05 0.51763,0 0.80784,-0.2475 -0.0863,-0.158 0.25882,-0.4757 0.061,-0.057 0.1725,0 0.2588,0 0.1725,-0.08 0.38123,-0.1131 0.51764,-0.2379 0.061,-0.057 -0.061,-0.1817 0,-0.2378 0.061,-0.057 0.18165,0.035 0.25881,0 1.18449,-0.5442 -1.09826,0.098 0.77644,-0.4755 0.16362,-0.05 0.35395,0.05 0.51763,0 0.18301,-0.057 0.33048,-0.195 0.51763,-0.2379 0.16743,-0.038 0.3633,0.072 0.51762,0 0.0771,-0.035 -0.0771,-0.2024 0,-0.2378 0.15603,-0.072 1.21665,0.072 1.29407,0 0.061,-0.057 -0.061,-0.1818 0,-0.2379 0.0402,-0.037 0.67574,0.032 0.77645,0 0.18301,-0.056 0.33462,-0.1818 0.51763,-0.2378 0.0818,-0.025 0.1978,0.056 0.2588,0 0.061,-0.057 -0.061,-0.1818 0,-0.2379 0.061,-0.056 0.1725,0 0.25882,0 0.25076,0 1.39856,0.047 1.55289,0 0.18301,-0.056 0.33047,-0.1948 0.51763,-0.2378 0.25109,-0.058 0.51763,0 0.77643,0 0.6039,0 1.2078,0 1.8117,0 0.30208,0 1.35096,-0.047 1.55289,0 0.18716,0.043 0.33048,0.1949 0.51763,0.2378 0.16743,0.038 0.35394,-0.05 0.51762,0 0.11566,0.035 0.14299,0.2024 0.25882,0.2379 0.16362,0.05 0.34508,0 0.51763,0 0.0863,0 0.18166,-0.035 0.25882,0 0.85837,0.7887 -0.24401,-0.1115 0.51762,0.2378 0.10914,0.05 0.14969,0.1876 0.25881,0.2379 0.16272,0.075 0.87258,-0.075 1.03525,0 0.10915,0.05 0.14969,0.1876 0.25882,0.2378 0.10263,0.047 0.72353,-0.048 0.77645,0 0.061,0.057 -0.061,0.1816 0,0.2379 0.061,0.057 0.18164,-0.035 0.25882,0 0.10914,0.05 0.14969,0.1876 0.2588,0.2376 0.0771,0.035 0.17702,-0.025 0.25881,0 0.18302,0.057 0.33463,0.1818 0.51764,0.2379 0.16363,0.05 0.39562,-0.1114 0.51762,0 0.061,0.057 -0.061,0.1818 0,0.2378 0.061,0.057 0.18165,-0.035 0.25881,0 0.10915,0.05 0.14969,0.1878 0.25882,0.2379 0.16037,0.073 0.95869,-0.07 1.03525,0 0.061,0.057 -0.061,0.1818 0,0.2378 0.122,0.1115 0.36331,-0.072 0.51763,0 0.10915,0.05 0.14969,0.1877 0.25882,0.2379 0.0771,0.035 0.1978,-0.057 0.25882,0 0.061,0.056 -0.061,0.1818 0,0.2378 0.12942,0.1198 0.64703,-0.1197 0.77643,0 0.061,0.057 -0.061,0.1818 0,0.2379 0.122,0.1114 0.36331,-0.072 0.51764,0 0.21825,0.1 0.29938,0.3752 0.51761,0.4755 0.1544,0.072 0.36331,-0.072 0.51764,0 0.10914,0.05 0.14969,0.1878 0.25881,0.2379 0.1544,0.072 0.39562,-0.1115 0.51764,0 0.061,0.057 -0.061,0.1818 0,0.2378 0.122,0.1115 0.35393,-0.05 0.51761,0 0.18302,0.057 0.33463,0.1818 0.51764,0.2379 0.16363,0.05 0.39562,-0.1115 0.51763,0 0.061,0.056 -0.061,0.1818 0,0.2378 0.12942,0.1198 0.64704,-0.1197 0.77644,0 0.5355,0.492 -0.8183,-0.02 0.25881,0.4757 0.10263,0.047 0.72353,-0.048 0.77644,0 0.061,0.057 -0.061,0.1817 0,0.2379 0.12942,0.1181 0.64703,-0.1198 0.77645,0 0.061,0.056 -0.061,0.1816 0,0.2377 0.122,0.1114 0.39562,-0.1115 0.51762,0 0.061,0.057 -0.061,0.1818 0,0.2378 0.061,0.057 0.18165,-0.035 0.25881,0 0.10915,0.05 0.14969,0.1878 0.25882,0.2379 0.1544,0.072 0.36331,-0.072 0.51763,0 0.10915,0.05 0.14969,0.1877 0.25882,0.2378 0.0771,0.035 0.18164,-0.035 0.2588,0 0.10915,0.05 0.14969,0.1876 0.25882,0.2379 0.10263,0.046 0.72352,-0.048 0.77645,0 0.061,0.056 -0.061,0.1818 0,0.2378 0.0554,0.052 0.89256,-0.043 1.03525,0 0.1725,0.08 0.34508,0.158 0.51763,0.2379 0,0.08 -0.061,0.1818 0,0.2378 0.0708,0.065 0.89485,-0.065 1.03525,0 0.10915,0.05 0.14969,0.1876 0.25882,0.2377 0.0681,0.032 0.89992,0 1.03525,0 0.77644,0 1.55289,0 2.32932,0 0.51763,0 1.03527,0 1.55289,0 0.0863,0 0.17249,0 0.25881,0 0.0863,0 0.18166,0.035 0.25882,0 0.10914,-0.05 0.14969,-0.1876 0.25882,-0.2377 0.0771,-0.035 0.1978,0.057 0.25881,0 0.061,-0.056 -0.0771,-0.2024 0,-0.2378 0.1544,-0.072 0.34509,0 0.51762,0 0.0863,0 0.19782,0.056 0.25882,0 0.061,-0.057 -0.061,-0.1818 0,-0.2379 0.12941,-0.1181 0.64703,0.1198 0.77645,0 0.061,-0.056 -0.0771,-0.2024 0,-0.2378 0.15439,-0.072 0.36329,0.072 0.51761,0 0.0771,-0.035 -0.061,-0.1818 0,-0.2379 0.0862,-0.08 0.43148,0.08 0.51764,0 0.061,-0.056 -0.061,-0.1818 0,-0.2378 0.12942,-0.1198 0.64703,0.1197 0.77643,0 0.5355,-0.492 -0.8183,0.02 0.25882,-0.4757 0.16272,-0.075 0.87258,0.075 1.03527,0 0.10914,-0.05 0.14969,-0.1877 0.2588,-0.2377 0.15439,-0.072 0.39562,0.1114 0.51763,0 0.061,-0.057 -0.061,-0.1818 0,-0.2379 0.0862,-0.08 0.43148,0.08 0.51764,0 0,-0.6342 -0.0863,0.08 0.2588,-0.2378 0.061,-0.057 -0.061,-0.1818 0,-0.2379 0.12199,-0.1114 0.36331,0.072 0.51763,0 0.10914,-0.05 0.14969,-0.1878 0.25882,-0.2378 0.0771,-0.035 0.1978,0.056 0.25881,0 0.061,-0.057 -0.061,-0.1818 0,-0.2379 0.0862,-0.08 0.43139,0.08 0.51762,0 0.061,-0.057 -0.061,-0.1818 0,-0.2378 0.122,-0.1115 0.39564,0.1114 0.51763,0 0.061,-0.057 -0.061,-0.1818 0,-0.2379 0.122,-0.1114 0.36331,0.072 0.51764,0 0.10914,-0.05 0.14969,-0.1876 0.25882,-0.2378 0.15439,-0.072 0.39562,0.1131 0.51761,0 0.061,-0.057 -0.061,-0.1817 0,-0.2377 0.34509,-0.3172 0.25882,0.3964 0.25882,-0.2379"
           style="fill:none;stroke:#ff0000;stroke-width:1.73510921px;stroke-linecap:butt;stroke-linejoin:miter;stroke-opacity:1" />
        <path
           inkscape:connector-curvature="0"
           id="path12870-12"
           d="m 394.98422,1760.4556 c 0.0863,-0.317 -0.0863,-1.0306 0.25882,-0.9512 0.34508,0.08 -0.57697,1.0974 -0.25882,0.9512 0.44994,-0.2066 0.4974,-0.8045 0.77645,-1.1891 -0.0259,-0.4712 0.38122,-0.1131 0.51762,-0.2378 0.0863,-0.08 -0.0863,-0.3964 0,-0.4757 0.061,-0.057 0.18166,0.035 0.25882,0 0.32738,-0.1497 0.44907,-0.5631 0.77645,-0.7134 0.1544,-0.072 0.36329,0.072 0.51762,0 0.0771,-0.035 0,-0.158 0,-0.2379 0.17249,0 0.35393,0.05 0.51763,0 0.80784,-0.2475 -0.0863,-0.158 0.25882,-0.4757 0.061,-0.057 0.17249,0 0.2588,0 0.17249,-0.08 0.38123,-0.1131 0.51763,-0.2378 0.061,-0.057 -0.061,-0.1818 0,-0.2379 0.061,-0.056 0.18166,0.035 0.25882,0 1.18449,-0.5442 -1.09826,0.098 0.77643,-0.4755 0.16363,-0.05 0.35395,0.05 0.51764,0 0.18301,-0.057 0.33047,-0.1949 0.51763,-0.2379 0.16743,-0.038 0.36329,0.072 0.51762,0 0.0771,-0.035 -0.0771,-0.2024 0,-0.2378 0.15602,-0.072 1.21665,0.072 1.29406,0 0.061,-0.057 -0.061,-0.1818 0,-0.2379 0.0402,-0.037 0.67574,0.032 0.77646,0 0.18301,-0.057 0.33462,-0.1818 0.51763,-0.2378 0.0818,-0.025 0.1978,0.056 0.2588,0 0.061,-0.057 -0.061,-0.1818 0,-0.2379 0.061,-0.056 0.1725,0 0.25882,0 0.25076,0 1.39856,0.047 1.55288,0 0.18301,-0.056 0.33048,-0.1947 0.51763,-0.2378 0.25109,-0.058 0.51764,0 0.77644,0 0.6039,0 1.2078,0 1.8117,0 0.30208,0 1.35096,-0.047 1.55289,0 0.18715,0.043 0.33047,0.1949 0.51763,0.2378 0.16743,0.038 0.35393,-0.05 0.51762,0 0.11566,0.035 0.14299,0.2025 0.25881,0.2379 0.16363,0.05 0.34509,0 0.51764,0 0.0863,0 0.18165,-0.035 0.25881,0 0.85838,0.7887 -0.24401,-0.1114 0.51762,0.2378 0.10915,0.05 0.14969,0.1877 0.25882,0.2379 0.16272,0.075 0.87258,-0.075 1.03525,0 0.10914,0.05 0.14969,0.1876 0.25882,0.2378 0.10262,0.047 0.72352,-0.048 0.77645,0 0.061,0.057 -0.061,0.1817 0,0.2379 0.061,0.057 0.18163,-0.035 0.25881,0 0.10915,0.05 0.14969,0.1876 0.2588,0.2377 0.0771,0.035 0.17702,-0.025 0.25882,0 0.18301,0.056 0.33462,0.1818 0.51763,0.2378 0.16363,0.05 0.39562,-0.1114 0.51762,0 0.061,0.057 -0.061,0.1818 0,0.2379 0.061,0.056 0.18166,-0.035 0.25882,0 0.10914,0.05 0.14969,0.1878 0.25882,0.2378 0.16036,0.073 0.95868,-0.07 1.03525,0 0.061,0.057 -0.061,0.1818 0,0.2379 0.12199,0.1114 0.36331,-0.072 0.51763,0 0.10915,0.05 0.14969,0.1876 0.25882,0.2378 0.0771,0.035 0.1978,-0.057 0.25881,0 0.061,0.057 -0.061,0.1818 0,0.2379 0.12942,0.1197 0.64704,-0.1198 0.77644,0 0.061,0.057 -0.061,0.1818 0,0.2378 0.12199,0.1115 0.36331,-0.072 0.51763,0 0.21826,0.1 0.29938,0.3753 0.51762,0.4756 0.15439,0.072 0.36331,-0.072 0.51763,0 0.10915,0.05 0.14969,0.1877 0.25882,0.2378 0.1544,0.071 0.39562,-0.1114 0.51763,0 0.061,0.057 -0.061,0.1818 0,0.2379 0.122,0.1114 0.35394,-0.05 0.51762,0 0.18301,0.057 0.33462,0.1818 0.51763,0.2378 0.16363,0.05 0.39562,-0.1114 0.51764,0 0.061,0.057 -0.061,0.1818 0,0.2379 0.12942,0.1197 0.64703,-0.1198 0.77643,0 0.5355,0.492 -0.8183,-0.02 0.25882,0.4757 0.10263,0.046 0.72353,-0.048 0.77643,0 0.061,0.056 -0.061,0.1816 0,0.2378 0.12942,0.1181 0.64704,-0.1198 0.77645,0 0.061,0.057 -0.061,0.1816 0,0.2377 0.122,0.1114 0.39562,-0.1115 0.51762,0 0.061,0.057 -0.061,0.1818 0,0.2378 0.061,0.057 0.18166,-0.035 0.25882,0 0.10914,0.05 0.14969,0.1878 0.25881,0.2379 0.1544,0.072 0.36332,-0.072 0.51764,0 0.10914,0.05 0.14969,0.1878 0.25882,0.2378 0.0771,0.035 0.18163,-0.035 0.2588,0 0.10914,0.05 0.14969,0.1877 0.25881,0.2379 0.10263,0.047 0.72353,-0.048 0.77645,0 0.061,0.056 -0.061,0.1818 0,0.2378 0.0554,0.052 0.89257,-0.043 1.03525,0 0.1725,0.08 0.34509,0.158 0.51764,0.2379 0,0.08 -0.061,0.1818 0,0.2378 0.0708,0.065 0.89485,-0.065 1.03525,0 0.10914,0.05 0.14969,0.1877 0.25882,0.2377 0.068,0.032 0.89991,0 1.03525,0 0.77643,0 1.55288,0 2.32932,0 0.51763,0 1.03526,0 1.55288,0 0.0863,0 0.1725,0 0.25882,0 0.0863,0 0.18165,0.035 0.25881,0 0.10915,-0.05 0.14969,-0.1876 0.25882,-0.2377 0.0771,-0.035 0.1978,0.057 0.25882,0 0.061,-0.057 -0.0771,-0.2024 0,-0.2378 0.1544,-0.072 0.34508,0 0.51762,0 0.0863,0 0.19781,0.056 0.25881,0 0.061,-0.057 -0.061,-0.1818 0,-0.2379 0.12942,-0.1181 0.64704,0.1198 0.77645,0 0.061,-0.056 -0.0771,-0.2024 0,-0.2378 0.1544,-0.072 0.3633,0.072 0.51762,0 0.0771,-0.035 -0.061,-0.1818 0,-0.2379 0.0862,-0.08 0.43148,0.08 0.51763,0 0.061,-0.056 -0.061,-0.1818 0,-0.2378 0.12942,-0.1198 0.64704,0.1197 0.77644,0 0.5355,-0.492 -0.8183,0.02 0.25882,-0.4757 0.16272,-0.075 0.87258,0.075 1.03526,0 0.10915,-0.05 0.14969,-0.1876 0.2588,-0.2377 0.1544,-0.072 0.39562,0.1114 0.51764,0 0.061,-0.056 -0.061,-0.1818 0,-0.2378 0.0861,-0.08 0.43147,0.08 0.51763,0 0,-0.6343 -0.0863,0.08 0.2588,-0.2379 0.061,-0.057 -0.061,-0.1818 0,-0.2378 0.122,-0.1115 0.36331,0.072 0.51763,0 0.10915,-0.05 0.14969,-0.1878 0.25882,-0.2379 0.0771,-0.035 0.1978,0.057 0.25882,0 0.061,-0.057 -0.061,-0.1818 0,-0.2378 0.0862,-0.08 0.43139,0.08 0.51762,0 0.061,-0.057 -0.061,-0.1818 0,-0.2379 0.12199,-0.1114 0.39563,0.1114 0.51763,0 0.061,-0.057 -0.061,-0.1818 0,-0.2378 0.122,-0.1115 0.36331,0.072 0.51763,0 0.10915,-0.05 0.14969,-0.1877 0.25882,-0.2379 0.1544,-0.072 0.39562,0.1131 0.51762,0 0.061,-0.056 -0.061,-0.1816 0,-0.2377 0.34508,-0.3172 0.25881,0.3964 0.25881,-0.2378"
           style="fill:none;stroke:#ff0000;stroke-width:1.73510921px;stroke-linecap:butt;stroke-linejoin:miter;stroke-opacity:1" />
        <path
           inkscape:connector-curvature="0"
           id="path12870-0"
           d="m 396.01616,1798.0297 c 0.0863,-0.3171 -0.0863,-1.0306 0.25882,-0.9513 0.34508,0.08 -0.57697,1.0975 -0.25882,0.9513 0.44994,-0.2066 0.4974,-0.8046 0.77645,-1.1891 -0.0259,-0.4712 0.38121,-0.1131 0.51762,-0.2379 0.0863,-0.08 -0.0863,-0.3963 0,-0.4757 0.061,-0.057 0.18165,0.035 0.25882,0 0.32738,-0.1497 0.44907,-0.563 0.77645,-0.7134 0.15439,-0.072 0.36329,0.072 0.51761,0 0.0771,-0.035 0,-0.158 0,-0.2378 0.1725,0 0.35394,0.05 0.51764,0 0.80784,-0.2475 -0.0863,-0.158 0.25882,-0.4757 0.061,-0.057 0.17249,0 0.25879,0 0.1725,-0.08 0.38123,-0.1131 0.51764,-0.2379 0.061,-0.057 -0.061,-0.1817 0,-0.2378 0.061,-0.057 0.18165,0.035 0.25882,0 1.18448,-0.5442 -1.09826,0.098 0.77643,-0.4755 0.16363,-0.05 0.35395,0.05 0.51763,0 0.18302,-0.057 0.33048,-0.195 0.51764,-0.2379 0.16743,-0.038 0.36329,0.072 0.51761,0 0.0771,-0.035 -0.0771,-0.2024 0,-0.2378 0.15603,-0.072 1.21666,0.072 1.29407,0 0.061,-0.057 -0.061,-0.1818 0,-0.2379 0.0402,-0.037 0.67574,0.032 0.77645,0 0.18302,-0.056 0.33462,-0.1818 0.51764,-0.2378 0.0818,-0.025 0.1978,0.056 0.2588,0 0.061,-0.057 -0.061,-0.1818 0,-0.2379 0.061,-0.056 0.17249,0 0.25881,0 0.25077,0 1.39856,0.047 1.55289,0 0.18301,-0.056 0.33048,-0.1948 0.51763,-0.2378 0.25109,-0.058 0.51764,0 0.77644,0 0.6039,0 1.2078,0 1.8117,0 0.30208,0 1.35096,-0.047 1.55288,0 0.18716,0.043 0.33048,0.1949 0.51764,0.2378 0.16743,0.038 0.35393,-0.05 0.51761,0 0.11567,0.035 0.143,0.2024 0.25882,0.2379 0.16363,0.05 0.34508,0 0.51764,0 0.0863,0 0.18165,-0.035 0.25881,0 0.85838,0.7887 -0.24401,-0.1115 0.51762,0.2378 0.10914,0.05 0.14969,0.1876 0.25882,0.2379 0.16272,0.075 0.87258,-0.075 1.03525,0 0.10914,0.05 0.14969,0.1876 0.25881,0.2378 0.10263,0.047 0.72353,-0.048 0.77646,0 0.061,0.057 -0.061,0.1816 0,0.2379 0.061,0.057 0.18163,-0.035 0.25881,0 0.10915,0.05 0.14969,0.1876 0.2588,0.2376 0.0771,0.035 0.17702,-0.025 0.25882,0 0.18301,0.057 0.33462,0.1818 0.51763,0.2379 0.16363,0.05 0.39562,-0.1114 0.51762,0 0.061,0.057 -0.061,0.1818 0,0.2378 0.061,0.057 0.18165,-0.035 0.25882,0 0.10914,0.05 0.14969,0.1878 0.25881,0.2379 0.16037,0.073 0.95869,-0.07 1.03525,0 0.061,0.057 -0.061,0.1818 0,0.2378 0.122,0.1115 0.36331,-0.072 0.51764,0 0.10914,0.05 0.14969,0.1877 0.25882,0.2379 0.0771,0.035 0.1978,-0.057 0.25881,0 0.061,0.056 -0.061,0.1818 0,0.2378 0.12942,0.1198 0.64704,-0.1197 0.77644,0 0.061,0.057 -0.061,0.1818 0,0.2379 0.12199,0.1114 0.36331,-0.072 0.51763,0 0.21825,0.1 0.29938,0.3752 0.51762,0.4755 0.15439,0.072 0.36331,-0.072 0.51763,0 0.10915,0.05 0.14969,0.1878 0.25882,0.2379 0.15439,0.072 0.39562,-0.1115 0.51763,0 0.061,0.057 -0.061,0.1818 0,0.2378 0.122,0.1115 0.35394,-0.05 0.51762,0 0.18301,0.057 0.33462,0.1818 0.51763,0.2379 0.16363,0.05 0.39562,-0.1115 0.51764,0 0.061,0.056 -0.061,0.1818 0,0.2378 0.12941,0.1198 0.64703,-0.1197 0.77643,0 0.5355,0.492 -0.8183,-0.02 0.25882,0.4757 0.10263,0.047 0.72352,-0.048 0.77643,0 0.061,0.057 -0.061,0.1817 0,0.2379 0.12942,0.1181 0.64703,-0.1198 0.77645,0 0.061,0.056 -0.061,0.1816 0,0.2377 0.122,0.1114 0.39562,-0.1115 0.51762,0 0.061,0.057 -0.061,0.1818 0,0.2378 0.061,0.057 0.18165,-0.035 0.25882,0 0.10914,0.05 0.14969,0.1878 0.25881,0.2379 0.1544,0.072 0.36331,-0.072 0.51764,0 0.10914,0.05 0.14969,0.1877 0.25881,0.2378 0.0771,0.035 0.18164,-0.035 0.2588,0 0.10915,0.05 0.14969,0.1876 0.25882,0.2379 0.10263,0.046 0.72353,-0.048 0.77645,0 0.061,0.056 -0.061,0.1818 0,0.2378 0.0554,0.052 0.89257,-0.043 1.03525,0 0.1725,0.08 0.34509,0.158 0.51764,0.2379 0,0.08 -0.061,0.1818 0,0.2378 0.0708,0.065 0.89484,-0.065 1.03525,0 0.10914,0.05 0.14969,0.1876 0.25881,0.2377 0.0681,0.032 0.89992,0 1.03526,0 0.77643,0 1.55288,0 2.32931,0 0.51764,0 1.03527,0 1.55289,0 0.0863,0 0.1725,0 0.25882,0 0.0863,0 0.18165,0.035 0.25881,0 0.10915,-0.05 0.14969,-0.1876 0.25882,-0.2377 0.0771,-0.035 0.1978,0.057 0.25882,0 0.061,-0.056 -0.0771,-0.2024 0,-0.2378 0.15439,-0.072 0.34508,0 0.51761,0 0.0863,0 0.19782,0.056 0.25882,0 0.061,-0.057 -0.061,-0.1818 0,-0.2379 0.12942,-0.1181 0.64703,0.1198 0.77645,0 0.061,-0.056 -0.0771,-0.2024 0,-0.2378 0.1544,-0.072 0.36329,0.072 0.51762,0 0.0771,-0.035 -0.061,-0.1818 0,-0.2379 0.0862,-0.08 0.43147,0.08 0.51763,0 0.061,-0.056 -0.061,-0.1818 0,-0.2378 0.12942,-0.1198 0.64704,0.1197 0.77644,0 0.5355,-0.492 -0.8183,0.02 0.25881,-0.4757 0.16273,-0.075 0.87259,0.075 1.03527,0 0.10915,-0.05 0.14969,-0.1877 0.2588,-0.2377 0.1544,-0.072 0.39562,0.1114 0.51764,0 0.061,-0.057 -0.061,-0.1818 0,-0.2379 0.0862,-0.08 0.43147,0.08 0.51763,0 0,-0.6342 -0.0863,0.08 0.2588,-0.2378 0.061,-0.057 -0.061,-0.1818 0,-0.2379 0.122,-0.1114 0.36331,0.072 0.51763,0 0.10915,-0.05 0.14969,-0.1878 0.25882,-0.2378 0.0771,-0.035 0.1978,0.056 0.25882,0 0.061,-0.057 -0.061,-0.1818 0,-0.2379 0.0862,-0.08 0.43138,0.08 0.51761,0 0.061,-0.057 -0.061,-0.1818 0,-0.2378 0.122,-0.1115 0.39564,0.1114 0.51764,0 0.061,-0.057 -0.061,-0.1818 0,-0.2379 0.12199,-0.1114 0.36331,0.072 0.51763,0 0.10915,-0.05 0.14969,-0.1876 0.25882,-0.2378 0.1544,-0.072 0.39562,0.1131 0.51762,0 0.061,-0.057 -0.061,-0.1817 0,-0.2377 0.34508,-0.3172 0.25881,0.3964 0.25881,-0.2379"
           style="fill:none;stroke:#ff0000;stroke-width:1.73510921px;stroke-linecap:butt;stroke-linejoin:miter;stroke-opacity:1" />
      </g>
    </g>
  </g>
</svg>
